<?xml version="1.0" encoding="utf-8"?>
<!-- Generator: Adobe Illustrator 19.0.0, SVG Export Plug-In . SVG Version: 6.00 Build 0)  -->
<svg version="1.1" id="Layer_4" xmlns="http://www.w3.org/2000/svg" xmlns:xlink="http://www.w3.org/1999/xlink" x="0px" y="0px"
	 viewBox="0 0 202.7 147.1" style="enable-background:new 0 0 202.7 147.1;" xml:space="preserve">
<style type="text/css">
	.st0{stroke:#000000;stroke-width:0.35;}
	.st1{fill:#FFFFFF;}
</style>
<g id="XMLID_100_">
	<path id="XMLID_101_" class="st0" d="M198.4,52c-2.1,0-3.8-1.7-3.8-3.8c0-2.1,1.7-3.8,3.8-3.8c2.1,0,3.8,1.7,3.8,3.8
		C202.3,50.3,200.5,52,198.4,52z M194.8,48.1c0,2,1.6,3.6,3.6,3.6s3.6-1.6,3.6-3.6s-1.6-3.6-3.6-3.6
		C196.4,44.6,194.8,46.2,194.8,48.1z M196.8,46.6L196.8,46.6l-0.7,0.3l-0.1-0.4l0.8-0.4h0.4v4h-0.5V46.6z M199.7,50.1v-1H198v-0.3
		l1.7-2.6h0.4v2.5h0.5v0.4h-0.5v1H199.7z M199.7,48.7v-1.4c0-0.2,0-0.4,0-0.6h0c-0.1,0.2-0.2,0.3-0.3,0.5l-1,1.4v0H199.7z"/>
</g>
<g id="XMLID_4_">
	<path id="XMLID_26_" d="M132.6,44.5V17.8c0.1-8,0-15.2-5.5-17.2V0v0.6c-1-0.3-2.1-0.6-3.4-0.6c-3.2,0-56.9,0-56.9,0
		C33.5,0,0,32.9,0,73.5S33.5,147,66.8,147v-26.4c6.3-0.1,12.3-2.1,17.6-5.4v22.9v9h94.2l0,0l0,0c6,0,14.2-2.9,18.9-17
		c2.8-8.2,4.1-19.4,4.1-34.1c0-15.1-1.3-26.4-4-34.5c-4.9-14.7-14-16.9-19-16.9h-46L132.6,44.5L132.6,44.5z M66.4,111.8
		c-17.1-0.3-30.9-17.3-30.9-38.2c0-20.9,13.8-37.9,30.9-38.2V111.8z M97,44.5c-7.1-10.8-18.1-17.8-30.2-18V6.7
		c21.8,0,43.4,15.5,53.9,37.9L97,44.5L97,44.5L97,44.5z"/>
	<g id="XMLID_14_">
		<polygon id="XMLID_25_" class="st1" points="86.1,71.2 93.5,71.2 93.5,138.1 102.7,138.1 102.7,53.5 88.1,53.5 		"/>
		<path id="XMLID_22_" class="st1" d="M128,53.5h-9.9l-12.5,54v13.8h13.6v16.9h8.8v-16.9h3.3V106H128L128,53.5L128,53.5z
			 M119.2,105.9h-6.3l6.2-26.9h0.1V105.9z"/>
		<path id="XMLID_18_" class="st1" d="M147.6,53.6h-0.1c-4.4,0-7.8,3.6-10.2,10.9s-3.6,17.5-3.6,30.8c0,15.1,1.3,26,3.8,32.8
			s5.9,10.1,10.2,10.1c4.5,0,8-3.6,10.4-10.8c2.4-7.2,3.6-17.6,3.6-31.2c0-14-1.2-24.5-3.6-31.7C155.7,57.2,152.2,53.6,147.6,53.6z
			 M151.2,115.2c-0.8,3.8-2,5.7-3.7,5.7c-3.1,0-4.7-8.6-4.7-25.8c0-16.1,1.5-24.1,4.6-24.1c1.7,0,3,2.1,3.7,6.2
			c0.8,4.2,1.1,10.8,1.1,19.9C152.3,105.4,151.9,111.5,151.2,115.2z"/>
		<path id="XMLID_15_" class="st1" d="M189.1,64.4c-2.4-7.2-5.9-10.8-10.5-10.8h-0.1c-4.4,0-7.8,3.6-10.2,10.9s-3.6,17.5-3.6,30.8
			c0,15.1,1.3,26,3.8,32.8s5.9,10.1,10.2,10.1c4.5,0,8-3.6,10.4-10.8c2.4-7.2,3.6-17.6,3.6-31.2C192.7,82.2,191.5,71.6,189.1,64.4z
			 M182.3,115.2c-0.8,3.8-2,5.7-3.7,5.7c-3.1,0-4.7-8.6-4.7-25.8c0-16.1,1.5-24.1,4.6-24.1c1.7,0,3,2.1,3.7,6.2
			c0.8,4.2,1.1,10.8,1.1,19.9C183.4,105.4,183,111.5,182.3,115.2z"/>
	</g>
	<g id="XMLID_7_">
		<path id="XMLID_13_" class="st1" d="M97,44.5h23.7C110.2,22.1,88.6,6.6,66.8,6.6v19.9C79,26.7,89.9,33.7,97,44.5z"/>
		<path id="XMLID_12_" class="st1" d="M35.5,73.6c0,20.9,13.8,37.9,30.9,38.2V35.3C49.3,35.7,35.5,52.7,35.5,73.6z"/>
		<path id="XMLID_11_" class="st1" d="M66.9,147.1h17.6v-31.9c-5.3,3.4-11.3,5.3-17.6,5.4V147.1z"/>
	</g>
</g>
</svg>
