<?xml version="1.0" encoding="utf-8"?>
<!-- Generator: Adobe Illustrator 23.0.0, SVG Export Plug-In . SVG Version: 6.00 Build 0)  -->
<svg version="1.1" id="Layer_1" xmlns="http://www.w3.org/2000/svg" xmlns:xlink="http://www.w3.org/1999/xlink" x="0px" y="0px"
	 viewBox="0 0 160.9 68.6" style="enable-background:new 0 0 160.9 68.6;" xml:space="preserve">
<g id="XMLID_163_">
	<g id="XMLID_27_">
		<g id="XMLID_28_">
			<path id="XMLID_30_" d="M2.8,11.5c0-1.9,1.1-3.4,2.8-4.1V6.3c-2.3,0.8-3.8,2.7-3.8,5.2c0,3.3,2.6,5.5,5.9,5.5v-1
				C4.9,16,2.8,14.3,2.8,11.5z"/>
			<path id="XMLID_31_" d="M9.8,6.3v1.1c1.7,0.7,2.8,2.2,2.8,4.1c0,2.8-2.2,4.5-4.9,4.5v1c3.3,0,5.9-2.2,5.9-5.5
				C13.6,9.1,12.1,7.2,9.8,6.3z"/>
		</g>
		<path id="XMLID_76_" d="M9.1,1.8C8.6,1.2,8.2,0.6,7.9,0H7.9H7.5H7.4C7.2,0.6,6.8,1.2,6.3,1.8S4.7,3.6,3.6,4.2v0.8
			c1-0.2,1.9-0.9,2.2-1.1c0.4-0.3,1.1-1,1.4-1.8v10.5h0h1h0V2c0.3,0.9,0.9,1.5,1.4,1.8c0.3,0.2,1.2,0.9,2.2,1.1V4.2
			C10.6,3.6,9.6,2.5,9.1,1.8z"/>
	</g>
	<g id="XMLID_1_">
		<polygon id="XMLID_18_" points="37.4,27.6 37.4,33.2 38.4,33.2 38.4,28.6 47.7,28.6 47.7,42.1 38.4,42.1 38.4,37.5 37.4,37.5 
			37.4,43.1 48.7,43.1 48.7,27.6 		"/>
		<g id="XMLID_3_">
			<path id="XMLID_4_" d="M43.9,36.8c0.7-0.5,1.3-0.9,1.8-1.1v-0.1v-0.4v-0.1c-0.6-0.3-1.2-0.6-1.8-1.1s-1.7-1.6-2.3-2.7h-0.8
				c0.2,1,0.9,1.9,1.1,2.2c0.3,0.5,1,1.1,1.8,1.4H33.2v0v1v0h10.5c-0.9,0.3-1.5,0.9-1.8,1.4c-0.2,0.3-0.9,1.2-1.1,2.2h0.8
				C42.1,38.3,43.2,37.3,43.9,36.8z"/>
		</g>
	</g>
	<g id="XMLID_2_">
		<path id="XMLID_11_" d="M42,5.3c-2.2,0-4,1.8-4,4s1.8,3.9,4,3.9s4-1.8,4-3.9S44.2,5.3,42,5.3z M42,12.3c-1.6,0-3-1.3-3-2.9
			s1.3-2.9,3-2.9s3,1.3,3,2.9S43.7,12.3,42,12.3z"/>
		<path id="XMLID_14_" d="M47.9,5.2l-1.3-2.8H42h-4.6l-1.3,2.8H33V16h9h9V5.2H47.9z M50,15h-8h-8V6.2h2.7L38,3.4h4h4l1.3,2.8H50V15z
			"/>
		<rect id="XMLID_15_" x="33" y="2.5" width="2.4" height="1.8"/>
	</g>
	<path id="XMLID_49_" d="M79.4,9.6c0.5,0,1.1-0.7,1.4-1c0.6-0.7,0.8-1.9,0.8-3.2c-0.1-2.3-1.6-4.2-3.9-4.2s-3.8,1.9-3.9,4.2
		c-0.1,1.2,0.2,2.5,0.8,3.2c0.3,0.3,0.9,0.9,1.4,1c-2.8,0.6-5.4,4.4-5.4,6.9V17h7.2h7.2v-0.5C84.9,13.9,82.2,10.2,79.4,9.6z
		 M75.5,8.1c-0.5-0.5-0.7-1.6-0.7-2.6c0.1-1.8,1.2-3.2,2.9-3.2s2.8,1.4,2.9,3.2c0,0.9-0.2,2.1-0.7,2.6c-0.5,0.5-1.3,1-2.3,1
		S76,8.6,75.5,8.1z M77.7,16h-6.1c0.4-2.6,3.5-5.9,6.1-5.9s5.8,3.3,6.1,5.9H77.7z"/>
	<g id="XMLID_6_">
		<g id="XMLID_5_">
			<path id="XMLID_95_" d="M109.3,5.1h-4.8V0.3h4.8V5.1z M105.4,4.1h2.8V1.3h-2.8V4.1z"/>
		</g>
		<g id="XMLID_42_">
			<path id="XMLID_92_" d="M115.7,5.1h-4.8V0.3h4.8V5.1z M111.9,4.1h2.8V1.3h-2.8V4.1z"/>
		</g>
		<g id="XMLID_45_">
			<path id="XMLID_89_" d="M122.1,5.1h-4.8V0.3h4.8V5.1z M118.3,4.1h2.8V1.3h-2.8V4.1z"/>
		</g>
		<g id="XMLID_46_">
			<path id="XMLID_86_" d="M109.3,11.6h-4.8V6.7h4.8V11.6z M105.4,10.6h2.8V7.7h-2.8V10.6z"/>
		</g>
		<g id="XMLID_44_">
			<path id="XMLID_83_" d="M115.7,11.6h-4.8V6.7h4.8V11.6z M111.9,10.6h2.8V7.7h-2.8V10.6z"/>
		</g>
		<g id="XMLID_43_">
			<path id="XMLID_80_" d="M122.1,11.6h-4.8V6.7h4.8V11.6z M118.3,10.6h2.8V7.7h-2.8V10.6z"/>
		</g>
		<g id="XMLID_53_">
			<path id="XMLID_77_" d="M109.3,5.1h-4.8V0.3h4.8V5.1z M105.4,4.1h2.8V1.3h-2.8V4.1z"/>
		</g>
		<g id="XMLID_72_">
			<path id="XMLID_73_" d="M109.3,18h-4.8v-4.9h4.8V18z M105.4,17h2.8v-2.9h-2.8V17z"/>
		</g>
		<g id="XMLID_71_">
			<path id="XMLID_54_" d="M115.7,18h-4.8v-4.9h4.8V18z M111.9,17h2.8v-2.9h-2.8V17z"/>
		</g>
		<g id="XMLID_57_">
			<path id="XMLID_41_" d="M122.1,18h-4.8v-4.9h4.8V18z M118.3,17h2.8v-2.9h-2.8V17z"/>
		</g>
	</g>
	<path id="XMLID_106_" d="M141.4,3.2v11.9h18V3.2H141.4z M157.6,4.2l-7.2,5.9l-7.2-5.9H157.6z M142.4,14.1V4.8l8,7.3l8-7.3v9.3
		L142.4,14.1L142.4,14.1z"/>
	<path id="XMLID_111_" d="M14.7,41L9,36.7c0.8-0.9,1.2-2,1.2-3.3c0-2.8-2.3-5.1-5.1-5.1S0,30.6,0,33.4s2.3,5.1,5.1,5.1
		c1.2,0,2.3-0.4,3.2-1.1l5.1,4.9L14.7,41z M1,33.4c0-2.3,1.8-4.1,4.1-4.1s4.1,1.9,4.1,4.1s-1.8,4.1-4.1,4.1S1,35.7,1,33.4z"/>
	<g id="XMLID_117_">
		<path id="XMLID_120_" d="M87.9,35c0-0.1-2.6-6.5-10.2-6.5S67.4,34.9,67.4,35l-0.1,0.2l0.1,0.2c0,0.1,2.6,6.5,10.2,6.5
			s10.2-6.4,10.2-6.5l0.1-0.2L87.9,35z M68.4,35.2c0.4-0.8,2.4-4,5.8-5.2c0,0-0.8,0.5-0.8,0.5c-0.1,0.1-0.1,0.2-0.2,0.3
			c-0.1,0.1-0.1,0.1-0.2,0.2c-0.1,0.1-0.1,0.2-0.2,0.3c-0.1,0.1-0.1,0.2-0.2,0.2c-0.1,0.1-0.1,0.2-0.2,0.3c0,0.1-0.1,0.2-0.1,0.2
			c-0.1,0.1-0.1,0.2-0.2,0.3c0,0.1-0.1,0.2-0.1,0.2C72,32.7,72,32.8,72,33c0,0.1-0.1,0.2-0.1,0.2c0,0.1-0.1,0.3-0.1,0.4
			c0,0.1,0,0.2-0.1,0.3c0,0.1,0,0.3-0.1,0.4c0,0.1,0,0.2,0,0.2c0,0.2,0,0.5,0,0.7c0,0.2,0,0.5,0,0.7c0,0.1,0,0.2,0,0.2
			c0,0.1,0,0.3,0.1,0.4c0,0.1,0,0.2,0.1,0.2c0,0.1,0.1,0.3,0.1,0.4c0,0.1,0.1,0.2,0.1,0.2c0,0.1,0.1,0.3,0.1,0.4
			c0,0.1,0.1,0.2,0.1,0.2c0.1,0.1,0.1,0.2,0.2,0.3c0,0.1,0.1,0.2,0.1,0.2c0.1,0.1,0.1,0.2,0.2,0.3c0.1,0.1,0.1,0.2,0.2,0.2
			c0.1,0.1,0.1,0.2,0.2,0.3c0.1,0.1,0.1,0.2,0.2,0.2c0.1,0.1,0.1,0.2,0.2,0.2c0,0,0.8,0.4,0.8,0.4C70.6,39.2,68.8,36,68.4,35.2z
			 M72.6,35.2c0-3.1,2.3-5.6,5.1-5.6s5.1,2.5,5.1,5.6s-2.3,5.6-5.1,5.6S72.6,38.3,72.6,35.2z M81.1,40.4c0,0,0.8-0.4,0.8-0.4
			c0.1-0.1,0.1-0.2,0.2-0.2c0.1-0.1,0.1-0.2,0.2-0.2c0.1-0.1,0.1-0.2,0.2-0.3c0.1-0.1,0.1-0.2,0.2-0.2c0.1-0.1,0.1-0.2,0.2-0.3
			c0-0.1,0.1-0.2,0.1-0.2c0.1-0.1,0.1-0.2,0.2-0.3c0-0.1,0.1-0.2,0.1-0.2c0.1-0.1,0.1-0.3,0.1-0.4c0-0.1,0.1-0.2,0.1-0.2
			c0-0.1,0.1-0.3,0.1-0.4c0-0.1,0-0.2,0.1-0.2c0-0.1,0-0.3,0.1-0.4c0-0.1,0-0.2,0-0.2c0-0.2,0-0.5,0-0.7s0-0.5,0-0.7
			c0-0.1,0-0.2,0-0.2c0-0.1,0-0.3-0.1-0.4c0-0.1,0-0.2-0.1-0.3c0-0.1-0.1-0.3-0.1-0.4c0-0.1-0.1-0.2-0.1-0.2c0-0.1-0.1-0.3-0.1-0.4
			c0-0.1-0.1-0.2-0.1-0.2C83.1,32.2,83,32.1,83,32c0-0.1-0.1-0.2-0.1-0.2c-0.1-0.1-0.1-0.2-0.2-0.3c-0.1-0.1-0.1-0.2-0.2-0.2
			c-0.1-0.1-0.1-0.2-0.2-0.3c-0.1-0.1-0.1-0.1-0.2-0.2c-0.1-0.1-0.1-0.2-0.2-0.3c0,0-0.8-0.5-0.8-0.5c3.3,1.2,5.4,4.4,5.8,5.2
			C86.5,36,84.7,39.2,81.1,40.4z"/>
		<path id="XMLID_125_" d="M77.7,32c-1.6,0-2.8,1.4-2.8,3.2s1.3,3.2,2.8,3.2s2.8-1.4,2.8-3.2S79.2,32,77.7,32z M77.7,37.3
			c-1.1,0-1.9-1-1.9-2.1c0-1.2,0.9-2.1,1.9-2.1s1.9,1,1.9,2.1C79.5,36.4,78.7,37.3,77.7,37.3z"/>
	</g>
	<path id="XMLID_58_" d="M116.2,27.9h-7.5v14.8h11.1v-8.2L116.2,27.9z M115.8,29.2l2.5,4.6l-3.7-1.4
		C115.5,32.1,116.1,30.5,115.8,29.2z M109.7,41.7V28.9h5.3c-0.1,0.9-0.4,2.7-1.6,3.2l-1.2,0.5l6.5,2.5v6.7L109.7,41.7L109.7,41.7z"
		/>
	<path id="XMLID_115_" d="M160.9,33.6l-10.7-6.5l-10.4,6.5h2.4v7.8h6h5.8h4v-7.8H160.9z M150.2,28.4l7.1,4.3h-14L150.2,28.4z
		 M149.3,40.4v-3.7h3.8v3.7H149.3z M157.1,40.4h-3v-4.7h-5.8v4.7h-5v-6.8h13.8L157.1,40.4L157.1,40.4z"/>
	<g id="XMLID_128_">
		<path id="XMLID_137_" d="M39.2,54.6c0-1.5-1.2-2.6-2.6-2.6s-2.6,1.2-2.6,2.6c0,1.3,0.9,2.3,2.1,2.6v10.1h1V57.2
			C38.3,57,39.2,55.9,39.2,54.6z M36.6,56.3c-0.9,0-1.6-0.7-1.6-1.6s0.7-1.6,1.6-1.6s1.6,0.7,1.6,1.6S37.5,56.3,36.6,56.3z"/>
		<path id="XMLID_140_" d="M42.3,63.4V53h-1v10.4c-1.2,0.2-2.1,1.3-2.1,2.6c0,1.4,1.2,2.6,2.6,2.6s2.6-1.2,2.6-2.6
			C44.5,64.7,43.5,63.7,42.3,63.4z M41.8,67.6c-0.9,0-1.6-0.7-1.6-1.6s0.7-1.6,1.6-1.6s1.6,0.7,1.6,1.6S42.7,67.6,41.8,67.6z"/>
		<path id="XMLID_143_" d="M49.7,58.9c0-1.3-0.9-2.3-2.1-2.6V53h-1v3.3c-1.2,0.2-2.1,1.3-2.1,2.6s0.9,2.3,2.1,2.6v6.1h1v-6.1
			C48.8,61.3,49.7,60.2,49.7,58.9z M47.1,60.6c-0.9,0-1.6-0.7-1.6-1.6s0.7-1.6,1.6-1.6s1.6,0.7,1.6,1.6S48,60.6,47.1,60.6z"/>
	</g>
	<g id="XMLID_7_">
		<g id="XMLID_24_">
			<path id="XMLID_29_" d="M87.1,67.8H68.2L77.7,52L87.1,67.8z M70,66.8h15.3l-7.7-12.8L70,66.8z"/>
		</g>
		<g id="XMLID_9_">
			<polygon id="XMLID_26_" points="78.2,63 77.2,63 76.7,57.7 78.6,57.7 			"/>
		</g>
		<g id="XMLID_17_">
			<rect id="XMLID_25_" x="76.8" y="64" width="1.6" height="1.5"/>
		</g>
	</g>
	<path id="XMLID_98_" d="M122.4,56.5l-0.5,1.8h-2.4c-0.3-2.5-2.3-4.5-4.9-4.5s-4.7,2-4.9,4.5h-2.4l-0.5-1.8l-1,0.3l3,10.1h11.6
		l3-10.1L122.4,56.5z M114.5,54.9c2,0,3.7,1.5,3.9,3.5h-7.8C110.9,56.4,112.5,54.9,114.5,54.9z M119.6,65.9h-10.1l-2-6.6h14.1
		L119.6,65.9z"/>
</g>
</svg>
