<?xml version="1.0" encoding="utf-8"?>
<!-- Generator: Adobe Illustrator 23.0.0, SVG Export Plug-In . SVG Version: 6.00 Build 0)  -->
<svg version="1.1" id="Layer_1" xmlns="http://www.w3.org/2000/svg" xmlns:xlink="http://www.w3.org/1999/xlink" x="0px" y="0px"
	 viewBox="0 0 472.7 883.5" style="enable-background:new 0 0 472.7 883.5;" xml:space="preserve">
<style type="text/css">
	.st0{fill:#377F72;}
	.st1{fill:#FFFFFF;}
	.st2{clip-path:url(#SVGID_2_);}
	.st3{fill:#EBE6E4;}
	.st4{fill:#020202;}
	.st5{clip-path:url(#SVGID_4_);}
	.st6{clip-path:url(#SVGID_6_);}
	.st7{fill:none;stroke:#000000;stroke-miterlimit:10;}
	.st8{font-family:'ArialMT';}
	.st9{font-size:12px;}
	.st10{fill:#FFC710;}
	.st11{stroke:#000000;stroke-width:0.5;stroke-miterlimit:10;}
</style>
<g>
	<g>
		<ellipse cx="174.9" cy="455" rx="167.4" ry="117"/>
	</g>
	<g>
		<ellipse cx="174.9" cy="454" rx="167.4" ry="117"/>
	</g>
	<g>
		<ellipse cx="174.9" cy="453" rx="167.4" ry="117"/>
	</g>
	<g>
		<ellipse cx="174.9" cy="452" rx="167.4" ry="117"/>
	</g>
	<g>
		<ellipse cx="174.9" cy="451" rx="167.4" ry="117"/>
	</g>
	<g>
		<ellipse cx="174.9" cy="450" rx="167.4" ry="117"/>
	</g>
	<g>
		<ellipse cx="174.9" cy="449" rx="167.4" ry="117"/>
	</g>
	<g>
		<ellipse cx="174.9" cy="448" rx="167.4" ry="117"/>
	</g>
	<g>
		<ellipse cx="174.9" cy="447" rx="167.4" ry="117"/>
	</g>
	<g>
		<ellipse cx="174.9" cy="446" rx="167.4" ry="117"/>
	</g>
	<g>
		<ellipse cx="174.9" cy="445" rx="167.4" ry="117"/>
	</g>
	<g>
		<ellipse cx="174.9" cy="444" rx="167.4" ry="117"/>
	</g>
	<g>
		<ellipse cx="174.9" cy="443" rx="167.4" ry="117"/>
	</g>
	<g>
		<ellipse cx="174.9" cy="442" rx="167.4" ry="117"/>
	</g>
	<g>
		<ellipse cx="174.9" cy="441" rx="167.4" ry="117"/>
	</g>
	<g>
		<ellipse cx="174.9" cy="440" rx="167.4" ry="117"/>
	</g>
	<g>
		<ellipse cx="174.9" cy="439" rx="167.4" ry="117"/>
	</g>
	<g>
		<ellipse cx="174.9" cy="438" rx="167.4" ry="117"/>
	</g>
	<g>
		<ellipse cx="174.9" cy="437" rx="167.4" ry="117"/>
	</g>
	<g>
		<ellipse cx="174.9" cy="436" rx="167.4" ry="117"/>
	</g>
	<g>
		<ellipse cx="174.9" cy="435" rx="167.4" ry="117"/>
	</g>
	<g>
		<ellipse cx="174.9" cy="434" rx="167.4" ry="117"/>
	</g>
	<g>
		<ellipse cx="174.9" cy="433" rx="167.4" ry="117"/>
	</g>
	<g>
		<ellipse cx="174.9" cy="432" rx="167.4" ry="117"/>
	</g>
	<g>
		<ellipse cx="174.9" cy="431" rx="167.4" ry="117"/>
	</g>
</g>
<g>
	<g>
		<g>
			<ellipse class="st0" cx="174.9" cy="431" rx="167.4" ry="117"/>
		</g>
	</g>
</g>
<g>
	<ellipse class="st1" cx="174.9" cy="431" rx="132.2" ry="92.4"/>
</g>
<g>
	<g>
		<ellipse cx="174.9" cy="147.4" rx="167.4" ry="117"/>
	</g>
	<g>
		<ellipse cx="174.9" cy="146.4" rx="167.4" ry="117"/>
	</g>
	<g>
		<ellipse cx="174.9" cy="145.4" rx="167.4" ry="117"/>
	</g>
	<g>
		<ellipse cx="174.9" cy="144.4" rx="167.4" ry="117"/>
	</g>
	<g>
		<ellipse cx="174.9" cy="143.4" rx="167.4" ry="117"/>
	</g>
	<g>
		<ellipse cx="174.9" cy="142.4" rx="167.4" ry="117"/>
	</g>
	<g>
		<ellipse cx="174.9" cy="141.4" rx="167.4" ry="117"/>
	</g>
	<g>
		<ellipse cx="174.9" cy="140.4" rx="167.4" ry="117"/>
	</g>
	<g>
		<ellipse cx="174.9" cy="139.4" rx="167.4" ry="117"/>
	</g>
	<g>
		<ellipse cx="174.9" cy="138.4" rx="167.4" ry="117"/>
	</g>
	<g>
		<ellipse cx="174.9" cy="137.4" rx="167.4" ry="117"/>
	</g>
	<g>
		<ellipse cx="174.9" cy="136.4" rx="167.4" ry="117"/>
	</g>
	<g>
		<ellipse cx="174.9" cy="135.4" rx="167.4" ry="117"/>
	</g>
	<g>
		<ellipse cx="174.9" cy="134.4" rx="167.4" ry="117"/>
	</g>
	<g>
		<ellipse cx="174.9" cy="133.4" rx="167.4" ry="117"/>
	</g>
	<g>
		<ellipse cx="174.9" cy="132.4" rx="167.4" ry="117"/>
	</g>
	<g>
		<ellipse cx="174.9" cy="131.4" rx="167.4" ry="117"/>
	</g>
	<g>
		<ellipse cx="174.9" cy="130.4" rx="167.4" ry="117"/>
	</g>
	<g>
		<ellipse cx="174.9" cy="129.4" rx="167.4" ry="117"/>
	</g>
	<g>
		<ellipse cx="174.9" cy="128.4" rx="167.4" ry="117"/>
	</g>
	<g>
		<ellipse cx="174.9" cy="127.4" rx="167.4" ry="117"/>
	</g>
	<g>
		<ellipse cx="174.9" cy="126.4" rx="167.4" ry="117"/>
	</g>
	<g>
		<ellipse cx="174.9" cy="125.4" rx="167.4" ry="117"/>
	</g>
	<g>
		<ellipse cx="174.9" cy="124.4" rx="167.4" ry="117"/>
	</g>
	<g>
		<ellipse cx="174.9" cy="123.4" rx="167.4" ry="117"/>
	</g>
</g>
<g>
	<g>
		<g>
			<ellipse class="st0" cx="174.9" cy="123.4" rx="167.4" ry="117"/>
		</g>
	</g>
</g>
<g>
	<g>
		<g>
			<defs>
				<polygon id="SVGID_1_" points="472.7,25.3 245.5,-26.8 174.9,123.4 402.1,175.6 				"/>
			</defs>
			<clipPath id="SVGID_2_">
				<use xlink:href="#SVGID_1_"  style="overflow:visible;"/>
			</clipPath>
			<g class="st2">
				<g>
					<ellipse class="st3" cx="174.9" cy="123.4" rx="167.4" ry="117"/>
				</g>
			</g>
		</g>
	</g>
</g>
<g>
	<g>
		<rect x="7.4" y="122.9" class="st4" width="0.5" height="1"/>
	</g>
	<g>
		<path class="st4" d="M172.4,123.9h-1v-1h1V123.9z M169.4,123.9h-1v-1h1V123.9z M166.4,123.9h-1v-1h1V123.9z M163.4,123.9h-1v-1h1
			V123.9z M160.4,123.9h-1v-1h1V123.9z M157.4,123.9h-1v-1h1V123.9z M154.4,123.9h-1v-1h1V123.9z M151.4,123.9h-1v-1h1V123.9z
			 M148.5,123.9h-1v-1h1V123.9z M145.5,123.9h-1v-1h1V123.9z M142.5,123.9h-1v-1h1V123.9z M139.5,123.9h-1v-1h1V123.9z M136.5,123.9
			h-1v-1h1V123.9z M133.5,123.9h-1v-1h1V123.9z M130.5,123.9h-1v-1h1V123.9z M127.5,123.9h-1v-1h1V123.9z M124.5,123.9h-1v-1h1
			V123.9z M121.6,123.9h-1v-1h1V123.9z M118.6,123.9h-1v-1h1V123.9z M115.6,123.9h-1v-1h1V123.9z M112.6,123.9h-1v-1h1V123.9z
			 M109.6,123.9h-1v-1h1V123.9z M106.6,123.9h-1v-1h1V123.9z M103.6,123.9h-1v-1h1V123.9z M100.6,123.9h-1v-1h1V123.9z M97.6,123.9
			h-1v-1h1V123.9z M94.6,123.9h-1v-1h1V123.9z M91.7,123.9h-1v-1h1V123.9z M88.7,123.9h-1v-1h1V123.9z M85.7,123.9h-1v-1h1V123.9z
			 M82.7,123.9h-1v-1h1V123.9z M79.7,123.9h-1v-1h1V123.9z M76.7,123.9h-1v-1h1V123.9z M73.7,123.9h-1v-1h1V123.9z M70.7,123.9h-1
			v-1h1V123.9z M67.7,123.9h-1v-1h1V123.9z M64.7,123.9h-1v-1h1V123.9z M61.8,123.9h-1v-1h1V123.9z M58.8,123.9h-1v-1h1V123.9z
			 M55.8,123.9h-1v-1h1V123.9z M52.8,123.9h-1v-1h1V123.9z M49.8,123.9h-1v-1h1V123.9z M46.8,123.9h-1v-1h1V123.9z M43.8,123.9h-1
			v-1h1V123.9z M40.8,123.9h-1v-1h1V123.9z M37.8,123.9h-1v-1h1V123.9z M34.8,123.9h-1v-1h1V123.9z M31.9,123.9h-1v-1h1V123.9z
			 M28.9,123.9h-1v-1h1V123.9z M25.9,123.9h-1v-1h1V123.9z M22.9,123.9h-1v-1h1V123.9z M19.9,123.9h-1v-1h1V123.9z M16.9,123.9h-1
			v-1h1V123.9z M13.9,123.9h-1v-1h1V123.9z M10.9,123.9h-1v-1h1V123.9z"/>
	</g>
	<g>
		<rect x="174.4" y="122.9" class="st4" width="1" height="1"/>
	</g>
	<g>
		<path class="st4" d="M175.4,120.9h-1v-1h1V120.9z M175.4,117.9h-1v-1h1V117.9z M175.4,114.9h-1v-1h1V114.9z M175.4,111.9h-1v-1h1
			V111.9z M175.4,108.9h-1v-1h1V108.9z M175.4,105.9h-1v-1h1V105.9z M175.4,102.9h-1v-1h1V102.9z M175.4,99.9h-1v-1h1V99.9z
			 M175.4,96.9h-1v-1h1V96.9z M175.4,93.9h-1v-1h1V93.9z M175.4,90.9h-1v-1h1V90.9z M175.4,87.9h-1v-1h1V87.9z M175.4,84.9h-1v-1h1
			V84.9z M175.4,81.9h-1v-1h1V81.9z M175.4,78.9h-1v-1h1V78.9z M175.4,75.9h-1v-1h1V75.9z M175.4,72.9h-1v-1h1V72.9z M175.4,69.9h-1
			v-1h1V69.9z M175.4,66.9h-1v-1h1V66.9z M175.4,63.9h-1v-1h1V63.9z M175.4,60.9h-1v-1h1V60.9z M175.4,57.9h-1v-1h1V57.9z
			 M175.4,54.9h-1v-1h1V54.9z M175.4,51.9h-1v-1h1V51.9z M175.4,48.9h-1v-1h1V48.9z M175.4,45.9h-1v-1h1V45.9z M175.4,42.9h-1v-1h1
			V42.9z M175.4,39.9h-1v-1h1V39.9z M175.4,36.9h-1v-1h1V36.9z M175.4,33.9h-1v-1h1V33.9z M175.4,30.9h-1v-1h1V30.9z M175.4,27.9h-1
			v-1h1V27.9z M175.4,24.9h-1v-1h1V24.9z M175.4,21.9h-1v-1h1V21.9z M175.4,18.9h-1v-1h1V18.9z M175.4,15.9h-1v-1h1V15.9z
			 M175.4,12.9h-1v-1h1V12.9z M175.4,9.9h-1v-1h1V9.9z"/>
	</g>
	<g>
		<rect x="174.4" y="6.4" class="st4" width="1" height="0.5"/>
	</g>
</g>
<g>
	<path class="st4" d="M175.4,240.4h-1v-1h1V240.4z M175.4,237.4h-1v-1h1V237.4z M175.4,234.4h-1v-1h1V234.4z M175.4,231.4h-1v-1h1
		V231.4z M175.4,228.4h-1v-1h1V228.4z M175.4,225.4h-1v-1h1V225.4z M175.4,222.4h-1v-1h1V222.4z M175.4,219.4h-1v-1h1V219.4z
		 M175.4,216.4h-1v-1h1V216.4z M175.4,213.4h-1v-1h1V213.4z M175.4,210.4h-1v-1h1V210.4z M175.4,207.4h-1v-1h1V207.4z M175.4,204.4
		h-1v-1h1V204.4z M175.4,201.4h-1v-1h1V201.4z M175.4,198.4h-1v-1h1V198.4z M175.4,195.4h-1v-1h1V195.4z M175.4,192.4h-1v-1h1V192.4
		z M175.4,189.4h-1v-1h1V189.4z M175.4,186.4h-1v-1h1V186.4z M175.4,183.4h-1v-1h1V183.4z M175.4,180.4h-1v-1h1V180.4z M175.4,177.4
		h-1v-1h1V177.4z M175.4,174.4h-1v-1h1V174.4z M175.4,171.4h-1v-1h1V171.4z M175.4,168.4h-1v-1h1V168.4z M175.4,165.4h-1v-1h1V165.4
		z M175.4,162.4h-1v-1h1V162.4z M175.4,159.4h-1v-1h1V159.4z M175.4,156.4h-1v-1h1V156.4z M175.4,153.4h-1v-1h1V153.4z M175.4,150.4
		h-1v-1h1V150.4z M175.4,147.4h-1v-1h1V147.4z M175.4,144.4h-1v-1h1V144.4z M175.4,141.4h-1v-1h1V141.4z M175.4,138.4h-1v-1h1V138.4
		z M175.4,135.4h-1v-1h1V135.4z M175.4,132.4h-1v-1h1V132.4z M175.4,129.4h-1v-1h1V129.4z M175.4,126.4h-1v-1h1V126.4z M340.9,123.9
		h-1v-1h1V123.9z M337.9,123.9h-1v-1h1V123.9z M334.9,123.9h-1v-1h1V123.9z M331.9,123.9h-1v-1h1V123.9z M328.9,123.9h-1v-1h1V123.9
		z M325.9,123.9h-1v-1h1V123.9z M322.9,123.9h-1v-1h1V123.9z M319.9,123.9h-1v-1h1V123.9z M316.9,123.9h-1v-1h1V123.9z M313.9,123.9
		h-1v-1h1V123.9z M310.9,123.9h-1v-1h1V123.9z M307.9,123.9h-1v-1h1V123.9z M304.9,123.9h-1v-1h1V123.9z M301.9,123.9h-1v-1h1V123.9
		z M298.9,123.9h-1v-1h1V123.9z M295.9,123.9h-1v-1h1V123.9z M292.9,123.9h-1v-1h1V123.9z M289.9,123.9h-1v-1h1V123.9z M286.9,123.9
		h-1v-1h1V123.9z M283.9,123.9h-1v-1h1V123.9z M280.9,123.9h-1v-1h1V123.9z M277.9,123.9h-1v-1h1V123.9z M274.9,123.9h-1v-1h1V123.9
		z M271.9,123.9h-1v-1h1V123.9z M268.9,123.9h-1v-1h1V123.9z M265.9,123.9h-1v-1h1V123.9z M262.9,123.9h-1v-1h1V123.9z M259.9,123.9
		h-1v-1h1V123.9z M256.9,123.9h-1v-1h1V123.9z M253.9,123.9h-1v-1h1V123.9z M250.9,123.9h-1v-1h1V123.9z M247.9,123.9h-1v-1h1V123.9
		z M244.9,123.9h-1v-1h1V123.9z M241.9,123.9h-1v-1h1V123.9z M238.9,123.9h-1v-1h1V123.9z M235.9,123.9h-1v-1h1V123.9z M232.9,123.9
		h-1v-1h1V123.9z M229.9,123.9h-1v-1h1V123.9z M226.9,123.9h-1v-1h1V123.9z M223.9,123.9h-1v-1h1V123.9z M220.9,123.9h-1v-1h1V123.9
		z M217.9,123.9h-1v-1h1V123.9z M214.9,123.9h-1v-1h1V123.9z M211.9,123.9h-1v-1h1V123.9z M208.9,123.9h-1v-1h1V123.9z M205.9,123.9
		h-1v-1h1V123.9z M202.9,123.9h-1v-1h1V123.9z M199.9,123.9h-1v-1h1V123.9z M196.9,123.9h-1v-1h1V123.9z M193.9,123.9h-1v-1h1V123.9
		z M190.9,123.9h-1v-1h1V123.9z M187.9,123.9h-1v-1h1V123.9z M184.9,123.9h-1v-1h1V123.9z M181.9,123.9h-1v-1h1V123.9z M178.9,123.9
		h-1v-1h1V123.9z M175.9,123.9h-1v-0.5h-0.5v-0.5h1.5V123.9z"/>
</g>
<g>
	<path d="M174.9,7.4c17.6,0,35.2,2,52.1,5.9c25.3,5.8,47.5,15.4,66.1,28.5c17.7,12.5,31.4,27.9,39.5,44.5
		c11.6,23.9,11.8,49.2,0.5,73.2c-11.1,23.7-32.4,43.8-61.4,58.2c-28.5,14.2-61.9,21.7-96.8,21.7c-17.6,0-35.2-2-52.1-5.9
		c-25.3-5.8-47.5-15.4-66.1-28.5c-17.7-12.5-31.4-27.9-39.5-44.5c-11.6-23.9-11.8-49.2-0.5-73.2C27.9,63.6,49.1,43.5,78.1,29
		C106.6,14.9,140,7.4,174.9,7.4L174.9,7.4 M174.8,6.4c-70.3,0-135.8,31.2-159,80.5c-28.8,61.3,19,127.5,106.8,147.6
		c17.4,4,35,5.9,52.3,5.9c70.4,0,135.8-31.2,159-80.5C362.8,98.5,315,32.4,227.1,12.3C209.8,8.3,192.2,6.4,174.8,6.4L174.8,6.4z"/>
</g>
<g>
	<rect x="279" y="35.4" transform="matrix(0.6938 -0.7202 0.7202 0.6938 64.1465 222.5714)" width="29.6" height="1"/>
</g>
<g>
	<path d="M296.1,20.9v-8.6h3.2c0.6,0,1,0,1.3,0.1c0.4,0.1,0.8,0.2,1.1,0.4s0.5,0.5,0.7,0.8s0.3,0.8,0.3,1.2c0,0.7-0.2,1.4-0.7,1.9
		s-1.3,0.8-2.5,0.8h-2.2V21L296.1,20.9L296.1,20.9z M297.2,16.4h2.2c0.7,0,1.3-0.1,1.6-0.4c0.3-0.3,0.5-0.7,0.5-1.1
		c0-0.4-0.1-0.7-0.3-0.9s-0.4-0.4-0.7-0.5c-0.2-0.1-0.5-0.1-1.1-0.1h-2.2V16.4L297.2,16.4z"/>
	<path d="M304,13.5v-1.2h1v1.2H304z M304,20.9v-6.2h1v6.2H304z"/>
	<path d="M310.9,18.9L312,19c-0.2,0.6-0.5,1.1-1,1.5s-1,0.5-1.8,0.5c-0.9,0-1.6-0.3-2.2-0.8s-0.8-1.4-0.8-2.4s0.3-1.9,0.8-2.4
		s1.2-0.9,2.1-0.9c0.8,0,1.5,0.3,2,0.9c0.5,0.6,0.8,1.4,0.8,2.4c0,0.1,0,0.2,0,0.3h-4.6c0,0.7,0.2,1.2,0.6,1.6s0.8,0.5,1.3,0.5
		c0.4,0,0.7-0.1,1-0.3S310.7,19.4,310.9,18.9z M307.4,17.2h3.5c0-0.5-0.2-0.9-0.4-1.2c-0.3-0.4-0.8-0.6-1.3-0.6s-0.9,0.2-1.2,0.5
		C307.6,16.2,307.5,16.6,307.4,17.2z"/>
	<path d="M322.9,17.9l1.1,0.3c-0.2,0.9-0.7,1.6-1.3,2.1s-1.4,0.7-2.3,0.7s-1.7-0.2-2.3-0.6s-1-0.9-1.3-1.6s-0.5-1.5-0.5-2.3
		c0-0.9,0.2-1.7,0.5-2.3s0.8-1.2,1.5-1.5s1.3-0.5,2.1-0.5c0.9,0,1.6,0.2,2.2,0.7s1,1.1,1.2,1.9l-1.1,0.3c-0.2-0.6-0.5-1.1-0.9-1.4
		s-0.9-0.4-1.4-0.4c-0.7,0-1.2,0.2-1.7,0.5s-0.8,0.7-0.9,1.3s-0.3,1.1-0.3,1.6c0,0.7,0.1,1.4,0.3,1.9s0.5,1,1,1.2s0.9,0.4,1.5,0.4
		s1.2-0.2,1.6-0.5S322.7,18.6,322.9,17.9z"/>
	<path d="M325.3,20.9v-8.6h1v3.1c0.5-0.6,1.1-0.9,1.9-0.9c0.5,0,0.9,0.1,1.2,0.3s0.6,0.4,0.7,0.8c0.1,0.4,0.2,0.8,0.2,1.4v3.9h-1V17
		c0-0.5-0.1-0.9-0.3-1.1s-0.5-0.4-1-0.4c-0.3,0-0.6,0.1-0.9,0.2s-0.5,0.4-0.6,0.7s-0.2,0.7-0.2,1.1v3.4H325.3L325.3,20.9z"/>
	<path d="M336,20.1c-0.4,0.3-0.8,0.6-1.1,0.7s-0.8,0.2-1.2,0.2c-0.7,0-1.2-0.2-1.6-0.5s-0.5-0.8-0.5-1.3c0-0.3,0.1-0.6,0.2-0.8
		s0.3-0.5,0.5-0.6s0.5-0.3,0.8-0.4c0.2,0,0.5-0.1,0.9-0.2c0.9-0.1,1.5-0.2,1.9-0.4c0-0.1,0-0.2,0-0.3c0-0.4-0.1-0.7-0.3-0.9
		c-0.3-0.2-0.7-0.4-1.2-0.4s-0.9,0.1-1.1,0.3s-0.4,0.5-0.5,0.9l-1-0.1c0.1-0.4,0.3-0.8,0.5-1.1s0.5-0.5,0.9-0.6s0.9-0.2,1.4-0.2
		s1,0.1,1.3,0.2s0.6,0.3,0.7,0.5s0.3,0.4,0.3,0.7c0,0.2,0,0.5,0,1v1.4c0,1,0,1.6,0.1,1.9s0.1,0.5,0.3,0.8h-1.1
		C336.1,20.7,336.1,20.4,336,20.1z M335.9,17.8c-0.4,0.2-1,0.3-1.7,0.4c-0.4,0.1-0.7,0.1-0.9,0.2s-0.3,0.2-0.4,0.3s-0.1,0.3-0.1,0.5
		c0,0.3,0.1,0.5,0.3,0.7s0.5,0.3,0.9,0.3s0.8-0.1,1.1-0.3s0.5-0.4,0.7-0.7c0.1-0.2,0.2-0.6,0.2-1L335.9,17.8L335.9,17.8z"/>
	<path d="M338.6,20.9v-6.2h1v0.9c0.2-0.4,0.5-0.7,0.7-0.9s0.4-0.2,0.7-0.2c0.4,0,0.7,0.1,1.1,0.3l-0.4,1c-0.3-0.1-0.5-0.2-0.8-0.2
		c-0.2,0-0.4,0.1-0.6,0.2s-0.3,0.3-0.4,0.6c-0.1,0.4-0.2,0.8-0.2,1.2v3.3H338.6L338.6,20.9z"/>
	<path d="M344.9,20l0.1,0.9c-0.3,0.1-0.6,0.1-0.8,0.1c-0.4,0-0.7-0.1-0.9-0.2s-0.4-0.3-0.5-0.5s-0.1-0.6-0.1-1.3v-3.6H342v-0.8h0.8
		v-1.5l1-0.6v2.2h1.1v0.8h-1.1v3.6c0,0.3,0,0.5,0.1,0.6s0.1,0.1,0.2,0.2s0.2,0.1,0.4,0.1C344.6,20,344.8,20,344.9,20z"/>
</g>
<g>
	<g>
		<g>
			<defs>
				<polygon id="SVGID_3_" points="472.7,332.9 245.5,280.8 174.9,431 402.1,483.2 				"/>
			</defs>
			<clipPath id="SVGID_4_">
				<use xlink:href="#SVGID_3_"  style="overflow:visible;"/>
			</clipPath>
			<g class="st5">
				<g>
					<ellipse class="st3" cx="174.9" cy="431" rx="167.4" ry="117"/>
				</g>
			</g>
		</g>
	</g>
</g>
<g>
	<g>
		<rect x="7.4" y="430.5" class="st4" width="0.5" height="1"/>
	</g>
	<g>
		<path class="st4" d="M172.4,431.5h-1v-1h1V431.5z M169.4,431.5h-1v-1h1V431.5z M166.4,431.5h-1v-1h1V431.5z M163.4,431.5h-1v-1h1
			V431.5z M160.4,431.5h-1v-1h1V431.5z M157.4,431.5h-1v-1h1V431.5z M154.4,431.5h-1v-1h1V431.5z M151.4,431.5h-1v-1h1V431.5z
			 M148.5,431.5h-1v-1h1V431.5z M145.5,431.5h-1v-1h1V431.5z M142.5,431.5h-1v-1h1V431.5z M139.5,431.5h-1v-1h1V431.5z M136.5,431.5
			h-1v-1h1V431.5z M133.5,431.5h-1v-1h1V431.5z M130.5,431.5h-1v-1h1V431.5z M127.5,431.5h-1v-1h1V431.5z M124.5,431.5h-1v-1h1
			V431.5z M121.6,431.5h-1v-1h1V431.5z M118.6,431.5h-1v-1h1V431.5z M115.6,431.5h-1v-1h1V431.5z M112.6,431.5h-1v-1h1V431.5z
			 M109.6,431.5h-1v-1h1V431.5z M106.6,431.5h-1v-1h1V431.5z M103.6,431.5h-1v-1h1V431.5z M100.6,431.5h-1v-1h1V431.5z M97.6,431.5
			h-1v-1h1V431.5z M94.6,431.5h-1v-1h1V431.5z M91.7,431.5h-1v-1h1V431.5z M88.7,431.5h-1v-1h1V431.5z M85.7,431.5h-1v-1h1V431.5z
			 M82.7,431.5h-1v-1h1V431.5z M79.7,431.5h-1v-1h1V431.5z M76.7,431.5h-1v-1h1V431.5z M73.7,431.5h-1v-1h1V431.5z M70.7,431.5h-1
			v-1h1V431.5z M67.7,431.5h-1v-1h1V431.5z M64.7,431.5h-1v-1h1V431.5z M61.8,431.5h-1v-1h1V431.5z M58.8,431.5h-1v-1h1V431.5z
			 M55.8,431.5h-1v-1h1V431.5z M52.8,431.5h-1v-1h1V431.5z M49.8,431.5h-1v-1h1V431.5z M46.8,431.5h-1v-1h1V431.5z M43.8,431.5h-1
			v-1h1V431.5z M40.8,431.5h-1v-1h1V431.5z M37.8,431.5h-1v-1h1V431.5z M34.8,431.5h-1v-1h1V431.5z M31.9,431.5h-1v-1h1V431.5z
			 M28.9,431.5h-1v-1h1V431.5z M25.9,431.5h-1v-1h1V431.5z M22.9,431.5h-1v-1h1V431.5z M19.9,431.5h-1v-1h1V431.5z M16.9,431.5h-1
			v-1h1V431.5z M13.9,431.5h-1v-1h1V431.5z M10.9,431.5h-1v-1h1V431.5z"/>
	</g>
	<g>
		<rect x="174.4" y="430.5" class="st4" width="1" height="1"/>
	</g>
	<g>
		<path class="st4" d="M175.4,428.5h-1v-1h1V428.5z M175.4,425.5h-1v-1h1V425.5z M175.4,422.5h-1v-1h1V422.5z M175.4,419.5h-1v-1h1
			V419.5z M175.4,416.5h-1v-1h1V416.5z M175.4,413.5h-1v-1h1V413.5z M175.4,410.5h-1v-1h1V410.5z M175.4,407.5h-1v-1h1V407.5z
			 M175.4,404.5h-1v-1h1V404.5z M175.4,401.5h-1v-1h1V401.5z M175.4,398.5h-1v-1h1V398.5z M175.4,395.5h-1v-1h1V395.5z M175.4,392.5
			h-1v-1h1V392.5z M175.4,389.5h-1v-1h1V389.5z M175.4,386.5h-1v-1h1V386.5z M175.4,383.5h-1v-1h1V383.5z M175.4,380.5h-1v-1h1
			V380.5z M175.4,377.5h-1v-1h1V377.5z M175.4,374.5h-1v-1h1V374.5z M175.4,371.5h-1v-1h1V371.5z M175.4,368.5h-1v-1h1V368.5z
			 M175.4,365.5h-1v-1h1V365.5z M175.4,362.5h-1v-1h1V362.5z M175.4,359.5h-1v-1h1V359.5z M175.4,356.5h-1v-1h1V356.5z M175.4,353.5
			h-1v-1h1V353.5z M175.4,350.5h-1v-1h1V350.5z M175.4,347.5h-1v-1h1V347.5z M175.4,344.5h-1v-1h1V344.5z M175.4,341.5h-1v-1h1
			V341.5z M175.4,338.5h-1v-1h1V338.5z M175.4,335.5h-1v-1h1V335.5z M175.4,332.5h-1v-1h1V332.5z M175.4,329.5h-1v-1h1V329.5z
			 M175.4,326.5h-1v-1h1V326.5z M175.4,323.5h-1v-1h1V323.5z M175.4,320.5h-1v-1h1V320.5z M175.4,317.5h-1v-1h1V317.5z"/>
	</g>
	<g>
		<rect x="174.4" y="314" class="st4" width="1" height="0.5"/>
	</g>
</g>
<g>
	<path class="st4" d="M175.4,548h-1v-1h1V548z M175.4,545h-1v-1h1V545z M175.4,542h-1v-1h1V542z M175.4,539h-1v-1h1V539z M175.4,536
		h-1v-1h1V536z M175.4,533h-1v-1h1V533z M175.4,530h-1v-1h1V530z M175.4,527h-1v-1h1V527z M175.4,524h-1v-1h1V524z M175.4,521h-1v-1
		h1V521z M175.4,518h-1v-1h1V518z M175.4,515h-1v-1h1V515z M175.4,512h-1v-1h1V512z M175.4,509h-1v-1h1V509z M175.4,506h-1v-1h1V506
		z M175.4,503h-1v-1h1V503z M175.4,500h-1v-1h1V500z M175.4,497h-1v-1h1V497z M175.4,494h-1v-1h1V494z M175.4,491h-1v-1h1V491z
		 M175.4,488h-1v-1h1V488z M175.4,485h-1v-1h1V485z M175.4,482h-1v-1h1V482z M175.4,479h-1v-1h1V479z M175.4,476h-1v-1h1V476z
		 M175.4,473h-1v-1h1V473z M175.4,470h-1v-1h1V470z M175.4,467h-1v-1h1V467z M175.4,464h-1v-1h1V464z M175.4,461h-1v-1h1V461z
		 M175.4,458h-1v-1h1V458z M175.4,455h-1v-1h1V455z M175.4,452h-1v-1h1V452z M175.4,449h-1v-1h1V449z M175.4,446h-1v-1h1V446z
		 M175.4,443h-1v-1h1V443z M175.4,440h-1v-1h1V440z M175.4,437h-1v-1h1V437z M175.4,434h-1v-1h1V434z M340.9,431.5h-1v-1h1V431.5z
		 M337.9,431.5h-1v-1h1V431.5z M334.9,431.5h-1v-1h1V431.5z M331.9,431.5h-1v-1h1V431.5z M328.9,431.5h-1v-1h1V431.5z M325.9,431.5
		h-1v-1h1V431.5z M322.9,431.5h-1v-1h1V431.5z M319.9,431.5h-1v-1h1V431.5z M316.9,431.5h-1v-1h1V431.5z M313.9,431.5h-1v-1h1V431.5
		z M310.9,431.5h-1v-1h1V431.5z M307.9,431.5h-1v-1h1V431.5z M304.9,431.5h-1v-1h1V431.5z M301.9,431.5h-1v-1h1V431.5z M298.9,431.5
		h-1v-1h1V431.5z M295.9,431.5h-1v-1h1V431.5z M292.9,431.5h-1v-1h1V431.5z M289.9,431.5h-1v-1h1V431.5z M286.9,431.5h-1v-1h1V431.5
		z M283.9,431.5h-1v-1h1V431.5z M280.9,431.5h-1v-1h1V431.5z M277.9,431.5h-1v-1h1V431.5z M274.9,431.5h-1v-1h1V431.5z M271.9,431.5
		h-1v-1h1V431.5z M268.9,431.5h-1v-1h1V431.5z M265.9,431.5h-1v-1h1V431.5z M262.9,431.5h-1v-1h1V431.5z M259.9,431.5h-1v-1h1V431.5
		z M256.9,431.5h-1v-1h1V431.5z M253.9,431.5h-1v-1h1V431.5z M250.9,431.5h-1v-1h1V431.5z M247.9,431.5h-1v-1h1V431.5z M244.9,431.5
		h-1v-1h1V431.5z M241.9,431.5h-1v-1h1V431.5z M238.9,431.5h-1v-1h1V431.5z M235.9,431.5h-1v-1h1V431.5z M232.9,431.5h-1v-1h1V431.5
		z M229.9,431.5h-1v-1h1V431.5z M226.9,431.5h-1v-1h1V431.5z M223.9,431.5h-1v-1h1V431.5z M220.9,431.5h-1v-1h1V431.5z M217.9,431.5
		h-1v-1h1V431.5z M214.9,431.5h-1v-1h1V431.5z M211.9,431.5h-1v-1h1V431.5z M208.9,431.5h-1v-1h1V431.5z M205.9,431.5h-1v-1h1V431.5
		z M202.9,431.5h-1v-1h1V431.5z M199.9,431.5h-1v-1h1V431.5z M196.9,431.5h-1v-1h1V431.5z M193.9,431.5h-1v-1h1V431.5z M190.9,431.5
		h-1v-1h1V431.5z M187.9,431.5h-1v-1h1V431.5z M184.9,431.5h-1v-1h1V431.5z M181.9,431.5h-1v-1h1V431.5z M178.9,431.5h-1v-1h1V431.5
		z M175.9,431.5h-1V431h-0.5v-0.5h1.5V431.5z"/>
</g>
<g>
	<path d="M174.9,315c17.6,0,35.2,2,52.1,5.9c25.3,5.8,47.5,15.4,66.1,28.5c17.7,12.5,31.4,27.9,39.5,44.5
		c11.6,23.9,11.8,49.2,0.5,73.2c-11.1,23.7-32.4,43.8-61.4,58.2C243.2,539.5,209.8,547,175,547c-17.6,0-35.2-2-52.1-5.9
		c-25.3-5.8-47.5-15.4-66.1-28.5c-17.7-12.5-31.4-27.9-39.5-44.5c-11.6-23.9-11.8-49.2-0.5-73.2c11.1-23.7,32.3-43.8,61.3-58.2
		C106.6,322.5,140,315,174.9,315L174.9,315 M174.8,314c-70.3,0-135.8,31.2-159,80.5c-28.8,61.3,19,127.4,106.8,147.6
		c17.4,4,35,5.9,52.3,5.9c70.4,0,135.8-31.2,159-80.5C362.8,406.1,315,340,227.1,319.8C209.8,315.9,192.2,314,174.8,314L174.8,314z"
		/>
</g>
<g>
	<ellipse class="st1" cx="174.9" cy="431" rx="132.2" ry="92.4"/>
</g>
<g>
	<rect x="279" y="343" transform="matrix(0.6933 -0.7206 0.7206 0.6933 -157.4409 317.0946)" width="29.6" height="1"/>
</g>
<g>
	<path d="M296.1,328.5v-8.6h3c0.7,0,1.2,0,1.5,0.1c0.5,0.1,0.9,0.3,1.3,0.6c0.5,0.4,0.8,0.9,1,1.5s0.3,1.3,0.3,2
		c0,0.6-0.1,1.2-0.2,1.7s-0.4,0.9-0.6,1.3s-0.5,0.6-0.8,0.8s-0.6,0.3-1,0.4s-0.9,0.1-1.4,0.1h-3.1V328.5z M297.2,327.5h1.8
		c0.6,0,1,0,1.3-0.2s0.6-0.3,0.8-0.5c0.3-0.3,0.5-0.6,0.6-1.1s0.2-1,0.2-1.7c0-0.9-0.1-1.6-0.4-2.1s-0.6-0.8-1.1-1
		c-0.3-0.1-0.8-0.2-1.5-0.2h-1.8v6.8H297.2z"/>
	<path d="M304.2,325.4c0-1.1,0.3-2,1-2.6c0.5-0.5,1.2-0.7,2-0.7c0.9,0,1.5,0.3,2.1,0.8s0.8,1.3,0.8,2.3c0,0.8-0.1,1.4-0.4,1.9
		s-0.6,0.8-1,1.1s-1,0.4-1.5,0.4c-0.9,0-1.6-0.3-2.1-0.8S304.2,326.4,304.2,325.4z M305.3,325.4c0,0.8,0.2,1.4,0.5,1.8
		s0.8,0.6,1.3,0.6s1-0.2,1.3-0.6s0.5-1,0.5-1.8s-0.2-1.4-0.5-1.8s-0.8-0.6-1.3-0.6s-1,0.2-1.3,0.6S305.3,324.6,305.3,325.4z"/>
	<path d="M311.3,328.5v-6.2h1v0.9c0.5-0.7,1.1-1,2-1c0.4,0,0.7,0.1,1,0.2s0.5,0.3,0.7,0.5s0.3,0.5,0.3,0.8c0,0.2,0.1,0.5,0.1,1v3.8
		h-1v-3.8c0-0.4,0-0.8-0.1-1s-0.2-0.4-0.4-0.5s-0.5-0.2-0.7-0.2c-0.5,0-0.8,0.1-1.2,0.4s-0.5,0.8-0.5,1.6v3.4L311.3,328.5
		L311.3,328.5z"/>
	<path d="M322,328.5v-0.9c-0.5,0.7-1.1,1-2,1c-0.4,0-0.7-0.1-1-0.2s-0.5-0.3-0.7-0.5s-0.3-0.5-0.3-0.8c0-0.2-0.1-0.5-0.1-1v-3.9h1.1
		v3.5c0,0.5,0,0.9,0.1,1.1c0.1,0.3,0.2,0.5,0.4,0.6s0.5,0.2,0.8,0.2s0.6-0.1,0.9-0.2s0.5-0.4,0.6-0.7s0.2-0.7,0.2-1.2v-3.3h1v6.2
		L322,328.5L322,328.5z"/>
	<path d="M326.9,327.6l0.1,0.9c-0.3,0.1-0.6,0.1-0.8,0.1c-0.4,0-0.7-0.1-0.9-0.2s-0.4-0.3-0.5-0.5s-0.1-0.6-0.1-1.3V323H324v-0.8
		h0.8v-1.5l1-0.6v2.2h1.1v0.8h-1.1v3.6c0,0.3,0,0.5,0.1,0.6s0.1,0.1,0.2,0.2s0.2,0.1,0.4,0.1C326.6,327.6,326.8,327.6,326.9,327.6z"
		/>
	<path d="M337.6,325.5l1.1,0.3c-0.2,0.9-0.7,1.6-1.3,2.1s-1.4,0.7-2.3,0.7s-1.7-0.2-2.3-0.6s-1-0.9-1.3-1.6s-0.5-1.5-0.5-2.3
		c0-0.9,0.2-1.7,0.5-2.3s0.8-1.2,1.5-1.5s1.3-0.5,2.1-0.5c0.9,0,1.6,0.2,2.2,0.7s1,1,1.2,1.9l-1.1,0.3c-0.2-0.6-0.5-1.1-0.9-1.4
		s-0.9-0.4-1.4-0.4c-0.7,0-1.2,0.2-1.7,0.5s-0.8,0.7-0.9,1.3s-0.3,1.1-0.3,1.6c0,0.7,0.1,1.4,0.3,1.9s0.5,1,1,1.2s0.9,0.4,1.5,0.4
		s1.2-0.2,1.6-0.5S337.4,326.2,337.6,325.5z"/>
	<path d="M340,328.5v-8.6h1v3.1c0.5-0.6,1.1-0.9,1.9-0.9c0.5,0,0.9,0.1,1.2,0.3s0.6,0.4,0.7,0.8s0.2,0.8,0.2,1.4v3.9h-1v-3.9
		c0-0.5-0.1-0.9-0.3-1.1s-0.5-0.4-1-0.4c-0.3,0-0.6,0.1-0.9,0.2s-0.5,0.4-0.6,0.7s-0.2,0.7-0.2,1.1v3.4H340L340,328.5z"/>
	<path d="M350.7,327.7c-0.4,0.3-0.8,0.6-1.1,0.7s-0.8,0.2-1.2,0.2c-0.7,0-1.2-0.2-1.6-0.5s-0.5-0.8-0.5-1.3c0-0.3,0.1-0.6,0.2-0.8
		s0.3-0.5,0.5-0.6s0.5-0.3,0.8-0.4c0.2,0,0.5-0.1,0.9-0.2c0.9-0.1,1.5-0.2,1.9-0.4c0-0.1,0-0.2,0-0.3c0-0.4-0.1-0.7-0.3-0.9
		c-0.3-0.2-0.7-0.4-1.2-0.4s-0.9,0.1-1.1,0.3s-0.4,0.5-0.5,0.9l-1-0.1c0.1-0.4,0.3-0.8,0.5-1.1s0.5-0.5,0.9-0.6s0.9-0.2,1.4-0.2
		s1,0.1,1.3,0.2s0.6,0.3,0.7,0.5s0.3,0.4,0.3,0.7c0,0.2,0,0.5,0,1v1.4c0,1,0,1.6,0.1,1.9s0.1,0.5,0.3,0.8h-1.1
		C350.8,328.3,350.7,328,350.7,327.7z M350.6,325.4c-0.4,0.2-1,0.3-1.7,0.4c-0.4,0.1-0.7,0.1-0.9,0.2s-0.3,0.2-0.4,0.3
		s-0.1,0.3-0.1,0.5c0,0.3,0.1,0.5,0.3,0.7s0.5,0.3,0.9,0.3s0.8-0.1,1.1-0.3s0.5-0.4,0.7-0.7c0.1-0.2,0.2-0.6,0.2-1L350.6,325.4
		L350.6,325.4z"/>
	<path d="M353.3,328.5v-6.2h1v0.9c0.2-0.4,0.5-0.7,0.7-0.9s0.4-0.2,0.7-0.2c0.4,0,0.7,0.1,1.1,0.3l-0.4,1c-0.3-0.1-0.5-0.2-0.8-0.2
		c-0.2,0-0.4,0.1-0.6,0.2s-0.3,0.3-0.4,0.6c-0.1,0.4-0.2,0.8-0.2,1.2v3.3L353.3,328.5L353.3,328.5z"/>
	<path d="M359.6,327.6l0.1,0.9c-0.3,0.1-0.6,0.1-0.8,0.1c-0.4,0-0.7-0.1-0.9-0.2s-0.4-0.3-0.5-0.5s-0.1-0.6-0.1-1.3V323h-0.8v-0.8
		h0.8v-1.5l1-0.6v2.2h1.1v0.8h-1.1v3.6c0,0.3,0,0.5,0.1,0.6s0.1,0.1,0.2,0.2s0.2,0.1,0.4,0.1C359.3,327.6,359.4,327.6,359.6,327.6z"
		/>
</g>
<g>
	<g>
		<g>
			<defs>
				<ellipse id="SVGID_5_" cx="174.9" cy="431" rx="132.2" ry="92.4"/>
			</defs>
			<clipPath id="SVGID_6_">
				<use xlink:href="#SVGID_5_"  style="overflow:visible;"/>
			</clipPath>
			<g class="st6">
				<g>
					<g>
						<path d="M174.8,547.8c-13.7,0-27.6-1.5-41.3-4.6c-40-9.2-70.7-30.5-84.2-58.4c-9.3-19.2-9.5-39.6-0.4-58.9
							c22.9-48.6,97.9-75.1,167.4-59.2c40,9.2,70.7,30.5,84.2,58.4c9.4,19.2,9.5,39.6,0.4,58.9l0,0
							C282.5,523,230.5,547.8,174.8,547.8z M174.9,363.1c-55.4,0-107,24.6-125.2,63.2c-9,19-8.8,39.1,0.4,58.1
							c13.4,27.6,43.9,48.7,83.6,57.8c69,15.8,143.6-10.5,166.3-58.6l0.5,0.2l-0.5-0.2c9-19,8.8-39.1-0.4-58.1
							c-13.4-27.6-43.9-48.7-83.6-57.8C202.4,364.6,188.6,363.1,174.9,363.1z"/>
					</g>
				</g>
				<g>
					<g>
						<path d="M174.8,547.3c-13.7,0-27.6-1.5-41.3-4.6c-40-9.2-70.7-30.5-84.2-58.4c-9.3-19.2-9.5-39.6-0.4-58.9
							c22.9-48.6,97.9-75.1,167.4-59.2c40,9.2,70.7,30.5,84.2,58.4c9.4,19.2,9.5,39.6,0.4,58.9l0,0
							C282.5,522.5,230.5,547.3,174.8,547.3z M174.9,362.6c-55.4,0-107,24.6-125.2,63.2c-9,19-8.8,39.1,0.4,58.1
							c13.4,27.6,43.9,48.7,83.6,57.8c69,15.8,143.6-10.5,166.3-58.6l0.5,0.2l-0.5-0.2c9-19,8.8-39.1-0.4-58.1
							c-13.4-27.6-43.9-48.7-83.6-57.8C202.4,364.1,188.6,362.6,174.9,362.6z"/>
					</g>
				</g>
				<g>
					<g>
						<path d="M174.8,546.8c-13.7,0-27.6-1.5-41.3-4.6c-40-9.2-70.7-30.5-84.2-58.4c-9.3-19.2-9.5-39.6-0.4-58.9
							c22.9-48.6,97.9-75.1,167.4-59.2c40,9.2,70.7,30.5,84.2,58.4c9.4,19.2,9.5,39.6,0.4,58.9l0,0
							C282.5,522,230.5,546.8,174.8,546.8z M174.9,362.1c-55.4,0-107,24.6-125.2,63.2c-9,19-8.8,39.1,0.4,58.1
							c13.4,27.6,43.9,48.7,83.6,57.8c69,15.8,143.6-10.5,166.3-58.6l0.5,0.2l-0.5-0.2c9-19,8.8-39.1-0.4-58.1
							c-13.4-27.6-43.9-48.7-83.6-57.8C202.4,363.6,188.6,362.1,174.9,362.1z"/>
					</g>
				</g>
				<g>
					<g>
						<path d="M174.8,546.3c-13.7,0-27.6-1.5-41.3-4.6c-40-9.2-70.7-30.5-84.2-58.4c-9.3-19.2-9.5-39.6-0.4-58.9
							c22.9-48.6,97.9-75.1,167.4-59.2c40,9.2,70.7,30.5,84.2,58.4c9.4,19.2,9.5,39.6,0.4,58.9l0,0
							C282.5,521.5,230.5,546.3,174.8,546.3z M174.9,361.6c-55.4,0-107,24.6-125.2,63.2c-9,19-8.8,39.1,0.4,58.1
							c13.4,27.6,43.9,48.7,83.6,57.8c69,15.8,143.6-10.5,166.3-58.6l0.5,0.2l-0.5-0.2c9-19,8.8-39.1-0.4-58.1
							c-13.4-27.6-43.9-48.7-83.6-57.8C202.4,363.1,188.6,361.6,174.9,361.6z"/>
					</g>
				</g>
				<g>
					<g>
						<path d="M174.8,545.8c-13.7,0-27.6-1.5-41.3-4.6c-40-9.2-70.7-30.5-84.2-58.4c-9.3-19.2-9.5-39.6-0.4-58.9
							c22.9-48.6,97.9-75.1,167.4-59.2c40,9.2,70.7,30.5,84.2,58.4c9.4,19.2,9.5,39.6,0.4,58.9l0,0
							C282.5,521,230.5,545.8,174.8,545.8z M174.9,361.1c-55.4,0-107,24.6-125.2,63.2c-9,19-8.8,39.1,0.4,58.1
							c13.4,27.6,43.9,48.7,83.6,57.8c69,15.8,143.6-10.5,166.3-58.6l0.5,0.2l-0.5-0.2c9-19,8.8-39.1-0.4-58.1
							c-13.4-27.6-43.9-48.7-83.6-57.8C202.4,362.6,188.6,361.1,174.9,361.1z"/>
					</g>
				</g>
				<g>
					<g>
						<path d="M174.8,545.3c-13.7,0-27.6-1.5-41.3-4.6c-40-9.2-70.7-30.5-84.2-58.4c-9.3-19.2-9.5-39.6-0.4-58.9
							c22.9-48.6,97.9-75.1,167.4-59.2c40,9.2,70.7,30.5,84.2,58.4c9.4,19.2,9.5,39.6,0.4,58.9l0,0
							C282.5,520.5,230.5,545.3,174.8,545.3z M174.9,360.6c-55.4,0-107,24.6-125.2,63.2c-9,19-8.8,39.1,0.4,58.1
							c13.4,27.6,43.9,48.7,83.6,57.8c69,15.8,143.6-10.5,166.3-58.6l0.5,0.2l-0.5-0.2c9-19,8.8-39.1-0.4-58.1
							c-13.4-27.6-43.9-48.7-83.6-57.8C202.4,362.1,188.6,360.6,174.9,360.6z"/>
					</g>
				</g>
				<g>
					<g>
						<path d="M174.8,544.8c-13.7,0-27.6-1.5-41.3-4.6c-40-9.2-70.7-30.5-84.2-58.4c-9.3-19.2-9.5-39.6-0.4-58.9
							c22.9-48.6,97.9-75.1,167.4-59.2c40,9.2,70.7,30.5,84.2,58.4c9.4,19.2,9.5,39.6,0.4,58.9l0,0
							C282.5,520,230.5,544.8,174.8,544.8z M174.9,360.1c-55.4,0-107,24.6-125.2,63.2c-9,19-8.8,39.1,0.4,58.1
							c13.4,27.6,43.9,48.7,83.6,57.8c69,15.8,143.6-10.5,166.3-58.6l0.5,0.2l-0.5-0.2c9-19,8.8-39.1-0.4-58.1
							c-13.4-27.6-43.9-48.7-83.6-57.8C202.4,361.6,188.6,360.1,174.9,360.1z"/>
					</g>
				</g>
				<g>
					<g>
						<path d="M174.8,544.3c-13.7,0-27.6-1.5-41.3-4.6c-40-9.2-70.7-30.5-84.2-58.4c-9.3-19.2-9.5-39.6-0.4-58.9
							c22.9-48.6,97.9-75.1,167.4-59.2c40,9.2,70.7,30.5,84.2,58.4c9.4,19.2,9.5,39.6,0.4,58.9l0,0
							C282.5,519.5,230.5,544.3,174.8,544.3z M174.9,359.6c-55.4,0-107,24.6-125.2,63.2c-9,19-8.8,39.1,0.4,58.1
							c13.4,27.6,43.9,48.7,83.6,57.8c69,15.8,143.6-10.5,166.3-58.6l0.5,0.2l-0.5-0.2c9-19,8.8-39.1-0.4-58.1
							c-13.4-27.6-43.9-48.7-83.6-57.8C202.4,361.1,188.6,359.6,174.9,359.6z"/>
					</g>
				</g>
				<g>
					<g>
						<path d="M174.8,543.8c-13.7,0-27.6-1.5-41.3-4.6c-40-9.2-70.7-30.5-84.2-58.4c-9.3-19.2-9.5-39.6-0.4-58.9
							c22.9-48.6,97.9-75.1,167.4-59.2c40,9.2,70.7,30.5,84.2,58.4c9.4,19.2,9.5,39.6,0.4,58.9l0,0
							C282.5,519,230.5,543.8,174.8,543.8z M174.9,359.1c-55.4,0-107,24.6-125.2,63.2c-9,19-8.8,39.1,0.4,58.1
							c13.4,27.6,43.9,48.7,83.6,57.8c69,15.8,143.6-10.5,166.3-58.6l0.5,0.2l-0.5-0.2c9-19,8.8-39.1-0.4-58.1
							c-13.4-27.6-43.9-48.7-83.6-57.8C202.4,360.6,188.6,359.1,174.9,359.1z"/>
					</g>
				</g>
				<g>
					<g>
						<path d="M174.8,543.3c-13.7,0-27.6-1.5-41.3-4.6c-40-9.2-70.7-30.5-84.2-58.4c-9.3-19.2-9.5-39.6-0.4-58.9
							c22.9-48.6,97.9-75.1,167.4-59.2c40,9.2,70.7,30.5,84.2,58.4c9.4,19.2,9.5,39.6,0.4,58.9l0,0
							C282.5,518.5,230.5,543.3,174.8,543.3z M174.9,358.6c-55.4,0-107,24.6-125.2,63.2c-9,19-8.8,39.1,0.4,58.1
							c13.4,27.6,43.9,48.7,83.6,57.8c69,15.8,143.6-10.5,166.3-58.6l0.5,0.2l-0.5-0.2c9-19,8.8-39.1-0.4-58.1
							c-13.4-27.6-43.9-48.7-83.6-57.8C202.4,360.1,188.6,358.6,174.9,358.6z"/>
					</g>
				</g>
				<g>
					<g>
						<path d="M174.8,542.8c-13.7,0-27.6-1.5-41.3-4.6c-40-9.2-70.7-30.5-84.2-58.4c-9.3-19.2-9.5-39.6-0.4-58.9
							c22.9-48.6,97.9-75.1,167.4-59.2c40,9.2,70.7,30.5,84.2,58.4c9.4,19.2,9.5,39.6,0.4,58.9l0,0
							C282.5,518,230.5,542.8,174.8,542.8z M174.9,358.1c-55.4,0-107,24.6-125.2,63.2c-9,19-8.8,39.1,0.4,58.1
							c13.4,27.6,43.9,48.7,83.6,57.8c69,15.8,143.6-10.5,166.3-58.6l0.5,0.2l-0.5-0.2c9-19,8.8-39.1-0.4-58.1
							c-13.4-27.6-43.9-48.7-83.6-57.8C202.4,359.6,188.6,358.1,174.9,358.1z"/>
					</g>
				</g>
				<g>
					<g>
						<path d="M174.8,542.3c-13.7,0-27.6-1.5-41.3-4.6c-40-9.2-70.7-30.5-84.2-58.4c-9.3-19.2-9.5-39.6-0.4-58.9
							c22.9-48.6,97.9-75.1,167.4-59.2c40,9.2,70.7,30.5,84.2,58.4c9.4,19.2,9.5,39.6,0.4,58.9l0,0
							C282.5,517.5,230.5,542.3,174.8,542.3z M174.9,357.6c-55.4,0-107,24.6-125.2,63.2c-9,19-8.8,39.1,0.4,58.1
							c13.4,27.6,43.9,48.7,83.6,57.8c69,15.8,143.6-10.5,166.3-58.6l0.5,0.2l-0.5-0.2c9-19,8.8-39.1-0.4-58.1
							c-13.4-27.6-43.9-48.7-83.6-57.8C202.4,359.1,188.6,357.6,174.9,357.6z"/>
					</g>
				</g>
				<g>
					<g>
						<path d="M174.8,541.8c-13.7,0-27.6-1.5-41.3-4.6c-40-9.2-70.7-30.5-84.2-58.4c-9.3-19.2-9.5-39.6-0.4-58.9
							c22.9-48.6,97.9-75.1,167.4-59.2c40,9.2,70.7,30.5,84.2,58.4c9.4,19.2,9.5,39.6,0.4,58.9l0,0
							C282.5,517,230.5,541.8,174.8,541.8z M174.9,357.1c-55.4,0-107,24.6-125.2,63.2c-9,19-8.8,39.1,0.4,58.1
							c13.4,27.6,43.9,48.7,83.6,57.8c69,15.8,143.6-10.5,166.3-58.6l0.5,0.2l-0.5-0.2c9-19,8.8-39.1-0.4-58.1
							c-13.4-27.6-43.9-48.7-83.6-57.8C202.4,358.6,188.6,357.1,174.9,357.1z"/>
					</g>
				</g>
				<g>
					<g>
						<path d="M174.8,541.3c-13.7,0-27.6-1.5-41.3-4.6c-40-9.2-70.7-30.5-84.2-58.4c-9.3-19.2-9.5-39.6-0.4-58.9
							c22.9-48.6,97.9-75.1,167.4-59.2c40,9.2,70.7,30.5,84.2,58.4c9.4,19.2,9.5,39.6,0.4,58.9l0,0
							C282.5,516.5,230.5,541.3,174.8,541.3z M174.9,356.6c-55.4,0-107,24.6-125.2,63.2c-9,19-8.8,39.1,0.4,58.1
							c13.4,27.6,43.9,48.7,83.6,57.8c69,15.8,143.6-10.5,166.3-58.6l0.5,0.2l-0.5-0.2c9-19,8.8-39.1-0.4-58.1
							c-13.4-27.6-43.9-48.7-83.6-57.8C202.4,358.1,188.6,356.6,174.9,356.6z"/>
					</g>
				</g>
				<g>
					<g>
						<path d="M174.8,540.8c-13.7,0-27.6-1.5-41.3-4.6c-40-9.2-70.7-30.5-84.2-58.4c-9.3-19.2-9.5-39.6-0.4-58.9
							c22.9-48.6,97.9-75.1,167.4-59.2c40,9.2,70.7,30.5,84.2,58.4c9.4,19.2,9.5,39.6,0.4,58.9l0,0
							C282.5,516,230.5,540.8,174.8,540.8z M174.9,356.1c-55.4,0-107,24.6-125.2,63.2c-9,19-8.8,39.1,0.4,58.1
							c13.4,27.6,43.9,48.7,83.6,57.8c69,15.8,143.6-10.5,166.3-58.6l0.5,0.2l-0.5-0.2c9-19,8.8-39.1-0.4-58.1
							c-13.4-27.6-43.9-48.7-83.6-57.8C202.4,357.6,188.6,356.1,174.9,356.1z"/>
					</g>
				</g>
				<g>
					<g>
						<path d="M174.8,540.3c-13.7,0-27.6-1.5-41.3-4.6c-40-9.2-70.7-30.5-84.2-58.4c-9.3-19.2-9.5-39.6-0.4-58.9
							c22.9-48.6,97.9-75.1,167.4-59.2c40,9.2,70.7,30.5,84.2,58.4c9.4,19.2,9.5,39.6,0.4,58.9l0,0
							C282.5,515.5,230.5,540.3,174.8,540.3z M174.9,355.6c-55.4,0-107,24.6-125.2,63.2c-9,19-8.8,39.1,0.4,58.1
							c13.4,27.6,43.9,48.7,83.6,57.8c69,15.8,143.6-10.5,166.3-58.6l0.5,0.2l-0.5-0.2c9-19,8.8-39.1-0.4-58.1
							c-13.4-27.6-43.9-48.7-83.6-57.8C202.4,357.1,188.6,355.6,174.9,355.6z"/>
					</g>
				</g>
				<g>
					<g>
						<path d="M174.8,539.8c-13.7,0-27.6-1.5-41.3-4.6c-40-9.2-70.7-30.5-84.2-58.4c-9.3-19.2-9.5-39.6-0.4-58.9
							c22.9-48.6,97.9-75.1,167.4-59.2c40,9.2,70.7,30.5,84.2,58.4c9.4,19.2,9.5,39.6,0.4,58.9l0,0
							C282.5,515,230.5,539.8,174.8,539.8z M174.9,355.1c-55.4,0-107,24.6-125.2,63.2c-9,19-8.8,39.1,0.4,58.1
							c13.4,27.6,43.9,48.7,83.6,57.8c69,15.8,143.6-10.5,166.3-58.6l0.5,0.2l-0.5-0.2c9-19,8.8-39.1-0.4-58.1
							c-13.4-27.6-43.9-48.7-83.6-57.8C202.4,356.6,188.6,355.1,174.9,355.1z"/>
					</g>
				</g>
				<g>
					<g>
						<path d="M174.8,539.3c-13.7,0-27.6-1.5-41.3-4.6c-40-9.2-70.7-30.5-84.2-58.4c-9.3-19.2-9.5-39.6-0.4-58.9
							c22.9-48.6,97.9-75.1,167.4-59.2c40,9.2,70.7,30.5,84.2,58.4c9.4,19.2,9.5,39.6,0.4,58.9l0,0
							C282.5,514.5,230.5,539.3,174.8,539.3z M174.9,354.6c-55.4,0-107,24.6-125.2,63.2c-9,19-8.8,39.1,0.4,58.1
							c13.4,27.6,43.9,48.7,83.6,57.8c69,15.8,143.6-10.5,166.3-58.6l0.5,0.2l-0.5-0.2c9-19,8.8-39.1-0.4-58.1
							c-13.4-27.6-43.9-48.7-83.6-57.8C202.4,356.1,188.6,354.6,174.9,354.6z"/>
					</g>
				</g>
				<g>
					<g>
						<path d="M174.8,538.8c-13.7,0-27.6-1.5-41.3-4.6c-40-9.2-70.7-30.5-84.2-58.4c-9.3-19.2-9.5-39.6-0.4-58.9
							c22.9-48.6,97.9-75.1,167.4-59.2c40,9.2,70.7,30.5,84.2,58.4c9.4,19.2,9.5,39.6,0.4,58.9l0,0
							C282.5,514,230.5,538.8,174.8,538.8z M174.9,354.1c-55.4,0-107,24.6-125.2,63.2c-9,19-8.8,39.1,0.4,58.1
							c13.4,27.6,43.9,48.7,83.6,57.8c69,15.8,143.6-10.5,166.3-58.6l0.5,0.2l-0.5-0.2c9-19,8.8-39.1-0.4-58.1
							c-13.4-27.6-43.9-48.7-83.6-57.8C202.4,355.6,188.6,354.1,174.9,354.1z"/>
					</g>
				</g>
				<g>
					<g>
						<path d="M174.8,538.3c-13.7,0-27.6-1.5-41.3-4.6c-40-9.2-70.7-30.5-84.2-58.4c-9.3-19.2-9.5-39.6-0.4-58.9
							c22.9-48.6,97.9-75.1,167.4-59.2c40,9.2,70.7,30.5,84.2,58.4c9.4,19.2,9.5,39.6,0.4,58.9l0,0
							C282.5,513.5,230.5,538.3,174.8,538.3z M174.9,353.6c-55.4,0-107,24.6-125.2,63.2c-9,19-8.8,39.1,0.4,58.1
							c13.4,27.6,43.9,48.7,83.6,57.8c69,15.8,143.6-10.5,166.3-58.6l0.5,0.2l-0.5-0.2c9-19,8.8-39.1-0.4-58.1
							c-13.4-27.6-43.9-48.7-83.6-57.8C202.4,355.1,188.6,353.6,174.9,353.6z"/>
					</g>
				</g>
				<g>
					<g>
						<path d="M174.8,537.8c-13.7,0-27.6-1.5-41.3-4.6c-40-9.2-70.7-30.5-84.2-58.4c-9.3-19.2-9.5-39.6-0.4-58.9
							c22.9-48.6,97.9-75.1,167.4-59.2c40,9.2,70.7,30.5,84.2,58.4c9.4,19.2,9.5,39.6,0.4,58.9l0,0
							C282.5,513,230.5,537.8,174.8,537.8z M174.9,353.1c-55.4,0-107,24.6-125.2,63.2c-9,19-8.8,39.1,0.4,58.1
							c13.4,27.6,43.9,48.7,83.6,57.8c69,15.8,143.6-10.5,166.3-58.6l0.5,0.2l-0.5-0.2c9-19,8.8-39.1-0.4-58.1
							c-13.4-27.6-43.9-48.7-83.6-57.8C202.4,354.6,188.6,353.1,174.9,353.1z"/>
					</g>
				</g>
				<g>
					<g>
						<path d="M174.8,537.3c-13.7,0-27.6-1.5-41.3-4.6c-40-9.2-70.7-30.5-84.2-58.4c-9.3-19.2-9.5-39.6-0.4-58.9
							c22.9-48.6,97.9-75.1,167.4-59.2c40,9.2,70.7,30.5,84.2,58.4c9.4,19.2,9.5,39.6,0.4,58.9l0,0
							C282.5,512.5,230.5,537.3,174.8,537.3z M174.9,352.6c-55.4,0-107,24.6-125.2,63.2c-9,19-8.8,39.1,0.4,58.1
							c13.4,27.6,43.9,48.7,83.6,57.8c69,15.8,143.6-10.5,166.3-58.6l0.5,0.2l-0.5-0.2c9-19,8.8-39.1-0.4-58.1
							c-13.4-27.6-43.9-48.7-83.6-57.8C202.4,354.1,188.6,352.6,174.9,352.6z"/>
					</g>
				</g>
				<g>
					<g>
						<path d="M174.8,536.8c-13.7,0-27.6-1.5-41.3-4.6c-40-9.2-70.7-30.5-84.2-58.4c-9.3-19.2-9.5-39.6-0.4-58.9
							c22.9-48.6,97.9-75.1,167.4-59.2c40,9.2,70.7,30.5,84.2,58.4c9.4,19.2,9.5,39.6,0.4,58.9l0,0
							C282.5,512,230.5,536.8,174.8,536.8z M174.9,352.1c-55.4,0-107,24.6-125.2,63.2c-9,19-8.8,39.1,0.4,58.1
							c13.4,27.6,43.9,48.7,83.6,57.8c69,15.8,143.6-10.5,166.3-58.6l0.5,0.2l-0.5-0.2c9-19,8.8-39.1-0.4-58.1
							c-13.4-27.6-43.9-48.7-83.6-57.8C202.4,353.6,188.6,352.1,174.9,352.1z"/>
					</g>
				</g>
				<g>
					<g>
						<path d="M174.8,536.3c-13.7,0-27.6-1.5-41.3-4.6c-40-9.2-70.7-30.5-84.2-58.4c-9.3-19.2-9.5-39.6-0.4-58.9
							c22.9-48.6,97.9-75.1,167.4-59.2c40,9.2,70.7,30.5,84.2,58.4c9.4,19.2,9.5,39.6,0.4,58.9l0,0
							C282.5,511.5,230.5,536.3,174.8,536.3z M174.9,351.6c-55.4,0-107,24.6-125.2,63.2c-9,19-8.8,39.1,0.4,58.1
							c13.4,27.6,43.9,48.7,83.6,57.8c69,15.8,143.6-10.5,166.3-58.6l0.5,0.2l-0.5-0.2c9-19,8.8-39.1-0.4-58.1
							c-13.4-27.6-43.9-48.7-83.6-57.8C202.4,353.1,188.6,351.6,174.9,351.6z"/>
					</g>
				</g>
				<g>
					<g>
						<path d="M174.8,535.8c-13.7,0-27.6-1.5-41.3-4.6c-40-9.2-70.7-30.5-84.2-58.4c-9.3-19.2-9.5-39.6-0.4-58.9
							c22.9-48.6,97.9-75.1,167.4-59.2c40,9.2,70.7,30.5,84.2,58.4c9.4,19.2,9.5,39.6,0.4,58.9l0,0
							C282.5,511,230.5,535.8,174.8,535.8z M174.9,351.1c-55.4,0-107,24.6-125.2,63.2c-9,19-8.8,39.1,0.4,58.1
							c13.4,27.6,43.9,48.7,83.6,57.8c69,15.8,143.6-10.5,166.3-58.6l0.5,0.2l-0.5-0.2c9-19,8.8-39.1-0.4-58.1
							c-13.4-27.6-43.9-48.7-83.6-57.8C202.4,352.6,188.6,351.1,174.9,351.1z"/>
					</g>
				</g>
				<g>
					<g>
						<path d="M174.8,535.3c-13.7,0-27.6-1.5-41.3-4.6c-40-9.2-70.7-30.5-84.2-58.4c-9.3-19.2-9.5-39.6-0.4-58.9
							c22.9-48.6,97.9-75.1,167.4-59.2c40,9.2,70.7,30.5,84.2,58.4c9.4,19.2,9.5,39.6,0.4,58.9l0,0
							C282.5,510.5,230.5,535.3,174.8,535.3z M174.9,350.6c-55.4,0-107,24.6-125.2,63.2c-9,19-8.8,39.1,0.4,58.1
							c13.4,27.6,43.9,48.7,83.6,57.8c69,15.8,143.6-10.5,166.3-58.6l0.5,0.2l-0.5-0.2c9-19,8.8-39.1-0.4-58.1
							c-13.4-27.6-43.9-48.7-83.6-57.8C202.4,352.1,188.6,350.6,174.9,350.6z"/>
					</g>
				</g>
				<g>
					<g>
						<path d="M174.8,534.8c-13.7,0-27.6-1.5-41.3-4.6c-40-9.2-70.7-30.5-84.2-58.4c-9.3-19.2-9.5-39.6-0.4-58.9
							c22.9-48.6,97.9-75.1,167.4-59.2c40,9.2,70.7,30.5,84.2,58.4c9.4,19.2,9.5,39.6,0.4,58.9l0,0
							C282.5,510,230.5,534.8,174.8,534.8z M174.9,350.1c-55.4,0-107,24.6-125.2,63.2c-9,19-8.8,39.1,0.4,58.1
							c13.4,27.6,43.9,48.7,83.6,57.8c69,15.8,143.6-10.5,166.3-58.6l0.5,0.2l-0.5-0.2c9-19,8.8-39.1-0.4-58.1
							c-13.4-27.6-43.9-48.7-83.6-57.8C202.4,351.6,188.6,350.1,174.9,350.1z"/>
					</g>
				</g>
				<g>
					<g>
						<path d="M174.8,534.3c-13.7,0-27.6-1.5-41.3-4.6c-40-9.2-70.7-30.5-84.2-58.4c-9.3-19.2-9.5-39.6-0.4-58.9
							c22.9-48.6,97.9-75.1,167.4-59.2c40,9.2,70.7,30.5,84.2,58.4c9.4,19.2,9.5,39.6,0.4,58.9l0,0
							C282.5,509.5,230.5,534.3,174.8,534.3z M174.9,349.6c-55.4,0-107,24.6-125.2,63.2c-9,19-8.8,39.1,0.4,58.1
							c13.4,27.6,43.9,48.7,83.6,57.8c69,15.8,143.6-10.5,166.3-58.6l0.5,0.2l-0.5-0.2c9-19,8.8-39.1-0.4-58.1
							c-13.4-27.6-43.9-48.7-83.6-57.8C202.4,351.1,188.6,349.6,174.9,349.6z"/>
					</g>
				</g>
				<g>
					<g>
						<path d="M174.8,533.8c-13.7,0-27.6-1.5-41.3-4.6c-40-9.2-70.7-30.5-84.2-58.4c-9.3-19.2-9.5-39.6-0.4-58.9
							c22.9-48.6,97.9-75.1,167.4-59.2c40,9.2,70.7,30.5,84.2,58.4c9.4,19.2,9.5,39.6,0.4,58.9l0,0
							C282.5,509,230.5,533.8,174.8,533.8z M174.9,349.1c-55.4,0-107,24.6-125.2,63.2c-9,19-8.8,39.1,0.4,58.1
							c13.4,27.6,43.9,48.7,83.6,57.8c69,15.8,143.6-10.5,166.3-58.6l0.5,0.2l-0.5-0.2c9-19,8.8-39.1-0.4-58.1
							c-13.4-27.6-43.9-48.7-83.6-57.8C202.4,350.6,188.6,349.1,174.9,349.1z"/>
					</g>
				</g>
				<g>
					<g>
						<path d="M174.8,533.3c-13.7,0-27.6-1.5-41.3-4.6c-40-9.2-70.7-30.5-84.2-58.4c-9.3-19.2-9.5-39.6-0.4-58.9
							c22.9-48.6,97.9-75.1,167.4-59.2c40,9.2,70.7,30.5,84.2,58.4c9.4,19.2,9.5,39.6,0.4,58.9l0,0
							C282.5,508.5,230.5,533.3,174.8,533.3z M174.9,348.6c-55.4,0-107,24.6-125.2,63.2c-9,19-8.8,39.1,0.4,58.1
							c13.4,27.6,43.9,48.7,83.6,57.8c69,15.8,143.6-10.5,166.3-58.6l0.5,0.2l-0.5-0.2c9-19,8.8-39.1-0.4-58.1
							c-13.4-27.6-43.9-48.7-83.6-57.8C202.4,350.1,188.6,348.6,174.9,348.6z"/>
					</g>
				</g>
				<g>
					<g>
						<path d="M174.8,532.8c-13.7,0-27.6-1.5-41.3-4.6c-40-9.2-70.7-30.5-84.2-58.4c-9.3-19.2-9.5-39.6-0.4-58.9
							c22.9-48.6,97.9-75.1,167.4-59.2c40,9.2,70.7,30.5,84.2,58.4c9.4,19.2,9.5,39.6,0.4,58.9l0,0
							C282.5,508,230.5,532.8,174.8,532.8z M174.9,348.1c-55.4,0-107,24.6-125.2,63.2c-9,19-8.8,39.1,0.4,58.1
							c13.4,27.6,43.9,48.7,83.6,57.8c69,15.8,143.6-10.5,166.3-58.6l0.5,0.2l-0.5-0.2c9-19,8.8-39.1-0.4-58.1
							c-13.4-27.6-43.9-48.7-83.6-57.8C202.4,349.6,188.6,348.1,174.9,348.1z"/>
					</g>
				</g>
				<g>
					<g>
						<path d="M174.8,532.3c-13.7,0-27.6-1.5-41.3-4.6c-40-9.2-70.7-30.5-84.2-58.4c-9.3-19.2-9.5-39.6-0.4-58.9
							c22.9-48.6,97.9-75.1,167.4-59.2c40,9.2,70.7,30.5,84.2,58.4c9.4,19.2,9.5,39.6,0.4,58.9l0,0
							C282.5,507.5,230.5,532.3,174.8,532.3z M174.9,347.6c-55.4,0-107,24.6-125.2,63.2c-9,19-8.8,39.1,0.4,58.1
							c13.4,27.6,43.9,48.7,83.6,57.8c69,15.8,143.6-10.5,166.3-58.6l0.5,0.2l-0.5-0.2c9-19,8.8-39.1-0.4-58.1
							c-13.4-27.6-43.9-48.7-83.6-57.8C202.4,349.1,188.6,347.6,174.9,347.6z"/>
					</g>
				</g>
				<g>
					<g>
						<path d="M174.8,531.8c-13.7,0-27.6-1.5-41.3-4.6c-40-9.2-70.7-30.5-84.2-58.4c-9.3-19.2-9.5-39.6-0.4-58.9
							c22.9-48.6,97.9-75.1,167.4-59.2c40,9.2,70.7,30.5,84.2,58.4c9.4,19.2,9.5,39.6,0.4,58.9l0,0
							C282.5,507,230.5,531.8,174.8,531.8z M174.9,347.1c-55.4,0-107,24.6-125.2,63.2c-9,19-8.8,39.1,0.4,58.1
							c13.4,27.6,43.9,48.7,83.6,57.8c69,15.8,143.6-10.5,166.3-58.6l0.5,0.2l-0.5-0.2c9-19,8.8-39.1-0.4-58.1
							c-13.4-27.6-43.9-48.7-83.6-57.8C202.4,348.6,188.6,347.1,174.9,347.1z"/>
					</g>
				</g>
				<g>
					<g>
						<path d="M174.8,531.3c-13.7,0-27.6-1.5-41.3-4.6c-40-9.2-70.7-30.5-84.2-58.4c-9.3-19.2-9.5-39.6-0.4-58.9
							c22.9-48.6,97.9-75.1,167.4-59.2c40,9.2,70.7,30.5,84.2,58.4c9.4,19.2,9.5,39.6,0.4,58.9l0,0
							C282.5,506.5,230.5,531.3,174.8,531.3z M174.9,346.6c-55.4,0-107,24.6-125.2,63.2c-9,19-8.8,39.1,0.4,58.1
							c13.4,27.6,43.9,48.7,83.6,57.8c69,15.8,143.6-10.5,166.3-58.6l0.5,0.2l-0.5-0.2c9-19,8.8-39.1-0.4-58.1
							c-13.4-27.6-43.9-48.7-83.6-57.8C202.4,348.1,188.6,346.6,174.9,346.6z"/>
					</g>
				</g>
				<g>
					<g>
						<path d="M174.8,530.8c-13.7,0-27.6-1.5-41.3-4.6c-40-9.2-70.7-30.5-84.2-58.4c-9.3-19.2-9.5-39.6-0.4-58.9
							c22.9-48.6,97.9-75.1,167.4-59.2c40,9.2,70.7,30.5,84.2,58.4c9.4,19.2,9.5,39.6,0.4,58.9l0,0
							C282.5,506,230.5,530.8,174.8,530.8z M174.9,346.1c-55.4,0-107,24.6-125.2,63.2c-9,19-8.8,39.1,0.4,58.1
							c13.4,27.6,43.9,48.7,83.6,57.8c69,15.8,143.6-10.5,166.3-58.6l0.5,0.2l-0.5-0.2c9-19,8.8-39.1-0.4-58.1
							c-13.4-27.6-43.9-48.7-83.6-57.8C202.4,347.6,188.6,346.1,174.9,346.1z"/>
					</g>
				</g>
				<g>
					<g>
						<path d="M174.8,530.3c-13.7,0-27.6-1.5-41.3-4.6c-40-9.2-70.7-30.5-84.2-58.4c-9.3-19.2-9.5-39.6-0.4-58.9
							c22.9-48.6,97.9-75.1,167.4-59.2c40,9.2,70.7,30.5,84.2,58.4c9.4,19.2,9.5,39.6,0.4,58.9l0,0
							C282.5,505.5,230.5,530.3,174.8,530.3z M174.9,345.6c-55.4,0-107,24.6-125.2,63.2c-9,19-8.8,39.1,0.4,58.1
							c13.4,27.6,43.9,48.7,83.6,57.8c69,15.8,143.6-10.5,166.3-58.6l0.5,0.2l-0.5-0.2c9-19,8.8-39.1-0.4-58.1
							c-13.4-27.6-43.9-48.7-83.6-57.8C202.4,347.1,188.6,345.6,174.9,345.6z"/>
					</g>
				</g>
				<g>
					<g>
						<path d="M174.8,529.8c-13.7,0-27.6-1.5-41.3-4.6c-40-9.2-70.7-30.5-84.2-58.4c-9.3-19.2-9.5-39.6-0.4-58.9
							c22.9-48.6,97.9-75.1,167.4-59.2c40,9.2,70.7,30.5,84.2,58.4c9.4,19.2,9.5,39.6,0.4,58.9l0,0
							C282.5,505,230.5,529.8,174.8,529.8z M174.9,345.1c-55.4,0-107,24.6-125.2,63.2c-9,19-8.8,39.1,0.4,58.1
							c13.4,27.6,43.9,48.7,83.6,57.8c69,15.8,143.6-10.5,166.3-58.6l0.5,0.2l-0.5-0.2c9-19,8.8-39.1-0.4-58.1
							c-13.4-27.6-43.9-48.7-83.6-57.8C202.4,346.6,188.6,345.1,174.9,345.1z"/>
					</g>
				</g>
				<g>
					<g>
						<path d="M174.8,529.3c-13.7,0-27.6-1.5-41.3-4.6c-40-9.2-70.7-30.5-84.2-58.4c-9.3-19.2-9.5-39.6-0.4-58.9
							c22.9-48.6,97.9-75.1,167.4-59.2c40,9.2,70.7,30.5,84.2,58.4c9.4,19.2,9.5,39.6,0.4,58.9l0,0
							C282.5,504.5,230.5,529.3,174.8,529.3z M174.9,344.6c-55.4,0-107,24.6-125.2,63.2c-9,19-8.8,39.1,0.4,58.1
							c13.4,27.6,43.9,48.7,83.6,57.8c69,15.8,143.6-10.5,166.3-58.6l0.5,0.2l-0.5-0.2c9-19,8.8-39.1-0.4-58.1
							c-13.4-27.6-43.9-48.7-83.6-57.8C202.4,346.1,188.6,344.6,174.9,344.6z"/>
					</g>
				</g>
				<g>
					<g>
						<path d="M174.8,528.8c-13.7,0-27.6-1.5-41.3-4.6c-40-9.2-70.7-30.5-84.2-58.4c-9.3-19.2-9.5-39.6-0.4-58.9
							c22.9-48.6,97.9-75.1,167.4-59.2c40,9.2,70.7,30.5,84.2,58.4c9.4,19.2,9.5,39.6,0.4,58.9l0,0
							C282.5,504,230.5,528.8,174.8,528.8z M174.9,344.1c-55.4,0-107,24.6-125.2,63.2c-9,19-8.8,39.1,0.4,58.1
							c13.4,27.6,43.9,48.7,83.6,57.8c69,15.8,143.6-10.5,166.3-58.6l0.5,0.2l-0.5-0.2c9-19,8.8-39.1-0.4-58.1
							c-13.4-27.6-43.9-48.7-83.6-57.8C202.4,345.6,188.6,344.1,174.9,344.1z"/>
					</g>
				</g>
				<g>
					<g>
						<path d="M174.8,528.3c-13.7,0-27.6-1.5-41.3-4.6c-40-9.2-70.7-30.5-84.2-58.4c-9.3-19.2-9.5-39.6-0.4-58.9
							c22.9-48.6,97.9-75.1,167.4-59.2c40,9.2,70.7,30.5,84.2,58.4c9.4,19.2,9.5,39.6,0.4,58.9l0,0
							C282.5,503.5,230.5,528.3,174.8,528.3z M174.9,343.6c-55.4,0-107,24.6-125.2,63.2c-9,19-8.8,39.1,0.4,58.1
							c13.4,27.6,43.9,48.7,83.6,57.8c69,15.8,143.6-10.5,166.3-58.6l0.5,0.2l-0.5-0.2c9-19,8.8-39.1-0.4-58.1
							c-13.4-27.6-43.9-48.7-83.6-57.8C202.4,345.1,188.6,343.6,174.9,343.6z"/>
					</g>
				</g>
				<g>
					<g>
						<path d="M174.8,527.8c-13.7,0-27.6-1.5-41.3-4.6c-40-9.2-70.7-30.5-84.2-58.4c-9.3-19.2-9.5-39.6-0.4-58.9
							c22.9-48.6,97.9-75.1,167.4-59.2c40,9.2,70.7,30.5,84.2,58.4c9.4,19.2,9.5,39.6,0.4,58.9l0,0
							C282.5,503,230.5,527.8,174.8,527.8z M174.9,343.1c-55.4,0-107,24.6-125.2,63.2c-9,19-8.8,39.1,0.4,58.1
							c13.4,27.6,43.9,48.7,83.6,57.8c69,15.8,143.6-10.5,166.3-58.6l0.5,0.2l-0.5-0.2c9-19,8.8-39.1-0.4-58.1
							c-13.4-27.6-43.9-48.7-83.6-57.8C202.4,344.6,188.6,343.1,174.9,343.1z"/>
					</g>
				</g>
				<g>
					<g>
						<path d="M174.8,527.3c-13.7,0-27.6-1.5-41.3-4.6c-40-9.2-70.7-30.5-84.2-58.4c-9.3-19.2-9.5-39.6-0.4-58.9
							c22.9-48.6,97.9-75.1,167.4-59.2c40,9.2,70.7,30.5,84.2,58.4c9.4,19.2,9.5,39.6,0.4,58.9l0,0
							C282.5,502.5,230.5,527.3,174.8,527.3z M174.9,342.6c-55.4,0-107,24.6-125.2,63.2c-9,19-8.8,39.1,0.4,58.1
							c13.4,27.6,43.9,48.7,83.6,57.8c69,15.8,143.6-10.5,166.3-58.6l0.5,0.2l-0.5-0.2c9-19,8.8-39.1-0.4-58.1
							c-13.4-27.6-43.9-48.7-83.6-57.8C202.4,344.1,188.6,342.6,174.9,342.6z"/>
					</g>
				</g>
				<g>
					<g>
						<path d="M174.8,526.8c-13.7,0-27.6-1.5-41.3-4.6c-40-9.2-70.7-30.5-84.2-58.4c-9.3-19.2-9.5-39.6-0.4-58.9
							c22.9-48.6,97.9-75.1,167.4-59.2c40,9.2,70.7,30.5,84.2,58.4c9.4,19.2,9.5,39.6,0.4,58.9l0,0
							C282.5,502,230.5,526.8,174.8,526.8z M174.9,342.1c-55.4,0-107,24.6-125.2,63.2c-9,19-8.8,39.1,0.4,58.1
							c13.4,27.6,43.9,48.7,83.6,57.8c69,15.8,143.6-10.5,166.3-58.6l0.5,0.2l-0.5-0.2c9-19,8.8-39.1-0.4-58.1
							c-13.4-27.6-43.9-48.7-83.6-57.8C202.4,343.6,188.6,342.1,174.9,342.1z"/>
					</g>
				</g>
				<g>
					<g>
						<path d="M174.8,526.3c-13.7,0-27.6-1.5-41.3-4.6c-40-9.2-70.7-30.5-84.2-58.4c-9.3-19.2-9.5-39.6-0.4-58.9
							c22.9-48.6,97.9-75.1,167.4-59.2c40,9.2,70.7,30.5,84.2,58.4c9.4,19.2,9.5,39.6,0.4,58.9l0,0
							C282.5,501.5,230.5,526.3,174.8,526.3z M174.9,341.6c-55.4,0-107,24.6-125.2,63.2c-9,19-8.8,39.1,0.4,58.1
							c13.4,27.6,43.9,48.7,83.6,57.8c69,15.8,143.6-10.5,166.3-58.6l0.5,0.2l-0.5-0.2c9-19,8.8-39.1-0.4-58.1
							c-13.4-27.6-43.9-48.7-83.6-57.8C202.4,343.1,188.6,341.6,174.9,341.6z"/>
					</g>
				</g>
				<g>
					<g>
						<path d="M174.8,525.8c-13.7,0-27.6-1.5-41.3-4.6c-40-9.2-70.7-30.5-84.2-58.4c-9.3-19.2-9.5-39.6-0.4-58.9
							c22.9-48.6,97.9-75.1,167.4-59.2c40,9.2,70.7,30.5,84.2,58.4c9.4,19.2,9.5,39.6,0.4,58.9l0,0
							C282.5,501,230.5,525.8,174.8,525.8z M174.9,341.1c-55.4,0-107,24.6-125.2,63.2c-9,19-8.8,39.1,0.4,58.1
							c13.4,27.6,43.9,48.7,83.6,57.8c69,15.8,143.6-10.5,166.3-58.6l0.5,0.2l-0.5-0.2c9-19,8.8-39.1-0.4-58.1
							c-13.4-27.6-43.9-48.7-83.6-57.8C202.4,342.6,188.6,341.1,174.9,341.1z"/>
					</g>
				</g>
				<g>
					<g>
						<path d="M174.8,525.3c-13.7,0-27.6-1.5-41.3-4.6c-40-9.2-70.7-30.5-84.2-58.4c-9.3-19.2-9.5-39.6-0.4-58.9
							c22.9-48.6,97.9-75.1,167.4-59.2c40,9.2,70.7,30.5,84.2,58.4c9.4,19.2,9.5,39.6,0.4,58.9l0,0
							C282.5,500.5,230.5,525.3,174.8,525.3z M174.9,340.6c-55.4,0-107,24.6-125.2,63.2c-9,19-8.8,39.1,0.4,58.1
							c13.4,27.6,43.9,48.7,83.6,57.8c69,15.8,143.6-10.5,166.3-58.6l0.5,0.2l-0.5-0.2c9-19,8.8-39.1-0.4-58.1
							c-13.4-27.6-43.9-48.7-83.6-57.8C202.4,342.1,188.6,340.6,174.9,340.6z"/>
					</g>
				</g>
				<g>
					<g>
						<path d="M174.8,524.8c-13.7,0-27.6-1.5-41.3-4.6c-40-9.2-70.7-30.5-84.2-58.4c-9.3-19.2-9.5-39.6-0.4-58.9
							c22.9-48.6,97.9-75.1,167.4-59.2c40,9.2,70.7,30.5,84.2,58.4c9.4,19.2,9.5,39.6,0.4,58.9l0,0
							C282.5,500,230.5,524.8,174.8,524.8z M174.9,340.1c-55.4,0-107,24.6-125.2,63.2c-9,19-8.8,39.1,0.4,58.1
							c13.4,27.6,43.9,48.7,83.6,57.8c69,15.8,143.6-10.5,166.3-58.6l0.5,0.2l-0.5-0.2c9-19,8.8-39.1-0.4-58.1
							c-13.4-27.6-43.9-48.7-83.6-57.8C202.4,341.6,188.6,340.1,174.9,340.1z"/>
					</g>
				</g>
				<g>
					<g>
						<path d="M174.8,524.3c-13.7,0-27.6-1.5-41.3-4.6c-40-9.2-70.7-30.5-84.2-58.4c-9.3-19.2-9.5-39.6-0.4-58.9
							c22.9-48.6,97.9-75.1,167.4-59.2c40,9.2,70.7,30.5,84.2,58.4c9.4,19.2,9.5,39.6,0.4,58.9l0,0
							C282.5,499.5,230.5,524.3,174.8,524.3z M174.9,339.6c-55.4,0-107,24.6-125.2,63.2c-9,19-8.8,39.1,0.4,58.1
							c13.4,27.6,43.9,48.7,83.6,57.8c69,15.8,143.6-10.5,166.3-58.6l0.5,0.2l-0.5-0.2c9-19,8.8-39.1-0.4-58.1
							c-13.4-27.6-43.9-48.7-83.6-57.8C202.4,341.1,188.6,339.6,174.9,339.6z"/>
					</g>
				</g>
				<g>
					<g>
						<path d="M174.8,523.8c-13.7,0-27.6-1.5-41.3-4.6c-40-9.2-70.7-30.5-84.2-58.4c-9.3-19.2-9.5-39.6-0.4-58.9
							c22.9-48.6,97.9-75.1,167.4-59.2c40,9.2,70.7,30.5,84.2,58.4c9.4,19.2,9.5,39.6,0.4,58.9l0,0
							C282.5,499,230.5,523.8,174.8,523.8z M174.9,339.1c-55.4,0-107,24.6-125.2,63.2c-9,19-8.8,39.1,0.4,58.1
							c13.4,27.6,43.9,48.7,83.6,57.8c69,15.8,143.6-10.5,166.3-58.6l0.5,0.2l-0.5-0.2c9-19,8.8-39.1-0.4-58.1
							c-13.4-27.6-43.9-48.7-83.6-57.8C202.4,340.6,188.6,339.1,174.9,339.1z"/>
					</g>
				</g>
			</g>
		</g>
	</g>
</g>
<g>
	<g>
		<line class="st7" x1="2.9" y1="865.7" x2="384.6" y2="865.7"/>
	</g>
	<g>
		<g>
			<text transform="matrix(1 0 0 1 -19.706 872.3872)" class="st8 st9">0.0</text>
			<text transform="matrix(1 0 0 1 -19.706 840.4937)" class="st8 st9">0.5</text>
			<text transform="matrix(1 0 0 1 -19.706 808.6011)" class="st8 st9">1.0</text>
			<text transform="matrix(1 0 0 1 -19.706 776.7085)" class="st8 st9">1.5</text>
			<text transform="matrix(1 0 0 1 -19.706 744.8149)" class="st8 st9">2.0</text>
			<text transform="matrix(1 0 0 1 -19.706 712.9224)" class="st8 st9">2.5</text>
			<text transform="matrix(1 0 0 1 -19.706 681.0298)" class="st8 st9">3.0</text>
			<text transform="matrix(1 0 0 1 -19.706 649.1372)" class="st8 st9">3.5</text>
			<text transform="matrix(1 0 0 1 -19.706 617.2437)" class="st8 st9">4.0</text>
		</g>
		<line class="st7" x1="2.9" y1="865.7" x2="2.9" y2="610.5"/>
		<g>
			<g>
				<line class="st7" x1="2.9" y1="865.7" x2="12.5" y2="865.7"/>
				<line class="st7" x1="2.9" y1="833.8" x2="12.5" y2="833.8"/>
				<line class="st7" x1="2.9" y1="801.9" x2="12.5" y2="801.9"/>
				<line class="st7" x1="2.9" y1="770" x2="12.5" y2="770"/>
				<line class="st7" x1="2.9" y1="738.1" x2="12.5" y2="738.1"/>
				<line class="st7" x1="2.9" y1="706.2" x2="12.5" y2="706.2"/>
				<line class="st7" x1="2.9" y1="674.3" x2="12.5" y2="674.3"/>
				<line class="st7" x1="2.9" y1="642.4" x2="12.5" y2="642.4"/>
				<line class="st7" x1="2.9" y1="610.5" x2="12.5" y2="610.5"/>
			</g>
			<g>
				<line class="st7" x1="2.9" y1="859.3" x2="12.5" y2="859.3"/>
				<line class="st7" x1="2.9" y1="852.9" x2="12.5" y2="852.9"/>
				<line class="st7" x1="2.9" y1="846.5" x2="12.5" y2="846.5"/>
				<line class="st7" x1="2.9" y1="840.2" x2="12.5" y2="840.2"/>
				<line class="st7" x1="2.9" y1="827.4" x2="12.5" y2="827.4"/>
				<line class="st7" x1="2.9" y1="821" x2="12.5" y2="821"/>
				<line class="st7" x1="2.9" y1="814.7" x2="12.5" y2="814.7"/>
				<line class="st7" x1="2.9" y1="808.3" x2="12.5" y2="808.3"/>
				<line class="st7" x1="2.9" y1="795.5" x2="12.5" y2="795.5"/>
				<line class="st7" x1="2.9" y1="789.1" x2="12.5" y2="789.1"/>
				<line class="st7" x1="2.9" y1="782.8" x2="12.5" y2="782.8"/>
				<line class="st7" x1="2.9" y1="776.4" x2="12.5" y2="776.4"/>
				<line class="st7" x1="2.9" y1="763.6" x2="12.5" y2="763.6"/>
				<line class="st7" x1="2.9" y1="757.2" x2="12.5" y2="757.2"/>
				<line class="st7" x1="2.9" y1="750.9" x2="12.5" y2="750.9"/>
				<line class="st7" x1="2.9" y1="744.5" x2="12.5" y2="744.5"/>
				<line class="st7" x1="2.9" y1="731.7" x2="12.5" y2="731.7"/>
				<line class="st7" x1="2.9" y1="725.3" x2="12.5" y2="725.3"/>
				<line class="st7" x1="2.9" y1="719" x2="12.5" y2="719"/>
				<line class="st7" x1="2.9" y1="712.6" x2="12.5" y2="712.6"/>
				<line class="st7" x1="2.9" y1="699.8" x2="12.5" y2="699.8"/>
				<line class="st7" x1="2.9" y1="693.5" x2="12.5" y2="693.5"/>
				<line class="st7" x1="2.9" y1="687.1" x2="12.5" y2="687.1"/>
				<line class="st7" x1="2.9" y1="680.7" x2="12.5" y2="680.7"/>
				<line class="st7" x1="2.9" y1="667.9" x2="12.5" y2="667.9"/>
				<line class="st7" x1="2.9" y1="661.6" x2="12.5" y2="661.6"/>
				<line class="st7" x1="2.9" y1="655.2" x2="12.5" y2="655.2"/>
				<line class="st7" x1="2.9" y1="648.8" x2="12.5" y2="648.8"/>
				<line class="st7" x1="2.9" y1="636" x2="12.5" y2="636"/>
				<line class="st7" x1="2.9" y1="629.7" x2="12.5" y2="629.7"/>
				<line class="st7" x1="2.9" y1="623.3" x2="12.5" y2="623.3"/>
				<line class="st7" x1="2.9" y1="616.9" x2="12.5" y2="616.9"/>
			</g>
		</g>
	</g>
	<g>
		<g>
			<text transform="matrix(1 0 0 1 390.5596 872.3872)" class="st8 st9">0.0</text>
			<text transform="matrix(1 0 0 1 390.5596 840.4937)" class="st8 st9">0.5</text>
			<text transform="matrix(1 0 0 1 390.5596 808.6011)" class="st8 st9">1.0</text>
			<text transform="matrix(1 0 0 1 390.5596 776.7085)" class="st8 st9">1.5</text>
			<text transform="matrix(1 0 0 1 390.5596 744.8149)" class="st8 st9">2.0</text>
			<text transform="matrix(1 0 0 1 390.5596 712.9224)" class="st8 st9">2.5</text>
			<text transform="matrix(1 0 0 1 390.5596 681.0298)" class="st8 st9">3.0</text>
			<text transform="matrix(1 0 0 1 390.5596 649.1372)" class="st8 st9">3.5</text>
			<text transform="matrix(1 0 0 1 390.5596 617.2437)" class="st8 st9">4.0</text>
		</g>
		<line class="st7" x1="384.6" y1="865.7" x2="384.6" y2="610.5"/>
		<g>
			<g>
				<line class="st7" x1="384.6" y1="865.7" x2="375" y2="865.7"/>
				<line class="st7" x1="384.6" y1="833.8" x2="375" y2="833.8"/>
				<line class="st7" x1="384.6" y1="801.9" x2="375" y2="801.9"/>
				<line class="st7" x1="384.6" y1="770" x2="375" y2="770"/>
				<line class="st7" x1="384.6" y1="738.1" x2="375" y2="738.1"/>
				<line class="st7" x1="384.6" y1="706.2" x2="375" y2="706.2"/>
				<line class="st7" x1="384.6" y1="674.3" x2="375" y2="674.3"/>
				<line class="st7" x1="384.6" y1="642.4" x2="375" y2="642.4"/>
				<line class="st7" x1="384.6" y1="610.5" x2="375" y2="610.5"/>
			</g>
			<g>
				<line class="st7" x1="384.6" y1="859.3" x2="375" y2="859.3"/>
				<line class="st7" x1="384.6" y1="852.9" x2="375" y2="852.9"/>
				<line class="st7" x1="384.6" y1="846.5" x2="375" y2="846.5"/>
				<line class="st7" x1="384.6" y1="840.2" x2="375" y2="840.2"/>
				<line class="st7" x1="384.6" y1="827.4" x2="375" y2="827.4"/>
				<line class="st7" x1="384.6" y1="821" x2="375" y2="821"/>
				<line class="st7" x1="384.6" y1="814.7" x2="375" y2="814.7"/>
				<line class="st7" x1="384.6" y1="808.3" x2="375" y2="808.3"/>
				<line class="st7" x1="384.6" y1="795.5" x2="375" y2="795.5"/>
				<line class="st7" x1="384.6" y1="789.1" x2="375" y2="789.1"/>
				<line class="st7" x1="384.6" y1="782.8" x2="375" y2="782.8"/>
				<line class="st7" x1="384.6" y1="776.4" x2="375" y2="776.4"/>
				<line class="st7" x1="384.6" y1="763.6" x2="375" y2="763.6"/>
				<line class="st7" x1="384.6" y1="757.2" x2="375" y2="757.2"/>
				<line class="st7" x1="384.6" y1="750.9" x2="375" y2="750.9"/>
				<line class="st7" x1="384.6" y1="744.5" x2="375" y2="744.5"/>
				<line class="st7" x1="384.6" y1="731.7" x2="375" y2="731.7"/>
				<line class="st7" x1="384.6" y1="725.3" x2="375" y2="725.3"/>
				<line class="st7" x1="384.6" y1="719" x2="375" y2="719"/>
				<line class="st7" x1="384.6" y1="712.6" x2="375" y2="712.6"/>
				<line class="st7" x1="384.6" y1="699.8" x2="375" y2="699.8"/>
				<line class="st7" x1="384.6" y1="693.5" x2="375" y2="693.5"/>
				<line class="st7" x1="384.6" y1="687.1" x2="375" y2="687.1"/>
				<line class="st7" x1="384.6" y1="680.7" x2="375" y2="680.7"/>
				<line class="st7" x1="384.6" y1="667.9" x2="375" y2="667.9"/>
				<line class="st7" x1="384.6" y1="661.6" x2="375" y2="661.6"/>
				<line class="st7" x1="384.6" y1="655.2" x2="375" y2="655.2"/>
				<line class="st7" x1="384.6" y1="648.8" x2="375" y2="648.8"/>
				<line class="st7" x1="384.6" y1="636" x2="375" y2="636"/>
				<line class="st7" x1="384.6" y1="629.7" x2="375" y2="629.7"/>
				<line class="st7" x1="384.6" y1="623.3" x2="375" y2="623.3"/>
				<line class="st7" x1="384.6" y1="616.9" x2="375" y2="616.9"/>
			</g>
		</g>
	</g>
	<g>
		<g>
			<g>
				<rect x="168.3" y="706.2" class="st10" width="50.9" height="63.8"/>
			</g>
		</g>
		<g>
			<g>
				<g>
					<g>
						<rect x="168.3" y="770" class="st0" width="50.9" height="44.7"/>
						<rect x="41.1" y="629.7" class="st0" width="50.9" height="12.8"/>
					</g>
				</g>
			</g>
		</g>
		<g>
			<g>
				<rect x="168.3" y="814.7" class="st10" width="50.9" height="6.4"/>
				<rect x="41.1" y="642.4" class="st10" width="50.9" height="31.9"/>
			</g>
		</g>
		<g>
			<g>
				<g>
					<rect x="168.3" y="821" class="st3" width="50.9" height="31.9"/>
					<rect x="41.1" y="674.3" class="st3" width="50.9" height="127.6"/>
				</g>
			</g>
		</g>
		<g>
			<g>
				<rect x="295.5" y="801.9" class="st11" width="50.9" height="63.8"/>
				<rect x="168.3" y="852.9" class="st11" width="50.9" height="12.8"/>
				<rect x="41.1" y="801.9" class="st11" width="50.9" height="63.8"/>
			</g>
		</g>
	</g>
</g>
<rect x="-25.4" y="601.8" class="st1" width="24.6" height="289"/>
<rect x="386.6" y="597.1" class="st1" width="24.6" height="289"/>
<g>
	<path d="M394.3,618.9h-1v-6.7c-0.3,0.2-0.6,0.5-1,0.7s-0.8,0.4-1.1,0.5v-1c0.6-0.3,1.1-0.6,1.5-1s0.8-0.8,0.9-1.2h0.7V618.9
		L394.3,618.9z"/>
	<path d="M397.6,618.9v-1.2h1.2v1.2H397.6z"/>
	<path d="M400.4,614.6c0-1,0.1-1.8,0.3-2.5s0.5-1.1,0.9-1.4s0.9-0.5,1.6-0.5c0.5,0,0.9,0.1,1.2,0.3s0.6,0.5,0.9,0.8s0.4,0.8,0.5,1.3
		s0.2,1.2,0.2,2c0,1-0.1,1.8-0.3,2.4s-0.5,1.1-0.9,1.4s-0.9,0.5-1.6,0.5c-0.8,0-1.5-0.3-2-0.9C400.7,617.4,400.4,616.3,400.4,614.6z
		 M401.5,614.6c0,1.4,0.2,2.3,0.5,2.8s0.7,0.7,1.2,0.7s0.9-0.2,1.2-0.7s0.5-1.4,0.5-2.8c0-1.4-0.2-2.3-0.5-2.8s-0.7-0.7-1.2-0.7
		s-0.9,0.2-1.2,0.6C401.6,612.3,401.5,613.2,401.5,614.6z"/>
</g>
<g>
	<path d="M390.4,861c0-1,0.1-1.8,0.3-2.5s0.5-1.1,0.9-1.4s0.9-0.5,1.6-0.5c0.5,0,0.9,0.1,1.2,0.3s0.6,0.5,0.9,0.8s0.4,0.8,0.5,1.3
		s0.2,1.2,0.2,2c0,1-0.1,1.8-0.3,2.4s-0.5,1.1-0.9,1.4s-0.9,0.5-1.6,0.5c-0.8,0-1.5-0.3-2-0.9C390.6,863.8,390.4,862.6,390.4,861z
		 M391.5,861c0,1.4,0.2,2.3,0.5,2.8s0.7,0.7,1.2,0.7s0.9-0.2,1.2-0.7s0.5-1.4,0.5-2.8c0-1.4-0.2-2.3-0.5-2.8s-0.7-0.7-1.2-0.7
		s-0.9,0.2-1.2,0.6C391.6,858.6,391.5,859.6,391.5,861z"/>
	<path d="M397.6,865.2V864h1.2v1.2H397.6z"/>
	<path d="M400.4,861c0-1,0.1-1.8,0.3-2.5s0.5-1.1,0.9-1.4s0.9-0.5,1.6-0.5c0.5,0,0.9,0.1,1.2,0.3s0.6,0.5,0.9,0.8s0.4,0.8,0.5,1.3
		s0.2,1.2,0.2,2c0,1-0.1,1.8-0.3,2.4s-0.5,1.1-0.9,1.4s-0.9,0.5-1.6,0.5c-0.8,0-1.5-0.3-2-0.9C400.7,863.8,400.4,862.6,400.4,861z
		 M401.5,861c0,1.4,0.2,2.3,0.5,2.8s0.7,0.7,1.2,0.7s0.9-0.2,1.2-0.7s0.5-1.4,0.5-2.8c0-1.4-0.2-2.3-0.5-2.8s-0.7-0.7-1.2-0.7
		s-0.9,0.2-1.2,0.6C401.6,858.6,401.5,859.6,401.5,861z"/>
</g>
</svg>
