<?xml version="1.0" encoding="utf-8"?>
<!-- Generator: Adobe Illustrator 23.0.0, SVG Export Plug-In . SVG Version: 6.00 Build 0)  -->
<svg version="1.1" id="Layer_1" xmlns="http://www.w3.org/2000/svg" xmlns:xlink="http://www.w3.org/1999/xlink" x="0px" y="0px"
	 viewBox="0 0 160.9 68.62" style="enable-background:new 0 0 160.9 68.62;" xml:space="preserve">
<g id="XMLID_163_">
	<g id="XMLID_27_">
		<g id="XMLID_28_">
			<path id="XMLID_30_" d="M2.77,11.54c0-1.92,1.07-3.37,2.78-4.09V6.33c-2.3,0.83-3.78,2.72-3.78,5.22c0,3.3,2.6,5.46,5.9,5.46v-1
				C4.92,16.01,2.77,14.29,2.77,11.54z"/>
			<path id="XMLID_31_" d="M9.79,6.33v1.12c1.71,0.72,2.78,2.17,2.78,4.09c0,2.75-2.16,4.46-4.9,4.46v1c3.3,0,5.9-2.16,5.9-5.46
				C13.58,9.05,12.09,7.16,9.79,6.33z"/>
		</g>
		<path id="XMLID_76_" d="M9.08,1.84C8.57,1.19,8.19,0.58,7.95,0H7.86H7.49H7.4C7.16,0.58,6.78,1.19,6.28,1.84S4.72,3.58,3.56,4.15
			v0.76c0.98-0.19,1.92-0.88,2.22-1.1c0.45-0.33,1.09-0.97,1.38-1.83v10.54h0.01h1.01h0.01V1.98c0.3,0.86,0.94,1.5,1.38,1.83
			c0.3,0.22,1.23,0.91,2.22,1.1V4.15C10.63,3.58,9.58,2.49,9.08,1.84z"/>
	</g>
	<g id="XMLID_1_">
		<polygon id="XMLID_18_" points="37.43,27.63 37.43,33.22 38.43,33.22 38.43,28.63 47.68,28.63 47.68,42.06 38.43,42.06 
			38.43,37.47 37.43,37.47 37.43,43.06 48.68,43.06 48.68,27.63 		"/>
		<g id="XMLID_3_">
			<path id="XMLID_4_" d="M43.87,36.76c0.65-0.51,1.26-0.88,1.84-1.13v-0.09v-0.36v-0.09c-0.58-0.25-1.19-0.62-1.84-1.13
				s-1.74-1.56-2.31-2.71H40.8c0.19,0.98,0.88,1.92,1.1,2.22c0.33,0.45,0.97,1.09,1.83,1.38H33.18v0.01v1.01v0.01h10.54
				c-0.86,0.3-1.5,0.94-1.83,1.38c-0.22,0.3-0.91,1.23-1.1,2.22h0.76C42.13,38.31,43.22,37.26,43.87,36.76z"/>
		</g>
	</g>
	<g id="XMLID_2_">
		<path id="XMLID_11_" d="M42.02,5.35c-2.18,0-3.95,1.77-3.95,3.95s1.77,3.95,3.95,3.95s3.95-1.77,3.95-3.95S44.2,5.35,42.02,5.35z
			 M42.02,12.25c-1.63,0-2.95-1.32-2.95-2.95s1.32-2.95,2.95-2.95c1.63,0,2.95,1.32,2.95,2.95S43.65,12.25,42.02,12.25z"/>
		<path id="XMLID_14_" d="M47.93,5.18L46.66,2.4h-4.64h-4.64l-1.26,2.78h-3.08v10.79h8.98h8.98V5.18H47.93z M50.01,14.97h-7.98
			h-7.98V6.18h2.72l1.26-2.78h4h4l1.26,2.78h2.72V14.97z"/>
		<rect id="XMLID_15_" x="33.04" y="2.47" width="2.39" height="1.75"/>
	</g>
	<path id="XMLID_49_" d="M79.45,9.55c0.46-0.04,1.14-0.69,1.4-0.98c0.57-0.66,0.84-1.94,0.79-3.15c-0.1-2.32-1.6-4.19-3.91-4.19
		s-3.81,1.86-3.91,4.19c-0.05,1.21,0.21,2.49,0.79,3.15c0.26,0.29,0.94,0.94,1.4,0.98c-2.75,0.62-5.43,4.35-5.43,6.93v0.5h7.16h7.16
		v-0.5C84.88,13.9,82.2,10.17,79.45,9.55z M75.47,8.05c-0.48-0.5-0.7-1.64-0.66-2.58c0.08-1.81,1.22-3.23,2.91-3.23
		s2.83,1.42,2.91,3.23c0.04,0.94-0.18,2.08-0.66,2.58c-0.49,0.51-1.27,1.03-2.25,1.03S75.96,8.57,75.47,8.05z M77.72,15.99H71.6
		c0.37-2.58,3.47-5.91,6.12-5.91s5.75,3.32,6.12,5.91H77.72z"/>
	<g id="XMLID_6_">
		<g id="XMLID_5_">
			<path id="XMLID_95_" d="M109.31,5.14h-4.85V0.29h4.85V5.14z M105.45,4.14h2.85V1.29h-2.85V4.14z"/>
		</g>
		<g id="XMLID_42_">
			<path id="XMLID_92_" d="M115.72,5.14h-4.85V0.29h4.85V5.14z M111.86,4.14h2.85V1.29h-2.85V4.14z"/>
		</g>
		<g id="XMLID_45_">
			<path id="XMLID_89_" d="M122.13,5.14h-4.85V0.29h4.85V5.14z M118.27,4.14h2.85V1.29h-2.85V4.14z"/>
		</g>
		<g id="XMLID_46_">
			<path id="XMLID_86_" d="M109.31,11.58h-4.85V6.72h4.85V11.58z M105.45,10.58h2.85V7.72h-2.85V10.58z"/>
		</g>
		<g id="XMLID_44_">
			<path id="XMLID_83_" d="M115.72,11.58h-4.85V6.72h4.85V11.58z M111.86,10.58h2.85V7.72h-2.85V10.58z"/>
		</g>
		<g id="XMLID_43_">
			<path id="XMLID_80_" d="M122.13,11.58h-4.85V6.72h4.85V11.58z M118.27,10.58h2.85V7.72h-2.85V10.58z"/>
		</g>
		<g id="XMLID_53_">
			<path id="XMLID_77_" d="M109.31,5.14h-4.85V0.29h4.85V5.14z M105.45,4.14h2.85V1.29h-2.85V4.14z"/>
		</g>
		<g id="XMLID_72_">
			<path id="XMLID_73_" d="M109.31,18.01h-4.85v-4.85h4.85V18.01z M105.45,17.01h2.85v-2.85h-2.85V17.01z"/>
		</g>
		<g id="XMLID_71_">
			<path id="XMLID_54_" d="M115.72,18.01h-4.85v-4.85h4.85V18.01z M111.86,17.01h2.85v-2.85h-2.85V17.01z"/>
		</g>
		<g id="XMLID_57_">
			<path id="XMLID_41_" d="M122.13,18.01h-4.85v-4.85h4.85V18.01z M118.27,17.01h2.85v-2.85h-2.85V17.01z"/>
		</g>
	</g>
	<path id="XMLID_106_" d="M141.35,3.22v11.85h18.04V3.22H141.35z M157.55,4.22l-7.17,5.89l-7.17-5.89H157.55z M142.35,14.07V4.82
		l8.02,7.3l8.02-7.3v9.26H142.35z"/>
	<path id="XMLID_111_" d="M14.67,41.03l-5.63-4.29c0.76-0.9,1.24-2.04,1.24-3.3c0-2.83-2.3-5.13-5.13-5.13S0,30.6,0,33.43
		s2.3,5.13,5.13,5.13c1.21,0,2.3-0.44,3.18-1.14l5.11,4.94L14.67,41.03z M1,33.43c0-2.28,1.85-4.13,4.13-4.13s4.13,1.85,4.13,4.13
		s-1.85,4.13-4.13,4.13S1,35.71,1,33.43z"/>
	<g id="XMLID_117_">
		<path id="XMLID_120_" d="M87.87,35c-0.02-0.06-2.56-5.87-10.22-5.87S67.45,34.94,67.42,35l-0.08,0.19l0.08,0.19
			c0.02,0.06,2.56,5.87,10.22,5.87s10.2-5.81,10.22-5.87l0.08-0.19L87.87,35z M68.44,35.2c0.36-0.69,2.42-3.66,5.76-4.71
			c0,0-0.83,0.41-0.83,0.42c-0.07,0.07-0.14,0.16-0.21,0.23c-0.06,0.07-0.12,0.13-0.18,0.2c-0.07,0.08-0.13,0.17-0.19,0.25
			c-0.05,0.07-0.11,0.14-0.16,0.21c-0.06,0.09-0.11,0.19-0.17,0.28c-0.04,0.07-0.09,0.15-0.13,0.22c-0.06,0.1-0.1,0.21-0.15,0.31
			c-0.03,0.07-0.07,0.14-0.1,0.22c-0.05,0.11-0.09,0.23-0.13,0.35c-0.02,0.07-0.05,0.14-0.08,0.21c-0.04,0.12-0.06,0.24-0.09,0.36
			c-0.02,0.08-0.04,0.15-0.06,0.23c-0.03,0.13-0.04,0.25-0.06,0.38c-0.01,0.07-0.03,0.15-0.03,0.22c-0.02,0.2-0.03,0.41-0.03,0.62
			c0,0.21,0.01,0.42,0.03,0.62c0.01,0.07,0.02,0.14,0.03,0.21c0.02,0.13,0.03,0.27,0.06,0.4c0.02,0.08,0.04,0.15,0.06,0.22
			c0.03,0.12,0.06,0.24,0.09,0.36c0.02,0.07,0.05,0.15,0.08,0.22c0.04,0.11,0.08,0.23,0.13,0.34c0.03,0.08,0.07,0.15,0.11,0.22
			c0.05,0.1,0.1,0.21,0.15,0.31c0.04,0.08,0.09,0.15,0.13,0.22c0.06,0.09,0.11,0.19,0.17,0.28c0.05,0.08,0.11,0.15,0.16,0.22
			c0.06,0.08,0.12,0.17,0.19,0.25c0.06,0.07,0.13,0.14,0.19,0.21c0.07,0.07,0.13,0.15,0.2,0.22c0.01,0.01,0.81,0.36,0.82,0.36
			C70.62,38.8,68.8,35.91,68.44,35.2z M72.59,35.19c0-2.79,2.27-5.06,5.06-5.06s5.06,2.27,5.06,5.06s-2.27,5.06-5.06,5.06
			S72.59,37.98,72.59,35.19z M81.09,39.86c0.01-0.01,0.81-0.36,0.82-0.36c0.07-0.07,0.13-0.14,0.2-0.22
			c0.06-0.07,0.13-0.14,0.19-0.21c0.07-0.08,0.13-0.16,0.19-0.25c0.05-0.07,0.11-0.14,0.16-0.22c0.06-0.09,0.12-0.19,0.17-0.28
			c0.04-0.07,0.09-0.15,0.13-0.22c0.06-0.1,0.1-0.21,0.15-0.31c0.04-0.07,0.07-0.15,0.11-0.22c0.05-0.11,0.09-0.23,0.13-0.34
			c0.03-0.07,0.06-0.14,0.08-0.22c0.04-0.12,0.06-0.24,0.09-0.36c0.02-0.08,0.04-0.15,0.06-0.22c0.03-0.13,0.04-0.26,0.06-0.4
			c0.01-0.07,0.02-0.14,0.03-0.21c0.02-0.2,0.03-0.41,0.03-0.62c0-0.21-0.01-0.42-0.03-0.62c-0.01-0.07-0.02-0.15-0.03-0.22
			c-0.02-0.13-0.03-0.26-0.06-0.38c-0.02-0.08-0.04-0.15-0.06-0.23c-0.03-0.12-0.06-0.24-0.09-0.36c-0.02-0.07-0.05-0.14-0.08-0.21
			c-0.04-0.12-0.08-0.23-0.13-0.35c-0.03-0.07-0.07-0.14-0.1-0.22c-0.05-0.1-0.1-0.21-0.15-0.31c-0.04-0.08-0.09-0.15-0.13-0.22
			c-0.06-0.09-0.11-0.19-0.17-0.28c-0.05-0.07-0.11-0.14-0.16-0.21c-0.06-0.09-0.12-0.17-0.19-0.25c-0.06-0.07-0.12-0.13-0.18-0.2
			c-0.07-0.08-0.14-0.16-0.21-0.23c0,0-0.83-0.41-0.83-0.42c3.35,1.05,5.41,4.02,5.76,4.71C86.49,35.91,84.67,38.8,81.09,39.86z"/>
		<path id="XMLID_125_" d="M77.65,32.15c-1.68,0-3.04,1.36-3.04,3.04s1.36,3.04,3.04,3.04s3.04-1.36,3.04-3.04
			S79.32,32.15,77.65,32.15z M77.65,37.24c-1.13,0-2.04-0.92-2.04-2.04c0-1.13,0.92-2.04,2.04-2.04s2.04,0.92,2.04,2.04
			C79.69,36.32,78.77,37.24,77.65,37.24z"/>
	</g>
	<path id="XMLID_58_" d="M116.22,27.87h-7.47V42.7h11.08v-8.17L116.22,27.87z M115.78,29.16l2.47,4.56l-3.69-1.37
		C115.51,32.11,116.11,30.51,115.78,29.16z M109.74,41.7V28.87h5.31c-0.08,0.88-0.4,2.69-1.6,3.18l-1.16,0.48l6.52,2.46v6.69H109.74
		z"/>
	<path id="XMLID_115_" d="M160.9,33.36l-10.69-6.46l-10.35,6.46h2.45v9.32h6h5.8h4.01v-9.32H160.9z M150.22,28.07l7.09,4.29h-13.97
		L150.22,28.07z M149.3,41.68v-3.91h3.8v3.91H149.3z M157.12,41.68h-3.01v-4.91h-5.8v4.91h-5v-8.32h13.82V41.68z"/>
	<g id="XMLID_128_">
		<path id="XMLID_137_" d="M39.21,54.62c0-1.45-1.18-2.63-2.63-2.63s-2.63,1.18-2.63,2.63c0,1.28,0.92,2.34,2.13,2.57v10.13h1V57.2
			C38.29,56.96,39.21,55.9,39.21,54.62z M36.58,56.25c-0.9,0-1.63-0.73-1.63-1.63S35.69,53,36.58,53s1.63,0.73,1.63,1.63
			S37.48,56.25,36.58,56.25z"/>
		<path id="XMLID_140_" d="M42.33,63.42V53h-1v10.42c-1.21,0.23-2.13,1.3-2.13,2.57c0,1.45,1.18,2.63,2.63,2.63s2.63-1.18,2.63-2.63
			C44.46,64.71,43.54,63.65,42.33,63.42z M41.83,67.62c-0.9,0-1.63-0.73-1.63-1.63s0.73-1.63,1.63-1.63s1.63,0.73,1.63,1.63
			S42.73,67.62,41.83,67.62z"/>
		<path id="XMLID_143_" d="M49.71,58.94c0-1.28-0.92-2.34-2.13-2.57v-3.33h-1v3.33c-1.21,0.23-2.13,1.3-2.13,2.57
			s0.92,2.34,2.13,2.57v6.1h1v-6.1C48.79,61.28,49.71,60.22,49.71,58.94z M47.08,60.56c-0.9,0-1.63-0.73-1.63-1.63
			s0.73-1.63,1.63-1.63s1.63,0.73,1.63,1.63S47.98,60.56,47.08,60.56z"/>
	</g>
	<g id="XMLID_7_">
		<g id="XMLID_24_">
			<path id="XMLID_29_" d="M87.08,67.77H68.21l9.44-15.8L87.08,67.77z M69.97,66.77h15.35l-7.68-12.85L69.97,66.77z"/>
		</g>
		<g id="XMLID_9_">
			<polygon id="XMLID_26_" points="78.15,63.02 77.15,63.02 76.65,57.74 78.64,57.74 			"/>
		</g>
		<g id="XMLID_17_">
			<rect id="XMLID_25_" x="76.85" y="63.96" width="1.58" height="1.5"/>
		</g>
	</g>
	<path id="XMLID_98_" d="M122.38,56.54l-0.53,1.77h-2.43c-0.25-2.49-2.34-4.45-4.9-4.45s-4.65,1.96-4.9,4.45h-2.43l-0.53-1.77
		l-0.96,0.29l3.02,10.06h11.6l3.02-10.06L122.38,56.54z M114.51,54.86c2.01,0,3.66,1.51,3.9,3.45h-7.81
		C110.86,56.37,112.5,54.86,114.51,54.86z M119.57,65.9h-10.11l-1.98-6.58h14.07L119.57,65.9z"/>
</g>
</svg>
