<?xml version="1.0" encoding="utf-8"?>
<!-- Generator: Adobe Illustrator 23.0.0, SVG Export Plug-In . SVG Version: 6.00 Build 0)  -->
<svg version="1.1" id="Layer_1" xmlns="http://www.w3.org/2000/svg" xmlns:xlink="http://www.w3.org/1999/xlink" x="0px" y="0px"
	 viewBox="0 0 472.72 883.54" style="enable-background:new 0 0 472.72 883.54;" xml:space="preserve">
<style type="text/css">
	.st0{fill:#808080;}
	.st1{fill:#FFFFFF;}
	.st2{clip-path:url(#SVGID_2_);}
	.st3{fill:#E2E2E2;}
	.st4{fill:#020202;}
	.st5{clip-path:url(#SVGID_4_);}
	.st6{clip-path:url(#SVGID_6_);}
	.st7{fill:none;stroke:#000000;stroke-miterlimit:10;}
	.st8{font-family:'ArialMT';}
	.st9{font-size:12px;}
	.st10{fill:#9F9F9F;stroke:#000000;stroke-width:0.5;stroke-miterlimit:10;}
	.st11{fill:#404040;stroke:#000000;stroke-width:0.5;stroke-miterlimit:10;}
	.st12{fill:#808080;stroke:#000000;stroke-width:0.5;stroke-miterlimit:10;}
	.st13{fill:#DFDFDF;stroke:#000000;stroke-width:0.5;stroke-miterlimit:10;}
	.st14{stroke:#000000;stroke-width:0.5;stroke-miterlimit:10;}
</style>
<g>
	<g>
		<ellipse cx="174.87" cy="454.98" rx="167.4" ry="116.98"/>
	</g>
	<g>
		<ellipse cx="174.87" cy="453.98" rx="167.4" ry="116.98"/>
	</g>
	<g>
		<ellipse cx="174.87" cy="452.98" rx="167.4" ry="116.98"/>
	</g>
	<g>
		<ellipse cx="174.87" cy="451.98" rx="167.4" ry="116.98"/>
	</g>
	<g>
		<ellipse cx="174.87" cy="450.98" rx="167.4" ry="116.98"/>
	</g>
	<g>
		<ellipse cx="174.87" cy="449.98" rx="167.4" ry="116.98"/>
	</g>
	<g>
		<ellipse cx="174.87" cy="448.98" rx="167.4" ry="116.98"/>
	</g>
	<g>
		<ellipse cx="174.87" cy="447.98" rx="167.4" ry="116.98"/>
	</g>
	<g>
		<ellipse cx="174.87" cy="446.98" rx="167.4" ry="116.98"/>
	</g>
	<g>
		<ellipse cx="174.87" cy="445.98" rx="167.4" ry="116.98"/>
	</g>
	<g>
		<ellipse cx="174.87" cy="444.98" rx="167.4" ry="116.98"/>
	</g>
	<g>
		<ellipse cx="174.87" cy="443.98" rx="167.4" ry="116.98"/>
	</g>
	<g>
		<ellipse cx="174.87" cy="442.98" rx="167.4" ry="116.98"/>
	</g>
	<g>
		<ellipse cx="174.87" cy="441.98" rx="167.4" ry="116.98"/>
	</g>
	<g>
		<ellipse cx="174.87" cy="440.98" rx="167.4" ry="116.98"/>
	</g>
	<g>
		<ellipse cx="174.87" cy="439.98" rx="167.4" ry="116.98"/>
	</g>
	<g>
		<ellipse cx="174.87" cy="438.98" rx="167.4" ry="116.98"/>
	</g>
	<g>
		<ellipse cx="174.87" cy="437.98" rx="167.4" ry="116.98"/>
	</g>
	<g>
		<ellipse cx="174.87" cy="436.98" rx="167.4" ry="116.98"/>
	</g>
	<g>
		<ellipse cx="174.87" cy="435.98" rx="167.4" ry="116.98"/>
	</g>
	<g>
		<ellipse cx="174.87" cy="434.98" rx="167.4" ry="116.98"/>
	</g>
	<g>
		<ellipse cx="174.87" cy="433.98" rx="167.4" ry="116.98"/>
	</g>
	<g>
		<ellipse cx="174.87" cy="432.98" rx="167.4" ry="116.98"/>
	</g>
	<g>
		<ellipse cx="174.87" cy="431.98" rx="167.4" ry="116.98"/>
	</g>
	<g>
		<ellipse cx="174.87" cy="430.98" rx="167.4" ry="116.98"/>
	</g>
</g>
<g>
	<ellipse class="st0" cx="174.87" cy="430.98" rx="167.4" ry="116.98"/>
</g>
<g>
	<ellipse class="st1" cx="174.87" cy="430.98" rx="132.16" ry="92.36"/>
</g>
<g>
	<g>
		<ellipse cx="174.87" cy="147.38" rx="167.4" ry="116.98"/>
	</g>
	<g>
		<ellipse cx="174.87" cy="146.38" rx="167.4" ry="116.98"/>
	</g>
	<g>
		<ellipse cx="174.87" cy="145.38" rx="167.4" ry="116.98"/>
	</g>
	<g>
		<ellipse cx="174.87" cy="144.38" rx="167.4" ry="116.98"/>
	</g>
	<g>
		<ellipse cx="174.87" cy="143.38" rx="167.4" ry="116.98"/>
	</g>
	<g>
		<ellipse cx="174.87" cy="142.38" rx="167.4" ry="116.98"/>
	</g>
	<g>
		<ellipse cx="174.87" cy="141.38" rx="167.4" ry="116.98"/>
	</g>
	<g>
		<ellipse cx="174.87" cy="140.38" rx="167.4" ry="116.98"/>
	</g>
	<g>
		<ellipse cx="174.87" cy="139.38" rx="167.4" ry="116.98"/>
	</g>
	<g>
		<ellipse cx="174.87" cy="138.38" rx="167.4" ry="116.98"/>
	</g>
	<g>
		<ellipse cx="174.87" cy="137.38" rx="167.4" ry="116.98"/>
	</g>
	<g>
		<ellipse cx="174.87" cy="136.38" rx="167.4" ry="116.98"/>
	</g>
	<g>
		<ellipse cx="174.87" cy="135.38" rx="167.4" ry="116.98"/>
	</g>
	<g>
		<ellipse cx="174.87" cy="134.38" rx="167.4" ry="116.98"/>
	</g>
	<g>
		<ellipse cx="174.87" cy="133.38" rx="167.4" ry="116.98"/>
	</g>
	<g>
		<ellipse cx="174.87" cy="132.38" rx="167.4" ry="116.98"/>
	</g>
	<g>
		<ellipse cx="174.87" cy="131.38" rx="167.4" ry="116.98"/>
	</g>
	<g>
		<ellipse cx="174.87" cy="130.38" rx="167.4" ry="116.98"/>
	</g>
	<g>
		<ellipse cx="174.87" cy="129.38" rx="167.4" ry="116.98"/>
	</g>
	<g>
		<ellipse cx="174.87" cy="128.38" rx="167.4" ry="116.98"/>
	</g>
	<g>
		<ellipse cx="174.87" cy="127.38" rx="167.4" ry="116.98"/>
	</g>
	<g>
		<ellipse cx="174.87" cy="126.38" rx="167.4" ry="116.98"/>
	</g>
	<g>
		<ellipse cx="174.87" cy="125.38" rx="167.4" ry="116.98"/>
	</g>
	<g>
		<ellipse cx="174.87" cy="124.38" rx="167.4" ry="116.98"/>
	</g>
	<g>
		<ellipse cx="174.87" cy="123.38" rx="167.4" ry="116.98"/>
	</g>
</g>
<g>
	<ellipse class="st0" cx="174.87" cy="123.38" rx="167.4" ry="116.98"/>
</g>
<g>
	<defs>
		<polygon id="SVGID_1_" points="472.72,25.34 245.53,-26.84 174.87,123.38 402.06,175.57 		"/>
	</defs>
	<clipPath id="SVGID_2_">
		<use xlink:href="#SVGID_1_"  style="overflow:visible;"/>
	</clipPath>
	<g class="st2">
		<ellipse class="st3" cx="174.87" cy="123.38" rx="167.4" ry="116.98"/>
	</g>
</g>
<g>
	<g>
		<rect x="7.43" y="122.88" class="st4" width="0.5" height="1"/>
	</g>
	<g>
		<path class="st4" d="M172.38,123.88h-1v-1h1V123.88z M169.39,123.88h-1v-1h1V123.88z M166.4,123.88h-1v-1h1V123.88z
			 M163.41,123.88h-1v-1h1V123.88z M160.42,123.88h-1v-1h1V123.88z M157.43,123.88h-1v-1h1V123.88z M154.44,123.88h-1v-1h1V123.88z
			 M151.45,123.88h-1v-1h1V123.88z M148.46,123.88h-1v-1h1V123.88z M145.47,123.88h-1v-1h1V123.88z M142.48,123.88h-1v-1h1V123.88z
			 M139.49,123.88h-1v-1h1V123.88z M136.5,123.88h-1v-1h1V123.88z M133.51,123.88h-1v-1h1V123.88z M130.52,123.88h-1v-1h1V123.88z
			 M127.53,123.88h-1v-1h1V123.88z M124.54,123.88h-1v-1h1V123.88z M121.55,123.88h-1v-1h1V123.88z M118.56,123.88h-1v-1h1V123.88z
			 M115.57,123.88h-1v-1h1V123.88z M112.58,123.88h-1v-1h1V123.88z M109.59,123.88h-1v-1h1V123.88z M106.6,123.88h-1v-1h1V123.88z
			 M103.61,123.88h-1v-1h1V123.88z M100.62,123.88h-1v-1h1V123.88z M97.63,123.88h-1v-1h1V123.88z M94.64,123.88h-1v-1h1V123.88z
			 M91.65,123.88h-1v-1h1V123.88z M88.66,123.88h-1v-1h1V123.88z M85.67,123.88h-1v-1h1V123.88z M82.68,123.88h-1v-1h1V123.88z
			 M79.69,123.88h-1v-1h1V123.88z M76.7,123.88h-1v-1h1V123.88z M73.71,123.88h-1v-1h1V123.88z M70.72,123.88h-1v-1h1V123.88z
			 M67.73,123.88h-1v-1h1V123.88z M64.74,123.88h-1v-1h1V123.88z M61.75,123.88h-1v-1h1V123.88z M58.76,123.88h-1v-1h1V123.88z
			 M55.77,123.88h-1v-1h1V123.88z M52.78,123.88h-1v-1h1V123.88z M49.79,123.88h-1v-1h1V123.88z M46.8,123.88h-1v-1h1V123.88z
			 M43.81,123.88h-1v-1h1V123.88z M40.82,123.88h-1v-1h1V123.88z M37.83,123.88h-1v-1h1V123.88z M34.84,123.88h-1v-1h1V123.88z
			 M31.85,123.88h-1v-1h1V123.88z M28.86,123.88h-1v-1h1V123.88z M25.87,123.88h-1v-1h1V123.88z M22.88,123.88h-1v-1h1V123.88z
			 M19.89,123.88h-1v-1h1V123.88z M16.9,123.88h-1v-1h1V123.88z M13.91,123.88h-1v-1h1V123.88z M10.92,123.88h-1v-1h1V123.88z"/>
	</g>
	<g>
		<rect x="174.37" y="122.88" class="st4" width="1" height="1"/>
	</g>
	<g>
		<path class="st4" d="M175.37,120.88h-1v-1h1V120.88z M175.37,117.88h-1v-1h1V117.88z M175.37,114.88h-1v-1h1V114.88z
			 M175.37,111.88h-1v-1h1V111.88z M175.37,108.88h-1v-1h1V108.88z M175.37,105.88h-1v-1h1V105.88z M175.37,102.88h-1v-1h1V102.88z
			 M175.37,99.88h-1v-1h1V99.88z M175.37,96.88h-1v-1h1V96.88z M175.37,93.88h-1v-1h1V93.88z M175.37,90.88h-1v-1h1V90.88z
			 M175.37,87.88h-1v-1h1V87.88z M175.37,84.88h-1v-1h1V84.88z M175.37,81.88h-1v-1h1V81.88z M175.37,78.88h-1v-1h1V78.88z
			 M175.37,75.88h-1v-1h1V75.88z M175.37,72.88h-1v-1h1V72.88z M175.37,69.88h-1v-1h1V69.88z M175.37,66.88h-1v-1h1V66.88z
			 M175.37,63.88h-1v-1h1V63.88z M175.37,60.88h-1v-1h1V60.88z M175.37,57.88h-1v-1h1V57.88z M175.37,54.88h-1v-1h1V54.88z
			 M175.37,51.88h-1v-1h1V51.88z M175.37,48.88h-1v-1h1V48.88z M175.37,45.88h-1v-1h1V45.88z M175.37,42.88h-1v-1h1V42.88z
			 M175.37,39.88h-1v-1h1V39.88z M175.37,36.88h-1v-1h1V36.88z M175.37,33.88h-1v-1h1V33.88z M175.37,30.88h-1v-1h1V30.88z
			 M175.37,27.88h-1v-1h1V27.88z M175.37,24.88h-1v-1h1V24.88z M175.37,21.88h-1v-1h1V21.88z M175.37,18.88h-1v-1h1V18.88z
			 M175.37,15.88h-1v-1h1V15.88z M175.37,12.88h-1v-1h1V12.88z M175.37,9.87h-1v-1h1V9.87z"/>
	</g>
	<g>
		<rect x="174.37" y="6.37" class="st4" width="1" height="0.5"/>
	</g>
</g>
<g>
	<path class="st4" d="M175.37,240.4h-1v-1h1V240.4z M175.37,237.4h-1v-1h1V237.4z M175.37,234.4h-1v-1h1V234.4z M175.37,231.4h-1v-1
		h1V231.4z M175.37,228.4h-1v-1h1V228.4z M175.37,225.4h-1v-1h1V225.4z M175.37,222.4h-1v-1h1V222.4z M175.37,219.4h-1v-1h1V219.4z
		 M175.37,216.4h-1v-1h1V216.4z M175.37,213.4h-1v-1h1V213.4z M175.37,210.4h-1v-1h1V210.4z M175.37,207.4h-1v-1h1V207.4z
		 M175.37,204.4h-1v-1h1V204.4z M175.37,201.4h-1v-1h1V201.4z M175.37,198.4h-1v-1h1V198.4z M175.37,195.4h-1v-1h1V195.4z
		 M175.37,192.4h-1v-1h1V192.4z M175.37,189.4h-1v-1h1V189.4z M175.37,186.4h-1v-1h1V186.4z M175.37,183.4h-1v-1h1V183.4z
		 M175.37,180.4h-1v-1h1V180.4z M175.37,177.4h-1v-1h1V177.4z M175.37,174.4h-1v-1h1V174.4z M175.37,171.4h-1v-1h1V171.4z
		 M175.37,168.4h-1v-1h1V168.4z M175.37,165.4h-1v-1h1V165.4z M175.37,162.4h-1v-1h1V162.4z M175.37,159.4h-1v-1h1V159.4z
		 M175.37,156.4h-1v-1h1V156.4z M175.37,153.4h-1v-1h1V153.4z M175.37,150.4h-1v-1h1V150.4z M175.37,147.4h-1v-1h1V147.4z
		 M175.37,144.4h-1v-1h1V144.4z M175.37,141.4h-1v-1h1V141.4z M175.37,138.4h-1v-1h1V138.4z M175.37,135.4h-1v-1h1V135.4z
		 M175.37,132.4h-1v-1h1V132.4z M175.37,129.4h-1v-1h1V129.4z M175.37,126.4h-1v-1h1V126.4z M340.86,123.88h-1v-1h1V123.88z
		 M337.86,123.88h-1v-1h1V123.88z M334.86,123.88h-1v-1h1V123.88z M331.86,123.88h-1v-1h1V123.88z M328.86,123.88h-1v-1h1V123.88z
		 M325.86,123.88h-1v-1h1V123.88z M322.86,123.88h-1v-1h1V123.88z M319.86,123.88h-1v-1h1V123.88z M316.86,123.88h-1v-1h1V123.88z
		 M313.86,123.88h-1v-1h1V123.88z M310.86,123.88h-1v-1h1V123.88z M307.86,123.88h-1v-1h1V123.88z M304.86,123.88h-1v-1h1V123.88z
		 M301.86,123.88h-1v-1h1V123.88z M298.86,123.88h-1v-1h1V123.88z M295.86,123.88h-1v-1h1V123.88z M292.86,123.88h-1v-1h1V123.88z
		 M289.86,123.88h-1v-1h1V123.88z M286.86,123.88h-1v-1h1V123.88z M283.86,123.88h-1v-1h1V123.88z M280.86,123.88h-1v-1h1V123.88z
		 M277.86,123.88h-1v-1h1V123.88z M274.86,123.88h-1v-1h1V123.88z M271.86,123.88h-1v-1h1V123.88z M268.86,123.88h-1v-1h1V123.88z
		 M265.86,123.88h-1v-1h1V123.88z M262.86,123.88h-1v-1h1V123.88z M259.86,123.88h-1v-1h1V123.88z M256.86,123.88h-1v-1h1V123.88z
		 M253.86,123.88h-1v-1h1V123.88z M250.86,123.88h-1v-1h1V123.88z M247.86,123.88h-1v-1h1V123.88z M244.86,123.88h-1v-1h1V123.88z
		 M241.86,123.88h-1v-1h1V123.88z M238.86,123.88h-1v-1h1V123.88z M235.86,123.88h-1v-1h1V123.88z M232.86,123.88h-1v-1h1V123.88z
		 M229.86,123.88h-1v-1h1V123.88z M226.86,123.88h-1v-1h1V123.88z M223.86,123.88h-1v-1h1V123.88z M220.86,123.88h-1v-1h1V123.88z
		 M217.86,123.88h-1v-1h1V123.88z M214.86,123.88h-1v-1h1V123.88z M211.86,123.88h-1v-1h1V123.88z M208.86,123.88h-1v-1h1V123.88z
		 M205.86,123.88h-1v-1h1V123.88z M202.86,123.88h-1v-1h1V123.88z M199.86,123.88h-1v-1h1V123.88z M196.86,123.88h-1v-1h1V123.88z
		 M193.86,123.88h-1v-1h1V123.88z M190.86,123.88h-1v-1h1V123.88z M187.86,123.88h-1v-1h1V123.88z M184.86,123.88h-1v-1h1V123.88z
		 M181.86,123.88h-1v-1h1V123.88z M178.86,123.88h-1v-1h1V123.88z M175.86,123.88h-0.98v-0.49l-0.5,0.01v-0.52h1.48V123.88z"/>
</g>
<g>
	<path d="M174.85,7.37c17.64,0,35.16,1.97,52.07,5.86c25.29,5.81,47.54,15.4,66.14,28.5c17.71,12.47,31.35,27.87,39.45,44.53
		c11.61,23.88,11.78,49.2,0.48,73.23c-11.13,23.67-32.35,43.81-61.35,58.24c-28.49,14.18-61.94,21.67-96.75,21.67
		c-17.64,0-35.16-1.97-52.08-5.86c-25.29-5.81-47.54-15.4-66.14-28.5c-17.71-12.47-31.35-27.87-39.45-44.53
		c-11.61-23.88-11.78-49.2-0.48-73.23C27.88,63.61,49.09,43.47,78.1,29.04C106.58,14.86,140.04,7.37,174.85,7.37L174.85,7.37
		 M174.84,6.37c-70.35,0-135.84,31.24-159,80.49c-28.87,61.38,18.93,127.49,106.76,147.66c17.36,3.99,34.97,5.88,52.3,5.88
		c70.35,0,135.84-31.24,159-80.49c28.87-61.38-18.93-127.49-106.76-147.66C209.79,8.26,192.17,6.37,174.84,6.37L174.84,6.37z"/>
</g>
<g>
	<rect x="279.05" y="35.34" transform="matrix(0.6938 -0.7202 0.7202 0.6938 64.168 222.6101)" width="29.64" height="1"/>
</g>
<g>
	<path d="M296.08,20.91v-8.59h3.24c0.57,0,1.01,0.03,1.31,0.08c0.42,0.07,0.78,0.2,1.06,0.4s0.51,0.47,0.69,0.83
		s0.26,0.75,0.26,1.17c0,0.73-0.23,1.35-0.7,1.85s-1.3,0.76-2.52,0.76h-2.2v3.49H296.08z M297.22,16.4h2.22
		c0.73,0,1.26-0.14,1.56-0.41c0.31-0.27,0.46-0.66,0.46-1.15c0-0.36-0.09-0.67-0.27-0.92s-0.42-0.42-0.72-0.51
		c-0.19-0.05-0.54-0.08-1.06-0.08h-2.2V16.4z"/>
	<path d="M303.96,13.53v-1.21h1.05v1.21H303.96z M303.96,20.91v-6.22h1.05v6.22H303.96z"/>
	<path d="M310.88,18.9l1.09,0.13c-0.17,0.64-0.49,1.13-0.96,1.48s-1.06,0.53-1.78,0.53c-0.91,0-1.63-0.28-2.17-0.84
		s-0.8-1.35-0.8-2.36c0-1.05,0.27-1.86,0.81-2.44s1.24-0.87,2.1-0.87c0.83,0,1.51,0.28,2.04,0.85s0.79,1.36,0.79,2.39
		c0,0.06,0,0.16-0.01,0.28h-4.64c0.04,0.68,0.23,1.21,0.58,1.57s0.78,0.54,1.3,0.54c0.39,0,0.72-0.1,0.99-0.3
		S310.72,19.35,310.88,18.9z M307.42,17.2h3.47c-0.05-0.52-0.18-0.92-0.4-1.18c-0.34-0.41-0.77-0.61-1.31-0.61
		c-0.48,0-0.89,0.16-1.22,0.49C307.63,16.22,307.45,16.65,307.42,17.2z"/>
	<path d="M322.89,17.9l1.14,0.29c-0.24,0.93-0.67,1.65-1.29,2.14s-1.38,0.74-2.27,0.74c-0.93,0-1.68-0.19-2.26-0.57
		s-1.02-0.92-1.32-1.64s-0.45-1.48-0.45-2.3c0-0.89,0.17-1.67,0.51-2.34s0.83-1.17,1.46-1.52s1.33-0.52,2.08-0.52
		c0.86,0,1.58,0.22,2.17,0.66s0.99,1.05,1.22,1.85l-1.12,0.26c-0.2-0.63-0.49-1.08-0.87-1.37s-0.86-0.43-1.43-0.43
		c-0.66,0-1.21,0.16-1.66,0.47s-0.75,0.74-0.93,1.27s-0.27,1.08-0.27,1.65c0,0.73,0.11,1.37,0.32,1.91s0.54,0.95,0.99,1.22
		s0.94,0.4,1.46,0.4c0.64,0,1.18-0.18,1.62-0.55S322.74,18.62,322.89,17.9z"/>
	<path d="M325.29,20.91v-8.59h1.05v3.08c0.49-0.57,1.11-0.86,1.86-0.86c0.46,0,0.86,0.09,1.2,0.27s0.58,0.43,0.73,0.75
		s0.22,0.79,0.22,1.39v3.94h-1.05v-3.94c0-0.53-0.11-0.91-0.34-1.15c-0.23-0.24-0.55-0.36-0.97-0.36c-0.31,0-0.61,0.08-0.88,0.24
		s-0.47,0.38-0.59,0.66s-0.18,0.66-0.18,1.15v3.4H325.29z"/>
	<path d="M336.03,20.14c-0.39,0.33-0.77,0.57-1.13,0.7s-0.75,0.21-1.16,0.21c-0.68,0-1.21-0.17-1.58-0.5s-0.55-0.76-0.55-1.28
		c0-0.3,0.07-0.58,0.21-0.83s0.32-0.45,0.54-0.61s0.48-0.27,0.76-0.35c0.21-0.05,0.52-0.11,0.94-0.16c0.85-0.1,1.48-0.22,1.88-0.36
		c0-0.14,0.01-0.24,0.01-0.28c0-0.43-0.1-0.73-0.3-0.91c-0.27-0.24-0.67-0.36-1.2-0.36c-0.5,0-0.86,0.09-1.1,0.26
		s-0.41,0.48-0.52,0.92l-1.03-0.14c0.09-0.44,0.25-0.8,0.46-1.07s0.53-0.48,0.93-0.63s0.88-0.22,1.41-0.22
		c0.53,0,0.96,0.06,1.29,0.19s0.58,0.28,0.73,0.47s0.27,0.43,0.33,0.72c0.04,0.18,0.05,0.5,0.05,0.97v1.41
		c0,0.98,0.02,1.6,0.07,1.86s0.13,0.51,0.27,0.75h-1.1C336.13,20.69,336.06,20.43,336.03,20.14z M335.94,17.78
		c-0.38,0.16-0.96,0.29-1.72,0.4c-0.43,0.06-0.74,0.13-0.92,0.21s-0.32,0.19-0.42,0.34s-0.15,0.32-0.15,0.5
		c0,0.28,0.11,0.52,0.32,0.7s0.52,0.28,0.93,0.28c0.41,0,0.77-0.09,1.08-0.27s0.55-0.42,0.7-0.73c0.11-0.24,0.17-0.59,0.17-1.05
		V17.78z"/>
	<path d="M338.63,20.91v-6.22h0.95v0.94c0.24-0.44,0.47-0.73,0.67-0.87s0.43-0.21,0.68-0.21c0.36,0,0.72,0.11,1.08,0.34l-0.36,0.98
		c-0.26-0.15-0.52-0.23-0.77-0.23c-0.23,0-0.44,0.07-0.62,0.21s-0.31,0.33-0.39,0.58c-0.12,0.38-0.18,0.79-0.18,1.23v3.26H338.63z"
		/>
	<path d="M344.94,19.96l0.15,0.93c-0.3,0.06-0.56,0.09-0.8,0.09c-0.38,0-0.68-0.06-0.89-0.18s-0.36-0.28-0.45-0.48
		s-0.13-0.61-0.13-1.25V15.5h-0.77v-0.82h0.77v-1.54l1.05-0.63v2.17h1.06v0.82h-1.06v3.64c0,0.3,0.02,0.49,0.06,0.58
		s0.1,0.15,0.18,0.21s0.2,0.08,0.36,0.08C344.59,20,344.75,19.99,344.94,19.96z"/>
</g>
<g>
	<defs>
		<polygon id="SVGID_3_" points="472.72,332.94 245.53,280.75 174.87,430.98 402.06,483.17 		"/>
	</defs>
	<clipPath id="SVGID_4_">
		<use xlink:href="#SVGID_3_"  style="overflow:visible;"/>
	</clipPath>
	<g class="st5">
		<ellipse class="st3" cx="174.87" cy="430.98" rx="167.4" ry="116.98"/>
	</g>
</g>
<g>
	<g>
		<rect x="7.43" y="430.48" class="st4" width="0.5" height="1"/>
	</g>
	<g>
		<path class="st4" d="M172.38,431.48h-1v-1h1V431.48z M169.39,431.48h-1v-1h1V431.48z M166.4,431.48h-1v-1h1V431.48z
			 M163.41,431.48h-1v-1h1V431.48z M160.42,431.48h-1v-1h1V431.48z M157.43,431.48h-1v-1h1V431.48z M154.44,431.48h-1v-1h1V431.48z
			 M151.45,431.48h-1v-1h1V431.48z M148.46,431.48h-1v-1h1V431.48z M145.47,431.48h-1v-1h1V431.48z M142.48,431.48h-1v-1h1V431.48z
			 M139.49,431.48h-1v-1h1V431.48z M136.5,431.48h-1v-1h1V431.48z M133.51,431.48h-1v-1h1V431.48z M130.52,431.48h-1v-1h1V431.48z
			 M127.53,431.48h-1v-1h1V431.48z M124.54,431.48h-1v-1h1V431.48z M121.55,431.48h-1v-1h1V431.48z M118.56,431.48h-1v-1h1V431.48z
			 M115.57,431.48h-1v-1h1V431.48z M112.58,431.48h-1v-1h1V431.48z M109.59,431.48h-1v-1h1V431.48z M106.6,431.48h-1v-1h1V431.48z
			 M103.61,431.48h-1v-1h1V431.48z M100.62,431.48h-1v-1h1V431.48z M97.63,431.48h-1v-1h1V431.48z M94.64,431.48h-1v-1h1V431.48z
			 M91.65,431.48h-1v-1h1V431.48z M88.66,431.48h-1v-1h1V431.48z M85.67,431.48h-1v-1h1V431.48z M82.68,431.48h-1v-1h1V431.48z
			 M79.69,431.48h-1v-1h1V431.48z M76.7,431.48h-1v-1h1V431.48z M73.71,431.48h-1v-1h1V431.48z M70.72,431.48h-1v-1h1V431.48z
			 M67.73,431.48h-1v-1h1V431.48z M64.74,431.48h-1v-1h1V431.48z M61.75,431.48h-1v-1h1V431.48z M58.76,431.48h-1v-1h1V431.48z
			 M55.77,431.48h-1v-1h1V431.48z M52.78,431.48h-1v-1h1V431.48z M49.79,431.48h-1v-1h1V431.48z M46.8,431.48h-1v-1h1V431.48z
			 M43.81,431.48h-1v-1h1V431.48z M40.82,431.48h-1v-1h1V431.48z M37.83,431.48h-1v-1h1V431.48z M34.84,431.48h-1v-1h1V431.48z
			 M31.85,431.48h-1v-1h1V431.48z M28.86,431.48h-1v-1h1V431.48z M25.87,431.48h-1v-1h1V431.48z M22.88,431.48h-1v-1h1V431.48z
			 M19.89,431.48h-1v-1h1V431.48z M16.9,431.48h-1v-1h1V431.48z M13.91,431.48h-1v-1h1V431.48z M10.92,431.48h-1v-1h1V431.48z"/>
	</g>
	<g>
		<rect x="174.37" y="430.48" class="st4" width="1" height="1"/>
	</g>
	<g>
		<path class="st4" d="M175.37,428.48h-1v-1h1V428.48z M175.37,425.48h-1v-1h1V425.48z M175.37,422.48h-1v-1h1V422.48z
			 M175.37,419.48h-1v-1h1V419.48z M175.37,416.48h-1v-1h1V416.48z M175.37,413.48h-1v-1h1V413.48z M175.37,410.48h-1v-1h1V410.48z
			 M175.37,407.48h-1v-1h1V407.48z M175.37,404.48h-1v-1h1V404.48z M175.37,401.48h-1v-1h1V401.48z M175.37,398.48h-1v-1h1V398.48z
			 M175.37,395.48h-1v-1h1V395.48z M175.37,392.48h-1v-1h1V392.48z M175.37,389.48h-1v-1h1V389.48z M175.37,386.48h-1v-1h1V386.48z
			 M175.37,383.48h-1v-1h1V383.48z M175.37,380.48h-1v-1h1V380.48z M175.37,377.48h-1v-1h1V377.48z M175.37,374.48h-1v-1h1V374.48z
			 M175.37,371.48h-1v-1h1V371.48z M175.37,368.48h-1v-1h1V368.48z M175.37,365.48h-1v-1h1V365.48z M175.37,362.47h-1v-1h1V362.47z
			 M175.37,359.47h-1v-1h1V359.47z M175.37,356.47h-1v-1h1V356.47z M175.37,353.47h-1v-1h1V353.47z M175.37,350.47h-1v-1h1V350.47z
			 M175.37,347.47h-1v-1h1V347.47z M175.37,344.47h-1v-1h1V344.47z M175.37,341.47h-1v-1h1V341.47z M175.37,338.47h-1v-1h1V338.47z
			 M175.37,335.47h-1v-1h1V335.47z M175.37,332.47h-1v-1h1V332.47z M175.37,329.47h-1v-1h1V329.47z M175.37,326.47h-1v-1h1V326.47z
			 M175.37,323.47h-1v-1h1V323.47z M175.37,320.47h-1v-1h1V320.47z M175.37,317.47h-1v-1h1V317.47z"/>
	</g>
	<g>
		<rect x="174.37" y="313.97" class="st4" width="1" height="0.5"/>
	</g>
</g>
<g>
	<path class="st4" d="M175.37,548h-1v-1h1V548z M175.37,545h-1v-1h1V545z M175.37,542h-1v-1h1V542z M175.37,539h-1v-1h1V539z
		 M175.37,536h-1v-1h1V536z M175.37,533h-1v-1h1V533z M175.37,530h-1v-1h1V530z M175.37,527h-1v-1h1V527z M175.37,524h-1v-1h1V524z
		 M175.37,521h-1v-1h1V521z M175.37,518h-1v-1h1V518z M175.37,515h-1v-1h1V515z M175.37,512h-1v-1h1V512z M175.37,509h-1v-1h1V509z
		 M175.37,506h-1v-1h1V506z M175.37,503h-1v-1h1V503z M175.37,500h-1v-1h1V500z M175.37,497h-1v-1h1V497z M175.37,494h-1v-1h1V494z
		 M175.37,491h-1v-1h1V491z M175.37,488h-1v-1h1V488z M175.37,485h-1v-1h1V485z M175.37,482h-1v-1h1V482z M175.37,479h-1v-1h1V479z
		 M175.37,476h-1v-1h1V476z M175.37,473h-1v-1h1V473z M175.37,470h-1v-1h1V470z M175.37,467h-1v-1h1V467z M175.37,464h-1v-1h1V464z
		 M175.37,461h-1v-1h1V461z M175.37,458h-1v-1h1V458z M175.37,455h-1v-1h1V455z M175.37,452h-1v-1h1V452z M175.37,449h-1v-1h1V449z
		 M175.37,446h-1v-1h1V446z M175.37,443h-1v-1h1V443z M175.37,440h-1v-1h1V440z M175.37,437h-1v-1h1V437z M175.37,434h-1v-1h1V434z
		 M340.86,431.48h-1v-1h1V431.48z M337.86,431.48h-1v-1h1V431.48z M334.86,431.48h-1v-1h1V431.48z M331.86,431.48h-1v-1h1V431.48z
		 M328.86,431.48h-1v-1h1V431.48z M325.86,431.48h-1v-1h1V431.48z M322.86,431.48h-1v-1h1V431.48z M319.86,431.48h-1v-1h1V431.48z
		 M316.86,431.48h-1v-1h1V431.48z M313.86,431.48h-1v-1h1V431.48z M310.86,431.48h-1v-1h1V431.48z M307.86,431.48h-1v-1h1V431.48z
		 M304.86,431.48h-1v-1h1V431.48z M301.86,431.48h-1v-1h1V431.48z M298.86,431.48h-1v-1h1V431.48z M295.86,431.48h-1v-1h1V431.48z
		 M292.86,431.48h-1v-1h1V431.48z M289.86,431.48h-1v-1h1V431.48z M286.86,431.48h-1v-1h1V431.48z M283.86,431.48h-1v-1h1V431.48z
		 M280.86,431.48h-1v-1h1V431.48z M277.86,431.48h-1v-1h1V431.48z M274.86,431.48h-1v-1h1V431.48z M271.86,431.48h-1v-1h1V431.48z
		 M268.86,431.48h-1v-1h1V431.48z M265.86,431.48h-1v-1h1V431.48z M262.86,431.48h-1v-1h1V431.48z M259.86,431.48h-1v-1h1V431.48z
		 M256.86,431.48h-1v-1h1V431.48z M253.86,431.48h-1v-1h1V431.48z M250.86,431.48h-1v-1h1V431.48z M247.86,431.48h-1v-1h1V431.48z
		 M244.86,431.48h-1v-1h1V431.48z M241.86,431.48h-1v-1h1V431.48z M238.86,431.48h-1v-1h1V431.48z M235.86,431.48h-1v-1h1V431.48z
		 M232.86,431.48h-1v-1h1V431.48z M229.86,431.48h-1v-1h1V431.48z M226.86,431.48h-1v-1h1V431.48z M223.86,431.48h-1v-1h1V431.48z
		 M220.86,431.48h-1v-1h1V431.48z M217.86,431.48h-1v-1h1V431.48z M214.86,431.48h-1v-1h1V431.48z M211.86,431.48h-1v-1h1V431.48z
		 M208.86,431.48h-1v-1h1V431.48z M205.86,431.48h-1v-1h1V431.48z M202.86,431.48h-1v-1h1V431.48z M199.86,431.48h-1v-1h1V431.48z
		 M196.86,431.48h-1v-1h1V431.48z M193.86,431.48h-1v-1h1V431.48z M190.86,431.48h-1v-1h1V431.48z M187.86,431.48h-1v-1h1V431.48z
		 M184.86,431.48h-1v-1h1V431.48z M181.86,431.48h-1v-1h1V431.48z M178.86,431.48h-1v-1h1V431.48z M175.86,431.48h-0.98v-0.49
		l-0.5,0.01v-0.52h1.48V431.48z"/>
</g>
<g>
	<path d="M174.85,314.96c17.64,0,35.16,1.97,52.07,5.86c25.29,5.81,47.54,15.4,66.14,28.5c17.71,12.47,31.35,27.87,39.45,44.53
		c11.61,23.88,11.78,49.2,0.48,73.23c-11.13,23.67-32.35,43.81-61.35,58.24C243.16,539.5,209.71,547,174.9,547
		c-17.64,0-35.16-1.97-52.08-5.86c-25.29-5.81-47.54-15.4-66.14-28.5c-17.71-12.47-31.35-27.87-39.45-44.53
		c-11.61-23.88-11.78-49.2-0.48-73.23c11.13-23.67,32.35-43.81,61.35-58.24C106.58,322.46,140.04,314.97,174.85,314.96
		L174.85,314.96 M174.84,313.96c-70.35,0-135.84,31.24-159,80.49c-28.87,61.38,18.93,127.49,106.76,147.66
		c17.36,3.99,34.97,5.88,52.3,5.88c70.35,0,135.84-31.24,159-80.49c28.87-61.38-18.93-127.49-106.76-147.66
		C209.79,315.86,192.17,313.96,174.84,313.96L174.84,313.96z"/>
</g>
<g>
	<ellipse class="st1" cx="174.87" cy="430.98" rx="132.16" ry="92.36"/>
</g>
<g>
	<rect x="279.05" y="342.94" transform="matrix(0.6933 -0.7206 0.7206 0.6933 -157.3682 317.1101)" width="29.64" height="1"/>
</g>
<g>
	<path d="M296.08,328.5v-8.59h2.96c0.67,0,1.18,0.04,1.53,0.12c0.49,0.11,0.91,0.32,1.26,0.62c0.45,0.38,0.79,0.87,1.02,1.47
		s0.34,1.28,0.34,2.04c0,0.65-0.08,1.23-0.23,1.73s-0.35,0.92-0.59,1.25s-0.5,0.59-0.78,0.78s-0.63,0.33-1.03,0.43
		s-0.86,0.15-1.38,0.15H296.08z M297.22,327.49h1.83c0.57,0,1.01-0.05,1.33-0.16s0.58-0.25,0.77-0.45c0.27-0.27,0.48-0.63,0.63-1.09
		s0.23-1.01,0.23-1.66c0-0.9-0.15-1.59-0.44-2.07s-0.65-0.81-1.08-0.97c-0.3-0.12-0.79-0.18-1.47-0.18h-1.8V327.49z"/>
	<path d="M304.22,325.39c0-1.15,0.32-2.01,0.96-2.56c0.54-0.46,1.19-0.69,1.96-0.69c0.86,0,1.55,0.28,2.1,0.84s0.81,1.33,0.81,2.32
		c0,0.8-0.12,1.43-0.36,1.89s-0.59,0.82-1.05,1.07s-0.96,0.38-1.5,0.38c-0.87,0-1.58-0.28-2.11-0.84S304.22,326.44,304.22,325.39z
		 M305.31,325.39c0,0.8,0.17,1.39,0.52,1.79s0.79,0.59,1.31,0.59c0.52,0,0.96-0.2,1.31-0.6s0.52-1.01,0.52-1.82
		c0-0.77-0.17-1.35-0.52-1.75s-0.78-0.59-1.3-0.59c-0.53,0-0.96,0.2-1.31,0.59S305.31,324.59,305.31,325.39z"/>
	<path d="M311.29,328.5v-6.22h0.95v0.88c0.46-0.68,1.12-1.03,1.98-1.03c0.38,0,0.72,0.07,1.03,0.2s0.55,0.31,0.71,0.53
		s0.27,0.48,0.33,0.78c0.04,0.2,0.06,0.54,0.06,1.03v3.83h-1.05v-3.79c0-0.43-0.04-0.75-0.12-0.96s-0.23-0.38-0.44-0.51
		s-0.45-0.19-0.74-0.19c-0.45,0-0.84,0.14-1.16,0.43s-0.49,0.83-0.49,1.62v3.4H311.29z"/>
	<path d="M322.04,328.5v-0.91c-0.48,0.7-1.14,1.05-1.97,1.05c-0.37,0-0.71-0.07-1.03-0.21s-0.55-0.32-0.71-0.53
		s-0.26-0.47-0.33-0.78c-0.04-0.21-0.06-0.54-0.06-0.98v-3.86H319v3.45c0,0.55,0.02,0.92,0.06,1.11c0.07,0.28,0.21,0.5,0.42,0.65
		s0.48,0.24,0.8,0.24s0.61-0.08,0.89-0.24s0.47-0.38,0.59-0.66s0.17-0.68,0.17-1.22v-3.33h1.05v6.22H322.04z"/>
	<path d="M326.94,327.56l0.15,0.93c-0.3,0.06-0.56,0.09-0.8,0.09c-0.38,0-0.68-0.06-0.89-0.18s-0.36-0.28-0.45-0.48
		s-0.13-0.61-0.13-1.25v-3.58h-0.77v-0.82h0.77v-1.54l1.05-0.63v2.17h1.06v0.82h-1.06v3.64c0,0.3,0.02,0.49,0.06,0.58
		s0.1,0.15,0.18,0.21s0.2,0.08,0.36,0.08C326.59,327.6,326.75,327.59,326.94,327.56z"/>
	<path d="M337.57,325.49l1.14,0.29c-0.24,0.93-0.67,1.65-1.29,2.14s-1.38,0.74-2.27,0.74c-0.93,0-1.68-0.19-2.26-0.57
		s-1.02-0.92-1.32-1.64s-0.45-1.48-0.45-2.3c0-0.89,0.17-1.67,0.51-2.34s0.83-1.17,1.46-1.52s1.33-0.52,2.08-0.52
		c0.86,0,1.58,0.22,2.17,0.66s0.99,1.05,1.22,1.85l-1.12,0.26c-0.2-0.63-0.49-1.08-0.87-1.37s-0.86-0.43-1.43-0.43
		c-0.66,0-1.21,0.16-1.66,0.47s-0.75,0.74-0.93,1.27s-0.27,1.08-0.27,1.65c0,0.73,0.11,1.37,0.32,1.91s0.54,0.95,0.99,1.22
		s0.94,0.4,1.46,0.4c0.64,0,1.18-0.18,1.62-0.55S337.41,326.21,337.57,325.49z"/>
	<path d="M339.97,328.5v-8.59h1.05V323c0.49-0.57,1.11-0.86,1.86-0.86c0.46,0,0.86,0.09,1.2,0.27s0.58,0.43,0.73,0.75
		s0.22,0.79,0.22,1.39v3.94h-1.05v-3.94c0-0.53-0.11-0.91-0.34-1.15s-0.55-0.36-0.97-0.36c-0.31,0-0.61,0.08-0.88,0.24
		s-0.47,0.38-0.59,0.66s-0.18,0.66-0.18,1.15v3.4H339.97z"/>
	<path d="M350.71,327.74c-0.39,0.33-0.77,0.57-1.13,0.7s-0.75,0.21-1.16,0.21c-0.68,0-1.21-0.17-1.58-0.5s-0.55-0.76-0.55-1.28
		c0-0.3,0.07-0.58,0.21-0.83s0.32-0.45,0.54-0.61s0.48-0.27,0.76-0.35c0.21-0.05,0.52-0.11,0.94-0.16c0.85-0.1,1.48-0.22,1.88-0.36
		c0-0.14,0.01-0.24,0.01-0.28c0-0.43-0.1-0.73-0.3-0.91c-0.27-0.24-0.67-0.36-1.2-0.36c-0.5,0-0.86,0.09-1.1,0.26
		s-0.41,0.48-0.52,0.92l-1.03-0.14c0.09-0.44,0.25-0.8,0.46-1.07s0.53-0.48,0.93-0.63s0.88-0.22,1.41-0.22
		c0.53,0,0.96,0.06,1.29,0.19s0.58,0.28,0.73,0.47s0.27,0.43,0.33,0.72c0.04,0.18,0.05,0.5,0.05,0.97v1.41
		c0,0.98,0.02,1.6,0.07,1.86s0.13,0.51,0.27,0.75h-1.1C350.81,328.28,350.74,328.03,350.71,327.74z M350.62,325.38
		c-0.38,0.16-0.96,0.29-1.72,0.4c-0.43,0.06-0.74,0.13-0.92,0.21s-0.32,0.19-0.42,0.34s-0.15,0.32-0.15,0.5
		c0,0.28,0.11,0.52,0.32,0.7s0.52,0.28,0.93,0.28c0.41,0,0.77-0.09,1.08-0.27s0.55-0.42,0.7-0.73c0.11-0.24,0.17-0.59,0.17-1.05
		V325.38z"/>
	<path d="M353.31,328.5v-6.22h0.95v0.94c0.24-0.44,0.47-0.73,0.67-0.87s0.43-0.21,0.68-0.21c0.36,0,0.72,0.11,1.08,0.34l-0.36,0.98
		c-0.26-0.15-0.52-0.23-0.77-0.23c-0.23,0-0.44,0.07-0.62,0.21s-0.31,0.33-0.39,0.58c-0.12,0.38-0.18,0.79-0.18,1.23v3.26H353.31z"
		/>
	<path d="M359.62,327.56l0.15,0.93c-0.3,0.06-0.56,0.09-0.8,0.09c-0.38,0-0.68-0.06-0.89-0.18s-0.36-0.28-0.45-0.48
		s-0.13-0.61-0.13-1.25v-3.58h-0.77v-0.82h0.77v-1.54l1.05-0.63v2.17h1.06v0.82h-1.06v3.64c0,0.3,0.02,0.49,0.06,0.58
		s0.1,0.15,0.18,0.21s0.2,0.08,0.36,0.08C359.27,327.6,359.43,327.59,359.62,327.56z"/>
</g>
<g>
	<defs>
		<ellipse id="SVGID_5_" cx="174.87" cy="430.98" rx="132.16" ry="92.36"/>
	</defs>
	<clipPath id="SVGID_6_">
		<use xlink:href="#SVGID_5_"  style="overflow:visible;"/>
	</clipPath>
	<g class="st6">
		<g>
			<g>
				<path d="M174.76,547.84c-13.68,0-27.58-1.49-41.26-4.64c-39.96-9.18-70.67-30.45-84.24-58.35c-9.35-19.22-9.48-39.59-0.38-58.93
					c22.85-48.58,97.94-75.12,167.39-59.17c39.96,9.18,70.67,30.45,84.24,58.35c9.35,19.22,9.48,39.59,0.38,58.93l0,0
					C282.53,523.04,230.5,547.84,174.76,547.84z M174.95,363.11c-55.36,0-106.99,24.57-125.18,63.24
					c-8.96,19.05-8.83,39.13,0.38,58.07c13.44,27.63,43.9,48.7,83.56,57.81c69.02,15.85,143.6-10.45,166.26-58.63l0.45,0.21
					l-0.45-0.21c8.96-19.05,8.83-39.13-0.38-58.07c-13.44-27.63-43.9-48.7-83.56-57.81C202.41,364.6,188.56,363.11,174.95,363.11z"
					/>
			</g>
		</g>
		<g>
			<g>
				<path d="M174.76,547.34c-13.68,0-27.58-1.49-41.26-4.64c-39.96-9.18-70.67-30.45-84.24-58.35c-9.35-19.22-9.48-39.59-0.38-58.93
					c22.85-48.58,97.94-75.12,167.39-59.17c39.96,9.18,70.67,30.45,84.24,58.35c9.35,19.22,9.48,39.59,0.38,58.93l0,0
					C282.53,522.54,230.5,547.34,174.76,547.34z M174.95,362.61c-55.36,0-106.99,24.57-125.18,63.24
					c-8.96,19.05-8.83,39.13,0.38,58.07c13.44,27.63,43.9,48.7,83.56,57.81c69.02,15.85,143.6-10.45,166.26-58.63l0.45,0.21
					l-0.45-0.21c8.96-19.05,8.83-39.13-0.38-58.07c-13.44-27.63-43.9-48.7-83.56-57.81C202.41,364.1,188.56,362.61,174.95,362.61z"
					/>
			</g>
		</g>
		<g>
			<g>
				<path d="M174.76,546.84c-13.68,0-27.58-1.49-41.26-4.64c-39.96-9.18-70.67-30.45-84.24-58.35c-9.35-19.22-9.48-39.59-0.38-58.93
					c22.85-48.58,97.94-75.12,167.39-59.17c39.96,9.18,70.67,30.45,84.24,58.35c9.35,19.22,9.48,39.59,0.38,58.93l0,0
					C282.53,522.04,230.5,546.84,174.76,546.84z M174.95,362.11c-55.36,0-106.99,24.57-125.18,63.24
					c-8.96,19.05-8.83,39.13,0.38,58.07c13.44,27.63,43.9,48.7,83.56,57.81c69.02,15.85,143.6-10.45,166.26-58.63l0.45,0.21
					l-0.45-0.21c8.96-19.05,8.83-39.13-0.38-58.07c-13.44-27.63-43.9-48.7-83.56-57.81C202.41,363.6,188.56,362.11,174.95,362.11z"
					/>
			</g>
		</g>
		<g>
			<g>
				<path d="M174.76,546.34c-13.68,0-27.58-1.49-41.26-4.64c-39.96-9.18-70.67-30.45-84.24-58.35c-9.35-19.22-9.48-39.59-0.38-58.93
					c22.85-48.58,97.94-75.12,167.39-59.17c39.96,9.18,70.67,30.45,84.24,58.35c9.35,19.22,9.48,39.59,0.38,58.93l0,0
					C282.53,521.54,230.5,546.34,174.76,546.34z M174.95,361.61c-55.36,0-106.99,24.57-125.18,63.24
					c-8.96,19.05-8.83,39.13,0.38,58.07c13.44,27.63,43.9,48.7,83.56,57.81c69.02,15.85,143.6-10.45,166.26-58.63l0.45,0.21
					l-0.45-0.21c8.96-19.05,8.83-39.13-0.38-58.07c-13.44-27.63-43.9-48.7-83.56-57.81C202.41,363.1,188.56,361.61,174.95,361.61z"
					/>
			</g>
		</g>
		<g>
			<g>
				<path d="M174.76,545.84c-13.68,0-27.58-1.49-41.26-4.64c-39.96-9.18-70.67-30.45-84.24-58.35c-9.35-19.22-9.48-39.59-0.38-58.93
					c22.85-48.58,97.94-75.12,167.39-59.17c39.96,9.18,70.67,30.45,84.24,58.35c9.35,19.22,9.48,39.59,0.38,58.93l0,0
					C282.53,521.04,230.5,545.84,174.76,545.84z M174.95,361.11c-55.36,0-106.99,24.57-125.18,63.24
					c-8.96,19.05-8.83,39.13,0.38,58.07c13.44,27.63,43.9,48.7,83.56,57.81c69.02,15.85,143.6-10.45,166.26-58.63l0.45,0.21
					l-0.45-0.21c8.96-19.05,8.83-39.13-0.38-58.07c-13.44-27.63-43.9-48.7-83.56-57.81C202.41,362.6,188.56,361.11,174.95,361.11z"
					/>
			</g>
		</g>
		<g>
			<g>
				<path d="M174.76,545.34c-13.68,0-27.58-1.49-41.26-4.64c-39.96-9.18-70.67-30.45-84.24-58.35c-9.35-19.22-9.48-39.59-0.38-58.93
					c22.85-48.58,97.94-75.12,167.39-59.17c39.96,9.18,70.67,30.45,84.24,58.35c9.35,19.22,9.48,39.59,0.38,58.93l0,0
					C282.53,520.54,230.5,545.34,174.76,545.34z M174.95,360.61c-55.36,0-106.99,24.57-125.18,63.24
					c-8.96,19.05-8.83,39.13,0.38,58.07c13.44,27.63,43.9,48.7,83.56,57.81c69.02,15.85,143.6-10.45,166.26-58.63l0.45,0.21
					l-0.45-0.21c8.96-19.05,8.83-39.13-0.38-58.07c-13.44-27.63-43.9-48.7-83.56-57.81C202.41,362.1,188.56,360.61,174.95,360.61z"
					/>
			</g>
		</g>
		<g>
			<g>
				<path d="M174.76,544.84c-13.68,0-27.58-1.49-41.26-4.64c-39.96-9.18-70.67-30.45-84.24-58.35c-9.35-19.22-9.48-39.59-0.38-58.93
					c22.85-48.58,97.94-75.12,167.39-59.17c39.96,9.18,70.67,30.45,84.24,58.35c9.35,19.22,9.48,39.59,0.38,58.93l0,0
					C282.53,520.04,230.5,544.84,174.76,544.84z M174.95,360.11c-55.36,0-106.99,24.57-125.18,63.24
					c-8.96,19.05-8.83,39.13,0.38,58.07c13.44,27.63,43.9,48.7,83.56,57.81c69.02,15.85,143.6-10.45,166.26-58.63l0.45,0.21
					l-0.45-0.21c8.96-19.05,8.83-39.13-0.38-58.07c-13.44-27.63-43.9-48.7-83.56-57.81C202.41,361.6,188.56,360.11,174.95,360.11z"
					/>
			</g>
		</g>
		<g>
			<g>
				<path d="M174.76,544.34c-13.68,0-27.58-1.49-41.26-4.64c-39.96-9.18-70.67-30.45-84.24-58.35c-9.35-19.22-9.48-39.59-0.38-58.93
					c22.85-48.58,97.94-75.12,167.39-59.17c39.96,9.18,70.67,30.45,84.24,58.35c9.35,19.22,9.48,39.59,0.38,58.93l0,0
					C282.53,519.54,230.5,544.34,174.76,544.34z M174.95,359.61c-55.36,0-106.99,24.57-125.18,63.24
					c-8.96,19.05-8.83,39.13,0.38,58.07c13.44,27.63,43.9,48.7,83.56,57.81c69.02,15.85,143.6-10.45,166.26-58.63l0.45,0.21
					l-0.45-0.21c8.96-19.05,8.83-39.13-0.38-58.07c-13.44-27.63-43.9-48.7-83.56-57.81C202.41,361.1,188.56,359.61,174.95,359.61z"
					/>
			</g>
		</g>
		<g>
			<g>
				<path d="M174.76,543.84c-13.68,0-27.58-1.49-41.26-4.64c-39.96-9.18-70.67-30.45-84.24-58.35c-9.35-19.22-9.48-39.59-0.38-58.93
					c22.85-48.58,97.94-75.12,167.39-59.17c39.96,9.18,70.67,30.45,84.24,58.35c9.35,19.22,9.48,39.59,0.38,58.93l0,0
					C282.53,519.04,230.5,543.84,174.76,543.84z M174.95,359.11c-55.36,0-106.99,24.57-125.18,63.24
					c-8.96,19.05-8.83,39.13,0.38,58.07c13.44,27.63,43.9,48.7,83.56,57.81c69.02,15.85,143.6-10.45,166.26-58.63l0.45,0.21
					l-0.45-0.21c8.96-19.05,8.83-39.13-0.38-58.07c-13.44-27.63-43.9-48.7-83.56-57.81C202.41,360.6,188.56,359.11,174.95,359.11z"
					/>
			</g>
		</g>
		<g>
			<g>
				<path d="M174.76,543.34c-13.68,0-27.58-1.49-41.26-4.64c-39.96-9.18-70.67-30.45-84.24-58.35c-9.35-19.22-9.48-39.59-0.38-58.93
					c22.85-48.58,97.94-75.12,167.39-59.17c39.96,9.18,70.67,30.45,84.24,58.35c9.35,19.22,9.48,39.59,0.38,58.93l0,0
					C282.53,518.54,230.5,543.34,174.76,543.34z M174.95,358.61c-55.36,0-106.99,24.57-125.18,63.24
					c-8.96,19.05-8.83,39.13,0.38,58.07c13.44,27.63,43.9,48.7,83.56,57.81c69.02,15.85,143.6-10.45,166.26-58.63l0.45,0.21
					l-0.45-0.21c8.96-19.05,8.83-39.13-0.38-58.07c-13.44-27.63-43.9-48.7-83.56-57.81C202.41,360.1,188.56,358.61,174.95,358.61z"
					/>
			</g>
		</g>
		<g>
			<g>
				<path d="M174.76,542.84c-13.68,0-27.58-1.49-41.26-4.64c-39.96-9.18-70.67-30.45-84.24-58.35c-9.35-19.22-9.48-39.59-0.38-58.93
					c22.85-48.58,97.94-75.12,167.39-59.17c39.96,9.18,70.67,30.45,84.24,58.35c9.35,19.22,9.48,39.59,0.38,58.93l0,0
					C282.53,518.04,230.5,542.84,174.76,542.84z M174.95,358.11c-55.36,0-106.99,24.57-125.18,63.24
					c-8.96,19.05-8.83,39.13,0.38,58.07c13.44,27.63,43.9,48.7,83.56,57.81c69.02,15.85,143.6-10.45,166.26-58.63l0.45,0.21
					l-0.45-0.21c8.96-19.05,8.83-39.13-0.38-58.07c-13.44-27.63-43.9-48.7-83.56-57.81C202.41,359.6,188.56,358.11,174.95,358.11z"
					/>
			</g>
		</g>
		<g>
			<g>
				<path d="M174.76,542.34c-13.68,0-27.58-1.49-41.26-4.64c-39.96-9.18-70.67-30.45-84.24-58.35c-9.35-19.22-9.48-39.59-0.38-58.93
					c22.85-48.58,97.94-75.12,167.39-59.17c39.96,9.18,70.67,30.45,84.24,58.35c9.35,19.22,9.48,39.59,0.38,58.93l0,0
					C282.53,517.54,230.5,542.34,174.76,542.34z M174.95,357.61c-55.36,0-106.99,24.57-125.18,63.24
					c-8.96,19.05-8.83,39.13,0.38,58.07c13.44,27.63,43.9,48.7,83.56,57.81c69.02,15.85,143.6-10.45,166.26-58.63l0.45,0.21
					l-0.45-0.21c8.96-19.05,8.83-39.13-0.38-58.07c-13.44-27.63-43.9-48.7-83.56-57.81C202.41,359.1,188.56,357.61,174.95,357.61z"
					/>
			</g>
		</g>
		<g>
			<g>
				<path d="M174.76,541.84c-13.68,0-27.58-1.49-41.26-4.64c-39.96-9.18-70.67-30.45-84.24-58.35c-9.35-19.22-9.48-39.59-0.38-58.93
					c22.85-48.58,97.94-75.12,167.39-59.17c39.96,9.18,70.67,30.45,84.24,58.35c9.35,19.22,9.48,39.59,0.38,58.93l0,0
					C282.53,517.04,230.5,541.84,174.76,541.84z M174.95,357.11c-55.36,0-106.99,24.57-125.18,63.24
					c-8.96,19.05-8.83,39.13,0.38,58.07c13.44,27.63,43.9,48.7,83.56,57.81c69.02,15.85,143.6-10.45,166.26-58.63l0.45,0.21
					l-0.45-0.21c8.96-19.05,8.83-39.13-0.38-58.07c-13.44-27.63-43.9-48.7-83.56-57.81C202.41,358.6,188.56,357.11,174.95,357.11z"
					/>
			</g>
		</g>
		<g>
			<g>
				<path d="M174.76,541.34c-13.68,0-27.58-1.49-41.26-4.64c-39.96-9.18-70.67-30.45-84.24-58.35c-9.35-19.22-9.48-39.59-0.38-58.93
					c22.85-48.58,97.94-75.12,167.39-59.17c39.96,9.18,70.67,30.45,84.24,58.35c9.35,19.22,9.48,39.59,0.38,58.93l0,0
					C282.53,516.54,230.5,541.34,174.76,541.34z M174.95,356.61c-55.36,0-106.99,24.57-125.18,63.24
					c-8.96,19.05-8.83,39.13,0.38,58.07c13.44,27.63,43.9,48.7,83.56,57.81c69.02,15.85,143.6-10.45,166.26-58.63l0.45,0.21
					l-0.45-0.21c8.96-19.05,8.83-39.13-0.38-58.07c-13.44-27.63-43.9-48.7-83.56-57.81C202.41,358.1,188.56,356.61,174.95,356.61z"
					/>
			</g>
		</g>
		<g>
			<g>
				<path d="M174.76,540.84c-13.68,0-27.58-1.49-41.26-4.64c-39.96-9.18-70.67-30.45-84.24-58.35c-9.35-19.22-9.48-39.59-0.38-58.93
					c22.85-48.58,97.94-75.12,167.39-59.17c39.96,9.18,70.67,30.45,84.24,58.35c9.35,19.22,9.48,39.59,0.38,58.93l0,0
					C282.53,516.04,230.5,540.84,174.76,540.84z M174.95,356.11c-55.36,0-106.99,24.57-125.18,63.24
					c-8.96,19.05-8.83,39.13,0.38,58.07c13.44,27.63,43.9,48.7,83.56,57.81c69.02,15.85,143.6-10.45,166.26-58.63l0.45,0.21
					l-0.45-0.21c8.96-19.05,8.83-39.13-0.38-58.07c-13.44-27.63-43.9-48.7-83.56-57.81C202.41,357.6,188.56,356.11,174.95,356.11z"
					/>
			</g>
		</g>
		<g>
			<g>
				<path d="M174.76,540.34c-13.68,0-27.58-1.49-41.26-4.64c-39.96-9.18-70.67-30.45-84.24-58.35c-9.35-19.22-9.48-39.59-0.38-58.93
					c22.85-48.58,97.94-75.12,167.39-59.17c39.96,9.18,70.67,30.45,84.24,58.35c9.35,19.22,9.48,39.59,0.38,58.93l0,0
					C282.53,515.54,230.5,540.34,174.76,540.34z M174.95,355.61c-55.36,0-106.99,24.57-125.18,63.24
					c-8.96,19.05-8.83,39.13,0.38,58.07c13.44,27.63,43.9,48.7,83.56,57.81c69.02,15.85,143.6-10.45,166.26-58.63l0.45,0.21
					l-0.45-0.21c8.96-19.05,8.83-39.13-0.38-58.07c-13.44-27.63-43.9-48.7-83.56-57.81C202.41,357.1,188.56,355.61,174.95,355.61z"
					/>
			</g>
		</g>
		<g>
			<g>
				<path d="M174.76,539.84c-13.68,0-27.58-1.49-41.26-4.64c-39.96-9.18-70.67-30.45-84.24-58.35c-9.35-19.22-9.48-39.59-0.38-58.93
					c22.85-48.58,97.94-75.12,167.39-59.17c39.96,9.18,70.67,30.45,84.24,58.35c9.35,19.22,9.48,39.59,0.38,58.93l0,0
					C282.53,515.04,230.5,539.84,174.76,539.84z M174.95,355.11c-55.36,0-106.99,24.57-125.18,63.24
					c-8.96,19.05-8.83,39.13,0.38,58.07c13.44,27.63,43.9,48.7,83.56,57.81c69.02,15.85,143.6-10.45,166.26-58.63l0.45,0.21
					l-0.45-0.21c8.96-19.05,8.83-39.13-0.38-58.07c-13.44-27.63-43.9-48.7-83.56-57.81C202.41,356.6,188.56,355.11,174.95,355.11z"
					/>
			</g>
		</g>
		<g>
			<g>
				<path d="M174.76,539.34c-13.68,0-27.58-1.49-41.26-4.64c-39.96-9.18-70.67-30.45-84.24-58.35c-9.35-19.22-9.48-39.59-0.38-58.93
					c22.85-48.58,97.94-75.12,167.39-59.17c39.96,9.18,70.67,30.45,84.24,58.35c9.35,19.22,9.48,39.59,0.38,58.93l0,0
					C282.53,514.54,230.5,539.34,174.76,539.34z M174.95,354.61c-55.36,0-106.99,24.57-125.18,63.24
					c-8.96,19.05-8.83,39.13,0.38,58.07c13.44,27.63,43.9,48.7,83.56,57.81c69.02,15.85,143.6-10.45,166.26-58.63l0.45,0.21
					l-0.45-0.21c8.96-19.05,8.83-39.13-0.38-58.07c-13.44-27.63-43.9-48.7-83.56-57.81C202.41,356.1,188.56,354.61,174.95,354.61z"
					/>
			</g>
		</g>
		<g>
			<g>
				<path d="M174.76,538.84c-13.68,0-27.58-1.49-41.26-4.64c-39.96-9.18-70.67-30.45-84.24-58.35c-9.35-19.22-9.48-39.59-0.38-58.93
					c22.85-48.58,97.94-75.12,167.39-59.17c39.96,9.18,70.67,30.45,84.24,58.35c9.35,19.22,9.48,39.59,0.38,58.93l0,0
					C282.53,514.04,230.5,538.84,174.76,538.84z M174.95,354.11c-55.36,0-106.99,24.57-125.18,63.24
					c-8.96,19.05-8.83,39.13,0.38,58.07c13.44,27.63,43.9,48.7,83.56,57.81c69.02,15.85,143.6-10.45,166.26-58.63l0.45,0.21
					l-0.45-0.21c8.96-19.05,8.83-39.13-0.38-58.07c-13.44-27.63-43.9-48.7-83.56-57.81C202.41,355.6,188.56,354.11,174.95,354.11z"
					/>
			</g>
		</g>
		<g>
			<g>
				<path d="M174.76,538.34c-13.68,0-27.58-1.49-41.26-4.64c-39.96-9.18-70.67-30.45-84.24-58.35c-9.35-19.22-9.48-39.59-0.38-58.93
					c22.85-48.58,97.94-75.12,167.39-59.17c39.96,9.18,70.67,30.45,84.24,58.35c9.35,19.22,9.48,39.59,0.38,58.93l0,0
					C282.53,513.54,230.5,538.34,174.76,538.34z M174.95,353.61c-55.36,0-106.99,24.57-125.18,63.24
					c-8.96,19.05-8.83,39.13,0.38,58.07c13.44,27.63,43.9,48.7,83.56,57.81c69.02,15.85,143.6-10.45,166.26-58.63l0.45,0.21
					l-0.45-0.21c8.96-19.05,8.83-39.13-0.38-58.07c-13.44-27.63-43.9-48.7-83.56-57.81C202.41,355.1,188.56,353.61,174.95,353.61z"
					/>
			</g>
		</g>
		<g>
			<g>
				<path d="M174.76,537.84c-13.68,0-27.58-1.49-41.26-4.64c-39.96-9.18-70.67-30.45-84.24-58.35c-9.35-19.22-9.48-39.59-0.38-58.93
					c22.85-48.58,97.94-75.12,167.39-59.17c39.96,9.18,70.67,30.45,84.24,58.35c9.35,19.22,9.48,39.59,0.38,58.93l0,0
					C282.53,513.04,230.5,537.84,174.76,537.84z M174.95,353.11c-55.36,0-106.99,24.57-125.18,63.24
					c-8.96,19.05-8.83,39.13,0.38,58.07c13.44,27.63,43.9,48.7,83.56,57.81c69.02,15.85,143.6-10.45,166.26-58.63l0.45,0.21
					l-0.45-0.21c8.96-19.05,8.83-39.13-0.38-58.07c-13.44-27.63-43.9-48.7-83.56-57.81C202.41,354.6,188.56,353.11,174.95,353.11z"
					/>
			</g>
		</g>
		<g>
			<g>
				<path d="M174.76,537.34c-13.68,0-27.58-1.49-41.26-4.64c-39.96-9.18-70.67-30.45-84.24-58.35c-9.35-19.22-9.48-39.59-0.38-58.93
					c22.85-48.58,97.94-75.12,167.39-59.17c39.96,9.18,70.67,30.45,84.24,58.35c9.35,19.22,9.48,39.59,0.38,58.93l0,0
					C282.53,512.54,230.5,537.34,174.76,537.34z M174.95,352.61c-55.36,0-106.99,24.57-125.18,63.24
					c-8.96,19.05-8.83,39.13,0.38,58.07c13.44,27.63,43.9,48.7,83.56,57.81c69.02,15.85,143.6-10.45,166.26-58.63l0.45,0.21
					l-0.45-0.21c8.96-19.05,8.83-39.13-0.38-58.07c-13.44-27.63-43.9-48.7-83.56-57.81C202.41,354.1,188.56,352.61,174.95,352.61z"
					/>
			</g>
		</g>
		<g>
			<g>
				<path d="M174.76,536.84c-13.68,0-27.58-1.49-41.26-4.64c-39.96-9.18-70.67-30.45-84.24-58.35c-9.35-19.22-9.48-39.59-0.38-58.93
					c22.85-48.58,97.94-75.12,167.39-59.17c39.96,9.18,70.67,30.45,84.24,58.35c9.35,19.22,9.48,39.59,0.38,58.93l0,0
					C282.53,512.04,230.5,536.84,174.76,536.84z M174.95,352.11c-55.36,0-106.99,24.57-125.18,63.24
					c-8.96,19.05-8.83,39.13,0.38,58.07c13.44,27.63,43.9,48.7,83.56,57.81c69.02,15.85,143.6-10.45,166.26-58.63l0.45,0.21
					l-0.45-0.21c8.96-19.05,8.83-39.13-0.38-58.07c-13.44-27.63-43.9-48.7-83.56-57.81C202.41,353.6,188.56,352.11,174.95,352.11z"
					/>
			</g>
		</g>
		<g>
			<g>
				<path d="M174.76,536.34c-13.68,0-27.58-1.49-41.26-4.64c-39.96-9.18-70.67-30.45-84.24-58.35c-9.35-19.22-9.48-39.59-0.38-58.93
					c22.85-48.58,97.94-75.12,167.39-59.17c39.96,9.18,70.67,30.45,84.24,58.35c9.35,19.22,9.48,39.59,0.38,58.93l0,0
					C282.53,511.54,230.5,536.34,174.76,536.34z M174.95,351.61c-55.36,0-106.99,24.57-125.18,63.24
					c-8.96,19.05-8.83,39.13,0.38,58.07c13.44,27.63,43.9,48.7,83.56,57.81c69.02,15.85,143.6-10.45,166.26-58.63l0.45,0.21
					l-0.45-0.21c8.96-19.05,8.83-39.13-0.38-58.07c-13.44-27.63-43.9-48.7-83.56-57.81C202.41,353.1,188.56,351.61,174.95,351.61z"
					/>
			</g>
		</g>
		<g>
			<g>
				<path d="M174.76,535.84c-13.68,0-27.58-1.49-41.26-4.64c-39.96-9.18-70.67-30.45-84.24-58.35c-9.35-19.22-9.48-39.59-0.38-58.93
					c22.85-48.58,97.94-75.12,167.39-59.17c39.96,9.18,70.67,30.45,84.24,58.35c9.35,19.22,9.48,39.59,0.38,58.93l0,0
					C282.53,511.04,230.5,535.84,174.76,535.84z M174.95,351.11c-55.36,0-106.99,24.57-125.18,63.24
					c-8.96,19.05-8.83,39.13,0.38,58.07c13.44,27.63,43.9,48.7,83.56,57.81c69.02,15.85,143.6-10.45,166.26-58.63l0.45,0.21
					l-0.45-0.21c8.96-19.05,8.83-39.13-0.38-58.07c-13.44-27.63-43.9-48.7-83.56-57.81C202.41,352.6,188.56,351.11,174.95,351.11z"
					/>
			</g>
		</g>
		<g>
			<g>
				<path d="M174.76,535.34c-13.68,0-27.58-1.49-41.26-4.64c-39.96-9.18-70.67-30.45-84.24-58.35c-9.35-19.22-9.48-39.59-0.38-58.93
					c22.85-48.58,97.94-75.12,167.39-59.17c39.96,9.18,70.67,30.45,84.24,58.35c9.35,19.22,9.48,39.59,0.38,58.93l0,0
					C282.53,510.54,230.5,535.34,174.76,535.34z M174.95,350.61c-55.36,0-106.99,24.57-125.18,63.24
					c-8.96,19.05-8.83,39.13,0.38,58.07c13.44,27.63,43.9,48.7,83.56,57.81c69.02,15.85,143.6-10.45,166.26-58.63l0.45,0.21
					l-0.45-0.21c8.96-19.05,8.83-39.13-0.38-58.07c-13.44-27.63-43.9-48.7-83.56-57.81C202.41,352.1,188.56,350.61,174.95,350.61z"
					/>
			</g>
		</g>
		<g>
			<g>
				<path d="M174.76,534.84c-13.68,0-27.58-1.49-41.26-4.64c-39.96-9.18-70.67-30.45-84.24-58.35c-9.35-19.22-9.48-39.59-0.38-58.93
					c22.85-48.58,97.94-75.12,167.39-59.17c39.96,9.18,70.67,30.45,84.24,58.35c9.35,19.22,9.48,39.59,0.38,58.93l0,0
					C282.53,510.04,230.5,534.84,174.76,534.84z M174.95,350.11c-55.36,0-106.99,24.57-125.18,63.24
					c-8.96,19.05-8.83,39.13,0.38,58.07c13.44,27.63,43.9,48.7,83.56,57.81c69.02,15.85,143.6-10.45,166.26-58.63l0.45,0.21
					l-0.45-0.21c8.96-19.05,8.83-39.13-0.38-58.07c-13.44-27.63-43.9-48.7-83.56-57.81C202.41,351.6,188.56,350.11,174.95,350.11z"
					/>
			</g>
		</g>
		<g>
			<g>
				<path d="M174.76,534.34c-13.68,0-27.58-1.49-41.26-4.64c-39.96-9.18-70.67-30.45-84.24-58.35c-9.35-19.22-9.48-39.59-0.38-58.93
					c22.85-48.58,97.94-75.12,167.39-59.17c39.96,9.18,70.67,30.45,84.24,58.35c9.35,19.22,9.48,39.59,0.38,58.93l0,0
					C282.53,509.54,230.5,534.34,174.76,534.34z M174.95,349.61c-55.36,0-106.99,24.57-125.18,63.24
					c-8.96,19.05-8.83,39.13,0.38,58.07c13.44,27.63,43.9,48.7,83.56,57.81c69.02,15.85,143.6-10.45,166.26-58.63l0.45,0.21
					l-0.45-0.21c8.96-19.05,8.83-39.13-0.38-58.07c-13.44-27.63-43.9-48.7-83.56-57.81C202.41,351.1,188.56,349.61,174.95,349.61z"
					/>
			</g>
		</g>
		<g>
			<g>
				<path d="M174.76,533.84c-13.68,0-27.58-1.49-41.26-4.64c-39.96-9.18-70.67-30.45-84.24-58.35c-9.35-19.22-9.48-39.59-0.38-58.93
					c22.85-48.58,97.94-75.12,167.39-59.17c39.96,9.18,70.67,30.45,84.24,58.35c9.35,19.22,9.48,39.59,0.38,58.93l0,0
					C282.53,509.04,230.5,533.84,174.76,533.84z M174.95,349.11c-55.36,0-106.99,24.57-125.18,63.24
					c-8.96,19.05-8.83,39.13,0.38,58.07c13.44,27.63,43.9,48.7,83.56,57.81c69.02,15.85,143.6-10.45,166.26-58.63l0.45,0.21
					l-0.45-0.21c8.96-19.05,8.83-39.13-0.38-58.07c-13.44-27.63-43.9-48.7-83.56-57.81C202.41,350.6,188.56,349.11,174.95,349.11z"
					/>
			</g>
		</g>
		<g>
			<g>
				<path d="M174.76,533.34c-13.68,0-27.58-1.49-41.26-4.64c-39.96-9.18-70.67-30.45-84.24-58.35c-9.35-19.22-9.48-39.59-0.38-58.93
					c22.85-48.58,97.94-75.12,167.39-59.17c39.96,9.18,70.67,30.45,84.24,58.35c9.35,19.22,9.48,39.59,0.38,58.93l0,0
					C282.53,508.54,230.5,533.34,174.76,533.34z M174.95,348.61c-55.36,0-106.99,24.57-125.18,63.24
					c-8.96,19.05-8.83,39.13,0.38,58.07c13.44,27.63,43.9,48.7,83.56,57.81c69.02,15.85,143.6-10.45,166.26-58.63l0.45,0.21
					l-0.45-0.21c8.96-19.05,8.83-39.13-0.38-58.07c-13.44-27.63-43.9-48.7-83.56-57.81C202.41,350.1,188.56,348.61,174.95,348.61z"
					/>
			</g>
		</g>
		<g>
			<g>
				<path d="M174.76,532.84c-13.68,0-27.58-1.49-41.26-4.64c-39.96-9.18-70.67-30.45-84.24-58.35c-9.35-19.22-9.48-39.59-0.38-58.93
					c22.85-48.58,97.94-75.12,167.39-59.17c39.96,9.18,70.67,30.45,84.24,58.35c9.35,19.22,9.48,39.59,0.38,58.93l0,0
					C282.53,508.04,230.5,532.84,174.76,532.84z M174.95,348.11c-55.36,0-106.99,24.57-125.18,63.24
					c-8.96,19.05-8.83,39.13,0.38,58.07c13.44,27.63,43.9,48.7,83.56,57.81c69.02,15.85,143.6-10.45,166.26-58.63l0.45,0.21
					l-0.45-0.21c8.96-19.05,8.83-39.13-0.38-58.07c-13.44-27.63-43.9-48.7-83.56-57.81C202.41,349.6,188.56,348.11,174.95,348.11z"
					/>
			</g>
		</g>
		<g>
			<g>
				<path d="M174.76,532.34c-13.68,0-27.58-1.49-41.26-4.64c-39.96-9.18-70.67-30.45-84.24-58.35c-9.35-19.22-9.48-39.59-0.38-58.93
					c22.85-48.58,97.94-75.12,167.39-59.17c39.96,9.18,70.67,30.45,84.24,58.35c9.35,19.22,9.48,39.59,0.38,58.93l0,0
					C282.53,507.54,230.5,532.34,174.76,532.34z M174.95,347.61c-55.36,0-106.99,24.57-125.18,63.24
					c-8.96,19.05-8.83,39.13,0.38,58.07c13.44,27.63,43.9,48.7,83.56,57.81c69.02,15.85,143.6-10.45,166.26-58.63l0.45,0.21
					l-0.45-0.21c8.96-19.05,8.83-39.13-0.38-58.07c-13.44-27.63-43.9-48.7-83.56-57.81C202.41,349.1,188.56,347.61,174.95,347.61z"
					/>
			</g>
		</g>
		<g>
			<g>
				<path d="M174.76,531.84c-13.68,0-27.58-1.49-41.26-4.64c-39.96-9.18-70.67-30.45-84.24-58.35c-9.35-19.22-9.48-39.59-0.38-58.93
					c22.85-48.58,97.94-75.12,167.39-59.17c39.96,9.18,70.67,30.45,84.24,58.35c9.35,19.22,9.48,39.59,0.38,58.93l0,0
					C282.53,507.04,230.5,531.84,174.76,531.84z M174.95,347.11c-55.36,0-106.99,24.57-125.18,63.24
					c-8.96,19.05-8.83,39.13,0.38,58.07c13.44,27.63,43.9,48.7,83.56,57.81c69.02,15.85,143.6-10.45,166.26-58.63l0.45,0.21
					l-0.45-0.21c8.96-19.05,8.83-39.13-0.38-58.07c-13.44-27.63-43.9-48.7-83.56-57.81C202.41,348.6,188.56,347.11,174.95,347.11z"
					/>
			</g>
		</g>
		<g>
			<g>
				<path d="M174.76,531.34c-13.68,0-27.58-1.49-41.26-4.64c-39.96-9.18-70.67-30.45-84.24-58.35c-9.35-19.22-9.48-39.59-0.38-58.93
					c22.85-48.58,97.94-75.12,167.39-59.17c39.96,9.18,70.67,30.45,84.24,58.35c9.35,19.22,9.48,39.59,0.38,58.93l0,0
					C282.53,506.54,230.5,531.34,174.76,531.34z M174.95,346.61c-55.36,0-106.99,24.57-125.18,63.24
					c-8.96,19.05-8.83,39.13,0.38,58.07c13.44,27.63,43.9,48.7,83.56,57.81c69.02,15.85,143.6-10.45,166.26-58.63l0.45,0.21
					l-0.45-0.21c8.96-19.05,8.83-39.13-0.38-58.07c-13.44-27.63-43.9-48.7-83.56-57.81C202.41,348.1,188.56,346.61,174.95,346.61z"
					/>
			</g>
		</g>
		<g>
			<g>
				<path d="M174.76,530.84c-13.68,0-27.58-1.49-41.26-4.64c-39.96-9.18-70.67-30.45-84.24-58.35c-9.35-19.22-9.48-39.59-0.38-58.93
					c22.85-48.58,97.94-75.12,167.39-59.17c39.96,9.18,70.67,30.45,84.24,58.35c9.35,19.22,9.48,39.59,0.38,58.93l0,0
					C282.53,506.04,230.5,530.84,174.76,530.84z M174.95,346.11c-55.36,0-106.99,24.57-125.18,63.24
					c-8.96,19.05-8.83,39.13,0.38,58.07c13.44,27.63,43.9,48.7,83.56,57.81c69.02,15.85,143.6-10.45,166.26-58.63l0.45,0.21
					l-0.45-0.21c8.96-19.05,8.83-39.13-0.38-58.07c-13.44-27.63-43.9-48.7-83.56-57.81C202.41,347.6,188.56,346.11,174.95,346.11z"
					/>
			</g>
		</g>
		<g>
			<g>
				<path d="M174.76,530.34c-13.68,0-27.58-1.49-41.26-4.64c-39.96-9.18-70.67-30.45-84.24-58.35c-9.35-19.22-9.48-39.59-0.38-58.93
					c22.85-48.58,97.94-75.12,167.39-59.17c39.96,9.18,70.67,30.45,84.24,58.35c9.35,19.22,9.48,39.59,0.38,58.93l0,0
					C282.53,505.54,230.5,530.34,174.76,530.34z M174.95,345.61c-55.36,0-106.99,24.57-125.18,63.24
					c-8.96,19.05-8.83,39.13,0.38,58.07c13.44,27.63,43.9,48.7,83.56,57.81c69.02,15.85,143.6-10.45,166.26-58.63l0.45,0.21
					l-0.45-0.21c8.96-19.05,8.83-39.13-0.38-58.07c-13.44-27.63-43.9-48.7-83.56-57.81C202.41,347.1,188.56,345.61,174.95,345.61z"
					/>
			</g>
		</g>
		<g>
			<g>
				<path d="M174.76,529.84c-13.68,0-27.58-1.49-41.26-4.64c-39.96-9.18-70.67-30.45-84.24-58.35c-9.35-19.22-9.48-39.59-0.38-58.93
					c22.85-48.58,97.94-75.12,167.39-59.17c39.96,9.18,70.67,30.45,84.24,58.35c9.35,19.22,9.48,39.59,0.38,58.93l0,0
					C282.53,505.04,230.5,529.84,174.76,529.84z M174.95,345.11c-55.36,0-106.99,24.57-125.18,63.24
					c-8.96,19.05-8.83,39.13,0.38,58.07c13.44,27.63,43.9,48.7,83.56,57.81c69.02,15.85,143.6-10.45,166.26-58.63l0.45,0.21
					l-0.45-0.21c8.96-19.05,8.83-39.13-0.38-58.07c-13.44-27.63-43.9-48.7-83.56-57.81C202.41,346.6,188.56,345.11,174.95,345.11z"
					/>
			</g>
		</g>
		<g>
			<g>
				<path d="M174.76,529.34c-13.68,0-27.58-1.49-41.26-4.64c-39.96-9.18-70.67-30.45-84.24-58.35c-9.35-19.22-9.48-39.59-0.38-58.93
					c22.85-48.58,97.94-75.12,167.39-59.17c39.96,9.18,70.67,30.45,84.24,58.35c9.35,19.22,9.48,39.59,0.38,58.93l0,0
					C282.53,504.54,230.5,529.34,174.76,529.34z M174.95,344.61c-55.36,0-106.99,24.57-125.18,63.24
					c-8.96,19.05-8.83,39.13,0.38,58.07c13.44,27.63,43.9,48.7,83.56,57.81c69.02,15.85,143.6-10.45,166.26-58.63l0.45,0.21
					l-0.45-0.21c8.96-19.05,8.83-39.13-0.38-58.07c-13.44-27.63-43.9-48.7-83.56-57.81C202.41,346.1,188.56,344.61,174.95,344.61z"
					/>
			</g>
		</g>
		<g>
			<g>
				<path d="M174.76,528.84c-13.68,0-27.58-1.49-41.26-4.64c-39.96-9.18-70.67-30.45-84.24-58.35c-9.35-19.22-9.48-39.59-0.38-58.93
					c22.85-48.58,97.94-75.12,167.39-59.17c39.96,9.18,70.67,30.45,84.24,58.35c9.35,19.22,9.48,39.59,0.38,58.93l0,0
					C282.53,504.04,230.5,528.84,174.76,528.84z M174.95,344.11c-55.36,0-106.99,24.57-125.18,63.24
					c-8.96,19.05-8.83,39.13,0.38,58.07c13.44,27.63,43.9,48.7,83.56,57.81c69.02,15.85,143.6-10.45,166.26-58.63l0.45,0.21
					l-0.45-0.21c8.96-19.05,8.83-39.13-0.38-58.07c-13.44-27.63-43.9-48.7-83.56-57.81C202.41,345.6,188.56,344.11,174.95,344.11z"
					/>
			</g>
		</g>
		<g>
			<g>
				<path d="M174.76,528.34c-13.68,0-27.58-1.49-41.26-4.64c-39.96-9.18-70.67-30.45-84.24-58.35c-9.35-19.22-9.48-39.59-0.38-58.93
					c22.85-48.58,97.94-75.12,167.39-59.17c39.96,9.18,70.67,30.45,84.24,58.35c9.35,19.22,9.48,39.59,0.38,58.93l0,0
					C282.53,503.54,230.5,528.34,174.76,528.34z M174.95,343.61c-55.36,0-106.99,24.57-125.18,63.24
					c-8.96,19.05-8.83,39.13,0.38,58.07c13.44,27.63,43.9,48.7,83.56,57.81c69.02,15.85,143.6-10.45,166.26-58.63l0.45,0.21
					l-0.45-0.21c8.96-19.05,8.83-39.13-0.38-58.07c-13.44-27.63-43.9-48.7-83.56-57.81C202.41,345.1,188.56,343.61,174.95,343.61z"
					/>
			</g>
		</g>
		<g>
			<g>
				<path d="M174.76,527.84c-13.68,0-27.58-1.49-41.26-4.64c-39.96-9.18-70.67-30.45-84.24-58.35c-9.35-19.22-9.48-39.59-0.38-58.93
					c22.85-48.58,97.94-75.12,167.39-59.17c39.96,9.18,70.67,30.45,84.24,58.35c9.35,19.22,9.48,39.59,0.38,58.93l0,0
					C282.53,503.04,230.5,527.84,174.76,527.84z M174.95,343.11c-55.36,0-106.99,24.57-125.18,63.24
					c-8.96,19.05-8.83,39.13,0.38,58.07c13.44,27.63,43.9,48.7,83.56,57.81c69.02,15.85,143.6-10.45,166.26-58.63l0.45,0.21
					l-0.45-0.21c8.96-19.05,8.83-39.13-0.38-58.07c-13.44-27.63-43.9-48.7-83.56-57.81C202.41,344.6,188.56,343.11,174.95,343.11z"
					/>
			</g>
		</g>
		<g>
			<g>
				<path d="M174.76,527.34c-13.68,0-27.58-1.49-41.26-4.64c-39.96-9.18-70.67-30.45-84.24-58.35c-9.35-19.22-9.48-39.59-0.38-58.93
					c22.85-48.58,97.94-75.12,167.39-59.17c39.96,9.18,70.67,30.45,84.24,58.35c9.35,19.22,9.48,39.59,0.38,58.93l0,0
					C282.53,502.54,230.5,527.34,174.76,527.34z M174.95,342.61c-55.36,0-106.99,24.57-125.18,63.24
					c-8.96,19.05-8.83,39.13,0.38,58.07c13.44,27.63,43.9,48.7,83.56,57.81c69.02,15.85,143.6-10.45,166.26-58.63l0.45,0.21
					l-0.45-0.21c8.96-19.05,8.83-39.13-0.38-58.07c-13.44-27.63-43.9-48.7-83.56-57.81C202.41,344.1,188.56,342.61,174.95,342.61z"
					/>
			</g>
		</g>
		<g>
			<g>
				<path d="M174.76,526.84c-13.68,0-27.58-1.49-41.26-4.64c-39.96-9.18-70.67-30.45-84.24-58.35c-9.35-19.22-9.48-39.59-0.38-58.93
					c22.85-48.58,97.94-75.12,167.39-59.17c39.96,9.18,70.67,30.45,84.24,58.35c9.35,19.22,9.48,39.59,0.38,58.93l0,0
					C282.53,502.04,230.5,526.84,174.76,526.84z M174.95,342.11c-55.36,0-106.99,24.57-125.18,63.24
					c-8.96,19.05-8.83,39.13,0.38,58.07c13.44,27.63,43.9,48.7,83.56,57.81c69.02,15.85,143.6-10.45,166.26-58.63l0.45,0.21
					l-0.45-0.21c8.96-19.05,8.83-39.13-0.38-58.07c-13.44-27.63-43.9-48.7-83.56-57.81C202.41,343.6,188.56,342.11,174.95,342.11z"
					/>
			</g>
		</g>
		<g>
			<g>
				<path d="M174.76,526.34c-13.68,0-27.58-1.49-41.26-4.64c-39.96-9.18-70.67-30.45-84.24-58.35c-9.35-19.22-9.48-39.59-0.38-58.93
					c22.85-48.58,97.94-75.12,167.39-59.17c39.96,9.18,70.67,30.45,84.24,58.35c9.35,19.22,9.48,39.59,0.38,58.93l0,0
					C282.53,501.54,230.5,526.34,174.76,526.34z M174.95,341.61c-55.36,0-106.99,24.57-125.18,63.24
					c-8.96,19.05-8.83,39.13,0.38,58.07c13.44,27.63,43.9,48.7,83.56,57.81c69.02,15.85,143.6-10.45,166.26-58.63l0.45,0.21
					l-0.45-0.21c8.96-19.05,8.83-39.13-0.38-58.07c-13.44-27.63-43.9-48.7-83.56-57.81C202.41,343.1,188.56,341.61,174.95,341.61z"
					/>
			</g>
		</g>
		<g>
			<g>
				<path d="M174.76,525.84c-13.68,0-27.58-1.49-41.26-4.64c-39.96-9.18-70.67-30.45-84.24-58.35c-9.35-19.22-9.48-39.59-0.38-58.93
					c22.85-48.58,97.94-75.12,167.39-59.17c39.96,9.18,70.67,30.45,84.24,58.35c9.35,19.22,9.48,39.59,0.38,58.93l0,0
					C282.53,501.04,230.5,525.84,174.76,525.84z M174.95,341.11c-55.36,0-106.99,24.57-125.18,63.24
					c-8.96,19.05-8.83,39.13,0.38,58.07c13.44,27.63,43.9,48.7,83.56,57.81c69.02,15.85,143.6-10.45,166.26-58.63l0.45,0.21
					l-0.45-0.21c8.96-19.05,8.83-39.13-0.38-58.07c-13.44-27.63-43.9-48.7-83.56-57.81C202.41,342.6,188.56,341.11,174.95,341.11z"
					/>
			</g>
		</g>
		<g>
			<g>
				<path d="M174.76,525.34c-13.68,0-27.58-1.49-41.26-4.64c-39.96-9.18-70.67-30.45-84.24-58.35c-9.35-19.22-9.48-39.59-0.38-58.93
					c22.85-48.58,97.94-75.12,167.39-59.17c39.96,9.18,70.67,30.45,84.24,58.35c9.35,19.22,9.48,39.59,0.38,58.93l0,0
					C282.53,500.54,230.5,525.34,174.76,525.34z M174.95,340.61c-55.36,0-106.99,24.57-125.18,63.24
					c-8.96,19.05-8.83,39.13,0.38,58.07c13.44,27.63,43.9,48.7,83.56,57.81c69.02,15.85,143.6-10.45,166.26-58.63l0.45,0.21
					l-0.45-0.21c8.96-19.05,8.83-39.13-0.38-58.07c-13.44-27.63-43.9-48.7-83.56-57.81C202.41,342.1,188.56,340.61,174.95,340.61z"
					/>
			</g>
		</g>
		<g>
			<g>
				<path d="M174.76,524.84c-13.68,0-27.58-1.49-41.26-4.64c-39.96-9.18-70.67-30.45-84.24-58.35c-9.35-19.22-9.48-39.59-0.38-58.93
					c22.85-48.58,97.94-75.12,167.39-59.17c39.96,9.18,70.67,30.45,84.24,58.35c9.35,19.22,9.48,39.59,0.38,58.93l0,0
					C282.53,500.04,230.5,524.84,174.76,524.84z M174.95,340.11c-55.36,0-106.99,24.57-125.18,63.24
					c-8.96,19.05-8.83,39.13,0.38,58.07c13.44,27.63,43.9,48.7,83.56,57.81c69.02,15.85,143.6-10.45,166.26-58.63l0.45,0.21
					l-0.45-0.21c8.96-19.05,8.83-39.13-0.38-58.07c-13.44-27.63-43.9-48.7-83.56-57.81C202.41,341.6,188.56,340.11,174.95,340.11z"
					/>
			</g>
		</g>
		<g>
			<g>
				<path d="M174.76,524.34c-13.68,0-27.58-1.49-41.26-4.64c-39.96-9.18-70.67-30.45-84.24-58.35c-9.35-19.22-9.48-39.59-0.38-58.93
					c22.85-48.58,97.94-75.12,167.39-59.17c39.96,9.18,70.67,30.45,84.24,58.35c9.35,19.22,9.48,39.59,0.38,58.93l0,0
					C282.53,499.54,230.5,524.34,174.76,524.34z M174.95,339.61c-55.36,0-106.99,24.57-125.18,63.24
					c-8.96,19.05-8.83,39.13,0.38,58.07c13.44,27.63,43.9,48.7,83.56,57.81c69.02,15.85,143.6-10.45,166.26-58.63l0.45,0.21
					l-0.45-0.21c8.96-19.05,8.83-39.13-0.38-58.07c-13.44-27.63-43.9-48.7-83.56-57.81C202.41,341.1,188.56,339.61,174.95,339.61z"
					/>
			</g>
		</g>
		<g>
			<g>
				<path d="M174.76,523.84c-13.68,0-27.58-1.49-41.26-4.64c-39.96-9.18-70.67-30.45-84.24-58.35c-9.35-19.22-9.48-39.59-0.38-58.93
					c22.85-48.58,97.94-75.12,167.39-59.17c39.96,9.18,70.67,30.45,84.24,58.35c9.35,19.22,9.48,39.59,0.38,58.93l0,0
					C282.53,499.04,230.5,523.84,174.76,523.84z M174.95,339.11c-55.36,0-106.99,24.57-125.18,63.24
					c-8.96,19.05-8.83,39.13,0.38,58.07c13.44,27.63,43.9,48.7,83.56,57.81c69.02,15.85,143.6-10.45,166.26-58.63l0.45,0.21
					l-0.45-0.21c8.96-19.05,8.83-39.13-0.38-58.07c-13.44-27.63-43.9-48.7-83.56-57.81C202.41,340.6,188.56,339.11,174.95,339.11z"
					/>
			</g>
		</g>
	</g>
</g>
<g>
	<g>
		<line class="st7" x1="2.94" y1="865.68" x2="384.6" y2="865.68"/>
		<g>
			<g>
			</g>
			<g>
			</g>
		</g>
	</g>
	<g>
		<g>
			<text transform="matrix(1 0 0 1 -19.706 872.3872)" class="st8 st9">0.0</text>
			<text transform="matrix(1 0 0 1 -19.706 840.4937)" class="st8 st9">0.5</text>
			<text transform="matrix(1 0 0 1 -19.706 808.6011)" class="st8 st9">1.0</text>
			<text transform="matrix(1 0 0 1 -19.706 776.7085)" class="st8 st9">1.5</text>
			<text transform="matrix(1 0 0 1 -19.706 744.8149)" class="st8 st9">2.0</text>
			<text transform="matrix(1 0 0 1 -19.706 712.9224)" class="st8 st9">2.5</text>
			<text transform="matrix(1 0 0 1 -19.706 681.0298)" class="st8 st9">3.0</text>
			<text transform="matrix(1 0 0 1 -19.706 649.1372)" class="st8 st9">3.5</text>
			<text transform="matrix(1 0 0 1 -19.706 617.2437)" class="st8 st9">4.0</text>
		</g>
		<line class="st7" x1="2.94" y1="865.68" x2="2.94" y2="610.54"/>
		<g>
			<g>
				<line class="st7" x1="2.94" y1="865.68" x2="12.48" y2="865.68"/>
				<line class="st7" x1="2.94" y1="833.79" x2="12.48" y2="833.79"/>
				<line class="st7" x1="2.94" y1="801.89" x2="12.48" y2="801.89"/>
				<line class="st7" x1="2.94" y1="770" x2="12.48" y2="770"/>
				<line class="st7" x1="2.94" y1="738.11" x2="12.48" y2="738.11"/>
				<line class="st7" x1="2.94" y1="706.21" x2="12.48" y2="706.21"/>
				<line class="st7" x1="2.94" y1="674.32" x2="12.48" y2="674.32"/>
				<line class="st7" x1="2.94" y1="642.43" x2="12.48" y2="642.43"/>
				<line class="st7" x1="2.94" y1="610.54" x2="12.48" y2="610.54"/>
			</g>
			<g>
				<line class="st7" x1="2.94" y1="859.3" x2="12.48" y2="859.3"/>
				<line class="st7" x1="2.94" y1="852.92" x2="12.48" y2="852.92"/>
				<line class="st7" x1="2.94" y1="846.54" x2="12.48" y2="846.54"/>
				<line class="st7" x1="2.94" y1="840.16" x2="12.48" y2="840.16"/>
				<line class="st7" x1="2.94" y1="827.41" x2="12.48" y2="827.41"/>
				<line class="st7" x1="2.94" y1="821.03" x2="12.48" y2="821.03"/>
				<line class="st7" x1="2.94" y1="814.65" x2="12.48" y2="814.65"/>
				<line class="st7" x1="2.94" y1="808.27" x2="12.48" y2="808.27"/>
				<line class="st7" x1="2.94" y1="795.51" x2="12.48" y2="795.51"/>
				<line class="st7" x1="2.94" y1="789.14" x2="12.48" y2="789.14"/>
				<line class="st7" x1="2.94" y1="782.76" x2="12.48" y2="782.76"/>
				<line class="st7" x1="2.94" y1="776.38" x2="12.48" y2="776.38"/>
				<line class="st7" x1="2.94" y1="763.62" x2="12.48" y2="763.62"/>
				<line class="st7" x1="2.94" y1="757.24" x2="12.48" y2="757.24"/>
				<line class="st7" x1="2.94" y1="750.86" x2="12.48" y2="750.86"/>
				<line class="st7" x1="2.94" y1="744.49" x2="12.48" y2="744.49"/>
				<line class="st7" x1="2.94" y1="731.73" x2="12.48" y2="731.73"/>
				<line class="st7" x1="2.94" y1="725.35" x2="12.48" y2="725.35"/>
				<line class="st7" x1="2.94" y1="718.97" x2="12.48" y2="718.97"/>
				<line class="st7" x1="2.94" y1="712.59" x2="12.48" y2="712.59"/>
				<line class="st7" x1="2.94" y1="699.84" x2="12.48" y2="699.84"/>
				<line class="st7" x1="2.94" y1="693.46" x2="12.48" y2="693.46"/>
				<line class="st7" x1="2.94" y1="687.08" x2="12.48" y2="687.08"/>
				<line class="st7" x1="2.94" y1="680.7" x2="12.48" y2="680.7"/>
				<line class="st7" x1="2.94" y1="667.94" x2="12.48" y2="667.94"/>
				<line class="st7" x1="2.94" y1="661.56" x2="12.48" y2="661.56"/>
				<line class="st7" x1="2.94" y1="655.19" x2="12.48" y2="655.19"/>
				<line class="st7" x1="2.94" y1="648.81" x2="12.48" y2="648.81"/>
				<line class="st7" x1="2.94" y1="636.05" x2="12.48" y2="636.05"/>
				<line class="st7" x1="2.94" y1="629.67" x2="12.48" y2="629.67"/>
				<line class="st7" x1="2.94" y1="623.29" x2="12.48" y2="623.29"/>
				<line class="st7" x1="2.94" y1="616.91" x2="12.48" y2="616.91"/>
			</g>
		</g>
	</g>
	<g>
		<g>
			<text transform="matrix(1 0 0 1 390.5596 872.3872)" class="st8 st9">0.0</text>
			<text transform="matrix(1 0 0 1 390.5596 840.4937)" class="st8 st9">0.5</text>
			<text transform="matrix(1 0 0 1 390.5596 808.6011)" class="st8 st9">1.0</text>
			<text transform="matrix(1 0 0 1 390.5596 776.7085)" class="st8 st9">1.5</text>
			<text transform="matrix(1 0 0 1 390.5596 744.8149)" class="st8 st9">2.0</text>
			<text transform="matrix(1 0 0 1 390.5596 712.9224)" class="st8 st9">2.5</text>
			<text transform="matrix(1 0 0 1 390.5596 681.0298)" class="st8 st9">3.0</text>
			<text transform="matrix(1 0 0 1 390.5596 649.1372)" class="st8 st9">3.5</text>
			<text transform="matrix(1 0 0 1 390.5596 617.2437)" class="st8 st9">4.0</text>
		</g>
		<line class="st7" x1="384.6" y1="865.68" x2="384.6" y2="610.54"/>
		<g>
			<g>
				<line class="st7" x1="384.6" y1="865.68" x2="375.05" y2="865.68"/>
				<line class="st7" x1="384.6" y1="833.79" x2="375.05" y2="833.79"/>
				<line class="st7" x1="384.6" y1="801.89" x2="375.05" y2="801.89"/>
				<line class="st7" x1="384.6" y1="770" x2="375.05" y2="770"/>
				<line class="st7" x1="384.6" y1="738.11" x2="375.05" y2="738.11"/>
				<line class="st7" x1="384.6" y1="706.21" x2="375.05" y2="706.21"/>
				<line class="st7" x1="384.6" y1="674.32" x2="375.05" y2="674.32"/>
				<line class="st7" x1="384.6" y1="642.43" x2="375.05" y2="642.43"/>
				<line class="st7" x1="384.6" y1="610.54" x2="375.05" y2="610.54"/>
			</g>
			<g>
				<line class="st7" x1="384.6" y1="859.3" x2="375.05" y2="859.3"/>
				<line class="st7" x1="384.6" y1="852.92" x2="375.05" y2="852.92"/>
				<line class="st7" x1="384.6" y1="846.54" x2="375.05" y2="846.54"/>
				<line class="st7" x1="384.6" y1="840.16" x2="375.05" y2="840.16"/>
				<line class="st7" x1="384.6" y1="827.41" x2="375.05" y2="827.41"/>
				<line class="st7" x1="384.6" y1="821.03" x2="375.05" y2="821.03"/>
				<line class="st7" x1="384.6" y1="814.65" x2="375.05" y2="814.65"/>
				<line class="st7" x1="384.6" y1="808.27" x2="375.05" y2="808.27"/>
				<line class="st7" x1="384.6" y1="795.51" x2="375.05" y2="795.51"/>
				<line class="st7" x1="384.6" y1="789.14" x2="375.05" y2="789.14"/>
				<line class="st7" x1="384.6" y1="782.76" x2="375.05" y2="782.76"/>
				<line class="st7" x1="384.6" y1="776.38" x2="375.05" y2="776.38"/>
				<line class="st7" x1="384.6" y1="763.62" x2="375.05" y2="763.62"/>
				<line class="st7" x1="384.6" y1="757.24" x2="375.05" y2="757.24"/>
				<line class="st7" x1="384.6" y1="750.86" x2="375.05" y2="750.86"/>
				<line class="st7" x1="384.6" y1="744.49" x2="375.05" y2="744.49"/>
				<line class="st7" x1="384.6" y1="731.73" x2="375.05" y2="731.73"/>
				<line class="st7" x1="384.6" y1="725.35" x2="375.05" y2="725.35"/>
				<line class="st7" x1="384.6" y1="718.97" x2="375.05" y2="718.97"/>
				<line class="st7" x1="384.6" y1="712.59" x2="375.05" y2="712.59"/>
				<line class="st7" x1="384.6" y1="699.84" x2="375.05" y2="699.84"/>
				<line class="st7" x1="384.6" y1="693.46" x2="375.05" y2="693.46"/>
				<line class="st7" x1="384.6" y1="687.08" x2="375.05" y2="687.08"/>
				<line class="st7" x1="384.6" y1="680.7" x2="375.05" y2="680.7"/>
				<line class="st7" x1="384.6" y1="667.94" x2="375.05" y2="667.94"/>
				<line class="st7" x1="384.6" y1="661.56" x2="375.05" y2="661.56"/>
				<line class="st7" x1="384.6" y1="655.19" x2="375.05" y2="655.19"/>
				<line class="st7" x1="384.6" y1="648.81" x2="375.05" y2="648.81"/>
				<line class="st7" x1="384.6" y1="636.05" x2="375.05" y2="636.05"/>
				<line class="st7" x1="384.6" y1="629.67" x2="375.05" y2="629.67"/>
				<line class="st7" x1="384.6" y1="623.29" x2="375.05" y2="623.29"/>
				<line class="st7" x1="384.6" y1="616.91" x2="375.05" y2="616.91"/>
			</g>
		</g>
	</g>
	<g>
		<g>
			<g>
				<rect x="168.32" y="706.21" class="st10" width="50.89" height="63.79"/>
			</g>
		</g>
		<g>
			<g>
				<rect x="168.32" y="770" class="st11" width="50.89" height="44.65"/>
				<rect x="41.1" y="629.67" class="st11" width="50.89" height="12.76"/>
			</g>
		</g>
		<g>
			<g>
				<rect x="168.32" y="814.65" class="st12" width="50.89" height="6.38"/>
				<rect x="41.1" y="642.43" class="st12" width="50.89" height="31.89"/>
			</g>
		</g>
		<g>
			<g>
				<rect x="168.32" y="821.03" class="st13" width="50.89" height="31.89"/>
				<rect x="41.1" y="674.32" class="st13" width="50.89" height="127.57"/>
			</g>
		</g>
		<g>
			<g>
				<rect x="295.54" y="801.89" class="st14" width="50.89" height="63.79"/>
				<rect x="168.32" y="852.92" class="st14" width="50.89" height="12.76"/>
				<rect x="41.1" y="801.89" class="st14" width="50.89" height="63.79"/>
			</g>
		</g>
	</g>
	<g>
		<g>
		</g>
		<g>
		</g>
		<g>
		</g>
		<g>
		</g>
		<g>
		</g>
	</g>
</g>
<rect x="-25.44" y="601.8" class="st1" width="24.56" height="289.03"/>
<rect x="386.6" y="597.1" class="st1" width="24.56" height="289.03"/>
<g>
	<path d="M394.34,618.88h-1.05v-6.72c-0.25,0.24-0.59,0.48-1,0.73s-0.78,0.42-1.11,0.54v-1.02c0.59-0.28,1.11-0.61,1.55-1.01
		s0.75-0.78,0.94-1.15h0.68V618.88z"/>
	<path d="M397.64,618.88v-1.2h1.2v1.2H397.64z"/>
	<path d="M400.38,614.64c0-1.02,0.1-1.83,0.31-2.45s0.52-1.1,0.93-1.43s0.93-0.5,1.56-0.5c0.46,0,0.87,0.09,1.21,0.28
		s0.63,0.45,0.86,0.8s0.4,0.78,0.53,1.28s0.19,1.18,0.19,2.03c0,1.01-0.1,1.82-0.31,2.44s-0.52,1.1-0.93,1.44s-0.93,0.51-1.56,0.51
		c-0.83,0-1.48-0.3-1.95-0.89C400.66,617.42,400.38,616.25,400.38,614.64z M401.46,614.64c0,1.41,0.17,2.35,0.5,2.82
		s0.74,0.7,1.22,0.7s0.89-0.23,1.22-0.7s0.5-1.41,0.5-2.81c0-1.41-0.17-2.35-0.5-2.82s-0.74-0.7-1.23-0.7
		c-0.48,0-0.87,0.21-1.16,0.62C401.64,612.26,401.46,613.23,401.46,614.64z"/>
</g>
<g>
	<path d="M390.37,860.98c0-1.02,0.1-1.83,0.31-2.45s0.52-1.1,0.93-1.43s0.93-0.5,1.56-0.5c0.46,0,0.87,0.09,1.21,0.28
		s0.63,0.45,0.86,0.8s0.4,0.78,0.53,1.28s0.19,1.18,0.19,2.03c0,1.01-0.1,1.82-0.31,2.44s-0.52,1.1-0.93,1.44s-0.93,0.51-1.56,0.51
		c-0.83,0-1.48-0.3-1.95-0.89C390.65,863.76,390.37,862.6,390.37,860.98z M391.46,860.98c0,1.41,0.17,2.35,0.5,2.82
		s0.74,0.7,1.22,0.7s0.89-0.23,1.22-0.7s0.5-1.41,0.5-2.81c0-1.41-0.17-2.35-0.5-2.82s-0.74-0.7-1.23-0.7
		c-0.48,0-0.87,0.21-1.16,0.62C391.64,858.61,391.46,859.57,391.46,860.98z"/>
	<path d="M397.64,865.22v-1.2h1.2v1.2H397.64z"/>
	<path d="M400.38,860.98c0-1.02,0.1-1.83,0.31-2.45s0.52-1.1,0.93-1.43s0.93-0.5,1.56-0.5c0.46,0,0.87,0.09,1.21,0.28
		s0.63,0.45,0.86,0.8s0.4,0.78,0.53,1.28s0.19,1.18,0.19,2.03c0,1.01-0.1,1.82-0.31,2.44s-0.52,1.1-0.93,1.44s-0.93,0.51-1.56,0.51
		c-0.83,0-1.48-0.3-1.95-0.89C400.66,863.76,400.38,862.6,400.38,860.98z M401.46,860.98c0,1.41,0.17,2.35,0.5,2.82
		s0.74,0.7,1.22,0.7s0.89-0.23,1.22-0.7s0.5-1.41,0.5-2.81c0-1.41-0.17-2.35-0.5-2.82s-0.74-0.7-1.23-0.7
		c-0.48,0-0.87,0.21-1.16,0.62C401.64,858.61,401.46,859.57,401.46,860.98z"/>
</g>
</svg>
