<?xml version="1.0" encoding="utf-8"?>
<!-- Generator: Adobe Illustrator 23.0.0, SVG Export Plug-In . SVG Version: 6.00 Build 0)  -->
<svg version="1.1" id="Layer_1" xmlns="http://www.w3.org/2000/svg" xmlns:xlink="http://www.w3.org/1999/xlink" x="0px" y="0px"
	 viewBox="0 0 334.9 258" style="enable-background:new 0 0 334.9 258;" xml:space="preserve">
<style type="text/css">
	.st0{fill:#3B6664;}
	.st1{fill:#FFFFFF;}
	.st2{clip-path:url(#SVGID_2_);}
	.st3{fill:#FFC710;}
	.st4{fill:#020202;}
	.st5{clip-path:url(#SVGID_4_);}
</style>
<g>
	<g>
		<ellipse cx="167.4" cy="141" rx="167.4" ry="117"/>
	</g>
	<g>
		<ellipse cx="167.4" cy="140" rx="167.4" ry="117"/>
	</g>
	<g>
		<ellipse cx="167.4" cy="139" rx="167.4" ry="117"/>
	</g>
	<g>
		<ellipse cx="167.4" cy="138" rx="167.4" ry="117"/>
	</g>
	<g>
		<ellipse cx="167.4" cy="137" rx="167.4" ry="117"/>
	</g>
	<g>
		<ellipse cx="167.4" cy="136" rx="167.4" ry="117"/>
	</g>
	<g>
		<ellipse cx="167.4" cy="135" rx="167.4" ry="117"/>
	</g>
	<g>
		<ellipse cx="167.4" cy="134" rx="167.4" ry="117"/>
	</g>
	<g>
		<ellipse cx="167.4" cy="133" rx="167.4" ry="117"/>
	</g>
	<g>
		<ellipse cx="167.4" cy="132" rx="167.4" ry="117"/>
	</g>
	<g>
		<ellipse cx="167.4" cy="131" rx="167.4" ry="117"/>
	</g>
	<g>
		<ellipse cx="167.4" cy="130" rx="167.4" ry="117"/>
	</g>
	<g>
		<ellipse cx="167.4" cy="129" rx="167.4" ry="117"/>
	</g>
	<g>
		<ellipse cx="167.4" cy="128" rx="167.4" ry="117"/>
	</g>
	<g>
		<ellipse cx="167.4" cy="127" rx="167.4" ry="117"/>
	</g>
	<g>
		<ellipse cx="167.4" cy="126" rx="167.4" ry="117"/>
	</g>
	<g>
		<ellipse cx="167.4" cy="125" rx="167.4" ry="117"/>
	</g>
	<g>
		<ellipse cx="167.4" cy="124" rx="167.4" ry="117"/>
	</g>
	<g>
		<ellipse cx="167.4" cy="123" rx="167.4" ry="117"/>
	</g>
	<g>
		<ellipse cx="167.4" cy="122" rx="167.4" ry="117"/>
	</g>
	<g>
		<ellipse cx="167.4" cy="121" rx="167.4" ry="117"/>
	</g>
	<g>
		<ellipse cx="167.4" cy="120" rx="167.4" ry="117"/>
	</g>
	<g>
		<ellipse cx="167.4" cy="119" rx="167.4" ry="117"/>
	</g>
	<g>
		<ellipse cx="167.4" cy="118" rx="167.4" ry="117"/>
	</g>
	<g>
		<ellipse cx="167.4" cy="117" rx="167.4" ry="117"/>
	</g>
</g>
<g>
	<g>
		<ellipse class="st0" cx="167.4" cy="117" rx="167.4" ry="117"/>
	</g>
</g>
<g>
	<ellipse class="st1" cx="167.4" cy="117" rx="132.2" ry="92.4"/>
</g>
<g>
	<g>
		<g>
			<defs>
				<polygon id="SVGID_1_" points="465.3,19 238.1,-33.2 167.4,117 394.6,169.2 				"/>
			</defs>
			<clipPath id="SVGID_2_">
				<use xlink:href="#SVGID_1_"  style="overflow:visible;"/>
			</clipPath>
			<g class="st2">
				<g>
					<ellipse class="st3" cx="167.4" cy="117" rx="167.4" ry="117"/>
				</g>
			</g>
		</g>
	</g>
</g>
<g>
	<g>
		<rect y="116.5" class="st4" width="0.5" height="1"/>
	</g>
	<g>
		<path class="st4" d="M164.9,117.5h-1v-1h1V117.5z M162,117.5h-1v-1h1V117.5z M159,117.5h-1v-1h1V117.5z M156,117.5h-1v-1h1V117.5z
			 M153,117.5h-1v-1h1V117.5z M150,117.5h-1v-1h1V117.5z M147,117.5h-1v-1h1V117.5z M144,117.5h-1v-1h1V117.5z M141,117.5h-1v-1h1
			V117.5z M138,117.5h-1v-1h1V117.5z M135.1,117.5h-1v-1h1V117.5z M132.1,117.5h-1v-1h1V117.5z M129.1,117.5h-1v-1h1V117.5z
			 M126.1,117.5h-1v-1h1V117.5z M123.1,117.5h-1v-1h1V117.5z M120.1,117.5h-1v-1h1V117.5z M117.1,117.5h-1v-1h1V117.5z M114.1,117.5
			h-1v-1h1V117.5z M111.1,117.5h-1v-1h1V117.5z M108.1,117.5h-1v-1h1V117.5z M105.2,117.5h-1v-1h1V117.5z M102.2,117.5h-1v-1h1
			V117.5z M99.2,117.5h-1v-1h1V117.5z M96.2,117.5h-1v-1h1V117.5z M93.2,117.5h-1v-1h1V117.5z M90.2,117.5h-1v-1h1V117.5z
			 M87.2,117.5h-1v-1h1V117.5z M84.2,117.5h-1v-1h1V117.5z M81.2,117.5h-1v-1h1V117.5z M78.2,117.5h-1v-1h1V117.5z M75.3,117.5h-1
			v-1h1V117.5z M72.3,117.5h-1v-1h1V117.5z M69.3,117.5h-1v-1h1V117.5z M66.3,117.5h-1v-1h1V117.5z M63.3,117.5h-1v-1h1V117.5z
			 M60.3,117.5h-1v-1h1V117.5z M57.3,117.5h-1v-1h1V117.5z M54.3,117.5h-1v-1h1V117.5z M51.3,117.5h-1v-1h1V117.5z M48.3,117.5h-1
			v-1h1V117.5z M45.3,117.5h-1v-1h1V117.5z M42.4,117.5h-1v-1h1V117.5z M39.4,117.5h-1v-1h1V117.5z M36.4,117.5h-1v-1h1V117.5z
			 M33.4,117.5h-1v-1h1V117.5z M30.4,117.5h-1v-1h1V117.5z M27.4,117.5h-1v-1h1V117.5z M24.4,117.5h-1v-1h1V117.5z M21.4,117.5h-1
			v-1h1V117.5z M18.4,117.5h-1v-1h1V117.5z M15.4,117.5h-1v-1h1V117.5z M12.5,117.5h-1v-1h1V117.5z M9.5,117.5h-1v-1h1V117.5z
			 M6.5,117.5h-1v-1h1V117.5z M3.5,117.5h-1v-1h1V117.5z"/>
	</g>
	<g>
		<rect x="166.9" y="116.5" class="st4" width="1" height="1"/>
	</g>
	<g>
		<path class="st4" d="M167.9,114.5h-1v-1h1V114.5z M167.9,111.5h-1v-1h1V111.5z M167.9,108.5h-1v-1h1V108.5z M167.9,105.5h-1v-1h1
			V105.5z M167.9,102.5h-1v-1h1V102.5z M167.9,99.5h-1v-1h1V99.5z M167.9,96.5h-1v-1h1V96.5z M167.9,93.5h-1v-1h1V93.5z M167.9,90.5
			h-1v-1h1V90.5z M167.9,87.5h-1v-1h1V87.5z M167.9,84.5h-1v-1h1V84.5z M167.9,81.5h-1v-1h1V81.5z M167.9,78.5h-1v-1h1V78.5z
			 M167.9,75.5h-1v-1h1V75.5z M167.9,72.5h-1v-1h1V72.5z M167.9,69.5h-1v-1h1V69.5z M167.9,66.5h-1v-1h1V66.5z M167.9,63.5h-1v-1h1
			V63.5z M167.9,60.5h-1v-1h1V60.5z M167.9,57.5h-1v-1h1V57.5z M167.9,54.5h-1v-1h1V54.5z M167.9,51.5h-1v-1h1V51.5z M167.9,48.5h-1
			v-1h1V48.5z M167.9,45.5h-1v-1h1V45.5z M167.9,42.5h-1v-1h1V42.5z M167.9,39.5h-1v-1h1V39.5z M167.9,36.5h-1v-1h1V36.5z
			 M167.9,33.5h-1v-1h1V33.5z M167.9,30.5h-1v-1h1V30.5z M167.9,27.5h-1v-1h1V27.5z M167.9,24.5h-1v-1h1V24.5z M167.9,21.5h-1v-1h1
			V21.5z M167.9,18.5h-1v-1h1V18.5z M167.9,15.5h-1v-1h1V15.5z M167.9,12.5h-1v-1h1V12.5z M167.9,9.5h-1v-1h1V9.5z M167.9,6.5h-1v-1
			h1V6.5z M167.9,3.5h-1v-1h1V3.5z"/>
	</g>
	<g>
		<rect x="166.9" class="st4" width="1" height="0.5"/>
	</g>
</g>
<g>
	<path class="st4" d="M167.9,234h-1v-1h1V234z M167.9,231h-1v-1h1V231z M167.9,228h-1v-1h1V228z M167.9,225h-1v-1h1V225z M167.9,222
		h-1v-1h1V222z M167.9,219h-1v-1h1V219z M167.9,216h-1v-1h1V216z M167.9,213h-1v-1h1V213z M167.9,210h-1v-1h1V210z M167.9,207h-1v-1
		h1V207z M167.9,204h-1v-1h1V204z M167.9,201h-1v-1h1V201z M167.9,198h-1v-1h1V198z M167.9,195h-1v-1h1V195z M167.9,192h-1v-1h1V192
		z M167.9,189h-1v-1h1V189z M167.9,186h-1v-1h1V186z M167.9,183h-1v-1h1V183z M167.9,180h-1v-1h1V180z M167.9,177h-1v-1h1V177z
		 M167.9,174h-1v-1h1V174z M167.9,171h-1v-1h1V171z M167.9,168h-1v-1h1V168z M167.9,165h-1v-1h1V165z M167.9,162h-1v-1h1V162z
		 M167.9,159h-1v-1h1V159z M167.9,156h-1v-1h1V156z M167.9,153h-1v-1h1V153z M167.9,150h-1v-1h1V150z M167.9,147h-1v-1h1V147z
		 M167.9,144h-1v-1h1V144z M167.9,141h-1v-1h1V141z M167.9,138h-1v-1h1V138z M167.9,135h-1v-1h1V135z M167.9,132h-1v-1h1V132z
		 M167.9,129h-1v-1h1V129z M167.9,126h-1v-1h1V126z M167.9,123h-1v-1h1V123z M167.9,120h-1v-1h1V120z M333.4,117.5h-1v-1h1V117.5z
		 M330.4,117.5h-1v-1h1V117.5z M327.4,117.5h-1v-1h1V117.5z M324.4,117.5h-1v-1h1V117.5z M321.4,117.5h-1v-1h1V117.5z M318.4,117.5
		h-1v-1h1V117.5z M315.4,117.5h-1v-1h1V117.5z M312.4,117.5h-1v-1h1V117.5z M309.4,117.5h-1v-1h1V117.5z M306.4,117.5h-1v-1h1V117.5
		z M303.4,117.5h-1v-1h1V117.5z M300.4,117.5h-1v-1h1V117.5z M297.4,117.5h-1v-1h1V117.5z M294.4,117.5h-1v-1h1V117.5z M291.4,117.5
		h-1v-1h1V117.5z M288.4,117.5h-1v-1h1V117.5z M285.4,117.5h-1v-1h1V117.5z M282.4,117.5h-1v-1h1V117.5z M279.4,117.5h-1v-1h1V117.5
		z M276.4,117.5h-1v-1h1V117.5z M273.4,117.5h-1v-1h1V117.5z M270.4,117.5h-1v-1h1V117.5z M267.4,117.5h-1v-1h1V117.5z M264.4,117.5
		h-1v-1h1V117.5z M261.4,117.5h-1v-1h1V117.5z M258.4,117.5h-1v-1h1V117.5z M255.4,117.5h-1v-1h1V117.5z M252.4,117.5h-1v-1h1V117.5
		z M249.4,117.5h-1v-1h1V117.5z M246.4,117.5h-1v-1h1V117.5z M243.4,117.5h-1v-1h1V117.5z M240.4,117.5h-1v-1h1V117.5z M237.4,117.5
		h-1v-1h1V117.5z M234.4,117.5h-1v-1h1V117.5z M231.4,117.5h-1v-1h1V117.5z M228.4,117.5h-1v-1h1V117.5z M225.4,117.5h-1v-1h1V117.5
		z M222.4,117.5h-1v-1h1V117.5z M219.4,117.5h-1v-1h1V117.5z M216.4,117.5h-1v-1h1V117.5z M213.4,117.5h-1v-1h1V117.5z M210.4,117.5
		h-1v-1h1V117.5z M207.4,117.5h-1v-1h1V117.5z M204.4,117.5h-1v-1h1V117.5z M201.4,117.5h-1v-1h1V117.5z M198.4,117.5h-1v-1h1V117.5
		z M195.4,117.5h-1v-1h1V117.5z M192.4,117.5h-1v-1h1V117.5z M189.4,117.5h-1v-1h1V117.5z M186.4,117.5h-1v-1h1V117.5z M183.4,117.5
		h-1v-1h1V117.5z M180.4,117.5h-1v-1h1V117.5z M177.4,117.5h-1v-1h1V117.5z M174.4,117.5h-1v-1h1V117.5z M171.4,117.5h-1v-1h1V117.5
		z M168.4,117.5h-1V117h-0.5v-0.5h1.5V117.5z"/>
</g>
<g>
	<path d="M167.4,1c17.6,0,35.2,2,52.1,5.9c25.3,5.8,47.5,15.4,66.1,28.5c17.7,12.5,31.4,27.9,39.5,44.5
		c11.6,23.9,11.8,49.2,0.5,73.2c-11.1,23.7-32.4,43.8-61.4,58.2c-28.5,14.2-61.9,21.7-96.8,21.7c-17.6,0-35.2-2-52.1-5.9
		c-25.3-5.8-47.5-15.4-66.1-28.5c-17.7-12.5-31.3-27.9-39.4-44.5C-1.8,130.3-2,104.9,9.3,80.9c11.1-23.7,32.3-43.8,61.3-58.2
		C99.2,8.5,132.6,1,167.4,1L167.4,1 M167.4,0C97.1,0,31.6,31.2,8.4,80.5c-28.9,61.4,19,127.5,106.8,147.6c17.4,4,35,5.9,52.3,5.9
		c70.3,0,135.8-31.2,159-80.5c28.8-61.3-19-127.4-106.8-147.6C202.4,1.9,184.7,0,167.4,0L167.4,0z"/>
</g>
<g>
	<ellipse class="st1" cx="167.4" cy="117" rx="132.2" ry="92.4"/>
</g>
<g>
	<g>
		<g>
			<defs>
				<ellipse id="SVGID_3_" cx="167.4" cy="117" rx="132.2" ry="92.4"/>
			</defs>
			<clipPath id="SVGID_4_">
				<use xlink:href="#SVGID_3_"  style="overflow:visible;"/>
			</clipPath>
			<g class="st5">
				<g>
					<g>
						<path d="M167.3,233.9c-13.7,0-27.6-1.5-41.3-4.6c-40-9.2-70.7-30.4-84.2-58.3c-9.3-19.2-9.5-39.6-0.4-58.9
							C64.3,63.5,139.3,37,208.8,52.9c40,9.2,70.7,30.5,84.2,58.3c9.4,19.2,9.5,39.6,0.4,58.9l0,0
							C275.1,209.1,223.1,233.9,167.3,233.9z M167.5,49.2c-55.4,0-107,24.6-125.2,63.2c-9,19.1-8.8,39.1,0.4,58.1
							c13.4,27.6,43.9,48.7,83.6,57.8c69,15.9,143.6-10.4,166.3-58.6l0.5,0.2l-0.5-0.2c9-19.1,8.8-39.1-0.4-58.1
							c-13.4-27.6-43.9-48.7-83.6-57.8C195,50.6,181.1,49.2,167.5,49.2z"/>
					</g>
				</g>
				<g>
					<g>
						<path d="M167.3,233.4c-13.7,0-27.6-1.5-41.3-4.6c-40-9.2-70.7-30.4-84.2-58.3c-9.3-19.2-9.5-39.6-0.4-58.9
							C64.3,63,139.3,36.5,208.8,52.4c40,9.2,70.7,30.5,84.2,58.3c9.4,19.2,9.5,39.6,0.4,58.9l0,0
							C275.1,208.6,223.1,233.4,167.3,233.4z M167.5,48.7c-55.4,0-107,24.6-125.2,63.2c-9,19.1-8.8,39.1,0.4,58.1
							c13.4,27.6,43.9,48.7,83.6,57.8c69,15.9,143.6-10.4,166.3-58.6l0.5,0.2l-0.5-0.2c9-19.1,8.8-39.1-0.4-58.1
							c-13.4-27.6-43.9-48.7-83.6-57.8C195,50.1,181.1,48.7,167.5,48.7z"/>
					</g>
				</g>
				<g>
					<g>
						<path d="M167.3,232.9c-13.7,0-27.6-1.5-41.3-4.6c-40-9.2-70.7-30.4-84.2-58.3c-9.3-19.2-9.5-39.6-0.4-58.9
							C64.3,62.5,139.3,36,208.8,51.9c40,9.2,70.7,30.5,84.2,58.3c9.4,19.2,9.5,39.6,0.4,58.9l0,0
							C275.1,208.1,223.1,232.9,167.3,232.9z M167.5,48.2c-55.4,0-107,24.6-125.2,63.2c-9,19.1-8.8,39.1,0.4,58.1
							c13.4,27.6,43.9,48.7,83.6,57.8c69,15.9,143.6-10.4,166.3-58.6l0.5,0.2l-0.5-0.2c9-19.1,8.8-39.1-0.4-58.1
							c-13.4-27.6-43.9-48.7-83.6-57.8C195,49.6,181.1,48.2,167.5,48.2z"/>
					</g>
				</g>
				<g>
					<g>
						<path d="M167.3,232.4c-13.7,0-27.6-1.5-41.3-4.6c-40-9.2-70.7-30.4-84.2-58.3c-9.3-19.2-9.5-39.6-0.4-58.9
							C64.3,62,139.3,35.5,208.8,51.4c40,9.2,70.7,30.5,84.2,58.3c9.4,19.2,9.5,39.6,0.4,58.9l0,0
							C275.1,207.6,223.1,232.4,167.3,232.4z M167.5,47.7c-55.4,0-107,24.6-125.2,63.2c-9,19.1-8.8,39.1,0.4,58.1
							c13.4,27.6,43.9,48.7,83.6,57.8c69,15.9,143.6-10.4,166.3-58.6l0.5,0.2l-0.5-0.2c9-19.1,8.8-39.1-0.4-58.1
							c-13.4-27.6-43.9-48.7-83.6-57.8C195,49.1,181.1,47.7,167.5,47.7z"/>
					</g>
				</g>
				<g>
					<g>
						<path d="M167.3,231.9c-13.7,0-27.6-1.5-41.3-4.6c-40-9.2-70.7-30.4-84.2-58.3c-9.3-19.2-9.5-39.6-0.4-58.9
							C64.3,61.5,139.3,35,208.8,50.9c40,9.2,70.7,30.5,84.2,58.3c9.4,19.2,9.5,39.6,0.4,58.9l0,0
							C275.1,207.1,223.1,231.9,167.3,231.9z M167.5,47.2c-55.4,0-107,24.6-125.2,63.2c-9,19.1-8.8,39.1,0.4,58.1
							c13.4,27.6,43.9,48.7,83.6,57.8c69,15.9,143.6-10.4,166.3-58.6l0.5,0.2l-0.5-0.2c9-19.1,8.8-39.1-0.4-58.1
							c-13.4-27.6-43.9-48.7-83.6-57.8C195,48.6,181.1,47.2,167.5,47.2z"/>
					</g>
				</g>
				<g>
					<g>
						<path d="M167.3,231.4c-13.7,0-27.6-1.5-41.3-4.6c-40-9.2-70.7-30.4-84.2-58.3c-9.3-19.2-9.5-39.6-0.4-58.9
							C64.3,61,139.3,34.5,208.8,50.4c40,9.2,70.7,30.5,84.2,58.3c9.4,19.2,9.5,39.6,0.4,58.9l0,0
							C275.1,206.6,223.1,231.4,167.3,231.4z M167.5,46.7c-55.4,0-107,24.6-125.2,63.2c-9,19.1-8.8,39.1,0.4,58.1
							c13.4,27.6,43.9,48.7,83.6,57.8c69,15.9,143.6-10.4,166.3-58.6l0.5,0.2l-0.5-0.2c9-19.1,8.8-39.1-0.4-58.1
							c-13.4-27.6-43.9-48.7-83.6-57.8C195,48.1,181.1,46.7,167.5,46.7z"/>
					</g>
				</g>
				<g>
					<g>
						<path d="M167.3,230.9c-13.7,0-27.6-1.5-41.3-4.6c-40-9.2-70.7-30.4-84.2-58.3c-9.3-19.2-9.5-39.6-0.4-58.9
							C64.3,60.5,139.3,34,208.8,49.9c40,9.2,70.7,30.5,84.2,58.3c9.4,19.2,9.5,39.6,0.4,58.9l0,0
							C275.1,206.1,223.1,230.9,167.3,230.9z M167.5,46.2c-55.4,0-107,24.6-125.2,63.2c-9,19.1-8.8,39.1,0.4,58.1
							c13.4,27.6,43.9,48.7,83.6,57.8c69,15.9,143.6-10.4,166.3-58.6l0.5,0.2l-0.5-0.2c9-19.1,8.8-39.1-0.4-58.1
							c-13.4-27.6-43.9-48.7-83.6-57.8C195,47.6,181.1,46.2,167.5,46.2z"/>
					</g>
				</g>
				<g>
					<g>
						<path d="M167.3,230.4c-13.7,0-27.6-1.5-41.3-4.6c-40-9.2-70.7-30.4-84.2-58.3c-9.3-19.2-9.5-39.6-0.4-58.9
							C64.3,60,139.3,33.5,208.8,49.4c40,9.2,70.7,30.5,84.2,58.3c9.4,19.2,9.5,39.6,0.4,58.9l0,0
							C275.1,205.6,223.1,230.4,167.3,230.4z M167.5,45.7c-55.4,0-107,24.6-125.2,63.2c-9,19.1-8.8,39.1,0.4,58.1
							c13.4,27.6,43.9,48.7,83.6,57.8c69,15.9,143.6-10.4,166.3-58.6l0.5,0.2l-0.5-0.2c9-19.1,8.8-39.1-0.4-58.1
							c-13.4-27.6-43.9-48.7-83.6-57.8C195,47.1,181.1,45.7,167.5,45.7z"/>
					</g>
				</g>
				<g>
					<g>
						<path d="M167.3,229.9c-13.7,0-27.6-1.5-41.3-4.6c-40-9.2-70.7-30.4-84.2-58.3c-9.3-19.2-9.5-39.6-0.4-58.9
							C64.3,59.5,139.3,33,208.8,48.9c40,9.2,70.7,30.5,84.2,58.3c9.4,19.2,9.5,39.6,0.4,58.9l0,0
							C275.1,205.1,223.1,229.9,167.3,229.9z M167.5,45.2c-55.4,0-107,24.6-125.2,63.2c-9,19.1-8.8,39.1,0.4,58.1
							c13.4,27.6,43.9,48.7,83.6,57.8c69,15.9,143.6-10.4,166.3-58.6l0.5,0.2l-0.5-0.2c9-19.1,8.8-39.1-0.4-58.1
							c-13.4-27.6-43.9-48.7-83.6-57.8C195,46.6,181.1,45.2,167.5,45.2z"/>
					</g>
				</g>
				<g>
					<g>
						<path d="M167.3,229.4c-13.7,0-27.6-1.5-41.3-4.6c-40-9.2-70.7-30.4-84.2-58.3c-9.3-19.2-9.5-39.6-0.4-58.9
							C64.3,59,139.3,32.5,208.8,48.4c40,9.2,70.7,30.5,84.2,58.3c9.4,19.2,9.5,39.6,0.4,58.9l0,0
							C275.1,204.6,223.1,229.4,167.3,229.4z M167.5,44.7c-55.4,0-107,24.6-125.2,63.2c-9,19.1-8.8,39.1,0.4,58.1
							c13.4,27.6,43.9,48.7,83.6,57.8c69,15.9,143.6-10.4,166.3-58.6l0.5,0.2l-0.5-0.2c9-19.1,8.8-39.1-0.4-58.1
							c-13.4-27.6-43.9-48.7-83.6-57.8C195,46.1,181.1,44.7,167.5,44.7z"/>
					</g>
				</g>
				<g>
					<g>
						<path d="M167.3,228.9c-13.7,0-27.6-1.5-41.3-4.6c-40-9.2-70.7-30.4-84.2-58.3c-9.3-19.2-9.5-39.6-0.4-58.9
							C64.3,58.5,139.3,32,208.8,47.9c40,9.2,70.7,30.5,84.2,58.3c9.4,19.2,9.5,39.6,0.4,58.9l0,0
							C275.1,204.1,223.1,228.9,167.3,228.9z M167.5,44.2c-55.4,0-107,24.6-125.2,63.2c-9,19.1-8.8,39.1,0.4,58.1
							c13.4,27.6,43.9,48.7,83.6,57.8c69,15.9,143.6-10.4,166.3-58.6l0.5,0.2l-0.5-0.2c9-19.1,8.8-39.1-0.4-58.1
							c-13.4-27.6-43.9-48.7-83.6-57.8C195,45.6,181.1,44.2,167.5,44.2z"/>
					</g>
				</g>
				<g>
					<g>
						<path d="M167.3,228.4c-13.7,0-27.6-1.5-41.3-4.6c-40-9.2-70.7-30.4-84.2-58.3c-9.3-19.2-9.5-39.6-0.4-58.9
							C64.3,58,139.3,31.5,208.8,47.4c40,9.2,70.7,30.5,84.2,58.3c9.4,19.2,9.5,39.6,0.4,58.9l0,0
							C275.1,203.6,223.1,228.4,167.3,228.4z M167.5,43.7c-55.4,0-107,24.6-125.2,63.2c-9,19.1-8.8,39.1,0.4,58.1
							c13.4,27.6,43.9,48.7,83.6,57.8c69,15.9,143.6-10.4,166.3-58.6l0.5,0.2l-0.5-0.2c9-19.1,8.8-39.1-0.4-58.1
							c-13.4-27.6-43.9-48.7-83.6-57.8C195,45.1,181.1,43.7,167.5,43.7z"/>
					</g>
				</g>
				<g>
					<g>
						<path d="M167.3,227.9c-13.7,0-27.6-1.5-41.3-4.6c-40-9.2-70.7-30.4-84.2-58.3c-9.3-19.2-9.5-39.6-0.4-58.9
							C64.3,57.5,139.3,31,208.8,46.9c40,9.2,70.7,30.5,84.2,58.3c9.4,19.2,9.5,39.6,0.4,58.9l0,0
							C275.1,203.1,223.1,227.9,167.3,227.9z M167.5,43.2c-55.4,0-107,24.6-125.2,63.2c-9,19.1-8.8,39.1,0.4,58.1
							c13.4,27.6,43.9,48.7,83.6,57.8c69,15.9,143.6-10.4,166.3-58.6l0.5,0.2l-0.5-0.2c9-19.1,8.8-39.1-0.4-58.1
							c-13.4-27.6-43.9-48.7-83.6-57.8C195,44.6,181.1,43.2,167.5,43.2z"/>
					</g>
				</g>
				<g>
					<g>
						<path d="M167.3,227.4c-13.7,0-27.6-1.5-41.3-4.6c-40-9.2-70.7-30.4-84.2-58.3c-9.3-19.2-9.5-39.6-0.4-58.9
							C64.3,57,139.3,30.5,208.8,46.4c40,9.2,70.7,30.5,84.2,58.3c9.4,19.2,9.5,39.6,0.4,58.9l0,0
							C275.1,202.6,223.1,227.4,167.3,227.4z M167.5,42.7c-55.4,0-107,24.6-125.2,63.2c-9,19.1-8.8,39.1,0.4,58.1
							c13.4,27.6,43.9,48.7,83.6,57.8c69,15.9,143.6-10.4,166.3-58.6l0.5,0.2l-0.5-0.2c9-19.1,8.8-39.1-0.4-58.1
							c-13.4-27.6-43.9-48.7-83.6-57.8C195,44.1,181.1,42.7,167.5,42.7z"/>
					</g>
				</g>
				<g>
					<g>
						<path d="M167.3,226.9c-13.7,0-27.6-1.5-41.3-4.6c-40-9.2-70.7-30.4-84.2-58.3c-9.3-19.2-9.5-39.6-0.4-58.9
							C64.3,56.5,139.3,30,208.8,45.9c40,9.2,70.7,30.5,84.2,58.3c9.4,19.2,9.5,39.6,0.4,58.9l0,0
							C275.1,202.1,223.1,226.9,167.3,226.9z M167.5,42.2c-55.4,0-107,24.6-125.2,63.2c-9,19.1-8.8,39.1,0.4,58.1
							c13.4,27.6,43.9,48.7,83.6,57.8c69,15.9,143.6-10.4,166.3-58.6l0.5,0.2l-0.5-0.2c9-19.1,8.8-39.1-0.4-58.1
							c-13.4-27.6-43.9-48.7-83.6-57.8C195,43.6,181.1,42.2,167.5,42.2z"/>
					</g>
				</g>
				<g>
					<g>
						<path d="M167.3,226.4c-13.7,0-27.6-1.5-41.3-4.6c-40-9.2-70.7-30.4-84.2-58.3c-9.3-19.2-9.5-39.6-0.4-58.9
							C64.3,56,139.3,29.5,208.8,45.4c40,9.2,70.7,30.5,84.2,58.3c9.4,19.2,9.5,39.6,0.4,58.9l0,0
							C275.1,201.6,223.1,226.4,167.3,226.4z M167.5,41.7c-55.4,0-107,24.6-125.2,63.2c-9,19.1-8.8,39.1,0.4,58.1
							c13.4,27.6,43.9,48.7,83.6,57.8c69,15.9,143.6-10.4,166.3-58.6l0.5,0.2l-0.5-0.2c9-19.1,8.8-39.1-0.4-58.1
							c-13.4-27.6-43.9-48.7-83.6-57.8C195,43.1,181.1,41.7,167.5,41.7z"/>
					</g>
				</g>
				<g>
					<g>
						<path d="M167.3,225.9c-13.7,0-27.6-1.5-41.3-4.6c-40-9.2-70.7-30.4-84.2-58.3c-9.3-19.2-9.5-39.6-0.4-58.9
							C64.3,55.5,139.3,29,208.8,44.9c40,9.2,70.7,30.5,84.2,58.3c9.4,19.2,9.5,39.6,0.4,58.9l0,0
							C275.1,201.1,223.1,225.9,167.3,225.9z M167.5,41.2c-55.4,0-107,24.6-125.2,63.2c-9,19.1-8.8,39.1,0.4,58.1
							c13.4,27.6,43.9,48.7,83.6,57.8c69,15.9,143.6-10.4,166.3-58.6l0.5,0.2l-0.5-0.2c9-19.1,8.8-39.1-0.4-58.1
							c-13.4-27.6-43.9-48.7-83.6-57.8C195,42.6,181.1,41.2,167.5,41.2z"/>
					</g>
				</g>
				<g>
					<g>
						<path d="M167.3,225.4c-13.7,0-27.6-1.5-41.3-4.6c-40-9.2-70.7-30.4-84.2-58.3c-9.3-19.2-9.5-39.6-0.4-58.9
							C64.3,55,139.3,28.5,208.8,44.4c40,9.2,70.7,30.5,84.2,58.3c9.4,19.2,9.5,39.6,0.4,58.9l0,0
							C275.1,200.6,223.1,225.4,167.3,225.4z M167.5,40.7c-55.4,0-107,24.6-125.2,63.2c-9,19.1-8.8,39.1,0.4,58.1
							c13.4,27.6,43.9,48.7,83.6,57.8c69,15.9,143.6-10.4,166.3-58.6l0.5,0.2l-0.5-0.2c9-19.1,8.8-39.1-0.4-58.1
							c-13.4-27.6-43.9-48.7-83.6-57.8C195,42.1,181.1,40.7,167.5,40.7z"/>
					</g>
				</g>
				<g>
					<g>
						<path d="M167.3,224.9c-13.7,0-27.6-1.5-41.3-4.6c-40-9.2-70.7-30.4-84.2-58.3c-9.3-19.2-9.5-39.6-0.4-58.9
							C64.3,54.5,139.3,28,208.8,43.9c40,9.2,70.7,30.5,84.2,58.3c9.4,19.2,9.5,39.6,0.4,58.9l0,0
							C275.1,200.1,223.1,224.9,167.3,224.9z M167.5,40.2c-55.4,0-107,24.6-125.2,63.2c-9,19.1-8.8,39.1,0.4,58.1
							c13.4,27.6,43.9,48.7,83.6,57.8c69,15.9,143.6-10.4,166.3-58.6l0.5,0.2l-0.5-0.2c9-19.1,8.8-39.1-0.4-58.1
							c-13.4-27.6-43.9-48.7-83.6-57.8C195,41.6,181.1,40.2,167.5,40.2z"/>
					</g>
				</g>
				<g>
					<g>
						<path d="M167.3,224.4c-13.7,0-27.6-1.5-41.3-4.6c-40-9.2-70.7-30.4-84.2-58.3c-9.3-19.2-9.5-39.6-0.4-58.9
							C64.3,54,139.3,27.5,208.8,43.4c40,9.2,70.7,30.5,84.2,58.3c9.4,19.2,9.5,39.6,0.4,58.9l0,0
							C275.1,199.6,223.1,224.4,167.3,224.4z M167.5,39.7c-55.4,0-107,24.6-125.2,63.2c-9,19.1-8.8,39.1,0.4,58.1
							c13.4,27.6,43.9,48.7,83.6,57.8c69,15.9,143.6-10.4,166.3-58.6l0.5,0.2l-0.5-0.2c9-19.1,8.8-39.1-0.4-58.1
							c-13.4-27.6-43.9-48.7-83.6-57.8C195,41.1,181.1,39.7,167.5,39.7z"/>
					</g>
				</g>
				<g>
					<g>
						<path d="M167.3,223.9c-13.7,0-27.6-1.5-41.3-4.6c-40-9.2-70.7-30.4-84.2-58.3c-9.3-19.2-9.5-39.6-0.4-58.9
							C64.3,53.5,139.3,27,208.8,42.9c40,9.2,70.7,30.5,84.2,58.3c9.4,19.2,9.5,39.6,0.4,58.9l0,0
							C275.1,199.1,223.1,223.9,167.3,223.9z M167.5,39.2c-55.4,0-107,24.6-125.2,63.2c-9,19.1-8.8,39.1,0.4,58.1
							c13.4,27.6,43.9,48.7,83.6,57.8c69,15.9,143.6-10.4,166.3-58.6l0.5,0.2l-0.5-0.2c9-19.1,8.8-39.1-0.4-58.1
							c-13.4-27.6-43.9-48.7-83.6-57.8C195,40.6,181.1,39.2,167.5,39.2z"/>
					</g>
				</g>
				<g>
					<g>
						<path d="M167.3,223.4c-13.7,0-27.6-1.5-41.3-4.6c-40-9.2-70.7-30.4-84.2-58.3c-9.3-19.2-9.5-39.6-0.4-58.9
							C64.3,53,139.3,26.5,208.8,42.4c40,9.2,70.7,30.5,84.2,58.3c9.4,19.2,9.5,39.6,0.4,58.9l0,0
							C275.1,198.6,223.1,223.4,167.3,223.4z M167.5,38.7c-55.4,0-107,24.6-125.2,63.2c-9,19.1-8.8,39.1,0.4,58.1
							c13.4,27.6,43.9,48.7,83.6,57.8c69,15.9,143.6-10.4,166.3-58.6l0.5,0.2l-0.5-0.2c9-19.1,8.8-39.1-0.4-58.1
							c-13.4-27.6-43.9-48.7-83.6-57.8C195,40.1,181.1,38.7,167.5,38.7z"/>
					</g>
				</g>
				<g>
					<g>
						<path d="M167.3,222.9c-13.7,0-27.6-1.5-41.3-4.6c-40-9.2-70.7-30.4-84.2-58.3c-9.3-19.2-9.5-39.6-0.4-58.9
							C64.3,52.5,139.3,26,208.8,41.9c40,9.2,70.7,30.5,84.2,58.3c9.4,19.2,9.5,39.6,0.4,58.9l0,0
							C275.1,198.1,223.1,222.9,167.3,222.9z M167.5,38.2c-55.4,0-107,24.6-125.2,63.2c-9,19.1-8.8,39.1,0.4,58.1
							c13.4,27.6,43.9,48.7,83.6,57.8c69,15.9,143.6-10.4,166.3-58.6l0.5,0.2l-0.5-0.2c9-19.1,8.8-39.1-0.4-58.1
							c-13.4-27.6-43.9-48.7-83.6-57.8C195,39.6,181.1,38.2,167.5,38.2z"/>
					</g>
				</g>
				<g>
					<g>
						<path d="M167.3,222.4c-13.7,0-27.6-1.5-41.3-4.6c-40-9.2-70.7-30.4-84.2-58.3c-9.3-19.2-9.5-39.6-0.4-58.9
							C64.3,52,139.3,25.5,208.8,41.4c40,9.2,70.7,30.5,84.2,58.3c9.4,19.2,9.5,39.6,0.4,58.9l0,0
							C275.1,197.6,223.1,222.4,167.3,222.4z M167.5,37.7c-55.4,0-107,24.6-125.2,63.2c-9,19.1-8.8,39.1,0.4,58.1
							c13.4,27.6,43.9,48.7,83.6,57.8c69,15.9,143.6-10.4,166.3-58.6l0.5,0.2l-0.5-0.2c9-19.1,8.8-39.1-0.4-58.1
							c-13.4-27.6-43.9-48.7-83.6-57.8C195,39.1,181.1,37.7,167.5,37.7z"/>
					</g>
				</g>
				<g>
					<g>
						<path d="M167.3,221.9c-13.7,0-27.6-1.5-41.3-4.6c-40-9.2-70.7-30.4-84.2-58.3c-9.3-19.2-9.5-39.6-0.4-58.9
							C64.3,51.5,139.3,25,208.8,40.9c40,9.2,70.7,30.5,84.2,58.3c9.4,19.2,9.5,39.6,0.4,58.9l0,0
							C275.1,197.1,223.1,221.9,167.3,221.9z M167.5,37.2c-55.4,0-107,24.6-125.2,63.2c-9,19.1-8.8,39.1,0.4,58.1
							c13.4,27.6,43.9,48.7,83.6,57.8c69,15.9,143.6-10.4,166.3-58.6l0.5,0.2l-0.5-0.2c9-19.1,8.8-39.1-0.4-58.1
							c-13.4-27.6-43.9-48.7-83.6-57.8C195,38.6,181.1,37.2,167.5,37.2z"/>
					</g>
				</g>
				<g>
					<g>
						<path d="M167.3,221.4c-13.7,0-27.6-1.5-41.3-4.6c-40-9.2-70.7-30.4-84.2-58.3c-9.3-19.2-9.5-39.6-0.4-58.9
							C64.3,51,139.3,24.5,208.8,40.4c40,9.2,70.7,30.5,84.2,58.3c9.4,19.2,9.5,39.6,0.4,58.9l0,0
							C275.1,196.6,223.1,221.4,167.3,221.4z M167.5,36.7c-55.4,0-107,24.6-125.2,63.2c-9,19.1-8.8,39.1,0.4,58.1
							c13.4,27.6,43.9,48.7,83.6,57.8c69,15.9,143.6-10.4,166.3-58.6l0.5,0.2l-0.5-0.2c9-19.1,8.8-39.1-0.4-58.1
							c-13.4-27.6-43.9-48.7-83.6-57.8C195,38.1,181.1,36.7,167.5,36.7z"/>
					</g>
				</g>
				<g>
					<g>
						<path d="M167.3,220.9c-13.7,0-27.6-1.5-41.3-4.6c-40-9.2-70.7-30.4-84.2-58.3c-9.3-19.2-9.5-39.6-0.4-58.9
							C64.3,50.5,139.3,24,208.8,39.9c40,9.2,70.7,30.5,84.2,58.3c9.4,19.2,9.5,39.6,0.4,58.9l0,0
							C275.1,196.1,223.1,220.9,167.3,220.9z M167.5,36.2c-55.4,0-107,24.6-125.2,63.2c-9,19.1-8.8,39.1,0.4,58.1
							c13.4,27.6,43.9,48.7,83.6,57.8c69,15.9,143.6-10.4,166.3-58.6l0.5,0.2l-0.5-0.2c9-19.1,8.8-39.1-0.4-58.1
							c-13.4-27.6-43.9-48.7-83.6-57.8C195,37.6,181.1,36.2,167.5,36.2z"/>
					</g>
				</g>
				<g>
					<g>
						<path d="M167.3,220.4c-13.7,0-27.6-1.5-41.3-4.6c-40-9.2-70.7-30.4-84.2-58.3c-9.3-19.2-9.5-39.6-0.4-58.9
							C64.3,50,139.3,23.5,208.8,39.4c40,9.2,70.7,30.5,84.2,58.3c9.4,19.2,9.5,39.6,0.4,58.9l0,0
							C275.1,195.6,223.1,220.4,167.3,220.4z M167.5,35.7c-55.4,0-107,24.6-125.2,63.2c-9,19.1-8.8,39.1,0.4,58.1
							c13.4,27.6,43.9,48.7,83.6,57.8c69,15.9,143.6-10.4,166.3-58.6l0.5,0.2l-0.5-0.2c9-19.1,8.8-39.1-0.4-58.1
							c-13.4-27.6-43.9-48.7-83.6-57.8C195,37.1,181.1,35.7,167.5,35.7z"/>
					</g>
				</g>
				<g>
					<g>
						<path d="M167.3,219.9c-13.7,0-27.6-1.5-41.3-4.6c-40-9.2-70.7-30.4-84.2-58.3c-9.3-19.2-9.5-39.6-0.4-58.9
							C64.3,49.5,139.3,23,208.8,38.9c40,9.2,70.7,30.5,84.2,58.3c9.4,19.2,9.5,39.6,0.4,58.9l0,0
							C275.1,195.1,223.1,219.9,167.3,219.9z M167.5,35.2c-55.4,0-107,24.6-125.2,63.2c-9,19.1-8.8,39.1,0.4,58.1
							c13.4,27.6,43.9,48.7,83.6,57.8c69,15.9,143.6-10.4,166.3-58.6l0.5,0.2l-0.5-0.2c9-19.1,8.8-39.1-0.4-58.1
							c-13.4-27.6-43.9-48.7-83.6-57.8C195,36.6,181.1,35.2,167.5,35.2z"/>
					</g>
				</g>
				<g>
					<g>
						<path d="M167.3,219.4c-13.7,0-27.6-1.5-41.3-4.6c-40-9.2-70.7-30.4-84.2-58.3c-9.3-19.2-9.5-39.6-0.4-58.9
							C64.3,49,139.3,22.5,208.8,38.4c40,9.2,70.7,30.5,84.2,58.3c9.4,19.2,9.5,39.6,0.4,58.9l0,0
							C275.1,194.6,223.1,219.4,167.3,219.4z M167.5,34.7c-55.4,0-107,24.6-125.2,63.2c-9,19.1-8.8,39.1,0.4,58.1
							c13.4,27.6,43.9,48.7,83.6,57.8c69,15.9,143.6-10.4,166.3-58.6l0.5,0.2l-0.5-0.2c9-19.1,8.8-39.1-0.4-58.1
							c-13.4-27.6-43.9-48.7-83.6-57.8C195,36.1,181.1,34.7,167.5,34.7z"/>
					</g>
				</g>
				<g>
					<g>
						<path d="M167.3,218.9c-13.7,0-27.6-1.5-41.3-4.6c-40-9.2-70.7-30.4-84.2-58.3c-9.3-19.2-9.5-39.6-0.4-58.9
							C64.3,48.5,139.3,22,208.8,37.9c40,9.2,70.7,30.5,84.2,58.3c9.4,19.2,9.5,39.6,0.4,58.9l0,0
							C275.1,194.1,223.1,218.9,167.3,218.9z M167.5,34.2c-55.4,0-107,24.6-125.2,63.2c-9,19.1-8.8,39.1,0.4,58.1
							c13.4,27.6,43.9,48.7,83.6,57.8c69,15.9,143.6-10.4,166.3-58.6l0.5,0.2l-0.5-0.2c9-19.1,8.8-39.1-0.4-58.1
							c-13.4-27.6-43.9-48.7-83.6-57.8C195,35.6,181.1,34.2,167.5,34.2z"/>
					</g>
				</g>
				<g>
					<g>
						<path d="M167.3,218.4c-13.7,0-27.6-1.5-41.3-4.6c-40-9.2-70.7-30.4-84.2-58.3c-9.3-19.2-9.5-39.6-0.4-58.9
							C64.3,48,139.3,21.5,208.8,37.4c40,9.2,70.7,30.5,84.2,58.3c9.4,19.2,9.5,39.6,0.4,58.9l0,0
							C275.1,193.6,223.1,218.4,167.3,218.4z M167.5,33.7c-55.4,0-107,24.6-125.2,63.2c-9,19.1-8.8,39.1,0.4,58.1
							c13.4,27.6,43.9,48.7,83.6,57.8c69,15.9,143.6-10.4,166.3-58.6l0.5,0.2l-0.5-0.2c9-19.1,8.8-39.1-0.4-58.1
							c-13.4-27.6-43.9-48.7-83.6-57.8C195,35.1,181.1,33.7,167.5,33.7z"/>
					</g>
				</g>
				<g>
					<g>
						<path d="M167.3,217.9c-13.7,0-27.6-1.5-41.3-4.6c-40-9.2-70.7-30.4-84.2-58.3c-9.3-19.2-9.5-39.6-0.4-58.9
							C64.3,47.5,139.3,21,208.8,36.9c40,9.2,70.7,30.5,84.2,58.3c9.4,19.2,9.5,39.6,0.4,58.9l0,0
							C275.1,193.1,223.1,217.9,167.3,217.9z M167.5,33.2c-55.4,0-107,24.6-125.2,63.2c-9,19.1-8.8,39.1,0.4,58.1
							c13.4,27.6,43.9,48.7,83.6,57.8c69,15.9,143.6-10.4,166.3-58.6l0.5,0.2l-0.5-0.2c9-19.1,8.8-39.1-0.4-58.1
							c-13.4-27.6-43.9-48.7-83.6-57.8C195,34.6,181.1,33.2,167.5,33.2z"/>
					</g>
				</g>
				<g>
					<g>
						<path d="M167.3,217.4c-13.7,0-27.6-1.5-41.3-4.6c-40-9.2-70.7-30.4-84.2-58.3c-9.3-19.2-9.5-39.6-0.4-58.9
							C64.3,47,139.3,20.5,208.8,36.4c40,9.2,70.7,30.5,84.2,58.3c9.4,19.2,9.5,39.6,0.4,58.9l0,0
							C275.1,192.6,223.1,217.4,167.3,217.4z M167.5,32.7c-55.4,0-107,24.6-125.2,63.2c-9,19.1-8.8,39.1,0.4,58.1
							c13.4,27.6,43.9,48.7,83.6,57.8c69,15.9,143.6-10.4,166.3-58.6l0.5,0.2l-0.5-0.2c9-19.1,8.8-39.1-0.4-58.1
							c-13.4-27.6-43.9-48.7-83.6-57.8C195,34.1,181.1,32.7,167.5,32.7z"/>
					</g>
				</g>
				<g>
					<g>
						<path d="M167.3,216.9c-13.7,0-27.6-1.5-41.3-4.6c-40-9.2-70.7-30.4-84.2-58.3c-9.3-19.2-9.5-39.6-0.4-58.9
							C64.3,46.5,139.3,20,208.8,35.9c40,9.2,70.7,30.5,84.2,58.3c9.4,19.2,9.5,39.6,0.4,58.9l0,0
							C275.1,192.1,223.1,216.9,167.3,216.9z M167.5,32.2c-55.4,0-107,24.6-125.2,63.2c-9,19.1-8.8,39.1,0.4,58.1
							c13.4,27.6,43.9,48.7,83.6,57.8c69,15.9,143.6-10.4,166.3-58.6l0.5,0.2l-0.5-0.2c9-19.1,8.8-39.1-0.4-58.1
							c-13.4-27.6-43.9-48.7-83.6-57.8C195,33.6,181.1,32.2,167.5,32.2z"/>
					</g>
				</g>
				<g>
					<g>
						<path d="M167.3,216.4c-13.7,0-27.6-1.5-41.3-4.6c-40-9.2-70.7-30.4-84.2-58.3c-9.3-19.2-9.5-39.6-0.4-58.9
							C64.3,46,139.3,19.5,208.8,35.4c40,9.2,70.7,30.5,84.2,58.3c9.4,19.2,9.5,39.6,0.4,58.9l0,0
							C275.1,191.6,223.1,216.4,167.3,216.4z M167.5,31.6c-55.4,0-107,24.6-125.2,63.2c-9,19.1-8.8,39.1,0.4,58.1
							c13.4,27.6,43.9,48.7,83.6,57.8c69,15.9,143.6-10.4,166.3-58.6l0.5,0.2l-0.5-0.2c9-19.1,8.8-39.1-0.4-58.1
							c-13.4-27.6-43.9-48.7-83.6-57.8C195,33.1,181.1,31.6,167.5,31.6z"/>
					</g>
				</g>
				<g>
					<g>
						<path d="M167.3,215.9c-13.7,0-27.6-1.5-41.3-4.6c-40-9.2-70.7-30.4-84.2-58.3c-9.3-19.2-9.5-39.6-0.4-58.9
							C64.3,45.5,139.3,19,208.8,34.9c40,9.2,70.7,30.5,84.2,58.3c9.4,19.2,9.5,39.6,0.4,58.9l0,0
							C275.1,191.1,223.1,215.9,167.3,215.9z M167.5,31.1c-55.4,0-107,24.6-125.2,63.2c-9,19.1-8.8,39.1,0.4,58.1
							c13.4,27.6,43.9,48.7,83.6,57.8c69,15.9,143.6-10.4,166.3-58.6l0.5,0.2l-0.5-0.2c9-19.1,8.8-39.1-0.4-58.1
							c-13.4-27.6-43.9-48.7-83.6-57.8C195,32.6,181.1,31.1,167.5,31.1z"/>
					</g>
				</g>
				<g>
					<g>
						<path d="M167.3,215.4c-13.7,0-27.6-1.5-41.3-4.6c-40-9.2-70.7-30.4-84.2-58.3c-9.3-19.2-9.5-39.6-0.4-58.9
							C64.3,45,139.3,18.5,208.8,34.4c40,9.2,70.7,30.5,84.2,58.3c9.4,19.2,9.5,39.6,0.4,58.9l0,0
							C275.1,190.6,223.1,215.4,167.3,215.4z M167.5,30.6c-55.4,0-107,24.6-125.2,63.2c-9,19.1-8.8,39.1,0.4,58.1
							c13.4,27.6,43.9,48.7,83.6,57.8c69,15.9,143.6-10.4,166.3-58.6l0.5,0.2l-0.5-0.2c9-19.1,8.8-39.1-0.4-58.1
							c-13.4-27.6-43.9-48.7-83.6-57.8C195,32.1,181.1,30.6,167.5,30.6z"/>
					</g>
				</g>
				<g>
					<g>
						<path d="M167.3,214.9c-13.7,0-27.6-1.5-41.3-4.6c-40-9.2-70.7-30.4-84.2-58.3c-9.3-19.2-9.5-39.6-0.4-58.9
							C64.3,44.5,139.3,18,208.8,33.9c40,9.2,70.7,30.5,84.2,58.3c9.4,19.2,9.5,39.6,0.4,58.9l0,0
							C275.1,190.1,223.1,214.9,167.3,214.9z M167.5,30.1c-55.4,0-107,24.6-125.2,63.2c-9,19.1-8.8,39.1,0.4,58.1
							c13.4,27.6,43.9,48.7,83.6,57.8c69,15.9,143.6-10.4,166.3-58.6l0.5,0.2l-0.5-0.2c9-19.1,8.8-39.1-0.4-58.1
							c-13.4-27.6-43.9-48.7-83.6-57.8C195,31.6,181.1,30.1,167.5,30.1z"/>
					</g>
				</g>
				<g>
					<g>
						<path d="M167.3,214.4c-13.7,0-27.6-1.5-41.3-4.6c-40-9.2-70.7-30.4-84.2-58.3c-9.3-19.2-9.5-39.6-0.4-58.9
							C64.3,44,139.3,17.5,208.8,33.4c40,9.2,70.7,30.5,84.2,58.3c9.4,19.2,9.5,39.6,0.4,58.9l0,0
							C275.1,189.6,223.1,214.4,167.3,214.4z M167.5,29.6c-55.4,0-107,24.6-125.2,63.2c-9,19.1-8.8,39.1,0.4,58.1
							c13.4,27.6,43.9,48.7,83.6,57.8c69,15.9,143.6-10.4,166.3-58.6l0.5,0.2l-0.5-0.2c9-19.1,8.8-39.1-0.4-58.1
							c-13.4-27.6-43.9-48.7-83.6-57.8C195,31.1,181.1,29.6,167.5,29.6z"/>
					</g>
				</g>
				<g>
					<g>
						<path d="M167.3,213.9c-13.7,0-27.6-1.5-41.3-4.6c-40-9.2-70.7-30.4-84.2-58.3c-9.3-19.2-9.5-39.6-0.4-58.9
							C64.3,43.5,139.3,17,208.8,32.9c40,9.2,70.7,30.5,84.2,58.3c9.4,19.2,9.5,39.6,0.4,58.9l0,0
							C275.1,189.1,223.1,213.9,167.3,213.9z M167.5,29.1c-55.4,0-107,24.6-125.2,63.2c-9,19.1-8.8,39.1,0.4,58.1
							c13.4,27.6,43.9,48.7,83.6,57.8c69,15.9,143.6-10.4,166.3-58.6l0.5,0.2l-0.5-0.2c9-19.1,8.8-39.1-0.4-58.1
							c-13.4-27.6-43.9-48.7-83.6-57.8C195,30.6,181.1,29.1,167.5,29.1z"/>
					</g>
				</g>
				<g>
					<g>
						<path d="M167.3,213.4c-13.7,0-27.6-1.5-41.3-4.6c-40-9.2-70.7-30.4-84.2-58.3c-9.3-19.2-9.5-39.6-0.4-58.9
							C64.3,43,139.3,16.5,208.8,32.4c40,9.2,70.7,30.5,84.2,58.3c9.4,19.2,9.5,39.6,0.4,58.9l0,0
							C275.1,188.6,223.1,213.4,167.3,213.4z M167.5,28.6c-55.4,0-107,24.6-125.2,63.2c-9,19.1-8.8,39.1,0.4,58.1
							c13.4,27.6,43.9,48.7,83.6,57.8c69,15.9,143.6-10.4,166.3-58.6l0.5,0.2l-0.5-0.2c9-19.1,8.8-39.1-0.4-58.1
							c-13.4-27.6-43.9-48.7-83.6-57.8C195,30.1,181.1,28.6,167.5,28.6z"/>
					</g>
				</g>
				<g>
					<g>
						<path d="M167.3,212.9c-13.7,0-27.6-1.5-41.3-4.6c-40-9.2-70.7-30.4-84.2-58.3c-9.3-19.2-9.5-39.6-0.4-58.9
							C64.3,42.5,139.3,16,208.8,31.9c40,9.2,70.7,30.5,84.2,58.3c9.4,19.2,9.5,39.6,0.4,58.9l0,0
							C275.1,188.1,223.1,212.9,167.3,212.9z M167.5,28.1c-55.4,0-107,24.6-125.2,63.2c-9,19.1-8.8,39.1,0.4,58.1
							c13.4,27.6,43.9,48.7,83.6,57.8c69,15.9,143.6-10.4,166.3-58.6l0.5,0.2l-0.5-0.2c9-19.1,8.8-39.1-0.4-58.1
							c-13.4-27.6-43.9-48.7-83.6-57.8C195,29.6,181.1,28.1,167.5,28.1z"/>
					</g>
				</g>
				<g>
					<g>
						<path d="M167.3,212.4c-13.7,0-27.6-1.5-41.3-4.6c-40-9.2-70.7-30.4-84.2-58.3c-9.3-19.2-9.5-39.6-0.4-58.9
							C64.3,42,139.3,15.5,208.8,31.4c40,9.2,70.7,30.5,84.2,58.3c9.4,19.2,9.5,39.6,0.4,58.9l0,0
							C275.1,187.6,223.1,212.4,167.3,212.4z M167.5,27.6c-55.4,0-107,24.6-125.2,63.2c-9,19.1-8.8,39.1,0.4,58.1
							c13.4,27.6,43.9,48.7,83.6,57.8c69,15.9,143.6-10.4,166.3-58.6l0.5,0.2l-0.5-0.2c9-19.1,8.8-39.1-0.4-58.1
							c-13.4-27.6-43.9-48.7-83.6-57.8C195,29.1,181.1,27.6,167.5,27.6z"/>
					</g>
				</g>
				<g>
					<g>
						<path d="M167.3,211.9c-13.7,0-27.6-1.5-41.3-4.6c-40-9.2-70.7-30.4-84.2-58.3c-9.3-19.2-9.5-39.6-0.4-58.9
							C64.3,41.5,139.3,15,208.8,30.9c40,9.2,70.7,30.5,84.2,58.3c9.4,19.2,9.5,39.6,0.4,58.9l0,0
							C275.1,187.1,223.1,211.9,167.3,211.9z M167.5,27.1c-55.4,0-107,24.6-125.2,63.2c-9,19.1-8.8,39.1,0.4,58.1
							c13.4,27.6,43.9,48.7,83.6,57.8c69,15.9,143.6-10.4,166.3-58.6l0.5,0.2l-0.5-0.2c9-19.1,8.8-39.1-0.4-58.1
							c-13.4-27.6-43.9-48.7-83.6-57.8C195,28.6,181.1,27.1,167.5,27.1z"/>
					</g>
				</g>
				<g>
					<g>
						<path d="M167.3,211.4c-13.7,0-27.6-1.5-41.3-4.6c-40-9.2-70.7-30.4-84.2-58.3c-9.3-19.2-9.5-39.6-0.4-58.9
							C64.3,41,139.3,14.5,208.8,30.4c40,9.2,70.7,30.5,84.2,58.3c9.4,19.2,9.5,39.6,0.4,58.9l0,0
							C275.1,186.6,223.1,211.4,167.3,211.4z M167.5,26.6c-55.4,0-107,24.6-125.2,63.2c-9,19.1-8.8,39.1,0.4,58.1
							c13.4,27.6,43.9,48.7,83.6,57.8c69,15.9,143.6-10.4,166.3-58.6l0.5,0.2l-0.5-0.2c9-19.1,8.8-39.1-0.4-58.1
							c-13.4-27.6-43.9-48.7-83.6-57.8C195,28.1,181.1,26.6,167.5,26.6z"/>
					</g>
				</g>
				<g>
					<g>
						<path d="M167.3,210.9c-13.7,0-27.6-1.5-41.3-4.6c-40-9.2-70.7-30.4-84.2-58.3c-9.3-19.2-9.5-39.6-0.4-58.9
							C64.3,40.5,139.3,14,208.8,29.9c40,9.2,70.7,30.5,84.2,58.3c9.4,19.2,9.5,39.6,0.4,58.9l0,0
							C275.1,186.1,223.1,210.9,167.3,210.9z M167.5,26.1c-55.4,0-107,24.6-125.2,63.2c-9,19.1-8.8,39.1,0.4,58.1
							c13.4,27.6,43.9,48.7,83.6,57.8c69,15.9,143.6-10.4,166.3-58.6l0.5,0.2l-0.5-0.2c9-19.1,8.8-39.1-0.4-58.1
							c-13.4-27.6-43.9-48.7-83.6-57.8C195,27.6,181.1,26.1,167.5,26.1z"/>
					</g>
				</g>
				<g>
					<g>
						<path d="M167.3,210.4c-13.7,0-27.6-1.5-41.3-4.6c-40-9.2-70.7-30.4-84.2-58.3c-9.3-19.2-9.5-39.6-0.4-58.9
							C64.3,40,139.3,13.5,208.8,29.4c40,9.2,70.7,30.5,84.2,58.3c9.4,19.2,9.5,39.6,0.4,58.9l0,0
							C275.1,185.6,223.1,210.4,167.3,210.4z M167.5,25.6c-55.4,0-107,24.6-125.2,63.2c-9,19.1-8.8,39.1,0.4,58.1
							c13.4,27.6,43.9,48.7,83.6,57.8c69,15.9,143.6-10.4,166.3-58.6l0.5,0.2l-0.5-0.2c9-19.1,8.8-39.1-0.4-58.1
							c-13.4-27.6-43.9-48.7-83.6-57.8C195,27.1,181.1,25.6,167.5,25.6z"/>
					</g>
				</g>
				<g>
					<g>
						<path d="M167.3,209.9c-13.7,0-27.6-1.5-41.3-4.6c-40-9.2-70.7-30.4-84.2-58.3c-9.3-19.2-9.5-39.6-0.4-58.9
							C64.3,39.5,139.3,13,208.8,28.9c40,9.2,70.7,30.5,84.2,58.3c9.4,19.2,9.5,39.6,0.4,58.9l0,0
							C275.1,185.1,223.1,209.9,167.3,209.9z M167.5,25.1c-55.4,0-107,24.6-125.2,63.2c-9,19.1-8.8,39.1,0.4,58.1
							c13.4,27.6,43.9,48.7,83.6,57.8c69,15.9,143.6-10.4,166.3-58.6l0.5,0.2l-0.5-0.2c9-19.1,8.8-39.1-0.4-58.1
							c-13.4-27.6-43.9-48.7-83.6-57.8C195,26.6,181.1,25.1,167.5,25.1z"/>
					</g>
				</g>
			</g>
		</g>
	</g>
</g>
</svg>
