<?xml version="1.0" encoding="utf-8"?>
<!-- Generator: Adobe Illustrator 23.0.0, SVG Export Plug-In . SVG Version: 6.00 Build 0)  -->
<svg version="1.1" id="Layer_1" xmlns="http://www.w3.org/2000/svg" xmlns:xlink="http://www.w3.org/1999/xlink" x="0px" y="0px"
	 viewBox="0 0 334.89 258.03" style="enable-background:new 0 0 334.89 258.03;" xml:space="preserve">
<style type="text/css">
	.st0{fill:#808080;}
	.st1{fill:#FFFFFF;}
	.st2{clip-path:url(#SVGID_2_);}
	.st3{fill:#E2E2E2;}
	.st4{fill:#020202;}
	.st5{clip-path:url(#SVGID_4_);}
</style>
<g>
	<g>
		<ellipse cx="167.45" cy="141.02" rx="167.4" ry="116.98"/>
	</g>
	<g>
		<ellipse cx="167.45" cy="140.02" rx="167.4" ry="116.98"/>
	</g>
	<g>
		<ellipse cx="167.45" cy="139.02" rx="167.4" ry="116.98"/>
	</g>
	<g>
		<ellipse cx="167.45" cy="138.02" rx="167.4" ry="116.98"/>
	</g>
	<g>
		<ellipse cx="167.45" cy="137.02" rx="167.4" ry="116.98"/>
	</g>
	<g>
		<ellipse cx="167.45" cy="136.02" rx="167.4" ry="116.98"/>
	</g>
	<g>
		<ellipse cx="167.45" cy="135.02" rx="167.4" ry="116.98"/>
	</g>
	<g>
		<ellipse cx="167.45" cy="134.02" rx="167.4" ry="116.98"/>
	</g>
	<g>
		<ellipse cx="167.45" cy="133.02" rx="167.4" ry="116.98"/>
	</g>
	<g>
		<ellipse cx="167.45" cy="132.02" rx="167.4" ry="116.98"/>
	</g>
	<g>
		<ellipse cx="167.45" cy="131.02" rx="167.4" ry="116.98"/>
	</g>
	<g>
		<ellipse cx="167.45" cy="130.02" rx="167.4" ry="116.98"/>
	</g>
	<g>
		<ellipse cx="167.45" cy="129.02" rx="167.4" ry="116.98"/>
	</g>
	<g>
		<ellipse cx="167.45" cy="128.02" rx="167.4" ry="116.98"/>
	</g>
	<g>
		<ellipse cx="167.45" cy="127.02" rx="167.4" ry="116.98"/>
	</g>
	<g>
		<ellipse cx="167.45" cy="126.02" rx="167.4" ry="116.98"/>
	</g>
	<g>
		<ellipse cx="167.45" cy="125.02" rx="167.4" ry="116.98"/>
	</g>
	<g>
		<ellipse cx="167.45" cy="124.02" rx="167.4" ry="116.98"/>
	</g>
	<g>
		<ellipse cx="167.45" cy="123.02" rx="167.4" ry="116.98"/>
	</g>
	<g>
		<ellipse cx="167.45" cy="122.02" rx="167.4" ry="116.98"/>
	</g>
	<g>
		<ellipse cx="167.45" cy="121.02" rx="167.4" ry="116.98"/>
	</g>
	<g>
		<ellipse cx="167.45" cy="120.02" rx="167.4" ry="116.98"/>
	</g>
	<g>
		<ellipse cx="167.45" cy="119.02" rx="167.4" ry="116.98"/>
	</g>
	<g>
		<ellipse cx="167.45" cy="118.02" rx="167.4" ry="116.98"/>
	</g>
	<g>
		<ellipse cx="167.45" cy="117.02" rx="167.4" ry="116.98"/>
	</g>
</g>
<g>
	<ellipse class="st0" cx="167.45" cy="117.02" rx="167.4" ry="116.98"/>
</g>
<g>
	<ellipse class="st1" cx="167.45" cy="117.02" rx="132.16" ry="92.36"/>
</g>
<g>
	<defs>
		<polygon id="SVGID_1_" points="465.29,18.97 238.11,-33.21 167.45,117.02 394.63,169.2 		"/>
	</defs>
	<clipPath id="SVGID_2_">
		<use xlink:href="#SVGID_1_"  style="overflow:visible;"/>
	</clipPath>
	<g class="st2">
		<ellipse class="st3" cx="167.45" cy="117.02" rx="167.4" ry="116.98"/>
	</g>
</g>
<g>
	<g>
		<rect y="116.52" class="st4" width="0.5" height="1"/>
	</g>
	<g>
		<path class="st4" d="M164.95,117.52h-1v-1h1V117.52z M161.96,117.52h-1v-1h1V117.52z M158.97,117.52h-1v-1h1V117.52z
			 M155.98,117.52h-1v-1h1V117.52z M152.99,117.52h-1v-1h1V117.52z M150,117.52h-1v-1h1V117.52z M147.01,117.52h-1v-1h1V117.52z
			 M144.02,117.52h-1v-1h1V117.52z M141.03,117.52h-1v-1h1V117.52z M138.04,117.52h-1v-1h1V117.52z M135.05,117.52h-1v-1h1V117.52z
			 M132.06,117.52h-1v-1h1V117.52z M129.07,117.52h-1v-1h1V117.52z M126.08,117.52h-1v-1h1V117.52z M123.09,117.52h-1v-1h1V117.52z
			 M120.1,117.52h-1v-1h1V117.52z M117.11,117.52h-1v-1h1V117.52z M114.12,117.52h-1v-1h1V117.52z M111.13,117.52h-1v-1h1V117.52z
			 M108.14,117.52h-1v-1h1V117.52z M105.15,117.52h-1v-1h1V117.52z M102.16,117.52h-1v-1h1V117.52z M99.17,117.52h-1v-1h1V117.52z
			 M96.18,117.52h-1v-1h1V117.52z M93.19,117.52h-1v-1h1V117.52z M90.2,117.52h-1v-1h1V117.52z M87.21,117.52h-1v-1h1V117.52z
			 M84.22,117.52h-1v-1h1V117.52z M81.23,117.52h-1v-1h1V117.52z M78.24,117.52h-1v-1h1V117.52z M75.25,117.52h-1v-1h1V117.52z
			 M72.26,117.52h-1v-1h1V117.52z M69.27,117.52h-1v-1h1V117.52z M66.28,117.52h-1v-1h1V117.52z M63.29,117.52h-1v-1h1V117.52z
			 M60.3,117.52h-1v-1h1V117.52z M57.31,117.52h-1v-1h1V117.52z M54.32,117.52h-1v-1h1V117.52z M51.33,117.52h-1v-1h1V117.52z
			 M48.34,117.52h-1v-1h1V117.52z M45.35,117.52h-1v-1h1V117.52z M42.36,117.52h-1v-1h1V117.52z M39.37,117.52h-1v-1h1V117.52z
			 M36.38,117.52h-1v-1h1V117.52z M33.39,117.52h-1v-1h1V117.52z M30.4,117.52h-1v-1h1V117.52z M27.41,117.52h-1v-1h1V117.52z
			 M24.42,117.52h-1v-1h1V117.52z M21.43,117.52h-1v-1h1V117.52z M18.44,117.52h-1v-1h1V117.52z M15.45,117.52h-1v-1h1V117.52z
			 M12.46,117.52h-1v-1h1V117.52z M9.47,117.52h-1v-1h1V117.52z M6.48,117.52h-1v-1h1V117.52z M3.49,117.52h-1v-1h1V117.52z"/>
	</g>
	<g>
		<rect x="166.95" y="116.52" class="st4" width="1" height="1"/>
	</g>
	<g>
		<path class="st4" d="M167.95,114.52h-1v-1h1V114.52z M167.95,111.52h-1v-1h1V111.52z M167.95,108.51h-1v-1h1V108.51z
			 M167.95,105.51h-1v-1h1V105.51z M167.95,102.51h-1v-1h1V102.51z M167.95,99.51h-1v-1h1V99.51z M167.95,96.51h-1v-1h1V96.51z
			 M167.95,93.51h-1v-1h1V93.51z M167.95,90.51h-1v-1h1V90.51z M167.95,87.51h-1v-1h1V87.51z M167.95,84.51h-1v-1h1V84.51z
			 M167.95,81.51h-1v-1h1V81.51z M167.95,78.51h-1v-1h1V78.51z M167.95,75.51h-1v-1h1V75.51z M167.95,72.51h-1v-1h1V72.51z
			 M167.95,69.51h-1v-1h1V69.51z M167.95,66.51h-1v-1h1V66.51z M167.95,63.51h-1v-1h1V63.51z M167.95,60.51h-1v-1h1V60.51z
			 M167.95,57.51h-1v-1h1V57.51z M167.95,54.51h-1v-1h1V54.51z M167.95,51.51h-1v-1h1V51.51z M167.95,48.51h-1v-1h1V48.51z
			 M167.95,45.51h-1v-1h1V45.51z M167.95,42.51h-1v-1h1V42.51z M167.95,39.51h-1v-1h1V39.51z M167.95,36.51h-1v-1h1V36.51z
			 M167.95,33.51h-1v-1h1V33.51z M167.95,30.51h-1v-1h1V30.51z M167.95,27.51h-1v-1h1V27.51z M167.95,24.51h-1v-1h1V24.51z
			 M167.95,21.51h-1v-1h1V21.51z M167.95,18.51h-1v-1h1V18.51z M167.95,15.51h-1v-1h1V15.51z M167.95,12.51h-1v-1h1V12.51z
			 M167.95,9.51h-1v-1h1V9.51z M167.95,6.51h-1v-1h1V6.51z M167.95,3.51h-1v-1h1V3.51z"/>
	</g>
	<g>
		<rect x="166.95" y="0.01" class="st4" width="1" height="0.5"/>
	</g>
</g>
<g>
	<path class="st4" d="M167.95,234.03h-1v-1h1V234.03z M167.95,231.03h-1v-1h1V231.03z M167.95,228.03h-1v-1h1V228.03z
		 M167.95,225.03h-1v-1h1V225.03z M167.95,222.03h-1v-1h1V222.03z M167.95,219.03h-1v-1h1V219.03z M167.95,216.03h-1v-1h1V216.03z
		 M167.95,213.03h-1v-1h1V213.03z M167.95,210.03h-1v-1h1V210.03z M167.95,207.03h-1v-1h1V207.03z M167.95,204.03h-1v-1h1V204.03z
		 M167.95,201.03h-1v-1h1V201.03z M167.95,198.03h-1v-1h1V198.03z M167.95,195.03h-1v-1h1V195.03z M167.95,192.03h-1v-1h1V192.03z
		 M167.95,189.03h-1v-1h1V189.03z M167.95,186.03h-1v-1h1V186.03z M167.95,183.03h-1v-1h1V183.03z M167.95,180.03h-1v-1h1V180.03z
		 M167.95,177.03h-1v-1h1V177.03z M167.95,174.03h-1v-1h1V174.03z M167.95,171.03h-1v-1h1V171.03z M167.95,168.03h-1v-1h1V168.03z
		 M167.95,165.03h-1v-1h1V165.03z M167.95,162.03h-1v-1h1V162.03z M167.95,159.03h-1v-1h1V159.03z M167.95,156.03h-1v-1h1V156.03z
		 M167.95,153.03h-1v-1h1V153.03z M167.95,150.03h-1v-1h1V150.03z M167.95,147.03h-1v-1h1V147.03z M167.95,144.03h-1v-1h1V144.03z
		 M167.95,141.03h-1v-1h1V141.03z M167.95,138.03h-1v-1h1V138.03z M167.95,135.03h-1v-1h1V135.03z M167.95,132.03h-1v-1h1V132.03z
		 M167.95,129.03h-1v-1h1V129.03z M167.95,126.03h-1v-1h1V126.03z M167.95,123.03h-1v-1h1V123.03z M167.95,120.03h-1v-1h1V120.03z
		 M333.43,117.52h-1v-1h1V117.52z M330.43,117.52h-1v-1h1V117.52z M327.43,117.52h-1v-1h1V117.52z M324.43,117.52h-1v-1h1V117.52z
		 M321.43,117.52h-1v-1h1V117.52z M318.43,117.52h-1v-1h1V117.52z M315.43,117.52h-1v-1h1V117.52z M312.43,117.52h-1v-1h1V117.52z
		 M309.43,117.52h-1v-1h1V117.52z M306.43,117.52h-1v-1h1V117.52z M303.43,117.52h-1v-1h1V117.52z M300.43,117.52h-1v-1h1V117.52z
		 M297.43,117.52h-1v-1h1V117.52z M294.43,117.52h-1v-1h1V117.52z M291.43,117.52h-1v-1h1V117.52z M288.43,117.52h-1v-1h1V117.52z
		 M285.43,117.52h-1v-1h1V117.52z M282.43,117.52h-1v-1h1V117.52z M279.43,117.52h-1v-1h1V117.52z M276.43,117.52h-1v-1h1V117.52z
		 M273.43,117.52h-1v-1h1V117.52z M270.43,117.52h-1v-1h1V117.52z M267.43,117.52h-1v-1h1V117.52z M264.43,117.52h-1v-1h1V117.52z
		 M261.43,117.52h-1v-1h1V117.52z M258.43,117.52h-1v-1h1V117.52z M255.43,117.52h-1v-1h1V117.52z M252.43,117.52h-1v-1h1V117.52z
		 M249.43,117.52h-1v-1h1V117.52z M246.43,117.52h-1v-1h1V117.52z M243.43,117.52h-1v-1h1V117.52z M240.43,117.52h-1v-1h1V117.52z
		 M237.43,117.52h-1v-1h1V117.52z M234.43,117.52h-1v-1h1V117.52z M231.43,117.52h-1v-1h1V117.52z M228.43,117.52h-1v-1h1V117.52z
		 M225.43,117.52h-1v-1h1V117.52z M222.43,117.52h-1v-1h1V117.52z M219.43,117.52h-1v-1h1V117.52z M216.43,117.52h-1v-1h1V117.52z
		 M213.43,117.52h-1v-1h1V117.52z M210.43,117.52h-1v-1h1V117.52z M207.43,117.52h-1v-1h1V117.52z M204.43,117.52h-1v-1h1V117.52z
		 M201.43,117.52h-1v-1h1V117.52z M198.43,117.52h-1v-1h1V117.52z M195.43,117.52h-1v-1h1V117.52z M192.43,117.52h-1v-1h1V117.52z
		 M189.43,117.52h-1v-1h1V117.52z M186.43,117.52h-1v-1h1V117.52z M183.43,117.52h-1v-1h1V117.52z M180.43,117.52h-1v-1h1V117.52z
		 M177.43,117.52h-1v-1h1V117.52z M174.43,117.52h-1v-1h1V117.52z M171.43,117.52h-1v-1h1V117.52z M168.43,117.52h-0.98v-0.49
		l-0.5,0.01v-0.52h1.48V117.52z"/>
</g>
<g>
	<path d="M167.42,1c17.64,0,35.16,1.97,52.07,5.86c25.29,5.81,47.54,15.4,66.14,28.5c17.71,12.47,31.35,27.87,39.45,44.53
		c11.61,23.88,11.78,49.2,0.48,73.23c-11.13,23.67-32.35,43.81-61.35,58.24c-28.49,14.18-61.94,21.67-96.75,21.67
		c-17.64,0-35.16-1.97-52.08-5.86c-25.29-5.81-47.54-15.4-66.14-28.5C31.54,186.2,17.9,170.8,9.8,154.14
		c-11.61-23.88-11.78-49.2-0.48-73.23C20.45,57.24,41.67,37.1,70.67,22.67C99.15,8.49,132.61,1,167.42,1L167.42,1 M167.42,0
		C97.07,0,31.58,31.24,8.42,80.49c-28.87,61.38,18.93,127.49,106.76,147.66c17.36,3.99,34.97,5.88,52.3,5.88
		c70.35,0,135.84-31.24,159-80.49C355.34,92.17,307.55,26.06,219.72,5.88C202.36,1.89,184.74,0,167.42,0L167.42,0z"/>
</g>
<g>
	<ellipse class="st1" cx="167.45" cy="117.02" rx="132.16" ry="92.36"/>
</g>
<g>
	<defs>
		<ellipse id="SVGID_3_" cx="167.45" cy="117.02" rx="132.16" ry="92.36"/>
	</defs>
	<clipPath id="SVGID_4_">
		<use xlink:href="#SVGID_3_"  style="overflow:visible;"/>
	</clipPath>
	<g class="st5">
		<g>
			<g>
				<path d="M167.33,233.88c-13.68,0-27.58-1.49-41.26-4.64c-39.96-9.18-70.67-30.45-84.24-58.35c-9.35-19.22-9.48-39.59-0.38-58.93
					c22.85-48.58,97.94-75.12,167.39-59.17c39.96,9.18,70.67,30.45,84.24,58.35c9.35,19.22,9.48,39.59,0.38,58.93l0,0
					C275.1,209.08,223.07,233.88,167.33,233.88z M167.52,49.15c-55.36,0-106.99,24.57-125.18,63.24
					c-8.96,19.05-8.83,39.13,0.38,58.07c13.44,27.63,43.9,48.7,83.56,57.81c69.02,15.85,143.6-10.45,166.26-58.63l0.45,0.21
					l-0.45-0.21c8.96-19.05,8.83-39.13-0.38-58.07c-13.44-27.63-43.9-48.7-83.56-57.81C194.98,50.63,181.14,49.15,167.52,49.15z"/>
			</g>
		</g>
		<g>
			<g>
				<path d="M167.33,233.38c-13.68,0-27.58-1.49-41.26-4.64c-39.96-9.18-70.67-30.45-84.24-58.35c-9.35-19.22-9.48-39.59-0.38-58.93
					c22.85-48.58,97.94-75.12,167.39-59.17c39.96,9.18,70.67,30.45,84.24,58.35c9.35,19.22,9.48,39.59,0.38,58.93l0,0
					C275.1,208.58,223.07,233.38,167.33,233.38z M167.52,48.65c-55.36,0-106.99,24.57-125.18,63.24
					c-8.96,19.05-8.83,39.13,0.38,58.07c13.44,27.63,43.9,48.7,83.56,57.81c69.02,15.85,143.6-10.45,166.26-58.63l0.45,0.21
					l-0.45-0.21c8.96-19.05,8.83-39.13-0.38-58.07c-13.44-27.63-43.9-48.7-83.56-57.81C194.98,50.13,181.14,48.65,167.52,48.65z"/>
			</g>
		</g>
		<g>
			<g>
				<path d="M167.33,232.88c-13.68,0-27.58-1.49-41.26-4.64c-39.96-9.18-70.67-30.45-84.24-58.35c-9.35-19.22-9.48-39.59-0.38-58.93
					c22.85-48.58,97.94-75.12,167.39-59.17c39.96,9.18,70.67,30.45,84.24,58.35c9.35,19.22,9.48,39.59,0.38,58.93l0,0
					C275.1,208.08,223.07,232.88,167.33,232.88z M167.52,48.15c-55.36,0-106.99,24.57-125.18,63.24
					c-8.96,19.05-8.83,39.13,0.38,58.07c13.44,27.63,43.9,48.7,83.56,57.81c69.02,15.85,143.6-10.45,166.26-58.63l0.45,0.21
					l-0.45-0.21c8.96-19.05,8.83-39.13-0.38-58.07c-13.44-27.63-43.9-48.7-83.56-57.81C194.98,49.63,181.14,48.15,167.52,48.15z"/>
			</g>
		</g>
		<g>
			<g>
				<path d="M167.33,232.38c-13.68,0-27.58-1.49-41.26-4.64c-39.96-9.18-70.67-30.45-84.24-58.35c-9.35-19.22-9.48-39.59-0.38-58.93
					c22.85-48.58,97.94-75.12,167.39-59.17c39.96,9.18,70.67,30.45,84.24,58.35c9.35,19.22,9.48,39.59,0.38,58.93l0,0
					C275.1,207.58,223.07,232.38,167.33,232.38z M167.52,47.65c-55.36,0-106.99,24.57-125.18,63.24
					c-8.96,19.05-8.83,39.13,0.38,58.07c13.44,27.63,43.9,48.7,83.56,57.81c69.02,15.85,143.6-10.45,166.26-58.63l0.45,0.21
					l-0.45-0.21c8.96-19.05,8.83-39.13-0.38-58.07c-13.44-27.63-43.9-48.7-83.56-57.81C194.98,49.13,181.14,47.65,167.52,47.65z"/>
			</g>
		</g>
		<g>
			<g>
				<path d="M167.33,231.88c-13.68,0-27.58-1.49-41.26-4.64c-39.96-9.18-70.67-30.45-84.24-58.35c-9.35-19.22-9.48-39.59-0.38-58.93
					c22.85-48.58,97.94-75.12,167.39-59.17c39.96,9.18,70.67,30.45,84.24,58.35c9.35,19.22,9.48,39.59,0.38,58.93l0,0
					C275.1,207.08,223.07,231.88,167.33,231.88z M167.52,47.15c-55.36,0-106.99,24.57-125.18,63.24
					c-8.96,19.05-8.83,39.13,0.38,58.07c13.44,27.63,43.9,48.7,83.56,57.81c69.02,15.85,143.6-10.45,166.26-58.63l0.45,0.21
					l-0.45-0.21c8.96-19.05,8.83-39.13-0.38-58.07c-13.44-27.63-43.9-48.7-83.56-57.81C194.98,48.63,181.14,47.15,167.52,47.15z"/>
			</g>
		</g>
		<g>
			<g>
				<path d="M167.33,231.38c-13.68,0-27.58-1.49-41.26-4.64c-39.96-9.18-70.67-30.45-84.24-58.35c-9.35-19.22-9.48-39.59-0.38-58.93
					c22.85-48.58,97.94-75.12,167.39-59.17c39.96,9.18,70.67,30.45,84.24,58.35c9.35,19.22,9.48,39.59,0.38,58.93l0,0
					C275.1,206.58,223.07,231.38,167.33,231.38z M167.52,46.65c-55.36,0-106.99,24.57-125.18,63.24
					c-8.96,19.05-8.83,39.13,0.38,58.07c13.44,27.63,43.9,48.7,83.56,57.81c69.02,15.85,143.6-10.45,166.26-58.63l0.45,0.21
					l-0.45-0.21c8.96-19.05,8.83-39.13-0.38-58.07c-13.44-27.63-43.9-48.7-83.56-57.81C194.98,48.13,181.14,46.65,167.52,46.65z"/>
			</g>
		</g>
		<g>
			<g>
				<path d="M167.33,230.88c-13.68,0-27.58-1.49-41.26-4.64c-39.96-9.18-70.67-30.45-84.24-58.35c-9.35-19.22-9.48-39.59-0.38-58.93
					c22.85-48.58,97.94-75.12,167.39-59.17c39.96,9.18,70.67,30.45,84.24,58.35c9.35,19.22,9.48,39.59,0.38,58.93l0,0
					C275.1,206.08,223.07,230.88,167.33,230.88z M167.52,46.15c-55.36,0-106.99,24.57-125.18,63.24
					c-8.96,19.05-8.83,39.13,0.38,58.07c13.44,27.63,43.9,48.7,83.56,57.81c69.02,15.85,143.6-10.45,166.26-58.63l0.45,0.21
					l-0.45-0.21c8.96-19.05,8.83-39.13-0.38-58.07c-13.44-27.63-43.9-48.7-83.56-57.81C194.98,47.63,181.14,46.15,167.52,46.15z"/>
			</g>
		</g>
		<g>
			<g>
				<path d="M167.33,230.38c-13.68,0-27.58-1.49-41.26-4.64c-39.96-9.18-70.67-30.45-84.24-58.35c-9.35-19.22-9.48-39.59-0.38-58.93
					c22.85-48.58,97.94-75.12,167.39-59.17c39.96,9.18,70.67,30.45,84.24,58.35c9.35,19.22,9.48,39.59,0.38,58.93l0,0
					C275.1,205.58,223.07,230.38,167.33,230.38z M167.52,45.65c-55.36,0-106.99,24.57-125.18,63.24
					c-8.96,19.05-8.83,39.13,0.38,58.07c13.44,27.63,43.9,48.7,83.56,57.81c69.02,15.85,143.6-10.45,166.26-58.63l0.45,0.21
					l-0.45-0.21c8.96-19.05,8.83-39.13-0.38-58.07c-13.44-27.63-43.9-48.7-83.56-57.81C194.98,47.13,181.14,45.65,167.52,45.65z"/>
			</g>
		</g>
		<g>
			<g>
				<path d="M167.33,229.88c-13.68,0-27.58-1.49-41.26-4.64c-39.96-9.18-70.67-30.45-84.24-58.35c-9.35-19.22-9.48-39.59-0.38-58.93
					c22.85-48.58,97.94-75.12,167.39-59.17c39.96,9.18,70.67,30.45,84.24,58.35c9.35,19.22,9.48,39.59,0.38,58.93l0,0
					C275.1,205.08,223.07,229.88,167.33,229.88z M167.52,45.15c-55.36,0-106.99,24.57-125.18,63.24
					c-8.96,19.05-8.83,39.13,0.38,58.07c13.44,27.63,43.9,48.7,83.56,57.81c69.02,15.85,143.6-10.45,166.26-58.63l0.45,0.21
					l-0.45-0.21c8.96-19.05,8.83-39.13-0.38-58.07c-13.44-27.63-43.9-48.7-83.56-57.81C194.98,46.63,181.14,45.15,167.52,45.15z"/>
			</g>
		</g>
		<g>
			<g>
				<path d="M167.33,229.38c-13.68,0-27.58-1.49-41.26-4.64c-39.96-9.18-70.67-30.45-84.24-58.35c-9.35-19.22-9.48-39.59-0.38-58.93
					c22.85-48.58,97.94-75.12,167.39-59.17c39.96,9.18,70.67,30.45,84.24,58.35c9.35,19.22,9.48,39.59,0.38,58.93l0,0
					C275.1,204.58,223.07,229.38,167.33,229.38z M167.52,44.65c-55.36,0-106.99,24.57-125.18,63.24
					c-8.96,19.05-8.83,39.13,0.38,58.07c13.44,27.63,43.9,48.7,83.56,57.81c69.02,15.85,143.6-10.45,166.26-58.63l0.45,0.21
					l-0.45-0.21c8.96-19.05,8.83-39.13-0.38-58.07c-13.44-27.63-43.9-48.7-83.56-57.81C194.98,46.13,181.14,44.65,167.52,44.65z"/>
			</g>
		</g>
		<g>
			<g>
				<path d="M167.33,228.88c-13.68,0-27.58-1.49-41.26-4.64c-39.96-9.18-70.67-30.45-84.24-58.35c-9.35-19.22-9.48-39.59-0.38-58.93
					c22.85-48.58,97.94-75.12,167.39-59.17c39.96,9.18,70.67,30.45,84.24,58.35c9.35,19.22,9.48,39.59,0.38,58.93l0,0
					C275.1,204.08,223.07,228.88,167.33,228.88z M167.52,44.15c-55.36,0-106.99,24.57-125.18,63.24
					c-8.96,19.05-8.83,39.13,0.38,58.07c13.44,27.63,43.9,48.7,83.56,57.81c69.02,15.85,143.6-10.45,166.26-58.63l0.45,0.21
					l-0.45-0.21c8.96-19.05,8.83-39.13-0.38-58.07c-13.44-27.63-43.9-48.7-83.56-57.81C194.98,45.63,181.14,44.15,167.52,44.15z"/>
			</g>
		</g>
		<g>
			<g>
				<path d="M167.33,228.38c-13.68,0-27.58-1.49-41.26-4.64c-39.96-9.18-70.67-30.45-84.24-58.35c-9.35-19.22-9.48-39.59-0.38-58.93
					c22.85-48.58,97.94-75.12,167.39-59.17c39.96,9.18,70.67,30.45,84.24,58.35c9.35,19.22,9.48,39.59,0.38,58.93l0,0
					C275.1,203.58,223.07,228.38,167.33,228.38z M167.52,43.65c-55.36,0-106.99,24.57-125.18,63.24
					c-8.96,19.05-8.83,39.13,0.38,58.07c13.44,27.63,43.9,48.7,83.56,57.81c69.02,15.85,143.6-10.45,166.26-58.63l0.45,0.21
					l-0.45-0.21c8.96-19.05,8.83-39.13-0.38-58.07c-13.44-27.63-43.9-48.7-83.56-57.81C194.98,45.13,181.14,43.65,167.52,43.65z"/>
			</g>
		</g>
		<g>
			<g>
				<path d="M167.33,227.88c-13.68,0-27.58-1.49-41.26-4.64c-39.96-9.18-70.67-30.45-84.24-58.35c-9.35-19.22-9.48-39.59-0.38-58.93
					c22.85-48.58,97.94-75.12,167.39-59.17c39.96,9.18,70.67,30.45,84.24,58.35c9.35,19.22,9.48,39.59,0.38,58.93l0,0
					C275.1,203.08,223.07,227.88,167.33,227.88z M167.52,43.15c-55.36,0-106.99,24.57-125.18,63.24
					c-8.96,19.05-8.83,39.13,0.38,58.07c13.44,27.63,43.9,48.7,83.56,57.81c69.02,15.85,143.6-10.45,166.26-58.63l0.45,0.21
					l-0.45-0.21c8.96-19.05,8.83-39.13-0.38-58.07c-13.44-27.63-43.9-48.7-83.56-57.81C194.98,44.63,181.14,43.15,167.52,43.15z"/>
			</g>
		</g>
		<g>
			<g>
				<path d="M167.33,227.38c-13.68,0-27.58-1.49-41.26-4.64c-39.96-9.18-70.67-30.45-84.24-58.35c-9.35-19.22-9.48-39.59-0.38-58.93
					c22.85-48.58,97.94-75.12,167.39-59.17c39.96,9.18,70.67,30.45,84.24,58.35c9.35,19.22,9.48,39.59,0.38,58.93l0,0
					C275.1,202.58,223.07,227.38,167.33,227.38z M167.52,42.65c-55.36,0-106.99,24.57-125.18,63.24
					c-8.96,19.05-8.83,39.13,0.38,58.07c13.44,27.63,43.9,48.7,83.56,57.81c69.02,15.85,143.6-10.45,166.26-58.63l0.45,0.21
					l-0.45-0.21c8.96-19.05,8.83-39.13-0.38-58.07c-13.44-27.63-43.9-48.7-83.56-57.81C194.98,44.13,181.14,42.65,167.52,42.65z"/>
			</g>
		</g>
		<g>
			<g>
				<path d="M167.33,226.88c-13.68,0-27.58-1.49-41.26-4.64c-39.96-9.18-70.67-30.45-84.24-58.35c-9.35-19.22-9.48-39.59-0.38-58.93
					c22.85-48.58,97.94-75.12,167.39-59.17c39.96,9.18,70.67,30.45,84.24,58.35c9.35,19.22,9.48,39.59,0.38,58.93l0,0
					C275.1,202.08,223.07,226.88,167.33,226.88z M167.52,42.15c-55.36,0-106.99,24.57-125.18,63.24
					c-8.96,19.05-8.83,39.13,0.38,58.07c13.44,27.63,43.9,48.7,83.56,57.81c69.02,15.85,143.6-10.45,166.26-58.63l0.45,0.21
					l-0.45-0.21c8.96-19.05,8.83-39.13-0.38-58.07c-13.44-27.63-43.9-48.7-83.56-57.81C194.98,43.63,181.14,42.15,167.52,42.15z"/>
			</g>
		</g>
		<g>
			<g>
				<path d="M167.33,226.38c-13.68,0-27.58-1.49-41.26-4.64c-39.96-9.18-70.67-30.45-84.24-58.35c-9.35-19.22-9.48-39.59-0.38-58.93
					c22.85-48.58,97.94-75.12,167.39-59.17c39.96,9.18,70.67,30.45,84.24,58.35c9.35,19.22,9.48,39.59,0.38,58.93l0,0
					C275.1,201.58,223.07,226.38,167.33,226.38z M167.52,41.65c-55.36,0-106.99,24.57-125.18,63.24
					c-8.96,19.05-8.83,39.13,0.38,58.07c13.44,27.63,43.9,48.7,83.56,57.81c69.02,15.85,143.6-10.45,166.26-58.63l0.45,0.21
					l-0.45-0.21c8.96-19.05,8.83-39.13-0.38-58.07c-13.44-27.63-43.9-48.7-83.56-57.81C194.98,43.13,181.14,41.65,167.52,41.65z"/>
			</g>
		</g>
		<g>
			<g>
				<path d="M167.33,225.88c-13.68,0-27.58-1.49-41.26-4.64c-39.96-9.18-70.67-30.45-84.24-58.35c-9.35-19.22-9.48-39.59-0.38-58.93
					c22.85-48.58,97.94-75.12,167.39-59.17c39.96,9.18,70.67,30.45,84.24,58.35c9.35,19.22,9.48,39.59,0.38,58.93l0,0
					C275.1,201.08,223.07,225.88,167.33,225.88z M167.52,41.15c-55.36,0-106.99,24.57-125.18,63.24
					c-8.96,19.05-8.83,39.13,0.38,58.07c13.44,27.63,43.9,48.7,83.56,57.81c69.02,15.85,143.6-10.45,166.26-58.63l0.45,0.21
					l-0.45-0.21c8.96-19.05,8.83-39.13-0.38-58.07c-13.44-27.63-43.9-48.7-83.56-57.81C194.98,42.63,181.14,41.15,167.52,41.15z"/>
			</g>
		</g>
		<g>
			<g>
				<path d="M167.33,225.38c-13.68,0-27.58-1.49-41.26-4.64c-39.96-9.18-70.67-30.45-84.24-58.35c-9.35-19.22-9.48-39.59-0.38-58.93
					c22.85-48.58,97.94-75.12,167.39-59.17c39.96,9.18,70.67,30.45,84.24,58.35c9.35,19.22,9.48,39.59,0.38,58.93l0,0
					C275.1,200.58,223.07,225.38,167.33,225.38z M167.52,40.65c-55.36,0-106.99,24.57-125.18,63.24
					c-8.96,19.05-8.83,39.13,0.38,58.07c13.44,27.63,43.9,48.7,83.56,57.81c69.02,15.85,143.6-10.45,166.26-58.63l0.45,0.21
					l-0.45-0.21c8.96-19.05,8.83-39.13-0.38-58.07c-13.44-27.63-43.9-48.7-83.56-57.81C194.98,42.13,181.14,40.65,167.52,40.65z"/>
			</g>
		</g>
		<g>
			<g>
				<path d="M167.33,224.88c-13.68,0-27.58-1.49-41.26-4.64c-39.96-9.18-70.67-30.45-84.24-58.35c-9.35-19.22-9.48-39.59-0.38-58.93
					c22.85-48.58,97.94-75.12,167.39-59.17c39.96,9.18,70.67,30.45,84.24,58.35c9.35,19.22,9.48,39.59,0.38,58.93l0,0
					C275.1,200.08,223.07,224.88,167.33,224.88z M167.52,40.15c-55.36,0-106.99,24.57-125.18,63.24
					c-8.96,19.05-8.83,39.13,0.38,58.07c13.44,27.63,43.9,48.7,83.56,57.81c69.02,15.85,143.6-10.45,166.26-58.63l0.45,0.21
					l-0.45-0.21c8.96-19.05,8.83-39.13-0.38-58.07c-13.44-27.63-43.9-48.7-83.56-57.81C194.98,41.63,181.14,40.15,167.52,40.15z"/>
			</g>
		</g>
		<g>
			<g>
				<path d="M167.33,224.38c-13.68,0-27.58-1.49-41.26-4.64c-39.96-9.18-70.67-30.45-84.24-58.35c-9.35-19.22-9.48-39.59-0.38-58.93
					c22.85-48.58,97.94-75.12,167.39-59.17c39.96,9.18,70.67,30.45,84.24,58.35c9.35,19.22,9.48,39.59,0.38,58.93l0,0
					C275.1,199.58,223.07,224.38,167.33,224.38z M167.52,39.65c-55.36,0-106.99,24.57-125.18,63.24
					c-8.96,19.05-8.83,39.13,0.38,58.07c13.44,27.63,43.9,48.7,83.56,57.81c69.02,15.85,143.6-10.45,166.26-58.63l0.45,0.21
					l-0.45-0.21c8.96-19.05,8.83-39.13-0.38-58.07c-13.44-27.63-43.9-48.7-83.56-57.81C194.98,41.13,181.14,39.65,167.52,39.65z"/>
			</g>
		</g>
		<g>
			<g>
				<path d="M167.33,223.88c-13.68,0-27.58-1.49-41.26-4.64c-39.96-9.18-70.67-30.45-84.24-58.35c-9.35-19.22-9.48-39.59-0.38-58.93
					c22.85-48.58,97.94-75.12,167.39-59.17c39.96,9.18,70.67,30.45,84.24,58.35c9.35,19.22,9.48,39.59,0.38,58.93l0,0
					C275.1,199.08,223.07,223.88,167.33,223.88z M167.52,39.15c-55.36,0-106.99,24.57-125.18,63.24
					c-8.96,19.05-8.83,39.13,0.38,58.07c13.44,27.63,43.9,48.7,83.56,57.81c69.02,15.85,143.6-10.45,166.26-58.63l0.45,0.21
					l-0.45-0.21c8.96-19.05,8.83-39.13-0.38-58.07c-13.44-27.63-43.9-48.7-83.56-57.81C194.98,40.63,181.14,39.15,167.52,39.15z"/>
			</g>
		</g>
		<g>
			<g>
				<path d="M167.33,223.38c-13.68,0-27.58-1.49-41.26-4.64c-39.96-9.18-70.67-30.45-84.24-58.35c-9.35-19.22-9.48-39.59-0.38-58.93
					c22.85-48.58,97.94-75.12,167.39-59.17c39.96,9.18,70.67,30.45,84.24,58.35c9.35,19.22,9.48,39.59,0.38,58.93l0,0
					C275.1,198.58,223.07,223.38,167.33,223.38z M167.52,38.65c-55.36,0-106.99,24.57-125.18,63.24
					c-8.96,19.05-8.83,39.13,0.38,58.07c13.44,27.63,43.9,48.7,83.56,57.81c69.02,15.85,143.6-10.45,166.26-58.63l0.45,0.21
					l-0.45-0.21c8.96-19.05,8.83-39.13-0.38-58.07c-13.44-27.63-43.9-48.7-83.56-57.81C194.98,40.13,181.14,38.65,167.52,38.65z"/>
			</g>
		</g>
		<g>
			<g>
				<path d="M167.33,222.88c-13.68,0-27.58-1.49-41.26-4.64c-39.96-9.18-70.67-30.45-84.24-58.35c-9.35-19.22-9.48-39.59-0.38-58.93
					c22.85-48.58,97.94-75.12,167.39-59.17c39.96,9.18,70.67,30.45,84.24,58.35c9.35,19.22,9.48,39.59,0.38,58.93l0,0
					C275.1,198.08,223.07,222.88,167.33,222.88z M167.52,38.15c-55.36,0-106.99,24.57-125.18,63.24
					c-8.96,19.05-8.83,39.13,0.38,58.07c13.44,27.63,43.9,48.7,83.56,57.81c69.02,15.85,143.6-10.45,166.26-58.63l0.45,0.21
					l-0.45-0.21c8.96-19.05,8.83-39.13-0.38-58.07c-13.44-27.63-43.9-48.7-83.56-57.81C194.98,39.63,181.14,38.15,167.52,38.15z"/>
			</g>
		</g>
		<g>
			<g>
				<path d="M167.33,222.38c-13.68,0-27.58-1.49-41.26-4.64c-39.96-9.18-70.67-30.45-84.24-58.35c-9.35-19.22-9.48-39.59-0.38-58.93
					c22.85-48.58,97.94-75.12,167.39-59.17c39.96,9.18,70.67,30.45,84.24,58.35c9.35,19.22,9.48,39.59,0.38,58.93l0,0
					C275.1,197.58,223.07,222.38,167.33,222.38z M167.52,37.65c-55.36,0-106.99,24.57-125.18,63.24
					c-8.96,19.05-8.83,39.13,0.38,58.07c13.44,27.63,43.9,48.7,83.56,57.81c69.02,15.85,143.6-10.45,166.26-58.63l0.45,0.21
					l-0.45-0.21c8.96-19.05,8.83-39.13-0.38-58.07c-13.44-27.63-43.9-48.7-83.56-57.81C194.98,39.13,181.14,37.65,167.52,37.65z"/>
			</g>
		</g>
		<g>
			<g>
				<path d="M167.33,221.88c-13.68,0-27.58-1.49-41.26-4.64c-39.96-9.18-70.67-30.45-84.24-58.35c-9.35-19.22-9.48-39.59-0.38-58.93
					c22.85-48.58,97.94-75.12,167.39-59.17c39.96,9.18,70.67,30.45,84.24,58.35c9.35,19.22,9.48,39.59,0.38,58.93l0,0
					C275.1,197.08,223.07,221.88,167.33,221.88z M167.52,37.15c-55.36,0-106.99,24.57-125.18,63.24
					c-8.96,19.05-8.83,39.13,0.38,58.07c13.44,27.63,43.9,48.7,83.56,57.81c69.02,15.85,143.6-10.45,166.26-58.63l0.45,0.21
					l-0.45-0.21c8.96-19.05,8.83-39.13-0.38-58.07c-13.44-27.63-43.9-48.7-83.56-57.81C194.98,38.63,181.14,37.15,167.52,37.15z"/>
			</g>
		</g>
		<g>
			<g>
				<path d="M167.33,221.38c-13.68,0-27.58-1.49-41.26-4.64c-39.96-9.18-70.67-30.45-84.24-58.35c-9.35-19.22-9.48-39.59-0.38-58.93
					c22.85-48.58,97.94-75.12,167.39-59.17c39.96,9.18,70.67,30.45,84.24,58.35c9.35,19.22,9.48,39.59,0.38,58.93l0,0
					C275.1,196.58,223.07,221.38,167.33,221.38z M167.52,36.65c-55.36,0-106.99,24.57-125.18,63.24
					c-8.96,19.05-8.83,39.13,0.38,58.07c13.44,27.63,43.9,48.7,83.56,57.81c69.02,15.85,143.6-10.45,166.26-58.63l0.45,0.21
					l-0.45-0.21c8.96-19.05,8.83-39.13-0.38-58.07c-13.44-27.63-43.9-48.7-83.56-57.81C194.98,38.13,181.14,36.65,167.52,36.65z"/>
			</g>
		</g>
		<g>
			<g>
				<path d="M167.33,220.88c-13.68,0-27.58-1.49-41.26-4.64c-39.96-9.18-70.67-30.45-84.24-58.35c-9.35-19.22-9.48-39.59-0.38-58.93
					c22.85-48.58,97.94-75.12,167.39-59.17c39.96,9.18,70.67,30.45,84.24,58.35c9.35,19.22,9.48,39.59,0.38,58.93l0,0
					C275.1,196.08,223.07,220.88,167.33,220.88z M167.52,36.15c-55.36,0-106.99,24.57-125.18,63.24
					c-8.96,19.05-8.83,39.13,0.38,58.07c13.44,27.63,43.9,48.7,83.56,57.81c69.02,15.85,143.6-10.45,166.26-58.63l0.45,0.21
					l-0.45-0.21c8.96-19.05,8.83-39.13-0.38-58.07c-13.44-27.63-43.9-48.7-83.56-57.81C194.98,37.63,181.14,36.15,167.52,36.15z"/>
			</g>
		</g>
		<g>
			<g>
				<path d="M167.33,220.38c-13.68,0-27.58-1.49-41.26-4.64c-39.96-9.18-70.67-30.45-84.24-58.35c-9.35-19.22-9.48-39.59-0.38-58.93
					c22.85-48.58,97.94-75.12,167.39-59.17c39.96,9.18,70.67,30.45,84.24,58.35c9.35,19.22,9.48,39.59,0.38,58.93l0,0
					C275.1,195.58,223.07,220.38,167.33,220.38z M167.52,35.65c-55.36,0-106.99,24.57-125.18,63.24
					c-8.96,19.05-8.83,39.13,0.38,58.07c13.44,27.63,43.9,48.7,83.56,57.81c69.02,15.85,143.6-10.45,166.26-58.63l0.45,0.21
					l-0.45-0.21c8.96-19.05,8.83-39.13-0.38-58.07c-13.44-27.63-43.9-48.7-83.56-57.81C194.98,37.13,181.14,35.65,167.52,35.65z"/>
			</g>
		</g>
		<g>
			<g>
				<path d="M167.33,219.88c-13.68,0-27.58-1.49-41.26-4.64c-39.96-9.18-70.67-30.45-84.24-58.35c-9.35-19.22-9.48-39.59-0.38-58.93
					c22.85-48.58,97.94-75.12,167.39-59.17c39.96,9.18,70.67,30.45,84.24,58.35c9.35,19.22,9.48,39.59,0.38,58.93l0,0
					C275.1,195.08,223.07,219.88,167.33,219.88z M167.52,35.15c-55.36,0-106.99,24.57-125.18,63.24
					c-8.96,19.05-8.83,39.13,0.38,58.07c13.44,27.63,43.9,48.7,83.56,57.81c69.02,15.85,143.6-10.45,166.26-58.63l0.45,0.21
					l-0.45-0.21c8.96-19.05,8.83-39.13-0.38-58.07c-13.44-27.63-43.9-48.7-83.56-57.81C194.98,36.63,181.14,35.15,167.52,35.15z"/>
			</g>
		</g>
		<g>
			<g>
				<path d="M167.33,219.38c-13.68,0-27.58-1.49-41.26-4.64c-39.96-9.18-70.67-30.45-84.24-58.35c-9.35-19.22-9.48-39.59-0.38-58.93
					c22.85-48.58,97.94-75.12,167.39-59.17c39.96,9.18,70.67,30.45,84.24,58.35c9.35,19.22,9.48,39.59,0.38,58.93l0,0
					C275.1,194.58,223.07,219.38,167.33,219.38z M167.52,34.65c-55.36,0-106.99,24.57-125.18,63.24
					c-8.96,19.05-8.83,39.13,0.38,58.07c13.44,27.63,43.9,48.7,83.56,57.81c69.02,15.85,143.6-10.45,166.26-58.63l0.45,0.21
					l-0.45-0.21c8.96-19.05,8.83-39.13-0.38-58.07c-13.44-27.63-43.9-48.7-83.56-57.81C194.98,36.13,181.14,34.65,167.52,34.65z"/>
			</g>
		</g>
		<g>
			<g>
				<path d="M167.33,218.88c-13.68,0-27.58-1.49-41.26-4.64c-39.96-9.18-70.67-30.45-84.24-58.35c-9.35-19.22-9.48-39.59-0.38-58.93
					c22.85-48.58,97.94-75.12,167.39-59.17c39.96,9.18,70.67,30.45,84.24,58.35c9.35,19.22,9.48,39.59,0.38,58.93l0,0
					C275.1,194.08,223.07,218.88,167.33,218.88z M167.52,34.15c-55.36,0-106.99,24.57-125.18,63.24
					c-8.96,19.05-8.83,39.13,0.38,58.07c13.44,27.63,43.9,48.7,83.56,57.81c69.02,15.85,143.6-10.45,166.26-58.63l0.45,0.21
					l-0.45-0.21c8.96-19.05,8.83-39.13-0.38-58.07c-13.44-27.63-43.9-48.7-83.56-57.81C194.98,35.63,181.14,34.15,167.52,34.15z"/>
			</g>
		</g>
		<g>
			<g>
				<path d="M167.33,218.38c-13.68,0-27.58-1.49-41.26-4.64c-39.96-9.18-70.67-30.45-84.24-58.35c-9.35-19.22-9.48-39.59-0.38-58.93
					c22.85-48.58,97.94-75.12,167.39-59.17c39.96,9.18,70.67,30.45,84.24,58.35c9.35,19.22,9.48,39.59,0.38,58.93l0,0
					C275.1,193.58,223.07,218.38,167.33,218.38z M167.52,33.65c-55.36,0-106.99,24.57-125.18,63.24
					c-8.96,19.05-8.83,39.13,0.38,58.07c13.44,27.63,43.9,48.7,83.56,57.81c69.02,15.85,143.6-10.45,166.26-58.63l0.45,0.21
					l-0.45-0.21c8.96-19.05,8.83-39.13-0.38-58.07c-13.44-27.63-43.9-48.7-83.56-57.81C194.98,35.13,181.14,33.65,167.52,33.65z"/>
			</g>
		</g>
		<g>
			<g>
				<path d="M167.33,217.88c-13.68,0-27.58-1.49-41.26-4.64c-39.96-9.18-70.67-30.45-84.24-58.35c-9.35-19.22-9.48-39.59-0.38-58.93
					c22.85-48.58,97.94-75.12,167.39-59.17c39.96,9.18,70.67,30.45,84.24,58.35c9.35,19.22,9.48,39.59,0.38,58.93l0,0
					C275.1,193.08,223.07,217.88,167.33,217.88z M167.52,33.15c-55.36,0-106.99,24.57-125.18,63.24
					c-8.96,19.05-8.83,39.13,0.38,58.07c13.44,27.63,43.9,48.7,83.56,57.81c69.02,15.85,143.6-10.45,166.26-58.63l0.45,0.21
					l-0.45-0.21c8.96-19.05,8.83-39.13-0.38-58.07c-13.44-27.63-43.9-48.7-83.56-57.81C194.98,34.63,181.14,33.15,167.52,33.15z"/>
			</g>
		</g>
		<g>
			<g>
				<path d="M167.33,217.38c-13.68,0-27.58-1.49-41.26-4.64c-39.96-9.18-70.67-30.45-84.24-58.35c-9.35-19.22-9.48-39.59-0.38-58.93
					c22.85-48.58,97.94-75.12,167.39-59.17c39.96,9.18,70.67,30.45,84.24,58.35c9.35,19.22,9.48,39.59,0.38,58.93l0,0
					C275.1,192.58,223.07,217.38,167.33,217.38z M167.52,32.65c-55.36,0-106.99,24.57-125.18,63.24
					c-8.96,19.05-8.83,39.13,0.38,58.07c13.44,27.63,43.9,48.7,83.56,57.81c69.02,15.85,143.6-10.45,166.26-58.63l0.45,0.21
					l-0.45-0.21c8.96-19.05,8.83-39.13-0.38-58.07c-13.44-27.63-43.9-48.7-83.56-57.81C194.98,34.13,181.14,32.65,167.52,32.65z"/>
			</g>
		</g>
		<g>
			<g>
				<path d="M167.33,216.88c-13.68,0-27.58-1.49-41.26-4.64c-39.96-9.18-70.67-30.45-84.24-58.35c-9.35-19.22-9.48-39.59-0.38-58.93
					c22.85-48.58,97.94-75.12,167.39-59.17c39.96,9.18,70.67,30.45,84.24,58.35c9.35,19.22,9.48,39.59,0.38,58.93l0,0
					C275.1,192.08,223.07,216.88,167.33,216.88z M167.52,32.15c-55.36,0-106.99,24.57-125.18,63.24
					c-8.96,19.05-8.83,39.13,0.38,58.07c13.44,27.63,43.9,48.7,83.56,57.81c69.02,15.85,143.6-10.45,166.26-58.63l0.45,0.21
					l-0.45-0.21c8.96-19.05,8.83-39.13-0.38-58.07c-13.44-27.63-43.9-48.7-83.56-57.81C194.98,33.63,181.14,32.15,167.52,32.15z"/>
			</g>
		</g>
		<g>
			<g>
				<path d="M167.33,216.38c-13.68,0-27.58-1.49-41.26-4.64c-39.96-9.18-70.67-30.45-84.24-58.35c-9.35-19.22-9.48-39.59-0.38-58.93
					c22.85-48.58,97.94-75.12,167.39-59.17c39.96,9.18,70.67,30.45,84.24,58.35c9.35,19.22,9.48,39.59,0.38,58.93l0,0
					C275.1,191.58,223.07,216.38,167.33,216.38z M167.52,31.65c-55.36,0-106.99,24.57-125.18,63.24
					c-8.96,19.05-8.83,39.13,0.38,58.07c13.44,27.63,43.9,48.7,83.56,57.81c69.02,15.85,143.6-10.45,166.26-58.63l0.45,0.21
					l-0.45-0.21c8.96-19.05,8.83-39.13-0.38-58.07c-13.44-27.63-43.9-48.7-83.56-57.81C194.98,33.13,181.14,31.65,167.52,31.65z"/>
			</g>
		</g>
		<g>
			<g>
				<path d="M167.33,215.88c-13.68,0-27.58-1.49-41.26-4.64c-39.96-9.18-70.67-30.45-84.24-58.35c-9.35-19.22-9.48-39.59-0.38-58.93
					c22.85-48.58,97.94-75.12,167.39-59.17c39.96,9.18,70.67,30.45,84.24,58.35c9.35,19.22,9.48,39.59,0.38,58.93l0,0
					C275.1,191.08,223.07,215.88,167.33,215.88z M167.52,31.15c-55.36,0-106.99,24.57-125.18,63.24
					c-8.96,19.05-8.83,39.13,0.38,58.07c13.44,27.63,43.9,48.7,83.56,57.81c69.02,15.85,143.6-10.45,166.26-58.63l0.45,0.21
					l-0.45-0.21c8.96-19.05,8.83-39.13-0.38-58.07c-13.44-27.63-43.9-48.7-83.56-57.81C194.98,32.63,181.14,31.15,167.52,31.15z"/>
			</g>
		</g>
		<g>
			<g>
				<path d="M167.33,215.38c-13.68,0-27.58-1.49-41.26-4.64c-39.96-9.18-70.67-30.45-84.24-58.35c-9.35-19.22-9.48-39.59-0.38-58.93
					c22.85-48.58,97.94-75.12,167.39-59.17c39.96,9.18,70.67,30.45,84.24,58.35c9.35,19.22,9.48,39.59,0.38,58.93l0,0
					C275.1,190.58,223.07,215.38,167.33,215.38z M167.52,30.65c-55.36,0-106.99,24.57-125.18,63.24
					c-8.96,19.05-8.83,39.13,0.38,58.07c13.44,27.63,43.9,48.7,83.56,57.81c69.02,15.85,143.6-10.45,166.26-58.63l0.45,0.21
					l-0.45-0.21c8.96-19.05,8.83-39.13-0.38-58.07c-13.44-27.63-43.9-48.7-83.56-57.81C194.98,32.13,181.14,30.65,167.52,30.65z"/>
			</g>
		</g>
		<g>
			<g>
				<path d="M167.33,214.88c-13.68,0-27.58-1.49-41.26-4.64c-39.96-9.18-70.67-30.45-84.24-58.35c-9.35-19.22-9.48-39.59-0.38-58.93
					c22.85-48.58,97.94-75.12,167.39-59.17c39.96,9.18,70.67,30.45,84.24,58.35c9.35,19.22,9.48,39.59,0.38,58.93l0,0
					C275.1,190.08,223.07,214.88,167.33,214.88z M167.52,30.15c-55.36,0-106.99,24.57-125.18,63.24
					c-8.96,19.05-8.83,39.13,0.38,58.07c13.44,27.63,43.9,48.7,83.56,57.81c69.02,15.85,143.6-10.45,166.26-58.63l0.45,0.21
					l-0.45-0.21c8.96-19.05,8.83-39.13-0.38-58.07c-13.44-27.63-43.9-48.7-83.56-57.81C194.98,31.63,181.14,30.15,167.52,30.15z"/>
			</g>
		</g>
		<g>
			<g>
				<path d="M167.33,214.38c-13.68,0-27.58-1.49-41.26-4.64c-39.96-9.18-70.67-30.45-84.24-58.35c-9.35-19.22-9.48-39.59-0.38-58.93
					c22.85-48.58,97.94-75.12,167.39-59.17c39.96,9.18,70.67,30.45,84.24,58.35c9.35,19.22,9.48,39.59,0.38,58.93l0,0
					C275.1,189.58,223.07,214.38,167.33,214.38z M167.52,29.65c-55.36,0-106.99,24.57-125.18,63.24
					c-8.96,19.05-8.83,39.13,0.38,58.07c13.44,27.63,43.9,48.7,83.56,57.81c69.02,15.85,143.6-10.45,166.26-58.63l0.45,0.21
					l-0.45-0.21c8.96-19.05,8.83-39.13-0.38-58.07c-13.44-27.63-43.9-48.7-83.56-57.81C194.98,31.13,181.14,29.65,167.52,29.65z"/>
			</g>
		</g>
		<g>
			<g>
				<path d="M167.33,213.88c-13.68,0-27.58-1.49-41.26-4.64c-39.96-9.18-70.67-30.45-84.24-58.35c-9.35-19.22-9.48-39.59-0.38-58.93
					c22.85-48.58,97.94-75.12,167.39-59.17c39.96,9.18,70.67,30.45,84.24,58.35c9.35,19.22,9.48,39.59,0.38,58.93l0,0
					C275.1,189.08,223.07,213.88,167.33,213.88z M167.52,29.15c-55.36,0-106.99,24.57-125.18,63.24
					c-8.96,19.05-8.83,39.13,0.38,58.07c13.44,27.63,43.9,48.7,83.56,57.81c69.02,15.85,143.6-10.45,166.26-58.63l0.45,0.21
					l-0.45-0.21c8.96-19.05,8.83-39.13-0.38-58.07c-13.44-27.63-43.9-48.7-83.56-57.81C194.98,30.63,181.14,29.15,167.52,29.15z"/>
			</g>
		</g>
		<g>
			<g>
				<path d="M167.33,213.38c-13.68,0-27.58-1.49-41.26-4.64c-39.96-9.18-70.67-30.45-84.24-58.35c-9.35-19.22-9.48-39.59-0.38-58.93
					c22.85-48.58,97.94-75.12,167.39-59.17c39.96,9.18,70.67,30.45,84.24,58.35c9.35,19.22,9.48,39.59,0.38,58.93l0,0
					C275.1,188.58,223.07,213.38,167.33,213.38z M167.52,28.65c-55.36,0-106.99,24.57-125.18,63.24
					c-8.96,19.05-8.83,39.13,0.38,58.07c13.44,27.63,43.9,48.7,83.56,57.81c69.02,15.85,143.6-10.45,166.26-58.63l0.45,0.21
					l-0.45-0.21c8.96-19.05,8.83-39.13-0.38-58.07c-13.44-27.63-43.9-48.7-83.56-57.81C194.98,30.13,181.14,28.65,167.52,28.65z"/>
			</g>
		</g>
		<g>
			<g>
				<path d="M167.33,212.88c-13.68,0-27.58-1.49-41.26-4.64c-39.96-9.18-70.67-30.45-84.24-58.35c-9.35-19.22-9.48-39.59-0.38-58.93
					c22.85-48.58,97.94-75.12,167.39-59.17c39.96,9.18,70.67,30.45,84.24,58.35c9.35,19.22,9.48,39.59,0.38,58.93l0,0
					C275.1,188.08,223.07,212.88,167.33,212.88z M167.52,28.15c-55.36,0-106.99,24.57-125.18,63.24
					c-8.96,19.05-8.83,39.13,0.38,58.07c13.44,27.63,43.9,48.7,83.56,57.81c69.02,15.85,143.6-10.45,166.26-58.63l0.45,0.21
					l-0.45-0.21c8.96-19.05,8.83-39.13-0.38-58.07c-13.44-27.63-43.9-48.7-83.56-57.81C194.98,29.63,181.14,28.15,167.52,28.15z"/>
			</g>
		</g>
		<g>
			<g>
				<path d="M167.33,212.38c-13.68,0-27.58-1.49-41.26-4.64c-39.96-9.18-70.67-30.45-84.24-58.35c-9.35-19.22-9.48-39.59-0.38-58.93
					c22.85-48.58,97.94-75.12,167.39-59.17c39.96,9.18,70.67,30.45,84.24,58.35c9.35,19.22,9.48,39.59,0.38,58.93l0,0
					C275.1,187.58,223.07,212.38,167.33,212.38z M167.52,27.65c-55.36,0-106.99,24.57-125.18,63.24
					c-8.96,19.05-8.83,39.13,0.38,58.07c13.44,27.63,43.9,48.7,83.56,57.81c69.02,15.85,143.6-10.45,166.26-58.63l0.45,0.21
					l-0.45-0.21c8.96-19.05,8.83-39.13-0.38-58.07c-13.44-27.63-43.9-48.7-83.56-57.81C194.98,29.13,181.14,27.65,167.52,27.65z"/>
			</g>
		</g>
		<g>
			<g>
				<path d="M167.33,211.88c-13.68,0-27.58-1.49-41.26-4.64c-39.96-9.18-70.67-30.45-84.24-58.35c-9.35-19.22-9.48-39.59-0.38-58.93
					c22.85-48.58,97.94-75.12,167.39-59.17c39.96,9.18,70.67,30.45,84.24,58.35c9.35,19.22,9.48,39.59,0.38,58.93l0,0
					C275.1,187.08,223.07,211.88,167.33,211.88z M167.52,27.15c-55.36,0-106.99,24.57-125.18,63.24
					c-8.96,19.05-8.83,39.13,0.38,58.07c13.44,27.63,43.9,48.7,83.56,57.81c69.02,15.85,143.6-10.45,166.26-58.63l0.45,0.21
					l-0.45-0.21c8.96-19.05,8.83-39.13-0.38-58.07c-13.44-27.63-43.9-48.7-83.56-57.81C194.98,28.63,181.14,27.15,167.52,27.15z"/>
			</g>
		</g>
		<g>
			<g>
				<path d="M167.33,211.38c-13.68,0-27.58-1.49-41.26-4.64c-39.96-9.18-70.67-30.45-84.24-58.35c-9.35-19.22-9.48-39.59-0.38-58.93
					c22.85-48.58,97.94-75.12,167.39-59.17c39.96,9.18,70.67,30.45,84.24,58.35c9.35,19.22,9.48,39.59,0.38,58.93l0,0
					C275.1,186.58,223.07,211.38,167.33,211.38z M167.52,26.65c-55.36,0-106.99,24.57-125.18,63.24
					c-8.96,19.05-8.83,39.13,0.38,58.07c13.44,27.63,43.9,48.7,83.56,57.81c69.02,15.85,143.6-10.45,166.26-58.63l0.45,0.21
					l-0.45-0.21c8.96-19.05,8.83-39.13-0.38-58.07c-13.44-27.63-43.9-48.7-83.56-57.81C194.98,28.13,181.14,26.65,167.52,26.65z"/>
			</g>
		</g>
		<g>
			<g>
				<path d="M167.33,210.88c-13.68,0-27.58-1.49-41.26-4.64c-39.96-9.18-70.67-30.45-84.24-58.35c-9.35-19.22-9.48-39.59-0.38-58.93
					c22.85-48.58,97.94-75.12,167.39-59.17c39.96,9.18,70.67,30.45,84.24,58.35c9.35,19.22,9.48,39.59,0.38,58.93l0,0
					C275.1,186.08,223.07,210.88,167.33,210.88z M167.52,26.15c-55.36,0-106.99,24.57-125.18,63.24
					c-8.96,19.05-8.83,39.13,0.38,58.07c13.44,27.63,43.9,48.7,83.56,57.81c69.02,15.85,143.6-10.45,166.26-58.63l0.45,0.21
					l-0.45-0.21c8.96-19.05,8.83-39.13-0.38-58.07c-13.44-27.63-43.9-48.7-83.56-57.81C194.98,27.63,181.14,26.15,167.52,26.15z"/>
			</g>
		</g>
		<g>
			<g>
				<path d="M167.33,210.38c-13.68,0-27.58-1.49-41.26-4.64c-39.96-9.18-70.67-30.45-84.24-58.35c-9.35-19.22-9.48-39.59-0.38-58.93
					c22.85-48.58,97.94-75.12,167.39-59.17c39.96,9.18,70.67,30.45,84.24,58.35c9.35,19.22,9.48,39.59,0.38,58.93l0,0
					C275.1,185.58,223.07,210.38,167.33,210.38z M167.52,25.65c-55.36,0-106.99,24.57-125.18,63.24
					c-8.96,19.05-8.83,39.13,0.38,58.07c13.44,27.63,43.9,48.7,83.56,57.81c69.02,15.85,143.6-10.45,166.26-58.63l0.45,0.21
					l-0.45-0.21c8.96-19.05,8.83-39.13-0.38-58.07c-13.44-27.63-43.9-48.7-83.56-57.81C194.98,27.13,181.14,25.65,167.52,25.65z"/>
			</g>
		</g>
		<g>
			<g>
				<path d="M167.33,209.88c-13.68,0-27.58-1.49-41.26-4.64c-39.96-9.18-70.67-30.45-84.24-58.35c-9.35-19.22-9.48-39.59-0.38-58.93
					c22.85-48.58,97.94-75.12,167.39-59.17c39.96,9.18,70.67,30.45,84.24,58.35c9.35,19.22,9.48,39.59,0.38,58.93l0,0
					C275.1,185.08,223.07,209.88,167.33,209.88z M167.52,25.15c-55.36,0-106.99,24.57-125.18,63.24
					c-8.96,19.05-8.83,39.13,0.38,58.07c13.44,27.63,43.9,48.7,83.56,57.81c69.02,15.85,143.6-10.45,166.26-58.63l0.45,0.21
					l-0.45-0.21c8.96-19.05,8.83-39.13-0.38-58.07c-13.44-27.63-43.9-48.7-83.56-57.81C194.98,26.63,181.14,25.15,167.52,25.15z"/>
			</g>
		</g>
	</g>
</g>
</svg>
