<?xml version="1.0" encoding="utf-8"?>
<!-- Generator: Adobe Illustrator 19.0.0, SVG Export Plug-In . SVG Version: 6.00 Build 0)  -->
<svg version="1.1" id="Layer_1" xmlns="http://www.w3.org/2000/svg" xmlns:xlink="http://www.w3.org/1999/xlink" x="0px" y="0px"
	 viewBox="-443 245.7 71.3 71.3" enable-background="new -443 245.7 71.3 71.3" xml:space="preserve">
<path fill="#FFFFFF" d="M-424,294.8c-2.8-3-11-12.8-14.3-26.1c-1.9-7.7-1.5-14,1.3-18.2c2.4-3.6,5.7-4.5,7-4.7
	c0.6-0.1,1.2-0.1,1.7-0.1c4.5,0,6.3,3.3,8.2,9.3c1.5,4.7,2.4,7.6,2.2,8.9c-0.1,0.7-0.8,1.2-3.5,2.6l-4.6,2.7l0.3,1.3
	c0.1,0.3,3.1,9.3,9.6,16.4L-424,294.8z"/>
<path fill="#FFFFFF" d="M-389.7,309.9c-2.6,0-5.5-0.4-8.6-1.1c-13.3-3.2-22.7-11.1-25.7-13.9l7.9-7.8c7.2,6.5,15.6,9.1,15.9,9.2
	l1.3,0.3l2.7-4.6c1.7-3.2,2-3.5,3-3.5c1.5,0,4.2,0.8,8.6,2.2c6.8,2.1,10.1,4.2,9.2,9.9C-376.1,304.8-380.3,309.9-389.7,309.9
	C-389.7,309.9-389.7,309.9-389.7,309.9z"/>
</svg>
