<?xml version="1.0" encoding="utf-8"?>
<!-- Generator: Adobe Illustrator 19.0.0, SVG Export Plug-In . SVG Version: 6.00 Build 0)  -->
<svg version="1.1" id="Text" xmlns="http://www.w3.org/2000/svg" xmlns:xlink="http://www.w3.org/1999/xlink" x="0px" y="0px"
	 viewBox="-335.5 207.2 201.6 147.1" style="enable-background:new -335.5 207.2 201.6 147.1;" xml:space="preserve">
<style type="text/css">
	.st0{fill:#FFFFFF;}
	.st1{display:none;}
	.st2{display:inline;}
</style>
<path id="XMLID_20_" d="M-202.9,251.7V225c0.1-8,0-15.2-5.5-17.2v-0.6v0.6c-1-0.3-2.1-0.6-3.4-0.6c-3.2,0-56.9,0-56.9,0
	c-33.3,0-66.8,32.9-66.8,73.5s33.5,73.5,66.8,73.5v-26.4c6.3-0.1,12.3-2.1,17.6-5.4v22.9v9h94.2l0,0l0,0c6,0,14.2-2.9,18.9-17
	c2.8-8.2,4.1-19.4,4.1-34.1c0-15.1-1.3-26.4-4-34.5c-4.9-14.7-14-16.9-19-16.9h-46V251.7z M-269.1,319
	c-17.1-0.3-30.9-17.3-30.9-38.2c0-20.9,13.8-37.9,30.9-38.2V319z M-238.5,251.7c-7.1-10.8-18.1-17.8-30.2-18v-19.8
	c21.8,0,43.4,15.5,53.9,37.9h-23.7V251.7z"/>
<g id="XMLID_1_">
	<polygon id="XMLID_5_" class="st0" points="-249.4,278.4 -242,278.4 -242,345.3 -232.8,345.3 -232.8,260.7 -247.4,260.7 	"/>
	<path id="XMLID_34_" class="st0" d="M-207.5,260.7h-9.9l-12.5,54v13.8h13.6v16.9h8.8v-16.9h3.3v-15.3h-3.3V260.7L-207.5,260.7z
		 M-216.3,313.1h-6.3l6.2-26.9h0.1V313.1z"/>
	<path id="XMLID_39_" class="st0" d="M-187.9,260.8h-0.1c-4.4,0-7.8,3.6-10.2,10.9c-2.4,7.3-3.6,17.5-3.6,30.8
		c0,15.1,1.3,26,3.8,32.8c2.5,6.8,5.9,10.1,10.2,10.1c4.5,0,8-3.6,10.4-10.8c2.4-7.2,3.6-17.6,3.6-31.2c0-14-1.2-24.5-3.6-31.7
		C-179.8,264.4-183.3,260.8-187.9,260.8z M-184.3,322.4c-0.8,3.8-2,5.7-3.7,5.7c-3.1,0-4.7-8.6-4.7-25.8c0-16.1,1.5-24.1,4.6-24.1
		c1.7,0,3,2.1,3.7,6.2c0.8,4.2,1.1,10.8,1.1,19.9C-183.2,312.6-183.6,318.7-184.3,322.4z"/>
	<path id="XMLID_43_" class="st0" d="M-146.4,271.6c-2.4-7.2-5.9-10.8-10.5-10.8h-0.1c-4.4,0-7.8,3.6-10.2,10.9
		c-2.4,7.3-3.6,17.5-3.6,30.8c0,15.1,1.3,26,3.8,32.8c2.5,6.8,5.9,10.1,10.2,10.1c4.5,0,8-3.6,10.4-10.8c2.4-7.2,3.6-17.6,3.6-31.2
		C-142.8,289.4-144,278.8-146.4,271.6z M-153.2,322.4c-0.8,3.8-2,5.7-3.7,5.7c-3.1,0-4.7-8.6-4.7-25.8c0-16.1,1.5-24.1,4.6-24.1
		c1.7,0,3,2.1,3.7,6.2c0.8,4.2,1.1,10.8,1.1,19.9C-152.1,312.6-152.5,318.7-153.2,322.4z"/>
</g>
<g id="Small_H" class="st1">
	<polygon id="XMLID_3_" class="st2" points="-157.2,240 -157.2,207.4 -168.3,207.4 -168.3,219.5 -178.2,219.5 -178.2,207.4 
		-189.3,207.4 -189.3,240 -178.2,240 -178.2,226.5 -168.3,226.5 -168.3,240 	"/>
</g>
<g id="Small_L" class="st1">
	<polygon id="XMLID_45_" class="st2" points="-189.3,240 -189.3,207.4 -175.2,207.4 -175.2,231 -157.2,231 -157.2,240 	"/>
</g>
<g id="XMLID_8_">
	<path id="XMLID_9_" class="st0" d="M-238.5,251.7h23.7c-10.5-22.4-32.1-37.9-53.9-37.9v19.9C-256.5,233.9-245.6,240.9-238.5,251.7z
		"/>
	<path id="XMLID_10_" class="st0" d="M-300,280.8c0,20.9,13.8,37.9,30.9,38.2v-76.5C-286.2,242.9-300,259.9-300,280.8z"/>
	<path id="XMLID_2_" class="st0" d="M-268.6,354.3h17.6v-31.9c-5.3,3.4-11.3,5.3-17.6,5.4V354.3z"/>
</g>
</svg>
