<?xml version="1.0" encoding="utf-8"?>
<!-- Generator: Adobe Illustrator 19.0.0, SVG Export Plug-In . SVG Version: 6.00 Build 0)  -->
<svg version="1.1" id="Layer_1" xmlns="http://www.w3.org/2000/svg" xmlns:xlink="http://www.w3.org/1999/xlink" x="0px" y="0px"
	 viewBox="0 0 2498 243.4" enable-background="new 0 0 2498 243.4" xml:space="preserve">
<g id="XMLID_6178_">
	<g id="XMLID_487_">
		<path id="XMLID_488_" fill-rule="evenodd" clip-rule="evenodd" fill="#D35720" d="M676.2,212.2c-0.9,4.4-3.7,17.3-6.3,31.3h111.3
			c2-8.7,4.2-17.5,4.7-20.1c0.1-0.5,4.2-2.4,6.5-2.9c15.5-3.7,20.1,10.6,20.2,23.1h15.1c0.4-4.4,0.4-8.8-0.1-13.1
			c-0.7-5.5-10.1-28.2-18.8-29.5c-38.3-5.8,5.3-14.3-31.6-36.8c-10.5-6.4-51.3-15.9-62.5-12.7c-11,3.1-24,1.9-32.2,26.8
			C680.7,183.7,676.4,211.2,676.2,212.2 M2176.4,141.4c4.9-0.5,51.7-18.5,51.6-22c-0.2-6.6-13.1-35.1-13.1-35.2
			c-2-0.2-53.6,18.2-54.6,22c-0.9,3.5,0.5,3.5,2.1,7.8C2160.3,104.4,2171.8,141.9,2176.4,141.4 M680.2,91.9
			c1.4,0.1,16.7,5.8,18.1,11.4c1.7,6.7,1.5,24.9,8,10.2c0.9-2,2.9-21.6-4.7-24.7C693.8,85.7,664.5,91.2,680.2,91.9 M20.7,70.1
			c0.2,0,35.4,17.9,42.2,20.7c2.8,1.2,10,20.5,11.9,24.3c1-2.9,1.4-36.2-3.1-37.7C52.4,71,51.9,69.6,30.5,65.5
			C24.8,64.5,6.8,67.8,20.7,70.1 M1622.7,139.8c-8.2-9.7-7-30,2-38.7c11.9-11.6,15.7-10.5,5.4-10.5c-15,0-22.1,24.6-18.6,36.3
			c0.9,2.9,4.9,21.2,11.3,17.4C1623,144.1,1623,140.2,1622.7,139.8 M2293.6,84.7c-3.9-7.8-13.5,5.3-18.6,5.7
			c-1.8,0.1-7.4-0.5-9.9-2.1c-2.5-1.6-2-6.3-1.7-7.8C2264.7,73.8,2289,71.2,2293.6,84.7 M2276.4,95.3c-4.7-0.2-32.6,25.1-18,38
			c4.7,4.1,14-2.7,14-9.3c0-11.3-2.9-17.2,3.9-26.2C2276.7,97.1,2276.7,95.4,2276.4,95.3 M771.7,147.1c9.9-27.1-17.6-21.1-16.8-37.1
			c0.3-5.3,33.8,0.2,21.5-10.7c-2.8-2.4-31.1-3.3-36.2-14.9c-6.6-14.8,67.9-19.7,72.5-13.8c7.1,9.1-1.6,23.2-13.6,17.4
			C775,76.6,747,91.2,780.7,90c22.3-0.8,33.3,27.5,6,27c-21.1-0.4-0.8,14-10.1,24.5C775.4,142.8,771.4,147.9,771.7,147.1
			 M248.7,115.1c5.4,6.5-7.3,7.9,23.9,13.2c3.8,0.6,27.9,6.7,28,6.7c0-41.8-9.8-14.4-45.8-20.3C253.5,114.4,248.9,115.3,248.7,115.1
			 M255,100c12.4-6.7,28.6-11.3,45.4-20.6c3.3-1.8,25.4-13.9,22.1-0.9c-3.3,13,9.5,7-20,15.8c-10.8,3.2-40.2,7.1-46.2,10.8L255,100z
			 M989.3,209.7c-3.1-5.4-5-10.9,3.8-12.1c3.6-0.5,13.1,5.5,8.1,10.5c-2.4,2.4-8.6,4-11.5,1.7C989.5,209.6,989.2,209.7,989.3,209.7
			 M970.3,188.9c2.9-10.7,10.5-16.2,21.3-16.2c4.4,0,9.6,6.4-0.5,9.4c-5.9,1.8-8.6,3.9-12,8.8C977.1,193.7,969.3,192.6,970.3,188.9
			 M954.2,166.2c0.2-8.1,19.8-17.9,27.3-17.9c6.8,0,21-2.5,17.6,9.8c-0.6,2.2-13.6,2-17.6,4c-8.8,4.6-6.5,3.1-12.8,9.3
			c-3.2,3.2-15,5.5-15-3.5C953.7,167,954.2,167.1,954.2,166.2 M815,147.4c-2.8,37-1.8,21.2,16.4,39.4c1.2,1.2,20.2-15.5,19.9-18.4
			c-2.2-20.2,11.4-17.1-10-31.6c-7.3-4.9-3-1.7-16,3.2C823.3,140.8,815.2,145.5,815,147.4 M1542.1,143.2c-6.7,3-13.5,7-20.9,10.2
			c-2.1,0.9-19.3,9.2-18.5,11.6c1.3,3.6,7.5,12.8,11.7,7.5c10-12.7,17-13.3,27.8-23.3C1545.5,146.1,1543.9,142.4,1542.1,143.2
			 M1538.6,128c-2.4,0.2-7.4,1.8-11.9,2.1c-5.1,0.3-37.3,1.9-38.2,7.5c-0.3,1.9,1.6,11.3,4,11c4.3-0.7,11.9-6.7,20.5-6.8
			c3.1,0,27.1-8.2,27.1-8.3C1540.5,131.9,1540.2,127.8,1538.6,128 M1379.9,172.7c1.2-1,15.2-19.5,15.8-19.5
			c4.2,0.2,12.7,9.2,1.5,14.3c-3.7,1.7-8.5,6.2-12.9,7.4C1383,175.2,1378.7,173.8,1379.9,172.7 M1367.4,170.8
			c0-13.8-3.7-16.8-0.7-29.3c2.1-8.8,1-13.4,14.5-8.3c6.1,2.3-9.2,29.2-10.5,37.3C1370.4,172.8,1367.4,173.6,1367.4,170.8
			 M1356.3,163.5c-1.1,0.8-6.3-9.2-9.4-12.5c-0.2-0.2-6.4-10.7-3.8-11.5c12.3-4,9-0.9,13,11.9C1358,157.5,1357.8,162.5,1356.3,163.5
			 M2420.1,14.3c-8.2-0.6-17,7.3-9.7,19.1c16.5,26.8-20,20-2.6,36.9c13.9,13.5-8.7,15.9,11.7,30.3c3.1,2.2,19.4,7.2,19-4.6
			c-0.2-4.2-24.4,0.6-17.2-15.8c4.4-10.1-20.6-11.4-6.6-21.8c15.3-11.3-10.4-27.8,5.4-36.2c15.9-8.4-3.1-29.4-3.4-19.8
			c-0.1,2.5,3.3,1.1,3.2,10.9L2420.1,14.3z M2024,122.9c13.6,36.6-30.9,42.3-23.7,18.6c2.1-7,9.8-5.1,16.6-10.3
			C2021.4,127.9,2024.1,122.5,2024,122.9 M2370,13.6c-26.7,18.9-28.9,84.7,6.7,62.8c5.6-3.5,5.5-19-2.7-26.8
			C2361.2,37.4,2370,13.6,2370,13.6 M559.5,89.8c-0.6,2.9,2.1,9.7,1.3,14c-1.7,9.7-7.4,18.4-12.5,23.5c-1.6,1.6-13.8,11.8-0.9,10.2
			c6.7-0.9,27.2-14.5,27.4-25.4C575.1,93.4,560.6,84.9,559.5,89.8 M534,82.7c-3,11-0.9,26.8-12.5,40.4
			c-8.8,10.4,23.7,11.8,24.5-21.9C546.1,94.9,537.1,71.2,534,82.7 M1833,116.9c12.3,13.7-8.5,39.3,15.3,36.8
			c6.2-0.6,13.9-12.1,9.5-20.6c-5.8-11-8.7-15.6-21.2-20C1829.6,110.7,1831.2,114.9,1833,116.9 M2112.4,114
			c6.9-1.5,28.3-4.9,24.1-16.1c-0.7-1.9-14.6-9.6-17.7,3.4C2118.3,103.3,2112.2,114.1,2112.4,114 M2093.9,108.7
			c11.4-15.6,2.6-28.9,7.2-38c5.8-0.6,9.9-3.3,13.5,5.2c3.3,7.6,4.1,8.3,1.3,16.1c-2.3,6.4-12.1,12-18.1,14.8
			C2097,107.1,2093.9,108.6,2093.9,108.7 M1895.4,130.5c9.8-4.8,15.2-2.2,23.9-3.1c0.5,3-0.5,10.9-4.2,11.1
			c-2.7,0.2-18.6-1.2-19.6-3.7C1895.1,133.9,1894.6,130.9,1895.4,130.5 M1896.4,115c2.2-1.4,26.2-13.5,26.7-10
			c1.9,13.2-4,10.1-16,12.7c-1.3,0.3-9.9,1.6-10.1,0.4C1896.8,117.5,1896,115.3,1896.4,115 M1058.3,143.5
			c-3.4,4.1-7.2,7.8-10.8,12.1c-1.1,1.4-10.1,10.9-10,11.6c0.4,2.7,4.6,10.6,5.7,14.5c0.3,1,4.3,9.6,5,9.9c2.6,1,3.4,2.6,6.7,3.7
			c3.1,1,16.5,7.7,18.1,7.6c0.1,0,17.1-18.1,18.7-19.2c0.7-0.5,5.2-4.8,4.7-5.4c-3.5-4.2-4.7-7.6-8.7-12.3
			c-5.3-6.2-3.4-8.6-12.1-12.5c-1.4-0.6-9.1-6.3-11.1-6.9C1063.3,146.2,1058.5,143.2,1058.3,143.5 M1174.5,145.5l8.1,10l16.4-12.1
			l-1.6,17.5l14.6-1.8l-3.7,11.6l20.8,1.5l-15.8,11.1l11.4,7.6l-13.1,5.5l14.3,14.7l-22.4-3.3l0.7,12l-13.8-4.2l-4.2,21.4
			l-11.6-18.6l-10.5,8.4l-5.4-11.2l-20.3,11.6l7.2-19.3l-14.7-0.7l6.6-10.7l-19.4-5.8l17.7-7.3l-9.2-9.4l14.2-3.2l-3.7-11.6l18,6.1
			l-1-16.1l12.4,6.5L1174.5,145.5z M401.6,156.9c6.6,14.4,13.8,28.7,27.2,37.8c10.1,6.8,50.7-11,60.1-19.2
			c12.7-11,29.6-16.1,21.8-36.4c-11.1-28.9-12.4-30.1-44.6-19.8c-5.2,1.7-64.6,30.5-64.6,34C401.6,154.5,401.1,155.9,401.6,156.9
			 M432.8,146.3c5.7,8.8,9.8,42.2,23.4,34.2c6.2-3.7,33.3-12.5,33.3-20.7c0-5.3-6.1-30.3-14.6-30.3
			C464.8,129.6,439.9,145.8,432.8,146.3 M108.3,126.9c0.1,4.1-0.9,21.2,3.3,22.2c6.7,1.7,55.6,2.6,68.1,4.1c4.3,0.5,7.3,4.9,8.7,6.3
			c28.8,29.3,49.5-29.7,29.7-46.6c-6.7-5.7-18.5-10.1-24.8-1.2c-2.6,3.7-8.3,8.5-14.7,8.7c-13.1,0.3-58.4-6.1-65.3-4
			C108.2,117.9,108.3,125.4,108.3,126.9 M196.6,121.1c5.5,3.1,8.1,21.1,4.3,26.3c-1.3,1.7-4.6,7-1.8,8.2c11.1,4.8,11.4,0.2,15.2-8.3
			c1.9-4.3-0.8-14.9-1.9-19.3c-2.2-8.5-6.9-12.3-15-7.4C197,120.7,196.5,121,196.6,121.1 M1265.6,243.4c8.7-8.3,17.3-16.7,22.5-21.8
			c1,0.1,2.1,0.2,3.2,0.1c8.6-0.1,16.7-4.3,22.8-11c6.1-6.6,10.2-15.7,11-25.5c0.4-4.9-0.1-9.5-1.4-13.7s-3.2-8-5.8-11.1
			c-2.6-3.1-5.7-5.7-9.3-7.4c-3.6-1.8-7.7-2.7-12-2.7c-8.7,0-16.9,4-23,10.5c-6.2,6.5-10.3,15.4-11,25.3c-0.3,3.4-0.1,6.6,0.5,9.7
			c-1.4,1.6-2.7,3.2-4.1,4.6c-7.5,7.5-22.4,17.6-30.1,24.4c-6.2,5.5-17.1,12.6-28.8,18.8H1265.6z M1262.3,212.2
			c0.3-4.3,1.8-6.1,4-7.9c1.2,1.9,2.7,4.8,5.2,6.9c1.5,1.3,4.4,3.8,7,5.3c-1.7,3.4-4.1,5.7-8.3,5.7
			C1266.2,222.2,1262,216.6,1262.3,212.2 M1308,203.3c-4,4.3-9.1,7.1-14.7,7.6l-0.1-0.4c-1.2-6.1-6.2-10.9-8.5-15.2
			c-4.9-8.9-9-10.2-12.9-8.2l0.1-1.1c0.5-6.9,3.4-13.2,7.7-17.8c4.3-4.5,10-7.4,16.1-7.4c6,0,11.3,2.7,14.9,7.1
			c3.6,4.4,5.6,10.6,5,17.5C1315.1,192.3,1312.2,198.6,1308,203.3 M1450,114.9c17.6,0,31.9,14.3,31.9,31.8
			c0,17.6-14.3,31.8-31.9,31.8s-31.8-14.3-31.8-31.8C1418.2,129.2,1432.4,114.9,1450,114.9 M1457.9,138.9c3.4,0.1,6.8,0.2,10.1,0.2
			c0.6,0,1.1,0.4,1.3,0.9c0.2,0.5,0.1,1.1-0.3,1.6c-2,2.1-3.9,4.3-5.9,6.4c-2.5,2.7-2.4,1.8-1.4,5.3c0.9,2.9,1.7,5.7,2.6,8.6
			c0.2,0.6,0,1.2-0.4,1.6c-0.5,0.4-1,0.5-1.6,0.2c-2.6-1.2-3.7-1.7-6.3-2.9c-3.3-1.5-4.6-2-7.5-0.1c-2.5,1.8-4.4,3-6.9,4.8
			c-0.5,0.3-1.1,0.4-1.6,0c-0.5-0.3-0.8-0.8-0.7-1.4c0.4-2.9,0.6-3.7,1-7.2c0.3-3.6,0.7-4.5-2.1-6.7c-2.3-1.8-4.7-3.6-7-5.4
			c-0.5-0.4-0.7-0.9-0.5-1.5c0.1-0.6,0.6-1,1.2-1.1c2.9-0.6,5.9-1.2,8.8-1.8c3.5-0.7,3.1-1.1,4.3-4.5c1-2.8,1.6-4.6,2.6-7.4
			c0.2-0.6,0.7-0.9,1.3-1c0.6-0.1,1.1,0.2,1.4,0.8c1.7,3.1,2.5,4.5,4.3,7.6C1455.3,137.7,1455.9,138.9,1457.9,138.9 M397.4,243.4
			c1.6-0.7,3.2-1.4,4.7-2.1c9.5-4.1,0.5-6.5,18.3-13.3c22.1-8.4,53.3-25,73.5-30.6c8.9-2.5,21-13.9,24.5,8.1
			c1.3,8.2-23.1,14.1-30.1,17.1c-3.2,1.4-22.2,8.5-22.5,11.2c-0.4,3.4,4.1,0.2,8.9,1.5c5.8,1.6,4.6,2.1,4.7,8H397.4z M503.1,210.6
			c5.1,0.2,8.7-6.1,4.4-9.9c-1.3-1.1-10.4-0.7-8.7,3.9C502.6,215.2,500.2,209.1,503.1,210.6 M1789.5,160.1
			c-18.3-7.4-38.4-11.5-58.9-19.9c-2.7-1.1-70.7-24.7-71.4-24.8c-6-1.4-7.2-1.4-8.3,6.9c-0.1,1,60.3,19.5,85.7,28.6
			c1.3,16.5-0.5,37.2,2.3,51.6c1.8,9.4-2,26.5,7.3,13c4.6-6.7,41.1-46.9,41.2-47.2C1787.9,168.2,1790.1,160.3,1789.5,160.1
			 M641.9,243.4c-2.3-4.3-4.6-8.4-5.5-11.9c-2.3-8.7-4.7-14.1-4.9-23.9c-0.2-14.8,13.6-41.5,21.7-53.6c2.9-4.3,10.6-15.3,11.2-20.4
			c0.7-6.4,4.5-8.9,0.7-16.6c-16.9,8.1-40.8,31.3-54.3,43.4c-2.5-1.9,34.2-34.2,37.5-37.8c5.5-6.2,5.1-6.3,11-11.2
			c0.8-0.7,1.8-1.5,3-2.3c-0.7-1.6-2.8-3.9-9.1-8.5c-3.8-2.8-4.6-3.2-10,1c-14.1,10.8-46.5,43.1-57.4,58.1
			c-14.6,20.1-28.4,38.7-42.2,59.5c-5.4,8.1-10,16.2-15.1,24.2h20.8c7-9.8,14.6-19.9,18.4-24.2c0.1-0.1,11.2-11.7,7.3-4.5
			c-4.5,8.3-11.3,18.4-17.4,28.7H641.9z M628.1,187.5c1.7-2.4,1.2-5.7-1.2-7.5c-2.4-1.7-5.7-1.2-7.5,1.2c-1.7,2.4-1.2,5.7,1.2,7.5
			C623,190.4,626.4,189.9,628.1,187.5 M623.3,209.5c1.7-2.4,1.2-5.7-1.2-7.5c-2.4-1.7-5.7-1.2-7.5,1.2c-1.7,2.4-1.2,5.7,1.2,7.5
			C618.2,212.4,621.6,211.9,623.3,209.5 M624.3,234.5c1.7-2.4,1.2-5.7-1.2-7.5c-2.4-1.7-5.7-1.2-7.5,1.2c-1.7,2.4-1.2,5.7,1.2,7.5
			C619.2,237.4,622.5,236.9,624.3,234.5 M106,243.4c-3.9-6.1-8-11-12.2-13.5c-7.1-4.4-26.7-0.2-31.8,13.5h11.7
			c4.3-4.7,12-6.3,18.5,0H106z M18.9,116.9C6.1,132.6-7.7,218,5.1,226.4c36.8,24.2,31-17.4,85-19c6.7-0.2,42.6-2.6,62.1-4.9
			c2,6.2,7.8,10.6,14.7,10.4c8.5-0.3,15.4-7.3,15.4-15.9c0-8.5-6.9-15.2-15.4-15c-5.9,0.2-11,3.6-13.6,8.5
			c-22.9-8.7-73-14.5-84.2-30.2c-5.8-8.1-17.7-18.8-21.3-31.7C42.5,109.5,19.2,116.5,18.9,116.9 M13.8,209.2
			c-4.3-19.8,1.7-69.8,14-76.7C50.8,119.4,22.1,247.6,13.8,209.2 M2306.6,114.3c-2.1,7.3-22.5,21.9-28.8,23.2
			c0.3,2.3,20.7,15.1,25.5,30c3.4,10.5,4.4,9.5,7.3,23.2c2.6,12.4-4,12.7,12.5,15.3c5.6,0.9,18.9,7.7,31.7,15.3
			c-5.8,8.9-10.6,15.2-16.6,22h13.3c4.6-5.5,8.5-11,10.6-15.4c0.3-0.6,0.6-1.2,1-1.7c9.3,5.8,17.4,11.4,20.7,14.5
			c0.7,0.6,1.5,1.5,2.4,2.5h30.5c2.3-15.7,5.2-29.6,7.3-41.3c1.1-5.9,4.1-48.7,5.4-47.6c7.9,7-3.4,65.2-4.2,75.5l-5.2,13.4h49.3
			c-0.5-5-1.6-10.2-3.9-15.8c-2.3-5.7-2.8-24.1-7.9-33.3c-1.9-3.4-14.4-46.1,1.3-8.6c12.6,30.2,9.7,24.7,12.1,54.8
			c0,0,0.5,1.5,0.9,2.9h26.2c-3.7-18.5-11.6-53.1-13.1-55.6c-17.7-28.7-18.6-29.6-45.5-50.2c-13.1-10-12.5-15.5-32.5-21.7
			c-11.2-3.5-13.2-4.8-23-8.5c-26.3-9.8-50.7-7.3-77-3.5C2305.7,104.2,2307,112.9,2306.6,114.3 M2312.9,243.4c-1.6-4.5-10-8.7-14,0
			H2312.9z M2410.5,132.6c6.2,2.3-25.6-12-31-13.6c-23.2-6.5-31.3-5.8-54.3-4.2c-0.8,0.1-7.5,1.1-7.9,1.4c0.7,1.7,21.1,1.6,40.2,4.2
			C2377.7,123.2,2405.1,130.6,2410.5,132.6 M2323.4,182.6c7.8-11.2,56.7-38,77.3-36.8c10.1,0.6,27.6-4.2,0.4,4
			c-18.5,5.6-27.8,10.3-43.8,16.8c-0.8,0.3-6.6,3.4-7.4,3.2L2323.4,182.6z M1318.9,243.4c18.9-15.5,8.3-10.6,35.4-24.3
			c35.6-17.9,55.4-24.4,97-26.6c35.3-1.8,28-1.7,58.6,7.6c13.2,4,26.7,4.6,30,17.9c1.1,4.5,2.7,14.7,3.6,25.3h-70.3
			c5.8-1.5,10.8-3,14.8-4.5c43-15.9,17.9-31.1-4.6-31.5c-28.2-0.5-69.2,2-93.7,15.6c-11.5,6.4-32.8,11.6-46.4,20.3H1318.9z
			 M990.9,228.6c0.3,5,0.3,9.9,0.4,14.9h28.4c-0.5-0.1-1-0.2-1.4-0.2c-2.7-0.3-7.9-7.2-5.7-7.2c1.9,0,20.7,6.8,26.1,7
			c1,0,2,0.2,3,0.4h8.1c1.5-0.3,3.1-0.7,4.9-1c3.3-0.5,19.5-6.5,23.2-6.9c10.4-1.2,3.4,2.6-1.5,5c-2.2,1.1-4.4,2-6.6,2.9h39.4
			c0.4-2.1,1.2-16-0.6-16.2c-12.5-1.6-19.7-5.4-33.7-7c-18.4-2.1-19.1-9.1-39.6-2c-3.3,1.1-25,3.6-29.4,5.8
			C1003.6,225.2,990.8,227.5,990.9,228.6 M854.1,213.6c-0.3,1.8,2.1,15,4.7,29.8h104.1c-0.4-2.1-0.7-3.8-0.9-4.7
			c-0.8-3.9-16.1-45.2-16.3-45.6c-0.1-0.1-11.2,1.5-25.7,3.9c-2.4-8.2-9.5-21.8-15.4-22.2c-28.2-1.8-30.3,8.3-26.5,29.6
			c-15,3-26.4,5.7-25.6,7.1C853.2,212.8,854.1,213.4,854.1,213.6 M910.4,198.5c-8.1,1.4-16.7,2.9-24.7,4.4
			c-5.4-24.2,15.8-19.8,19.1-15.5C908.3,191.9,909.8,195.7,910.4,198.5 M2223.4,243.4c4-21.5,7.8-42.4,6.5-43.6
			c-5.4-4.7-7.3,23-8.8,27.3c-0.7,1.9-1.5,8.9-2.4,16.3h-9.9c0.8-6.3,2-12.5,1.8-16.1c-0.3-7,5-43.3,13-45.4
			c21-5.6,3.1-21.9,31.2-18.3c14.2,1.8,11,37.9,10.8,48.3c-0.1,9.5-1.1,20.4-2.3,31.6H2223.4z M2065.6,195.2c0-11.3,0.2-7-7.3-17.2
			c-7.7-10.5,1.7-21.6,13.9-22.1c4.7-0.2-2.2-14.7,34.1-16.4c16.3-0.8,52.9,3.7,66.8,14.3c2.5,1.9,11.8,6.4,11.5,13.5
			c-0.2,5.2,30.7,4.6,8.3,30.1c-12.6,14.5-10.7,30.6-13.7,46.2h-12.8c0-0.8,0-1.3-0.1-1.6c-8.5-3.4-15.5,0.5-25.4,1.6h-21.3
			c-10-0.6-18.8-2.2-29.9-7.3c-1.3-0.6-8.4-2.7-8,1.8c0.1,1.2,0.1,3.1,0.1,5.5h-13.2C2068.3,231.7,2070.3,203.4,2065.6,195.2
			 M2125.1,173.5c10.4,1.4,52.2,11.2,35-10.7c-5.3-6.7-60-17.4-66.4-11.1C2083.7,161.4,2116.2,172.3,2125.1,173.5 M185.3,243.4
			c4.4-2.2,8.3-4.6,9.3-6.3c5.3-9,6.7-30.4,13.5-39.9c5.4-7.5,6.1-15.7,17.6-23.5c9.1-6.3,10.9-10.2,24.8-11.9
			c78.7-9.7,25-2.3,75.3,3.7c18.9,2.2,34.9,33.1,38.8,49.8c0.9,4,2.3,17.1,2.3,28.2H185.3z M299.5,173c-10.3,5.5-27.8-13.3-1.5-6
			C303,168.5,302,171.7,299.5,173 M1787,212.4c10.8,8.9,13.1,23.6,18.7,31h21.3c1.7-1,3.4-2.1,5.3-3.5c4-2.8,10.9-3.2,13.1-1.7
			c1.5,1,2.5,2.8,3.2,5.1h86c-1.6-7.7-0.5-17.6-2.9-21.8l31.2-3.5c0.5,5.1,0.2,17.2-2.6,25.3h21.6c-0.5-6.5-0.5-11,0.1-12.6
			c1-2.3,9-1.2,13,1.6c7.8,5.5,14.9,8.9,19.4,11h4.8c3.6-4.1,9.2-17.5,15.5-32c1.7-3.9,5.9-7.9,3-10.8c-14-13.8-66.9-37.4-82.3-46.2
			c-2.6-1.5-13.4-1.3-23,3.5c0.4,5.2-13,22.5-26.6,23.8c-10.6,1-21.8-12.1-25-18.3c-2.6-4.9-6.2-2.4-20.1-1.7
			c-10.6,0.5-24.4,16.1-49.3,31.2C1807.5,195.5,1785.6,211.2,1787,212.4 M1579.9,141.4c8.7,2.5,51.6,27.7,58.6,36
			c3.3,3.9,34.4,31.7,40.4,33.8c19.2,6.7,25.1,12.1,46.8,17.3c3.9,0.9,22.2,7.4,41.5,14.9h-95.4c-2-4.2-6.1-7.5-15-8.5
			c-4.2-0.5-7.7,3.6-12,8.5h-60.5c-1.3-1-2.6-2-4-3.2c-6.8-5.6-14.7-31.3-12.4-40.9c0.9-3.8,3.4-22.1,2-25.9
			c-4.7-12.9-4.5-22.8,6.2-32.5C1577.4,140,1577.9,140.8,1579.9,141.4 M1588.9,229.3c-12.8-10.3-12.6-44.3-2.6-54.5
			c9.4-9.7,9.4-5.7,22.1,0.1c8.3,3.8,29.4,24.7,36.5,32.2c12.9,13.8-13.1,40.8-41.7,30.8C1599.3,236.6,1591.8,231.7,1588.9,229.3
			 M706.4,163.8c7.2-3.5,67.2,7.1,71.1,14c0.1,0.2,7.8,6-3,7.7C760.6,187.7,687,173.1,706.4,163.8"/>
	</g>
</g>
</svg>
