<?xml version="1.0" encoding="utf-8"?>
<!-- Generator: Adobe Illustrator 19.0.0, SVG Export Plug-In . SVG Version: 6.00 Build 0)  -->
<svg version="1.1" id="Layer_1" xmlns="http://www.w3.org/2000/svg" xmlns:xlink="http://www.w3.org/1999/xlink" x="0px" y="0px"
	 viewBox="0 0 1083 1086.6" enable-background="new 0 0 1083 1086.6" xml:space="preserve">
<path id="XMLID_2717_" fill-rule="evenodd" clip-rule="evenodd" fill="#006BAB" d="M294.1,193.1c9.4-4.5,87.7,9.2,92.8,18.3
	c0.1,0.2,10.1,7.9-3.9,10.1C364.9,224.3,268.8,205.3,294.1,193.1 M397.9,270.8c-1.4,7.2-12.2,49.1-10.9,52.6
	c3.8,11,17.2,19.4,28.2,12.6c12.9-8,15.4-15.4,17.1-30.7c2-17.3-2.1-44-25.9-38.4C403.4,267.6,398,270.1,397.9,270.8 M254.7,256.2
	c-2.7,13.4-19.2,89-14.8,96.5c11.9,19.9,71.1,30.9,93,30.4c60.3-1.6,24.2-26.8,48.1-22.8c13.9,2.3,27.1,14.9,46.1-5.8
	c17.1-18.7,28.5-48.6,25.3-74.5c-0.9-7.2-13.1-36.8-24.6-38.5c-50-7.6,6.9-18.6-41.3-48c-13.7-8.4-67-20.7-81.6-16.6
	c-14.4,4.1-31.4,2.5-42,34.9C260.5,219,254.9,254.9,254.7,256.2"/>
<path id="XMLID_2713_" fill-rule="evenodd" clip-rule="evenodd" fill="#006BAB" d="M328.7,1007.2c-11.8-12.5-18.6-82.2,32.6-57.3
	c20.5,10,85.5,25.1,68,56.4c-6.2,11-42.8,28.4-59.8,22.5C357,1024.5,337.2,1016.2,328.7,1007.2 M182.9,925
	c-16.7-13.4-16.4-57.7-3.4-71.1c12.3-12.6,12.3-7.5,28.8,0.1c10.8,4.9,38.4,32.2,47.6,42c16.9,18.1-17.1,53.2-54.5,40.2
	C196.5,934.6,186.7,928.1,182.9,925 M171.2,810.3c11.4,3.2,67.4,36.1,76.6,47c4.3,5.1,44.9,41.4,52.8,44.1
	c25,8.7,32.8,15.8,61.1,22.6c11.7,2.8,119.1,42.4,120.9,51.3c1.3,6.8-4.9,29.7-11.9,30.9c-20.2,3.3-15.6-0.7-29,15.6
	c-22.4,27.2-36.1,40.8-74.8,32.3c-20-4.4-40.8-14.6-55-29.2c-23.8-24.4-11.2-28-17.6-55.9c-2.6-11.4,6.3-33.4-22.4-36.6
	c-18.8-2.1-27.6,66-99.8,7c-8.9-7.3-19.2-40.9-16.1-53.4c1.2-4.9,4.5-28.8,2.7-33.8c-6.1-16.8-5.9-29.8,8-42.4
	C167.8,808.5,168.5,809.6,171.2,810.3"/>
<path id="XMLID_2705_" fill-rule="evenodd" clip-rule="evenodd" fill="#399AA7" d="M609.7,898.9c6.4,11.1-6,53,29.8,38.5
	c10.6-4.3,11.9-33.3,10.9-43.1L609.7,898.9z M420.7,886.8c25.5,21.1,14.7,67.2,59.2,36c5.2-3.7,14.2-4.2,17.1-2.2
	c10.2,7.1,3.6,42.6,7.4,55.8c8.7,30.2-1.8,66.3-0.7,98.9c0.3,10.9,20.8,5.5,46.6,9c78.8,10.8,119.7-21.2,137.3-21.3
	c7.7-0.1-17.1-140.4-12.2-152.2c1.3-3,11.7-1.6,16.9,2.1c12.2,8.6,23.2,13.3,28.5,15.9c4.2,2,13.1-19.6,23.4-43.2
	c2.2-5.1,7.8-10.3,3.9-14.1c-18.3-18-87.4-48.8-107.5-60.3c-3.4-1.9-17.5-1.7-30,4.6c0.5,6.9-16.9,29.3-34.7,31.1
	c-13.9,1.4-28.4-15.8-32.7-23.8c-3.4-6.4-8.1-3.1-26.2-2.2c-13.9,0.7-31.9,21-64.4,40.7C447.4,864.8,418.8,885.3,420.7,886.8"/>
<path id="XMLID_2697_" fill-rule="evenodd" clip-rule="evenodd" fill="#E8561B" d="M563.8,20.8c-13.5,7.2-36.3-17.4-2-7.8
	C568.4,14.8,567.1,19,563.8,20.8 M540.1,144.5c-13,11.2-44.7,36.3-61.2,36c-38.3-0.5-32.5,8.4-67.5-12.4
	c-14.1-8.3-26.8-18.9-43.3-21.6c-26-4.3,23.9-24.7,29-26.4c6.8-2.2,26.9-11,29.7-15.8c6.9-11.7,8.8-39.6,17.7-52.1
	c7-9.8,8-20.4,22.9-30.6c11.9-8.2,14.2-13.3,32.4-15.6c102.7-12.6,32.7-2.9,98.4,4.8c24.7,2.9,45.6,43.1,50.6,64.9
	c2.1,8.8,5.9,52-0.5,58.1c-19.1,18.3-91.7,3.4-115.5,1.7c-3.2-0.2-83.5-25.6-75.9-19.1c20.4,17.2,40.3,11.9,69.1,27.2
	C526.3,144,538.6,145.7,540.1,144.5"/>
<path id="XMLID_2687_" fill-rule="evenodd" clip-rule="evenodd" fill="#399AA7" d="M898.9,542c13.5,1.8,68.2,14.7,45.7-14
	c-6.9-8.8-78.4-22.7-86.7-14.5C844.8,526.3,887.2,540.5,898.9,542 M842.4,626.1c1,11.6-2.6,78.2,1.4,83.2
	c12.4,15,42.9,14.7,61.1,14.6c13.7,0,35.4-3.8,36-19.7c0.2-4.7,4.8-16.7,5.3-27.3c0.3-6.8,7.6-42,6.6-45.7
	c-12.8-5.1-23.1,2.5-39.4,2.5c-24.1,0-38.9,0-60.6-9.9C851.2,623,841.9,620.1,842.4,626.1 M821.2,570.3c0-14.7,0.3-9.2-9.5-22.5
	c-10-13.7,2.3-28.2,18.2-28.9c6.1-0.3-2.8-19.1,44.5-21.4c21.3-1,69.1,4.8,87.2,18.6c3.3,2.5,15.4,8.3,15,17.6
	c-0.2,6.7,40.1,6,10.9,39.3c-18.4,21.1-13.1,45-19.6,67.4c-2.3,8.1-6.8,40.1-9.1,47.1c-5.6,17.2-10.6,66.8-14.7,75.2
	c-7.7,15.8-7.9,14.2-26.2,21.9c-11.8,5-37.3,2.4-49.8-1.3c-21.6-6.4-45.6-9.7-42.1-37.2c0.1-0.5-1.7-66.7-1.8-67.4
	c-2.7-13.8,1.7-31.5,1.1-45.2C824.7,618.7,827.4,581.2,821.2,570.3"/>
<path id="XMLID_2686_" fill-rule="evenodd" clip-rule="evenodd" fill="#006BAB" d="M1015,744.8c-12.6-39.4,3.8-55.6,2.7-90.6
	c-0.5-15.3,21.3-113.9,18-116.8c-7.1-6.2-9.5,30.1-11.4,35.6c-2.1,6.1-5,49.4-9.1,49c-14.9-1.7-4.1-36.4-4.5-48.7
	c-0.3-9.1,6.6-56.5,16.9-59.3c27.4-7.3,4-28.6,40.8-23.9c18.5,2.4,14.3,49.4,14.1,63c-0.3,25.8-5.5,59.6-8.2,87.8
	c-2.1,21.6-20.3,97.1-41.3,108.4c-7.4,4-4.6,36.2-18.8,20.9C1010.8,766.3,1016,748,1015,744.8"/>
<path id="XMLID_2683_" fill-rule="evenodd" clip-rule="evenodd" fill="#006BAB" d="M994.8,342.1c-10.6,1.8-21.8,3.7-32.2,5.7
	c-7-31.6,20.6-25.8,24.9-20.2C992.1,333.5,994,338.4,994.8,342.1 M921.3,361.8c-0.8,5.2,14.7,79.8,14.6,95.7c0,5.5,0.6,23.4,7,23.8
	c33.6,2.3,24.6,0,56.5-4.7c17.1-2.6,58-7,71.6-17.3c2.5-1.8-7.1-56.2-8.8-64.8c-1-5.1-21.1-59-21.3-59.5c-0.1-0.1-14.6,2-33.6,5.1
	c-3.1-10.7-12.4-28.5-20-28.9c-36.9-2.4-39.6,10.9-34.6,38.6c-19.6,3.9-34.5,7.5-33.4,9.3C920.2,360.7,921.3,361.5,921.3,361.8"/>
<path id="XMLID_2680_" fill-rule="evenodd" clip-rule="evenodd" fill="#006BAB" d="M217.4,690.5c2.5,0.1,27,8.9,34.1,9.1
	c3,0.1,6.3,1.3,9.8,1.2c3.3-0.1,6.7-1.4,11.1-2c4.4-0.6,25.5-8.4,30.3-9c13.6-1.5,4.5,3.3-2,6.5c-7.6,3.7-15.6,6.2-23.9,10.4
	c-10.6,5.3-9.6,4.7-10.7,17.3c-1,11.2,0.7,32.9-1,36.9c-3.7,9.1-3.8-15.8-3.4-17.5c0.7-2.7-1.8-28.1-2.6-29.3
	c-4.1-6.4-26.2-13.3-34.2-14.3C221.4,699.5,214.5,690.5,217.4,690.5 M189.1,680.8c0.8,15.9,0.2,31.5,1.1,48.3
	c0.3,5.2,0.3,44.3,1.8,45.6c6.3,5.2,31.6,14,41.9,19.9c2.8,1.6,28.9,12.3,30.9,11.5c7.6-3,12.7-1.1,22.1-5.7
	c8.8-4.3,51.8-16.7,55-20.3c0.2-0.2,0.4-74.1,1.6-79.9c0.5-2.6,1.6-20.9-0.8-21.2c-16.3-2.1-25.7-7-44-9.1
	c-24.1-2.7-25-11.9-51.7-2.6c-4.3,1.5-32.6,4.7-38.4,7.6C205.7,676.4,189,679.5,189.1,680.8"/>
<path id="XMLID_2672_" fill-rule="evenodd" clip-rule="evenodd" fill="#399AA7" d="M29.6,579c9.3-21.5,54.3-30.1,75-41.6
	c32-17.8,85.5-21,122.3-20.4c29.4,0.5,62.2,20.3,6,41.1c-37.4,13.9-148.8,31.1-190.9,28.3C39.7,586.1,29,580.5,29.6,579 M5.1,649.1
	c-4.6-17.2-10.3-71.2,4.3-83c28.5-23,12.3-15.5,48.9-33.9c46.5-23.4,72.3-31.9,126.6-34.7c46.1-2.4,36.5-2.2,76.5,10
	c17.3,5.3,34.9,6.1,39.2,23.4c3.3,13.5,10,65.1,1.4,75.5c-42.3,50.9-143.7,62-205.7,62.4C74.3,668.9,10.3,668.7,5.1,649.1"/>
<path id="XMLID_2666_" fill-rule="evenodd" clip-rule="evenodd" fill="#006BAB" d="M731.5,174.5c10.3-14.6,74-49.5,100.9-48
	c13.2,0.8,36.1-5.5,0.5,5.2c-24.2,7.3-36.3,13.4-57.2,21.9c-1,0.4-8.6,4.4-9.6,4.2L731.5,174.5z M924.6,286.7
	c-3.3-18.1,0.5-33.6-7.7-53.4c-3-7.4-3.7-31.4-10.3-43.4c-2.5-4.4-18.8-60.2,1.6-11.2c16.5,39.4,12.7,32.2,15.9,71.5
	c0,0.1,2.3,7.2,2.3,7.3L924.6,286.7z M851,271.1c3.2-27.6,8.3-51.7,11.9-71.2c1.4-7.7,5.4-63.6,7.1-62.1c10.3,9.1-4.4,85.1-5.4,98.5
	L851,271.1z M845.3,109.3c8.1,3-33.4-15.7-40.5-17.7c-30.2-8.5-40.9-7.5-71-5.4c-1.1,0.1-9.8,1.4-10.4,1.8
	c0.9,2.3,27.6,2.1,52.6,5.5C802.4,97,838.2,106.7,845.3,109.3 M709.5,85.4c-2.7,9.5-29.4,28.6-37.6,30.3c0.4,3,27,19.6,33.3,39.2
	c4.4,13.6,5.7,12.3,9.5,30.3c3.4,16.2-5.3,16.5,16.4,19.9c7.3,1.1,24.6,10.1,41.5,20c-12,18.3-20.5,28.1-37.5,45.8
	c-5,5.2-11.9,15.1-23.1,9.5c-4.3-2.1-7.1-15.7,2.7-20.2c14.3-6.6-22.4-33.8-17.4,18.7c1.3,13.3,31.1,20,45.1,4.1
	c10.4-11.8,33-34.9,39.7-49.2c0.4-0.8,0.8-1.5,1.2-2.2c12.2,7.6,22.7,14.9,27,18.9c7.7,7.3,32.9,38.6,36,47.5
	c38.8-4.9,39.9-6.9,77.2,4.8c13.3,4.2,9,14.2,14.4-2.5c4-12.2,11.8-26.6,24.1-31.9c0-5.9-17-82.9-19.6-87.2
	c-23.1-37.4-24.3-38.6-59.4-65.5c-17.1-13.1-16.3-20.2-42.5-28.3c-14.6-4.6-17.2-6.3-30.1-11.1c-34.3-12.8-66.2-9.6-100.6-4.5
	C708.3,72.2,710.1,83.6,709.5,85.4"/>
<path id="XMLID_2658_" fill-rule="evenodd" clip-rule="evenodd" fill="#E8561B" d="M23,479.5c-5.6-25.8,2.2-91.1,18.2-100.1
	C71.4,362.3,34,529.6,23,479.5 M29.7,359.1C13,379.6-5,491,11.7,502c48,31.6,40.4-22.7,111.1-24.7c8.7-0.3,55.6-3.4,81.1-6.4
	c2.6,8.1,10.2,13.8,19.2,13.5c11.1-0.3,20.1-9.6,20.1-20.7c0-11.1-9-19.8-20.1-19.5c-7.7,0.2-14.3,4.7-17.7,11.1
	c-29.9-11.4-95.3-18.9-110-39.3c-7.6-10.6-23.1-24.5-27.8-41.3C60.5,349.4,30.2,358.6,29.7,359.1"/>
<path id="XMLID_2654_" fill-rule="evenodd" clip-rule="evenodd" fill="#006BAB" d="M69.8,718.6c7.1,7.4,4.7,21.7-5,27.5
	c-13.6,8.1-23.9-4.8-24.3-16.9C40.1,715.8,56.8,705.1,69.8,718.6 M119.3,819.7c-1.6,1.3-21.1,11.2-21.1,11.3c0,1.9,3.7,2,5.3,1.5
	c5.7-1.7,3.6,0.6,10.3-3.5c3.1-1.8,5.9-4.1,7.1-7.7C121.2,820.6,119.3,819.6,119.3,819.7 M116.8,775.7c-10-18.2-27.8-64.5-45.8-75.5
	c-13.7-8.4-62.4,7.4-34.9,51.2c8.7,13.8,18.5,38,28.4,54.4c3.2,5.3,15,30.6,20.3,29.7c1.2-0.2,3.7-1.1,7-2.4
	c6.6,11.2,14.8,24.3,16.7,27.4c2.9,4.8,24.8-11.1,28.7-14.3c3.9-3.1-5-18.2-12.5-29.6c6.1-3.8,10.1-7.2,9.2-9
	C132.5,805,117.3,776.6,116.8,775.7"/>
<path id="XMLID_2634_" fill-rule="evenodd" clip-rule="evenodd" fill="#399AA7" d="M183.6,325.2c2.3-3.1,1.6-7.5-1.5-9.8
	c-3.1-2.3-7.5-1.6-9.8,1.5c-2.3,3.1-1.6,7.5,1.5,9.8C177,329,181.4,328.4,183.6,325.2 M175.4,295.5c2.3-3.1,1.6-7.5-1.5-9.8
	c-3.1-2.3-7.5-1.6-9.8,1.5c-2.3,3.1-1.6,7.5,1.5,9.8C168.8,299.3,173.1,298.6,175.4,295.5 M174.2,262.8c2.3-3.1,1.6-7.5-1.5-9.8
	c-3.1-2.3-7.5-1.6-9.8,1.5c-2.3,3.1-1.6,7.5,1.5,9.8C167.5,266.6,171.9,265.9,174.2,262.8 M180.5,234.1c2.3-3.1,1.6-7.5-1.5-9.8
	c-3.1-2.3-7.5-1.6-9.8,1.5c-2.3,3.1-1.6,7.5,1.5,9.8C173.8,237.9,178.2,237.2,180.5,234.1 M150.2,386.8c6.8-9.3,28.8-41.6,37.9-45.2
	c1.5-0.6,19.3-9.3,19.5-10.5c1.3-10.1-13.2-27.9-16.3-39.4c-3-11.3-6.2-18.4-6.4-31.2c-0.3-19.3,17.7-54.2,28.4-69.9
	c3.8-5.6,13.9-19.9,14.6-26.6c0.9-8.4,5.9-11.6,1-21.6c-22.1,10.6-53.3,40.8-70.9,56.7c-3.3-2.4,44.7-44.6,48.9-49.3
	c7.2-8.1,6.7-8.3,14.3-14.7c1-0.9,2.4-2,3.9-3.1c-1-2.2-3.6-5.1-11.8-11.1c-4.9-3.6-5.9-4.1-13,1.3c-18.4,14-60.7,56.3-75,75.8
	c-19.1,26.2-37.1,50.5-55.1,77.6c-7.6,11.5-14.1,22.9-21.5,34.4c-6,9.3-7.2,11.5,3.1,20.2c1.4,1.2,4,3.3,6.8,5.2
	c0.4-0.7,0.9-1.4,1.3-2.2c6.9-11.3,32.7-47.4,41.7-57.6c0.1-0.1,14.6-15.3,9.5-5.9c-10.7,19.6-31.4,47.5-38.5,70.1
	c13.3,0.7,26.9,14.4,39.3,20.9c3.2,1.6,23.8,14.3,26,16.9c1.2,1.5,10.9,9.7,13,10.1L150.2,386.8z"/>
<path id="XMLID_2631_" fill-rule="evenodd" clip-rule="evenodd" fill="#E8561B" d="M851.8,834.4c-23.9-9.7-50.2-15.1-77-25.9
	c-3.5-1.4-92.4-32.2-93.3-32.4c-7.8-1.8-9.4-1.8-10.8,9.1c-0.2,1.2,78.7,25.5,111.9,37.4c1.7,21.5-0.6,48.5,3,67.4
	c2.3,12.3-2.6,34.6,9.5,17c6-8.8,53.6-61.1,53.8-61.6C849.6,844.9,852.6,834.7,851.8,834.4"/>
<path id="XMLID_2627_" fill-rule="evenodd" clip-rule="evenodd" fill="#006BAB" d="M271.2,146.6c3-0.9,11.6-4.9,9.8-8.6
	c-2.6-5.6-5.9-15.7-8.6-22c-1.4-3.2-7.6-21.4-11.7-22.1c-1.4-0.2-8.9,1.2-8.7,3.4C252.5,103.8,272,145.2,271.2,146.6 M396.6,36.5
	c6.6,0.3,11.3-7.9,5.7-13c-1.7-1.5-13.5-0.9-11.4,5.1C395.9,42.6,392.8,34.6,396.6,36.5 M265.7,164.1c-2.3-7.5-35.4-72.1-30.7-74
	c8.5-3.4,19.9-9.3,29.7-13.5c12.4-5.3,0.7-8.5,23.9-17.4c28.9-11,69.6-32.7,95.9-39.9c11.7-3.2,27.4-18.2,32.1,10.6
	c1.8,10.7-30.2,18.4-39.3,22.3c-4.2,1.8-29,11.1-29.3,14.6c-0.5,4.4,5.3,0.3,11.6,2c7.6,2.1,6,2.7,6.2,10.8
	c0.5,23.7-21.1,3.5-5.7,18.6c4.8,4.7-1.8,17.8-7.4,16.6c-2.9-0.6,7,6,2,16c-3.5,6.9-8.7,10.5-17.1,12c-10.8,1.9-20.7,9.6-33.7,7.4
	c-10.5-1.8-24.4,5.6-32.1,10.2C268.8,162.3,269.1,162.7,265.7,164.1"/>
<path id="XMLID_2619_" fill-rule="evenodd" clip-rule="evenodd" fill="#399AA7" d="M657.6,200.3c4.4,0.1,8.8,0.2,13.2,0.3
	c0.8,0,1.4,0.5,1.7,1.2c0.3,0.7,0.2,1.5-0.4,2.1c-2.6,2.8-5.1,5.6-7.7,8.4c-3.3,3.6-3.1,2.3-1.8,6.9c1.1,3.7,2.2,7.5,3.4,11.2
	c0.2,0.7,0,1.5-0.6,2c-0.6,0.5-1.4,0.6-2.1,0.3c-3.4-1.5-4.9-2.2-8.3-3.8c-4.3-2-6.1-2.7-9.8-0.1c-3.3,2.3-5.7,4-9.1,6.3
	c-0.6,0.4-1.4,0.5-2.1,0.1c-0.7-0.4-1-1.1-0.9-1.9c0.5-3.8,0.8-4.8,1.3-9.4c0.4-4.7,1-5.9-2.7-8.7c-3.1-2.3-6.1-4.7-9.2-7
	c-0.6-0.5-0.9-1.2-0.7-2c0.2-0.8,0.8-1.3,1.5-1.5c3.8-0.8,7.7-1.5,11.5-2.3c4.6-0.9,4.1-1.4,5.6-5.8c1.3-3.6,2.1-6,3.4-9.7
	c0.3-0.7,0.9-1.2,1.6-1.3c0.8-0.1,1.5,0.3,1.9,1c2.3,4,3.3,5.9,5.6,9.9C654.3,198.7,655.1,200.3,657.6,200.3 M647.3,169
	c23,0,41.6,18.6,41.6,41.5c0,22.9-18.6,41.5-41.6,41.5c-23,0-41.6-18.6-41.6-41.5C605.8,187.6,624.4,169,647.3,169"/>
<path id="XMLID_2614_" fill-rule="evenodd" clip-rule="evenodd" fill="#006BAB" d="M754.5,1012.3c2.5-3.3,21.7-13.7,40.6-25.7
	c19-12,37.8-25.4,44-27.2c1.3-0.4,8.1-3.7,9.1-3.5c-1,7.4-27.5,29.5-36,38.1c-16.1,16.2-31,22.8-55.9,19.3
	C755.2,1013.2,754.4,1012.5,754.5,1012.3 M959.6,866c-5.2,5.6-11.9,9.3-19.2,9.9l-0.1-0.5c-1.6-7.9-8-14.3-11-19.8
	c-6.4-11.6-11.8-13.3-16.8-10.8l0.1-1.4c0.6-9,4.5-17.2,10.1-23.2c5.6-5.9,13.1-9.6,21-9.7c7.9-0.1,14.8,3.5,19.5,9.3
	c4.7,5.8,7.3,13.8,6.5,22.8C969,851.7,965.2,859.9,959.6,866 M900,877.7c0.4-5.7,2.3-7.9,5.2-10.3c1.6,2.5,3.6,6.3,6.8,8.9
	c2,1.6,5.8,5,9.2,6.9c-2.2,4.4-5.4,7.4-10.8,7.4C905,890.7,899.6,883.3,900,877.7 M815.6,919.9c-16.4,8.4-33.5,15-44.3,17.3
	c-15.2,3.2-50.7,29.1-54.4,39.9c-2.8,8.2-1.2,13.9,2.3,19.3c3.4,5.4,8.6,10.5,12.4,16.9c9.5,15.7,15.7,8.7,37.4,9.7
	c19.5,0.9,54.6-19.9,64.5-33.6c11.4-15.8,20.8-22.8,33.4-36.4c3-3.3,15.9-14.6,29.8-27.4c13.8-12.9,28.7-27.5,36.9-35.7
	c1.3,0.1,2.7,0.2,4.1,0.2c11.2-0.2,21.8-5.6,29.8-14.3c7.9-8.7,13.3-20.5,14.3-33.3c0.5-6.4-0.1-12.4-1.8-17.9
	c-1.6-5.5-4.2-10.4-7.5-14.5c-3.3-4.1-7.5-7.4-12.2-9.7c-4.7-2.3-10-3.6-15.6-3.6c-11.3,0-22,5.2-30,13.6
	c-8.1,8.5-13.5,20.1-14.4,33.1c-0.3,4.4-0.1,8.6,0.6,12.6c-1.8,2.1-3.5,4.2-5.4,6c-9.7,9.8-29.3,22.9-39.3,31.8
	C847.5,901.6,831.9,911.6,815.6,919.9"/>
<path id="XMLID_2606_" fill-rule="evenodd" clip-rule="evenodd" fill="#E8561B" d="M791.7,313.3c7.2,4,10.5,27.6,5.6,34.2
	c-1.7,2.3-6,9.1-2.4,10.6c14.6,6.2,14.9,0.3,19.8-10.8c2.5-5.7-1-19.4-2.5-25.2c-2.9-11.1-9-16.1-19.7-9.6
	C792.2,312.9,791.6,313.3,791.7,313.3 M676.4,320.9c0.2,5.3-1.1,27.6,4.3,29c8.8,2.2,72.7,3.4,89,5.3c5.6,0.7,9.6,6.4,11.4,8.2
	c37.6,38.3,64.6-38.8,38.7-60.8c-8.7-7.4-24.2-13.1-32.4-1.6c-3.5,4.8-10.8,11.1-19.2,11.3c-17.1,0.5-76.2-7.9-85.3-5.2
	C676.3,309.2,676.4,318.9,676.4,320.9"/>
<path id="XMLID_2598_" fill-rule="evenodd" clip-rule="evenodd" fill="#E8561B" d="M556.2,743.5c7.4,11.5,12.7,55.1,30.6,44.6
	c8.1-4.8,43.5-16.2,43.5-26.9c0-6.9-8-39.6-19-39.6C598,721.6,565.5,742.8,556.2,743.5 M515.5,757.3c8.6,18.8,18.1,37.5,35.6,49.3
	c13.1,8.8,66.2-14.4,78.5-25c16.6-14.3,38.7-21,28.5-47.5c-14.5-37.7-16.2-39.3-58.3-25.9c-6.9,2.2-84.3,39.7-84.3,44.3
	C515.5,754.1,514.9,756,515.5,757.3"/>
<polygon id="XMLID_2595_" fill-rule="evenodd" clip-rule="evenodd" fill="#399AA7" points="363.4,790 374,803.1 395.4,787.2 
	393.3,810 412.4,807.7 407.5,822.8 434.6,824.7 414,839.1 429,849 411.8,856.2 430.5,875.4 401.2,871.1 402.1,886.7 384.1,881.2 
	378.6,909.1 363.4,884.8 349.7,895.8 342.7,881.2 316.1,896.3 325.5,871.1 306.3,870.2 314.9,856.2 289.6,848.7 312.7,839.1 
	300.7,826.9 319.2,822.8 314.4,807.7 337.9,815.6 336.6,794.6 352.8,803.1 "/>
<path id="XMLID_2594_" fill-rule="evenodd" clip-rule="evenodd" fill="#006BAB" d="M342.2,590.5c-4.5,5.4-9.3,10.1-14.1,15.8
	c-1.5,1.8-13.2,14.3-13,15.1c0.5,3.6,5.9,13.9,7.5,18.9c0.4,1.4,5.6,12.6,6.5,12.9c3.3,1.3,4.4,3.5,8.8,4.8
	c4.1,1.2,21.5,10.1,23.7,9.9c0.1,0,22.3-23.6,24.4-25.1c1-0.7,6.8-6.2,6.1-7c-4.6-5.5-6.1-9.9-11.4-16c-6.9-8.1-4.4-11.2-15.8-16.3
	c-1.8-0.8-11.9-8.2-14.6-9C348.9,594.1,342.6,590.1,342.2,590.5"/>
<path id="XMLID_2593_" fill-rule="evenodd" clip-rule="evenodd" fill="#006BAB" d="M378.5,74.8c2.9-1.9,34.2-17.6,34.8-13.1
	c2.4,17.2-5.2,13.1-20.9,16.6c-1.7,0.4-12.9,2-13.2,0.5C379.1,78.1,378,75.2,378.5,74.8"/>
<path id="XMLID_2592_" fill-rule="evenodd" clip-rule="evenodd" fill="#006BAB" d="M377.2,95c12.8-6.2,19.9-2.9,31.2-4
	c0.6,4-0.7,14.2-5.5,14.4c-3.5,0.2-24.2-1.6-25.6-4.9C376.8,99.5,376.1,95.6,377.2,95"/>
<path id="XMLID_2591_" fill-rule="evenodd" clip-rule="evenodd" fill="#006BAB" d="M663.3,35.6c14.9,20.3,3.4,37.6,9.4,49.6
	c7.6,0.7,12.9,4.3,17.7-6.8c4.3-9.9,5.4-10.8,1.7-21c-3-8.3-15.8-15.7-23.6-19.3C667.3,37.7,663.3,35.7,663.3,35.6"/>
<path id="XMLID_2590_" fill-rule="evenodd" clip-rule="evenodd" fill="#006BAB" d="M687.4,28.7c9,2,36.9,6.3,31.4,21
	c-0.9,2.4-19.1,12.5-23.1-4.4C695.1,42.7,687.2,28.6,687.4,28.7"/>
<path id="XMLID_2589_" fill-rule="evenodd" clip-rule="evenodd" fill="#006BAB" d="M979.5,243.5c16.1,17.8-11.2,51.2,20,48
	c8.1-0.8,18.2-15.8,12.3-26.9c-7.6-14.4-11.3-20.4-27.7-26.1C975.1,235.5,977.1,240.9,979.5,243.5"/>
<path id="XMLID_2586_" fill-rule="evenodd" clip-rule="evenodd" fill="#399AA7" d="M854,315.8c-3.9,14.4-1.2,34.9-16.3,52.7
	c-11.5,13.5,30.9,15.4,32-28.6C869.9,331.7,858.1,300.7,854,315.8"/>
<path id="XMLID_2583_" fill-rule="evenodd" clip-rule="evenodd" fill="#399AA7" d="M887.3,325.1c-0.8,3.8,2.7,12.6,1.8,18.2
	c-2.2,12.7-9.6,24-16.4,30.7c-2.1,2.1-18,15.4-1.2,13.3c8.7-1.1,35.5-18.9,35.7-33.2C907.7,329.7,888.7,318.6,887.3,325.1"/>
<path id="XMLID_2580_" fill-rule="evenodd" clip-rule="evenodd" fill="#E8561B" d="M789.1,540.5c-34.9,24.6-37.7,110.5,8.7,82
	c7.3-4.5,7.2-24.8-3.5-35C777.6,571.6,789,540.5,789.1,540.5"/>
<path id="XMLID_2577_" fill-rule="evenodd" clip-rule="evenodd" fill="#E8561B" d="M805.6,635.7c17.8,47.8-40.3,55.2-31,24.3
	c2.7-9.1,12.8-6.7,21.7-13.4C802.1,642.2,805.7,635.1,805.6,635.7"/>
<path id="XMLID_2576_" fill-rule="evenodd" clip-rule="evenodd" fill="#006BAB" d="M992.1,690.5c-10.7-0.7-22.1,9.6-12.7,24.9
	c21.6,34.9-26.1,26.1-3.4,48.2c18.2,17.6-11.4,20.8,15.3,39.5c4.1,2.8,25.3,9.4,24.8-5.9c-0.2-5.5-31.8,0.8-22.5-20.6
	c5.8-13.2-26.9-14.9-8.6-28.5c20-14.8-13.5-36.3,7.1-47.2c20.8-10.9-4-38.4-4.4-25.9c-0.1,3.3,4.3,1.5,4.1,14.2L992.1,690.5z"/>
<path id="XMLID_2575_" fill-rule="evenodd" clip-rule="evenodd" fill="#006BAB" d="M743.2,781c-1.4,1-8.2-12-12.2-16.3
	c-0.3-0.3-8.4-13.9-5-15c16.1-5.2,11.8-1.1,16.9,15.5C745.4,773.1,745.1,779.6,743.2,781"/>
<path id="XMLID_2574_" fill-rule="evenodd" clip-rule="evenodd" fill="#006BAB" d="M757.6,790.5c0-18-4.9-21.9-0.9-38.3
	c2.8-11.5,1.3-17.5,18.9-10.8c8,3-12.1,38.1-13.6,48.6C761.5,793,757.6,794,757.6,790.5"/>
<path id="XMLID_2573_" fill-rule="evenodd" clip-rule="evenodd" fill="#006BAB" d="M774,793c1.6-1.3,19.9-25.5,20.6-25.4
	c5.5,0.2,16.6,12,2,18.6c-4.8,2.2-11.1,8.1-16.8,9.6C778,796.2,772.4,794.3,774,793"/>
<path id="XMLID_2572_" fill-rule="evenodd" clip-rule="evenodd" fill="#006BAB" d="M497.7,766.6c-3.2,0.2-9.6,2.3-15.5,2.7
	c-6.7,0.4-48.7,2.5-49.9,9.8c-0.4,2.5,2.1,14.8,5.2,14.3c5.6-0.9,15.6-8.7,26.8-8.8c4,0,35.4-10.7,35.4-10.9
	C500.2,771.8,499.9,766.5,497.7,766.6"/>
<path id="XMLID_2571_" fill-rule="evenodd" clip-rule="evenodd" fill="#006BAB" d="M502.3,786.5c-8.7,3.9-17.7,9.1-27.3,13.3
	c-2.7,1.2-25.2,12-24.1,15.2c1.7,4.7,9.8,16.6,15.2,9.8c13.1-16.5,22.3-17.3,36.3-30.4C506.8,790.3,504.7,785.4,502.3,786.5"/>
<path id="XMLID_2568_" fill-rule="evenodd" clip-rule="evenodd" fill="#E8561B" d="M360.2,697.3c-3.6,48.2-2.3,27.6,21.5,51.4
	c1.6,1.6,26.3-20.2,25.9-24c-2.9-26.3,14.9-22.3-13-41.3c-9.5-6.5-4-2.2-20.9,4.2C371,688.7,360.4,694.8,360.2,697.3"/>
<path id="XMLID_2565_" fill-rule="evenodd" clip-rule="evenodd" fill="#E8561B" d="M106.9,714.3c0.3-10.5,25.9-23.3,35.6-23.3
	c8.9,0,27.4-3.2,23,12.8c-0.8,2.9-17.8,2.6-23,5.3c-11.5,6-8.4,4-16.7,12.2c-4.2,4.1-19.5,7.2-19.5-4.6
	C106.3,715.3,106.8,715.5,106.9,714.3"/>
<path id="XMLID_2562_" fill-rule="evenodd" clip-rule="evenodd" fill="#E8561B" d="M127.9,743.9c3.8-14,13.7-21.1,27.8-21.1
	c5.8,0,12.5,8.3-0.6,12.3c-7.7,2.3-11.2,5.1-15.7,11.5C136.8,750.2,126.6,748.7,127.9,743.9"/>
<path id="XMLID_2559_" fill-rule="evenodd" clip-rule="evenodd" fill="#E8561B" d="M152.7,771.1c-4.1-7-6.6-14.3,5-15.8
	c4.7-0.6,17.1,7.2,10.6,13.6c-3.1,3.1-11.2,5.2-15.1,2.2C153,770.9,152.7,771,152.7,771.1"/>
<path id="XMLID_2558_" fill-rule="evenodd" clip-rule="evenodd" fill="#006BAB" d="M196.9,363.4c17.1,7,35.1,19.5,58.4,28.6
	c4.6,1.8,35.1,14,19.2,21.5c-15.8,7.5,0.9,15.4-32.6-7c-12.2-8.2-40.6-34.6-49.2-37.6L196.9,363.4z"/>
<path id="XMLID_2557_" fill-rule="evenodd" clip-rule="evenodd" fill="#006BAB" d="M176.4,369.5c-2,10.8-14-0.8,6.6,35
	c2.5,4.4,16.4,33.6,16.5,33.7c42.2-34.6,6.4-21.8-17.5-63C181.2,373.8,176.3,369.9,176.4,369.5"/>
<path id="XMLID_2554_" fill-rule="evenodd" clip-rule="evenodd" fill="#E8561B" d="M471.9,295.6c12.9-35.3-23-27.5-22-48.4
	c0.3-7,44.2,0.2,28-13.9c-3.6-3.2-40.6-4.3-47.3-19.4c-8.6-19.4,88.6-25.7,94.7-17.9c9.3,11.9-2,30.2-17.8,22.7
	c-31.4-15.1-68,4.1-24,2.5c29.1-1.1,43.5,35.9,7.8,35.2c-27.5-0.5-1,18.2-13.2,32C476.8,290,471.5,296.7,471.9,295.6"/>
<path id="XMLID_2551_" fill-rule="evenodd" clip-rule="evenodd" fill="#E8561B" d="M240.7,208.3c-6.1-0.3-42.6,32.7-23.6,49.5
	c6.1,5.4,18.3-3.5,18.3-12.1c0-14.7-3.8-22.5,5-34.2C241.1,210.7,241.2,208.3,240.7,208.3"/>
<path id="XMLID_2548_" fill-rule="evenodd" clip-rule="evenodd" fill="#E8561B" d="M263.1,194.4c-5.1-10.2-17.7,6.9-24.3,7.4
	c-2.4,0.2-9.7-0.7-12.9-2.7c-3.3-2.1-2.7-8.3-2.3-10.2C225.5,180.2,257.2,176.9,263.1,194.4"/>
<path id="XMLID_2545_" fill-rule="evenodd" clip-rule="evenodd" fill="#399AA7" d="M589.2,228c-10.7-12.6-9.1-39.1,2.5-50.5
	c15.6-15.1,20.4-13.7,7-13.7c-19.6,0-28.9,32.1-24.3,47.4c1.1,3.8,6.4,27.6,14.8,22.7C589.7,233.6,589.7,228.5,589.2,228"/>
<path id="XMLID_2544_" fill-rule="evenodd" clip-rule="evenodd" fill="#006BAB" d="M333.3,559.3c0.3,0,46.2,23.3,55.1,27
	c3.6,1.5,13,26.7,15.5,31.7c1.3-3.8,1.8-47.2-4-49.1c-25.3-8.4-26-10.2-53.9-15.5C338.6,551.9,315.2,556.3,333.3,559.3"/>
<path id="XMLID_2543_" fill-rule="evenodd" clip-rule="evenodd" fill="#006BAB" d="M290.1,496.8c1.9,0.1,21.8,7.6,23.7,14.9
	c2.3,8.8,2,32.5,10.4,13.3c1.1-2.6,3.8-28.2-6.2-32.2C307.9,488.8,269.6,496,290.1,496.8"/>
<path id="XMLID_2540_" fill-rule="evenodd" clip-rule="evenodd" fill="#E8561B" d="M858.2,483.4c6.4-0.7,67.5-24.2,67.4-28.7
	c-0.2-8.6-17.1-45.7-17.1-45.9c-2.7-0.3-70,23.7-71.3,28.6c-1.1,4.5,0.6,4.6,2.7,10.1C837.1,435.1,852.1,484.1,858.2,483.4"/>
<path id="XMLID_2537_" fill-rule="evenodd" clip-rule="evenodd" fill="#006BAB" d="M575.6,551.9c5,0,9.3-1.5,12.7-4.6
	c3.5-3.1,3.7-6.9,0.7-11.6c-3-4.9-12.1-11.5-27.5-20c-7.1-4.1-12.3-7.2-15.7-9.3c-3.4-2.1-7.4-5.1-11.9-9.1c-4.5-4-7.6-8-9.3-12.1
	c-4.5-11-4.6-21.3-0.2-30.9c4.4-9.6,12.2-17,23.5-22.1c8.8-3.9,17.9-5.8,27.5-5.8c17.6,0,33.8,5.2,48.7,15.7
	c-3.1,10.9-9.3,21-18.3,30.3c-9.9-8.8-20.5-13.1-32-13.1c-3.4,0.5-6.5,1.9-9,4.3c-2.6,2.4-3.1,5.3-1.5,8.6c1.1,2,8.4,6.9,21.9,14.6
	c3.6,2,6.5,3.7,8.8,4.9c2.3,1.3,5.1,3,8.3,5.2c3.3,2.2,6,4.1,8.1,5.8c2.1,1.6,4.5,3.7,7.1,6.1c2.6,2.4,4.6,4.8,6.1,7.1
	c1.5,2.3,3,4.8,4.5,7.7c1.5,2.9,2.5,5.8,3.1,8.8c0.5,3,0.8,6.3,0.8,10c0,3.7-0.5,7.5-1.4,11.4c-3,12.2-9.9,21.4-20.7,27.6
	c-10.8,6.2-23.1,9.3-36.9,9.3c-23.4,0-44.6-9.5-63.7-28.6c9.1-12.5,18.3-22.6,27.7-30.3C550.9,545.2,563.8,551.9,575.6,551.9
	 M652,409.8c35.1,0.8,70.3,1.6,105.4,2.5c6.2,0.1,11.4,3.7,13.8,9.4c2.4,5.7,1.4,11.9-2.9,16.5c-20.4,22.2-40.9,44.4-61.3,66.6
	c-26.2,28.4-25.1,18.5-14.2,54.9c8.9,29.9,17.9,59.7,26.8,89.6c1.8,5.9,0,12-4.7,16.1c-4.7,4.1-10.9,5-16.6,2.4
	c-27-12.4-38.8-17.8-65.8-30.1c-34-15.6-48.3-21.3-78-0.8c-26.5,18.3-45.7,31.5-72.2,49.8c-5.1,3.5-11.4,3.7-16.7,0.5
	c-5.3-3.2-8.1-8.9-7.4-15c4-30,6.5-38.1,10-74.5c3.5-37.2,7.6-46.8-21.8-69.2c-24.3-18.5-48.7-37.1-73-55.6
	c-4.9-3.8-7.1-9.7-5.7-15.7c1.4-6,5.9-10.4,12-11.7c30.5-6.1,61.1-12.3,91.6-18.4c36.8-7.4,32.4-11.1,44.9-46.6
	c10.2-29,16.9-48.2,27.1-77.1c2.1-5.8,7-9.7,13.2-10.3c6.2-0.5,11.8,2.4,14.8,7.8c17.9,31.8,26.5,47,44.4,78.7
	C625.5,396.6,631.7,409.3,652,409.8"/>
</svg>
