<?xml version="1.0" encoding="utf-8"?>
<!-- Generator: Adobe Illustrator 19.0.0, SVG Export Plug-In . SVG Version: 6.00 Build 0)  -->
<svg version="1.1" id="Layer_1" xmlns="http://www.w3.org/2000/svg" xmlns:xlink="http://www.w3.org/1999/xlink" x="0px" y="0px"
	 viewBox="0 0 260.6 68.3" enable-background="new 0 0 260.6 68.3" xml:space="preserve">
<g id="XMLID_838_">
	<path id="XMLID_855_" fill="#E66824" d="M26.7,52.3c0.1,6.3-2.7,10.5-8.1,12c-4.5,1.3-11.4-0.8-14.7-5.2c-2-2.7-3.3-5.2-3.9-7.5
		c2.8-0.9,5.7-1.8,8.3-2.8c0,0.1,1.4,3.4,2,4.1c1.8,2.2,3.8,2.8,5.9,0.6c1-3.5-0.3-7.1-2.1-10.3c-4.8-8.9-18.6-24-5.9-32.5
		c9.3-6.2,20.3,1.5,21.9,10.3l-8.7,2.3c0-0.1,0-0.2-0.1-0.3c0-0.1-0.1-0.4-0.1-0.7c-0.1-0.3-0.1-0.6-0.2-0.8c-0.6-1.4-1.9-3.8-6-2.8
		c-1.2,0.3-1.2,2.1-1.1,2.9C14.8,32.8,26.4,38.8,26.7,52.3"/>
	<path id="XMLID_854_" fill="#0698A5" d="M54.9,0c0.1,0,0.2,0,0.3,0l0.2,9.6c-0.2,0-0.3,0-0.5,0h-8c-0.3,0-0.5,0-0.6-0.1
		c-0.2,0-0.3-0.1-0.4-0.1h-0.3c0.2,20.1-0.7,39.4-0.6,55.3l-9.6,1c0.2-18.7,0.7-37.6,0.4-56.2c-1.7,0.1-8.2-0.2-10-0.1l-0.2-9.1
		c3-0.3,11.5-0.4,16-0.4h4h4.1H54.9z"/>
	<path id="XMLID_851_" fill="#006BAB" d="M68.2,33.3l-3.2-16L63.6,34l4.6-0.3V33.3z M68.8,8.6c5.5,9.2,14.1,38.6,16.1,47l-10,1.2
		c-1.1-4.3-3.2-12.1-3.7-13.7c-0.3,0.1-0.8,0.1-1.4,0.1c-4.9,0.4-7.6,0.6-8.1,0.6c-0.4,2.2-1.9,15.1-1.9,15.7c0,0.1,0,0.2,0,0.3
		l-11.1,0.1c0-0.3,0-0.6,0-0.9c0.5-6.3,7.8-41.9,11.2-50.1L68.8,8.6z"/>
	<path id="XMLID_848_" fill="#E66824" d="M133.2,29.6l-3.2-16l-1.4,16.7l4.6-0.3V29.6z M133.6,4.6c2.8,4.4,5.2,9.8,6.9,16.2l0.8,2.9
		c2.5,9.5,5.8,18.9,6.8,22.7c0,0.1,0,0.2,0,0.3l-9.8,1.5c-0.5-2-1.4-7-2-8.8c-0.3,0.1-0.8,0.1-1.4,0.1c-4.9,0.4-7.6,0.6-8.1,0.6
		c-0.4,2.2-0.7,3.6-0.8,4.2c0,0.6-0.1,1-0.4,1.5l-9.2-0.7c-0.1-0.4-0.1-0.8-0.1-1.2c0.3-4.4,1-9.1,2.3-14.1c0.1-0.7,0.3-1.8,0.7-3.3
		c0.4-1.5,0.6-2.7,0.7-3.5l0.3-1.9c1.6-7.1,3.2-12.4,4.7-16L133.6,4.6z"/>
	<path id="XMLID_845_" fill="#006BAB" d="M161,11.9c0,7.9,0.2,12.2,0.5,21.6C169,31.1,171.2,15.5,161,11.9 M162.2,46.3
		c0,0.9,0,8.6,0.1,10.4c0.1,1.8,0.1,3.2,0.1,4.2l0.3,7.5H153l-0.8-21.4c0-0.3,0-0.8-0.1-1.3c0-0.6-0.1-1-0.1-1.2
		c-0.4-11.3-0.7-24-0.9-38.3L151,0.2C184.9,0.4,182.6,35.9,162.2,46.3"/>
	<path id="XMLID_844_" fill="#E66824" d="M211.3,50.7c0.1,0,0.2,0,0.4,0l0.3,9.9c-8.6,1.5-18.2,2.1-27,3.2c-0.2-3-0.4-6-0.6-9v0
		c0-0.8-0.1-1.6-0.2-2.6l-0.3-5.5c-0.7-15.7-1.5-25.2-1.5-34.5V8.5c0-0.4,0-1,0.1-1.9c0-0.5,0-1,0.1-1.3l9.7-0.6l0,0
		c0,0.4,0,1-0.1,1.8c0,0.8-0.1,1.3-0.1,1.7c0,15.1,1,28.1,1.9,44.3L211.3,50.7z"/>
	<path id="XMLID_843_" fill="#ECB721" d="M225,36.5l0.3,8.8c-2.7,0.1-20.9,0.1-24.5,0.1c0-6.3-0.2-11.3-0.5-17.5
		c-0.4-7.9-0.7-15.1-0.7-22.9c6.9,0,13.6-0.2,20.4-0.4l0.3,9.7l-0.2,0c-0.3,0-0.6,0-1.1,0.1c-0.5,0-0.8,0.1-1,0.1h-2.9
		c-1.2,0-5.5,0-6.4,0.1c0,1.7,0.3,2.6,0.5,4.4c1.3,0,6.1-0.1,7.9-0.3c0.1,0,0.2,0,0.3,0l0.3,9.7c-0.2,0-0.3,0-0.5,0
		c-0.4,0-1.2,0-2.2-0.1c-1,0-5.1,0-5.4,0.1c0.4,2.6,0.2,5.6,0.3,7.8C214.7,36.3,220.6,36.7,225,36.5"/>
	<path id="XMLID_842_" fill="#0698A5" d="M225.1,7.1c0,0.1,0,0.2,0.1,0.3c3.4,6.6,7.4,15.1,11.8,25.5l-12.6,25.3l9.3,2.7l3.9-7.9
		l2.2-4.4l1.9-3.8c2.1,5.2,4.3,11.4,6.5,18.7l9.6-0.2c0.1-0.4,0.1-0.7,0-1.1c-3-9.6-6.3-19.3-10.2-29.2l7.9-15.8l4.9-9.7l0,0.1
		c0.1-0.2,0.2-0.4,0.2-0.6l-10-1.5l-2,4c-2.3,4.5-4.3,8.4-5.7,11.6c-2.1-4.7-4.6-10.1-7.5-16.1L225.1,7.1z"/>
	<path id="XMLID_839_" fill-rule="evenodd" clip-rule="evenodd" fill="#ECB721" d="M100.5,10l1.4,4.8l4.5,0l0,0l0.5,0.6l-3.6,4.1
		l1.4,5.6l-0.4,0.2L99.9,22l-4.6,3.8l-0.6-0.5l2.1-6L93,15.6l0.4-0.7l0,0l4.7,0l1.7-4.8l0.1,0L100.5,10z M98.7,43.7
		c8.4,13.2,20,22.8,44.1,19.1v-9.7c-18.9,3.7-32.6-6.3-41-19.6c7.1-3.2,13.4-7.9,13.2-16.3c-0.1-2.8-0.9-5.2-2.5-7.1
		c-1.6-1.9-3.6-3.3-6.1-4.1c-2.5-0.8-4.9-1.4-7.2-1.6c-4.2-0.5-8.2-0.2-12.4-0.1l0.4,8.2c0.1,3.4,0.2,7.6,0.5,12.6
		c0.4,6.8,0.5,11.9,0.5,15.3c0,3.9-0.1,20.8-0.4,24.1h10.6C98.6,61.9,98.7,46.1,98.7,43.7"/>
</g>
</svg>
