<?xml version="1.0" encoding="utf-8"?>
<!-- Generator: Adobe Illustrator 19.0.0, SVG Export Plug-In . SVG Version: 6.00 Build 0)  -->
<svg version="1.1" id="Layer_1" xmlns="http://www.w3.org/2000/svg" xmlns:xlink="http://www.w3.org/1999/xlink" x="0px" y="0px"
	 viewBox="0 0 404.8 366.3" enable-background="new 0 0 404.8 366.3" xml:space="preserve">
<path id="XMLID_175_" fill-rule="evenodd" clip-rule="evenodd" fill="#131C28" d="M328.1,181.6c-10.6,1.8-21.8,3.7-32.2,5.7
	c-7-31.6,20.6-25.8,24.9-20.2C325.4,173,327.3,177.8,328.1,181.6 M254.6,201.3c-0.8,5.2,14.7,79.8,14.6,95.7c0,5.5,0.6,23.4,7,23.8
	c33.6,2.3,24.6,0,56.5-4.7c17.1-2.6,58-7,71.6-17.3c2.5-1.8-7.1-56.2-8.8-64.8c-1-5.1-21.1-59-21.3-59.5c-0.1-0.1-14.6,2-33.6,5.1
	c-3.1-10.7-12.4-28.5-20-28.9c-36.9-2.4-39.6,10.9-34.6,38.6c-19.6,3.9-34.5,7.5-33.4,9.3C253.5,200.2,254.6,201,254.6,201.3"/>
<path id="XMLID_2052_" fill-rule="evenodd" clip-rule="evenodd" fill="#E8561B" d="M248.1,143.7c6.4-0.7,67.5-24.2,67.4-28.7
	c-0.2-8.6-17.1-45.7-17.1-45.9c-2.7-0.3-70,23.7-71.3,28.6c-1.1,4.5,0.6,4.6,2.7,10.1C227,95.4,242,144.4,248.1,143.7"/>
<path id="XMLID_2065_" fill-rule="evenodd" clip-rule="evenodd" fill="#006BAB" d="M335.3,92.7c14.9,20.3,3.4,37.6,9.4,49.6
	c7.6,0.7,12.9,4.3,17.7-6.8c4.3-9.9,5.4-10.8,1.7-21c-3-8.3-15.8-15.7-23.6-19.3C339.3,94.8,335.4,92.8,335.3,92.7"/>
<path id="XMLID_2063_" fill-rule="evenodd" clip-rule="evenodd" fill="#006BAB" d="M359.4,85.8c9,2,36.9,6.3,31.4,21
	c-0.9,2.4-19.1,12.5-23.1-4.4C367.1,99.8,359.2,85.7,359.4,85.8"/>
<g id="XMLID_143_">
	<g id="XMLID_470_">
		<polyline id="XMLID_483_" fill="#FFC217" points="15.9,53.6 28.2,94 53.1,88.5 29.9,40.7 		"/>
		<path id="XMLID_481_" fill="#FFC217" d="M30.5,33.4"/>
		<path id="XMLID_476_" fill="#FFC217" d="M2.7,29.4C-1,35.1-1.2,44.4,4.2,50c2.9,3,6.8,4.3,10.5,4.4s7.1-0.8,10.5-1.8
			c5.3-1.6,10.7-3.5,14.5-7.6c3.8-4.1,5.5-11,2.5-16.9c-3.8-7.5-14.1-11.2-20.9-10.6C14.5,18.1,6.4,23.9,2.7,29.4z"/>
	</g>
	<path id="XMLID_447_" fill="#FFFEED" d="M104.1,111.1L50.6,63.5c0,0-25.2,28.8-26.8,41.4l57.7,36.5"/>
	<polygon id="XMLID_446_" fill="#E8561B" points="93.6,198.3 137.6,329.6 153.7,329.6 185.2,191.4 	"/>
	<g id="XMLID_433_">
		<polygon id="XMLID_445_" fill="#131C28" points="140.5,329.6 136.2,329.5 139.8,187.7 142,187.7 		"/>
	</g>
	<polyline id="XMLID_409_" fill="#FFFEED" points="83,109.8 78.6,201.1 193.3,201.1 200.7,109.8 	"/>
	<line id="XMLID_393_" fill="#FFFEED" x1="200.7" y1="109.8" x2="83" y2="109.8"/>
	<g id="XMLID_258_">
		<path id="XMLID_391_" fill="#FFC217" d="M141.5,125.9c-5.5,4.4-9,7.6-9.3,14.6c-0.1,2.3,0.1,4.7,1.1,6.8c1,2.1,2.9,3.8,5.2,4.2
			c2.2,0.4,4.6-0.6,6.1-2.3s2.4-3.9,2.7-6.1c0.3-2.3,0-4.5-0.4-6.8C146,131.5,144.4,129.7,141.5,125.9"/>
		<path id="XMLID_386_" fill="#FFC217" d="M138,154.6c0.5-2.8,0.1-5.8-1.4-8.3c-2.3-3.7-6.8-5.5-11.1-5.6c-4.3-0.2-8.5,1.1-12.7,2.3
			c0.1,3.3,0.9,6.7,2.5,9.6c1.6,2.9,4.1,5.4,7.2,6.7c2.6,1.1,5.6,1.3,8.3,0.5s5.2-2.4,6.9-4.7"/>
		<path id="XMLID_381_" fill="#FFC217" d="M167.1,148c-2.9-3.8-8.3-6.7-13.1-6.6c-4.8,0.1-9.4,2.5-12.2,6.3
			c-1.3,1.7-2.2,3.9-1.8,5.9c0.3,1.5,1.3,2.8,2.5,3.7c1.2,0.9,2.7,1.5,4.2,1.8c4.1,0.9,8.6,0.3,12.3-1.7
			C162.7,155.4,165.7,152,167.1,148"/>
		<path id="XMLID_335_" fill="#FFC217" d="M135.1,157.3c-4.8-0.4-9.7,1.3-13.1,4.7c-3.4,3.3-5.3,8.2-5,13c0,0.6,0.1,1.2,0.5,1.7
			c0.4,0.5,1.1,0.6,1.7,0.7c4.1,0.6,8.4-0.1,11.9-2.2c3.6-2.1,6.4-5.4,7.9-9.2c0.6-1.7,1-3.5,0.4-5.2c-0.6-1.7-2.4-3-4.2-2.5"/>
		<path id="XMLID_280_" fill="#FFC217" d="M139.9,157.8c-0.5,2.6-1.8,5.6-1.7,8.2c0.1,2.6,1.6,4.8,3.1,7c1.9,2.6,4.9,4.2,8.1,4.7
			c3.2,0.5,6.4,0,9.5-1c0.1-3.6-0.4-7.3-1.9-10.6c-1.5-3.3-4-6.2-7.2-7.8c-3.3-1.6-7.3-1.7-10.5,0"/>
	</g>
	<path id="XMLID_254_" fill="#131C28" d="M137.5,147.4c-3,0.1-5.9,2.1-7.1,4.9s-0.6,6.3,1.5,8.5c2,2.3,5.4,3.2,8.4,2.3
		c2.8-0.9,5-3.4,5.5-6.3c0.4-2.3-0.3-4.7-1.7-6.4c-1.5-1.8-3.7-2.9-6-2.9"/>
	<g id="XMLID_168_">
		<g id="XMLID_252_">
			<path id="XMLID_253_" fill="#FFC217" d="M140.7,98.9c27.6,0,67.8-22,67.8-46.2c0-34-30.8-52.1-68.3-52.7S67.4,14.5,71,47.2
				C74.7,80.1,113.1,98.9,140.7,98.9z"/>
		</g>
		<path id="XMLID_250_" fill="none" d="M158,38.6c-4.2,4.4-14.6-2.9-16.8-4.5c-2.2-1.6,0.7-4.8,0.7-4.8c2.6-2.6,9.1-3.3,12.5-1.9
			C157.8,28.9,162.1,34.3,158,38.6z"/>
		<g id="XMLID_201_">
			<g id="XMLID_131_">
				<path id="XMLID_136_" fill="#131C28" d="M119.8,23.7c-2-4.9-9.7-8.3-17.4-5.9c0,0-13.5,4.2-14,16.8c-0.5,12.6,16.9,10.9,24.9,7
					S121.7,28.7,119.8,23.7z M115.5,34.3c-4.2,4.4-14.6-2.9-16.8-4.5c-2.2-1.6,0.7-4.8,0.7-4.8c2.6-2.6,9.1-3.3,12.5-1.9
					C115.4,24.5,119.7,29.9,115.5,34.3z"/>
				<path id="XMLID_133_" fill="#131C28" d="M157.7,23.3c-4.2-2.7-12.4-2.2-15.4-0.7c0,0-8.4,3.1-11.6,10.2
					c-3.2,7-1.8,13.5,12.4,14.2c14.2,0.6,19.7-5.6,21.1-9.6C165.6,33.2,161.9,26,157.7,23.3z M158,38.6c-4.2,4.4-14.6-2.9-16.8-4.5
					c-2.2-1.6,0.7-4.8,0.7-4.8c2.6-2.6,9.1-3.3,12.5-1.9C157.8,28.9,162.1,34.3,158,38.6z"/>
				<path id="XMLID_132_" fill="#131C28" d="M140.2,52.7c0,0-2.5,7.9-10.7,8.8c-10.3,1.1-12.9-11.5-12.9-11.5l5.2-1.9
					c0,0,2,7.7,4.8,9c2.8,1.4,7.2,0.7,11.4-5.9L140.2,52.7z"/>
			</g>
		</g>
	</g>
	<polygon id="XMLID_158_" fill="#131C28" points="86.9,348.4 138.6,306.6 140.3,329.6 	"/>
	<polygon id="XMLID_157_" fill="#131C28" points="158.7,307.5 140.5,329.6 160.9,366.3 169.4,329.6 	"/>
	<polyline id="XMLID_152_" fill="#FFC217" points="197.5,252.7 186.3,203.5 215,200.3 216.1,257 	"/>
	<path id="XMLID_151_" fill="#FFFEED" d="M176.7,165.7l-5.3,45c0,0,43.1,5,60.7-0.8l-31.3-100.1"/>
	<path id="XMLID_150_" fill="#FFC217" d="M202.3,248.4c-5.3-0.9-10.9-0.1-14.5,3.4c-5.2,5-4.8,14.5-0.3,21.1s12.2,10.6,19.8,11.9
		c4.7,0.8,9.6,0.7,13.6-1.4c4.9-2.6,7.8-8.3,7.3-14.1C227.1,257,212.7,250.2,202.3,248.4z"/>
</g>
</svg>
