<?xml version="1.0" encoding="utf-8"?>
<!-- Generator: Adobe Illustrator 19.0.0, SVG Export Plug-In . SVG Version: 6.00 Build 0)  -->
<svg version="1.1" id="Layer_1" xmlns="http://www.w3.org/2000/svg" xmlns:xlink="http://www.w3.org/1999/xlink" x="0px" y="0px"
	 viewBox="0 0 413.3 203.6" enable-background="new 0 0 413.3 203.6" xml:space="preserve">
<g id="XMLID_194_">
	<g id="XMLID_211_">
		<path id="XMLID_228_" fill="#E66824" d="M404.2,0H166.6c-5.9,0-11.5,6.5-12.5,14.5l-21.7,174.7c-1,8,3,14.5,8.9,14.5h30.1
			l15.5-124.7h177.4l-15.5,124.7h30.1c5.9,0,11.5-6.5,12.5-14.5l21.7-174.7C414.1,6.5,410.1,0,404.2,0z M205.4,55.2
			c-9.9,0-17.1-6.8-16.1-15.2c1-8.4,9.9-15.2,19.9-15.2s17.1,6.8,16.1,15.2S215.3,55.2,205.4,55.2z"/>
		<g id="XMLID_222_">
			<polygon id="XMLID_227_" fill="#E66824" points="348.7,203.6 171.4,203.6 173.2,189 350.6,189 			"/>
		</g>
	</g>
	<g id="XMLID_306_">
		<path id="XMLID_198_" fill="#E66824" d="M100.3,0c-5.9,0-11.5,6.5-12.5,14.5L66.1,189.1c-1,8,3,14.5,8.9,14.5h30.1l6.1-49.2
			L131.5,0"/>
	</g>
	<g id="XMLID_199_">
		<path id="XMLID_200_" fill="#E66824" d="M34.4,0c-5.9,0-11.5,6.5-12.5,14.5L0.2,189.1c-1,8,3,14.5,8.9,14.5h30.1l6.1-49.2L65.6,0"
			/>
	</g>
</g>
</svg>
