<?xml version="1.0" encoding="utf-8"?>
<!-- Generator: Adobe Illustrator 19.0.0, SVG Export Plug-In . SVG Version: 6.00 Build 0)  -->
<svg version="1.1" id="Layer_1" xmlns="http://www.w3.org/2000/svg" xmlns:xlink="http://www.w3.org/1999/xlink" x="0px" y="0px"
	 viewBox="0 0 493.6 358.7" enable-background="new 0 0 493.6 358.7" xml:space="preserve">
<g id="XMLID_511_">
	<g id="XMLID_1034_">
		<path id="XMLID_2476_" fill-rule="evenodd" clip-rule="evenodd" fill="#E8561B" d="M48.7,2.4c2.2,25.7,9.2,51.6,11.6,80.4
			c0.3,3.8,12.9,97,13.1,97.9c1.9,7.8,2.6,9.2,13,5.6c1.2-0.4-12.7-81.8-17.1-116.7c18.4-11.2,43.5-21.3,58.8-33
			c9.9-7.6,32-13.3,10.8-16.2C128.4,18.9,60.2,0,59.7,0.1C59.1-0.5,48.6,1.5,48.7,2.4"/>
		<path id="XMLID_2475_" fill-rule="evenodd" clip-rule="evenodd" fill="#006BAB" d="M50,123.4c1.6,0.8-7,12.8-9,18.2
			c-0.1,0.4-8.7,13.8-11.2,11.2c-11.9-12-6.3-10,6.2-22.1C42,125,47.9,122.3,50,123.4"/>
		<path id="XMLID_2150_" fill-rule="evenodd" clip-rule="evenodd" fill="#006BAB" d="M52,106.2c-16.1,8.1-17.4,14.2-33.8,18.1
			C6.7,127,2,131,0,112.3c-0.9-8.5,39.4-6.4,49.5-9.7C52.5,101.6,55.1,104.6,52,106.2"/>
		<path id="XMLID_2146_" fill-rule="evenodd" clip-rule="evenodd" fill="#006BAB" d="M46.8,90.4c-1.9-0.8-31.7-6.2-32-6.9
			c-2.3-5,3.2-20.2,15.7-10.2c4.1,3.3,12.3,6.3,16.2,10.7C47.9,85.4,48.7,91.3,46.8,90.4"/>
	</g>
	
		<rect id="XMLID_237_" x="51" y="169.9" transform="matrix(0.9848 0.1737 -0.1737 0.9848 46.813 -39.4872)" fill="#DCE0E2" width="396" height="155.6"/>
	<g id="XMLID_165_">
		<g id="XMLID_468_">
			<g id="XMLID_23_">
				<path id="XMLID_24_" fill="#131C28" d="M272.2,211.6c0-0.1-0.1-0.2-0.1-0.3c-3.9-2-7.5-4.4-10.6-7.1
					c-9.1-7.8-14.1-17.8-14.1-28.3c0-0.1,0-0.2,0-0.3c-12.2-10.8-28.5-18.6-49.4-18.6c-57.7,0-80.1,58.4-80.1,79.4
					c0,2.6,1,4.9,3.1,4.9h114.5C243.2,230.8,255,218.7,272.2,211.6z"/>
			</g>
		</g>
		<g id="XMLID_448_">
			<g id="XMLID_72_">
				<g id="XMLID_78_">
					<g id="XMLID_79_">
						<ellipse id="XMLID_80_" fill="#131C28" cx="198" cy="121.3" rx="49.5" ry="36.6"/>
					</g>
				</g>
				<g id="XMLID_73_">
					<g id="XMLID_76_">
						<path id="XMLID_77_" fill="#131C28" d="M227,296.1h154c2.1,0,3.1-2.3,3.1-4.9c0-20.5-22.4-79.4-80.1-79.4
							s-80.1,58.4-80.1,79.4C223.9,293.7,224.9,296.1,227,296.1z"/>
					</g>
					<g id="XMLID_74_">
						<ellipse id="XMLID_75_" fill="#131C28" cx="304" cy="176" rx="49.5" ry="36.6"/>
					</g>
				</g>
			</g>
		</g>
		<g id="XMLID_430_">
			<path id="XMLID_444_" fill="#E8561B" d="M276.6,86.1c0,0,2,21.2-22.3,21.2c0,0,49.6,2,49.6-21.2"/>
			<path id="XMLID_440_" fill="#E8561B" d="M257.5,109.9c-1.8,0-3,0-3.3-0.1l0.1-5c7,0,12.2-1.9,15.5-5.5c4.9-5.3,4.3-12.9,4.3-13
				l4.9-0.5c0,0.4,0.9,9.8-5.5,16.7c-0.4,0.5-0.9,0.9-1.4,1.4c9.2-1.1,19.8-3.6,25.4-9c2.6-2.5,3.9-5.4,3.9-8.9h5
				c0,4.8-1.8,9-5.4,12.5C290.3,108.9,266.3,109.9,257.5,109.9z"/>
		</g>
		<g id="XMLID_390_">
			<g id="XMLID_18_">
				<rect id="XMLID_19_" x="239.9" y="10.3" fill="#E8561B" width="145.4" height="75.8"/>
			</g>
		</g>
		<g id="XMLID_387_">
			<path id="XMLID_389_" fill="#006BAB" d="M385,142.4c0,0,2,21.2-22.3,21.2c0,0,49.6,2,49.6-21.2"/>
			<path id="XMLID_388_" fill="#006BAB" d="M365.9,166.2c-1.8,0-3,0-3.3-0.1l0.1-5c7,0,12.2-1.9,15.6-5.5c4.9-5.4,4.2-12.9,4.2-12.9
				l4.9-0.5c0,0.4,0.9,9.8-5.5,16.7c-0.4,0.5-0.9,0.9-1.4,1.4c9.2-1.1,19.8-3.6,25.4-9c2.6-2.5,3.9-5.4,3.9-8.9h5
				c0,4.8-1.8,9-5.4,12.5C398.7,165.2,374.7,166.2,365.9,166.2z"/>
		</g>
		<g id="XMLID_196_">
			<rect id="XMLID_216_" x="348.3" y="66.6" fill="#006BAB" width="145.4" height="75.8"/>
		</g>
	</g>
</g>
</svg>
