<?xml version="1.0" encoding="utf-8"?>
<!-- Generator: Adobe Illustrator 19.0.0, SVG Export Plug-In . SVG Version: 6.00 Build 0)  -->
<svg version="1.1" id="Layer_1" xmlns="http://www.w3.org/2000/svg" xmlns:xlink="http://www.w3.org/1999/xlink" x="0px" y="0px"
	 viewBox="0 0 113.2 98.2" enable-background="new 0 0 113.2 98.2" xml:space="preserve">
<g>
	<path d="M61.4,60.3c1.4,0.8,3,1.3,4.7,1.3c0,0,0,0,0,0c5.4,0,11.2-4,15.1-10.3c2.3-3.8,3.6-8.1,3.6-12c0-4.2-1.5-7.6-4.2-9.5l0,0
		l-0.4-0.3c0,0,0,0,0,0l-0.4-0.3l0,0c-1.3-0.7-2.7-1-4.3-1c0,0,0,0,0,0c-5.4,0-11.2,4-15.1,10.3c-2.3,3.8-3.6,8.1-3.6,12
		C56.7,54.9,58.4,58.5,61.4,60.3z M78.6,49.7c-3.2,5.2-8.3,8.9-12.5,8.9c0,0,0,0-0.1,0c-1.2,0-2.2-0.3-3.2-0.8
		c-2.1-1.3-3.2-3.8-3.2-7.2c0-3.3,1.1-7,3.2-10.4c3.2-5.2,8.3-8.9,12.5-8.9c1.2,0,2.3,0.3,3.2,0.8l0,0c2.1,1.3,3.2,3.8,3.2,7.2
		C81.8,42.6,80.7,46.3,78.6,49.7z"/>
	<path d="M108.1,29.8L108.1,29.8l-0.4-0.3c0,0,0,0,0,0l-0.4-0.3l0,0c-1.3-0.7-2.7-1-4.3-1c0,0,0,0,0,0c-1.2,0-2.4,0.2-3.6,0.6
		C91.8,14.1,76.5,4.1,59,4.1c-3.3,0-6.5,0.4-9.6,1l1.1-1.8c0.4-0.7,0.2-1.6-0.5-2.1c-0.3-0.2-0.7-0.3-1.1-0.2
		c-0.4,0.1-0.7,0.3-0.9,0.7l-2.8,4.5c-18.2,5.9-31.4,23-31.4,43.1c0,2,0.1,4,0.4,5.9L1.1,75.8c-0.4,0.7-0.2,1.6,0.5,2.1
		c0.2,0.2,0.5,0.2,0.8,0.2c0.5,0,1-0.2,1.3-0.7l11.2-17.7c2.2,9.5,7.5,17.9,14.6,24.1l-7,11.1c-0.2,0.3-0.3,0.7-0.2,1.1
		s0.3,0.7,0.7,0.9c0.2,0.2,0.5,0.2,0.8,0.2c0.5,0,1-0.2,1.3-0.7l6.8-10.8c7.6,5.7,17,9,27.1,9c22.3,0,40.8-16.1,44.6-37.3
		c1.9-1.6,3.7-3.7,5.1-6.1c2.3-3.8,3.6-8.1,3.6-12C112.3,35.1,110.8,31.7,108.1,29.8z M49.5,52c-3.1,4-7.3,6.6-10.9,6.5
		c-1.2,0-2.2-0.3-3.2-0.8c-2.1-1.3-3.2-3.8-3.2-7.2c0-3.3,1.1-7,3.2-10.4c3.2-5.2,8.3-8.9,12.5-8.9c1.2,0,2.3,0.3,3.2,0.8l0.1,0
		c2.1,1.3,3.2,3.8,3.2,7.2c0,3.3-1.1,7-3.2,10.4c-0.4,0.6-0.8,1.2-1.2,1.8c-0.1,0.1-0.2,0.2-0.3,0.3L49.5,52z M51.9,53.8
		c0.6-0.8,1.2-1.7,1.8-2.6c2.3-3.8,3.6-8.1,3.6-12c0-4.2-1.5-7.6-4.2-9.5l0,0l-0.4-0.3c0,0,0,0,0,0l-0.4-0.3l0,0
		c-1.3-0.7-2.7-1-4.3-1c0,0,0,0,0,0c-5.4,0-11.2,4-15.1,10.3c-2.3,3.8-3.6,8.1-3.6,12c0,4.4,1.7,8,4.7,9.8c1.4,0.8,3,1.3,4.7,1.3
		c0,0,0,0,0,0c1.9,0,3.9-0.5,5.8-1.4l-13.2,21C23.9,74.8,18.8,66,17.2,56L47,8.8c3.8-1.1,7.8-1.8,12-1.8c16.3,0,30.5,9.3,37.6,22.9
		c-3.2,1.7-6.3,4.7-8.6,8.5c-2.3,3.8-3.6,8.1-3.6,12c0,4.4,1.7,8,4.7,9.8c1.4,0.8,3,1.3,4.7,1.3c0,0,0,0,0,0c2.1,0,4.2-0.6,6.3-1.7
		c-4.7,18.3-21.3,31.8-41,31.8c-9.6,0-18.4-3.2-25.5-8.6L51.9,53.8z M16.7,49.4C16.7,32,27.3,17,42.4,10.5L16.7,51.1
		C16.7,50.6,16.7,50,16.7,49.4z M93.6,58.6c-1.2,0-2.2-0.3-3.2-0.8c-2.1-1.3-3.2-3.8-3.2-7.2c0-3.3,1.1-7,3.2-10.4
		c2-3.2,4.6-5.8,7.4-7.4c2.2,5.1,3.4,10.7,3.5,16.7c0,2.1-0.2,4.3-0.5,6.3C98.4,57.5,95.9,58.6,93.6,58.6
		C93.7,58.6,93.6,58.6,93.6,58.6z M104.3,48.9c-0.1-6.1-1.4-12-3.7-17.3c0.8-0.2,1.5-0.3,2.3-0.3c1.2,0,2.3,0.3,3.2,0.8l0,0
		c2.1,1.3,3.2,3.8,3.2,7.2c0,3.3-1.1,7-3.2,10.4c-0.6,1-1.3,1.9-2,2.8c0.1-0.8,0.1-1.7,0.1-2.6V48.9L104.3,48.9z"/>
	<path d="M71.6,70.9c0.4-0.2,0.8-0.5,1-0.9c0.2-0.4,0.4-0.8,0.4-1.3c0-0.6-0.2-1.1-0.5-1.5c-0.3-0.4-0.8-0.7-1.3-0.8
		c-0.3-0.1-0.9-0.1-1.7-0.1h-1.9v8.2h1.7v-2.9l2.2,2.9h2.2l-2.6-3.4C71.2,71,71.4,71,71.6,70.9z M71.1,68.3c0.1,0.1,0.1,0.2,0.1,0.4
		c0,0.2,0,0.3-0.1,0.4c-0.1,0.1-0.2,0.2-0.3,0.2c-0.1,0-0.3,0.1-0.9,0.1l-0.7,0V68h0.8c0.6,0,0.8,0.1,0.9,0.1
		C70.9,68.1,71,68.2,71.1,68.3z"/>
	<polygon points="73.8,68 75.4,68 75.4,74.5 77.1,74.5 77.1,68 78.7,68 78.7,66.3 73.8,66.3 	"/>
	<path d="M64.8,73.4c0.8-0.8,1.2-1.8,1.2-3c0-1.2-0.4-2.2-1.2-3c-0.8-0.8-1.9-1.2-3.1-1.2c-0.8,0-1.5,0.2-2.1,0.6l0,0
		c-0.7,0.4-1.2,0.9-1.5,1.6c-0.4,0.7-0.6,1.4-0.6,2.2c0,1.2,0.4,2.2,1.2,3c0.8,0.8,1.9,1.2,3.1,1.2C62.9,74.7,63.9,74.2,64.8,73.4z
		 M59.9,72.2c-0.5-0.5-0.7-1.1-0.7-1.8c0-0.5,0.1-0.9,0.3-1.3c0.2-0.4,0.5-0.7,0.9-0.9c0.8-0.5,1.7-0.5,2.5,0
		c0.4,0.2,0.7,0.5,0.9,0.9c0.2,0.4,0.3,0.8,0.3,1.3c0,0.5-0.1,0.9-0.3,1.3c-0.2,0.4-0.5,0.7-0.9,0.9c-0.4,0.2-0.8,0.3-1.3,0.3
		C61,73,60.4,72.7,59.9,72.2z"/>
	<polygon points="54.4,71 50.3,66.3 49.4,66.3 49.4,74.5 51.2,74.5 51.2,69.9 55.2,74.5 56.1,74.5 56.1,66.3 54.4,66.3 	"/>
	<polygon points="84.1,69.3 81.4,69.3 81.4,66.3 79.7,66.3 79.7,74.5 81.4,74.5 81.4,71 84.1,71 84.1,74.5 85.8,74.5 85.8,66.3 
		84.1,66.3 	"/>
</g>
</svg>
