<?xml version="1.0" encoding="utf-8"?>
<!-- Generator: Adobe Illustrator 19.0.0, SVG Export Plug-In . SVG Version: 6.00 Build 0)  -->
<svg version="1.1" xmlns="http://www.w3.org/2000/svg" xmlns:xlink="http://www.w3.org/1999/xlink" x="0px" y="0px"
	 viewBox="0 0 691.7 827.7" enable-background="new 0 0 691.7 827.7" xml:space="preserve">
<g id="Layer_1">
	<g id="XMLID_902_">
		<g id="XMLID_707_">
			<path id="XMLID_803_" fill-rule="evenodd" clip-rule="evenodd" fill="#112A3D" d="M216.9,290c5.7-2.7,52.8,5.5,55.9,11
				c0.1,0.1,6.1,4.7-2.3,6.1C259.5,308.8,201.7,297.3,216.9,290 M279.4,336.8c-0.9,4.3-7.3,29.5-6.6,31.7
				c2.3,6.6,10.3,11.7,16.9,7.6c7.8-4.8,9.3-9.3,10.3-18.5c1.2-10.4-1.2-26.5-15.6-23.1C282.7,334.9,279.5,336.4,279.4,336.8
				 M193.2,328c-1.6,8-11.6,53.6-8.9,58.1c7.2,12,42.8,18.6,56,18.3c36.3-1,14.6-16.1,28.9-13.7c8.4,1.4,16.3,9,27.7-3.5
				c10.3-11.3,17.2-29.2,15.2-44.9c-0.5-4.3-7.9-22.1-14.8-23.2c-30.1-4.6,4.2-11.2-24.8-28.9c-8.3-5-40.3-12.5-49.1-10
				c-8.7,2.5-18.9,1.5-25.3,21C196.7,305.6,193.4,327.2,193.2,328"/>
			<path id="XMLID_799_" fill-rule="evenodd" clip-rule="evenodd" fill="#112A3D" d="M201,781.9c-7.1-7.5-11.2-49.5,19.6-34.5
				c12.4,6,51.4,15.1,40.9,34c-3.7,6.6-25.8,17.1-36,13.6C218,792.3,206.1,787.3,201,781.9 M113.2,732.5c-10.1-8.1-9.9-34.7-2-42.8
				c7.4-7.6,7.4-4.5,17.4,0c6.5,3,23.1,19.4,28.7,25.3c10.2,10.9-10.3,32-32.8,24.2C121.4,738.2,115.5,734.4,113.2,732.5
				 M106.2,663.5c6.9,1.9,40.5,21.7,46.1,28.3c2.6,3.1,27,24.9,31.8,26.5c15.1,5.2,19.7,9.5,36.8,13.6c7,1.7,71.7,25.5,72.7,30.9
				c0.8,4.1-3,17.9-7.2,18.6c-12.2,2-9.4-0.4-17.5,9.4c-13.5,16.4-21.7,24.5-45,19.4c-12-2.6-24.6-8.8-33.1-17.6
				c-14.3-14.7-6.7-16.9-10.6-33.6c-1.6-6.9,3.8-20.1-13.5-22c-11.3-1.3-16.6,39.7-60.1,4.2c-5.4-4.4-11.6-24.6-9.7-32.1
				c0.7-3,2.7-17.3,1.6-20.4c-3.7-10.1-3.6-17.9,4.8-25.5C104.2,662.3,104.6,663,106.2,663.5"/>
			<path id="XMLID_796_" fill-rule="evenodd" clip-rule="evenodd" fill="#112A3D" d="M406.9,714.8c3.8,6.7-3.6,31.9,17.9,23.2
				c6.4-2.6,7.1-20,6.6-25.9L406.9,714.8z M293.1,707.5c15.4,12.7,8.8,40.4,35.6,21.7c3.1-2.2,8.6-2.5,10.3-1.3
				c6.2,4.3,2.2,25.7,4.5,33.6c5.2,18.2-1.1,39.9-0.4,59.5c0.2,6.5,12.5,3.3,28,5.4c47.4,6.5,72-12.7,82.6-12.8
				c4.6,0-10.3-84.5-7.3-91.6c0.8-1.8,7-1,10.2,1.2c7.4,5.2,13.9,8,17.2,9.6c2.5,1.2,7.9-11.8,14.1-26c1.3-3.1,4.7-6.2,2.4-8.5
				c-11-10.9-52.6-29.4-64.7-36.3c-2-1.2-10.6-1-18.1,2.8c0.3,4.1-10.2,17.6-20.9,18.7c-8.4,0.8-17.1-9.5-19.7-14.3
				c-2.1-3.9-4.9-1.9-15.8-1.3c-8.4,0.4-19.2,12.6-38.7,24.5C309.2,694.2,292,706.6,293.1,707.5"/>
			<path id="XMLID_793_" fill-rule="evenodd" clip-rule="evenodd" fill="#112A3D" d="M379.2,186.3c-8.1,4.3-21.8-10.5-1.2-4.7
				C382,182.7,381.2,185.3,379.2,186.3 M365,260.7c-7.8,6.7-26.9,21.8-36.8,21.7c-23-0.3-19.5,5-40.6-7.5c-8.5-5-16.1-11.4-26.1-13
				c-15.6-2.6,14.4-14.9,17.5-15.9c4.1-1.3,16.2-6.6,17.8-9.5c4.1-7.1,5.3-23.8,10.6-31.3c4.2-5.9,4.8-12.3,13.8-18.4
				c7.2-4.9,8.5-8,19.5-9.4c61.8-7.6,19.7-1.8,59.2,2.9c14.8,1.8,27.4,26,30.5,39.1c1.2,5.3,3.5,31.3-0.3,35
				c-11.5,11-55.2,2.1-69.5,1c-1.9-0.1-50.2-15.4-45.7-11.5c12.3,10.4,24.2,7.2,41.6,16.4C356.6,260.5,364.1,261.5,365,260.7"/>
			<path id="XMLID_789_" fill-rule="evenodd" clip-rule="evenodd" fill="#112A3D" d="M580.9,500c8.1,1.1,41,8.8,27.5-8.4
				c-4.1-5.3-47.2-13.7-52.2-8.8C548.4,490.5,573.9,499.1,580.9,500 M546.9,550.6c0.6,7-1.6,47.1,0.9,50.1
				c7.5,9.1,25.8,8.8,36.8,8.8c8.2,0,21.3-2.3,21.7-11.9c0.1-2.8,2.9-10.1,3.2-16.4c0.2-4.1,4.6-25.3,4-27.5
				c-7.7-3.1-13.9,1.5-23.7,1.5c-14.5,0-23.4,0-36.5-6C552.2,548.7,546.6,547,546.9,550.6 M534.1,517c0-8.9,0.2-5.5-5.7-13.5
				c-6-8.2,1.4-17,11-17.4c3.7-0.2-1.7-11.5,26.8-12.9c12.8-0.6,41.6,2.9,52.5,11.2c2,1.5,9.2,5,9,10.6c-0.1,4.1,24.1,3.6,6.5,23.6
				c-11.1,12.7-7.9,27.1-11.8,40.6c-1.4,4.9-4.1,24.1-5.5,28.3c-3.4,10.4-6.4,40.2-8.8,45.3c-4.6,9.5-4.7,8.6-15.8,13.2
				c-7.1,3-22.5,1.4-30-0.8c-13-3.9-27.4-5.8-25.3-22.4c0-0.3-1-40.1-1.1-40.5c-1.6-8.3,1-18.9,0.7-27.2
				C536.3,546.1,537.9,523.6,534.1,517"/>
			<path id="XMLID_788_" fill-rule="evenodd" clip-rule="evenodd" fill="#112A3D" d="M650.8,622c-7.6-23.7,2.3-33.5,1.6-54.5
				c-0.3-9.2,12.8-68.5,10.8-70.3c-4.3-3.7-5.7,18.1-6.9,21.4c-1.3,3.7-3,29.7-5.5,29.5c-9-1-2.5-21.9-2.7-29.3
				c-0.2-5.5,4-34,10.2-35.7c16.5-4.4,2.4-17.2,24.5-14.4c11.1,1.4,8.6,29.7,8.5,37.9c-0.2,15.5-3.3,35.9-4.9,52.8
				c-1.3,13-12.2,58.4-24.8,65.2c-4.4,2.4-2.8,21.8-11.3,12.6C648.2,635,651.4,623.9,650.8,622"/>
			<path id="XMLID_785_" fill-rule="evenodd" clip-rule="evenodd" fill="#112A3D" d="M638.6,379.7c-6.4,1.1-13.1,2.2-19.4,3.4
				c-4.2-19,12.4-15.5,15-12.1C637,374.5,638.1,377.4,638.6,379.7 M594.4,391.6c-0.5,3.1,8.9,48,8.8,57.6c0,3.3,0.4,14.1,4.2,14.3
				c20.2,1.4,14.8,0,34-2.8c10.3-1.5,34.9-4.2,43.1-10.4c1.5-1.1-4.3-33.8-5.3-39c-0.6-3.1-12.7-35.5-12.8-35.8
				c0-0.1-8.8,1.2-20.2,3.1c-1.9-6.5-7.5-17.1-12.1-17.4c-22.2-1.4-23.8,6.5-20.8,23.2c-11.8,2.3-20.7,4.5-20.1,5.6
				C593.7,390.9,594.4,391.4,594.4,391.6"/>
			<path id="XMLID_782_" fill-rule="evenodd" clip-rule="evenodd" fill="#112A3D" d="M152.1,598.7c1.5,0,16.3,5.3,20.5,5.5
				c1.8,0.1,3.8,0.8,5.9,0.7c2,0,4.1-0.8,6.7-1.2c2.6-0.4,15.3-5.1,18.2-5.4c8.2-0.9,2.7,2-1.2,3.9c-4.6,2.2-9.4,3.8-14.4,6.3
				c-6.4,3.2-5.8,2.8-6.4,10.4c-0.6,6.7,0.4,19.8-0.6,22.2c-2.2,5.5-2.3-9.5-2-10.5c0.4-1.6-1.1-16.9-1.6-17.6
				c-2.5-3.9-15.8-8-20.6-8.6C154.5,604.1,150.4,598.7,152.1,598.7 M135.1,592.9c0.5,9.6,0.1,19,0.7,29.1c0.2,3.2,0.2,26.7,1.1,27.4
				c3.8,3.1,19,8.4,25.2,12c1.7,1,17.4,7.4,18.6,6.9c4.6-1.8,7.7-0.7,13.3-3.4c5.3-2.6,31.2-10,33.1-12.2c0.1-0.1,0.3-44.6,0.9-48.1
				c0.3-1.6,1-12.6-0.5-12.7c-9.8-1.3-15.5-4.2-26.5-5.5c-14.5-1.6-15-7.2-31.1-1.6c-2.6,0.9-19.6,2.9-23.1,4.6
				C145.1,590.2,135,592,135.1,592.9"/>
			<path id="XMLID_779_" fill-rule="evenodd" clip-rule="evenodd" fill="#112A3D" d="M32,517.6c5.6-13,32.7-18.1,45.1-25.1
				c19.3-10.7,51.4-12.7,73.6-12.3c17.7,0.3,37.4,12.2,3.6,24.7c-22.5,8.3-89.6,18.7-114.9,17C38,521.9,31.6,518.5,32,517.6
				 M17.2,559.8c-2.8-10.3-6.2-42.8,2.6-49.9c17.2-13.8,7.4-9.3,29.4-20.4c28-14.1,43.5-19.2,76.2-20.9c27.7-1.4,22-1.3,46,6
				c10.4,3.2,21,3.6,23.6,14.1c2,8.1,6,39.2,0.9,45.4c-25.4,30.6-86.5,37.3-123.8,37.6C58.9,571.7,20.4,571.6,17.2,559.8"/>
			<path id="XMLID_773_" fill-rule="evenodd" clip-rule="evenodd" fill="#112A3D" d="M480.1,278.9c6.2-8.8,44.5-29.8,60.7-28.9
				c8,0.5,21.7-3.3,0.3,3.1c-14.6,4.4-21.8,8.1-34.4,13.2c-0.6,0.2-5.2,2.6-5.8,2.5L480.1,278.9z M596.4,346.3
				c-2-10.9,0.3-20.2-4.6-32.1c-1.8-4.5-2.2-18.9-6.2-26.1c-1.5-2.7-11.3-36.2,1-6.8c9.9,23.7,7.6,19.4,9.5,43c0,0,1.4,4.3,1.4,4.4
				L596.4,346.3z M552.1,337c1.9-16.6,5-31.1,7.1-42.8c0.9-4.6,3.2-38.3,4.2-37.4c6.2,5.5-2.7,51.2-3.3,59.3L552.1,337z
				 M548.6,239.6c4.9,1.8-20.1-9.5-24.4-10.7c-18.2-5.1-24.6-4.5-42.7-3.3c-0.6,0-5.9,0.9-6.2,1.1c0.5,1.4,16.6,1.3,31.6,3.3
				C522.8,232.2,544.3,238,548.6,239.6 M466.9,225.2c-1.6,5.7-17.7,17.2-22.6,18.2c0.2,1.8,16.2,11.8,20,23.6
				c2.6,8.2,3.5,7.4,5.7,18.2c2.1,9.8-3.2,9.9,9.9,12c4.4,0.7,14.8,6.1,25,12c-7.2,11-12.4,16.9-22.5,27.6c-3,3.1-7.2,9.1-13.9,5.7
				c-2.6-1.3-4.2-9.4,1.6-12.2c8.6-4-13.5-20.4-10.5,11.3c0.8,8,18.7,12.1,27.2,2.5c6.3-7.1,19.9-21,23.9-29.6
				c0.2-0.5,0.5-0.9,0.8-1.3c7.3,4.6,13.7,9,16.2,11.4c4.6,4.4,19.8,23.2,21.7,28.6c23.4-3,24-4.1,46.5,2.9c8,2.5,5.4,8.5,8.7-1.5
				c2.4-7.3,7.1-16,14.5-19.2c0-3.5-10.2-49.9-11.8-52.5c-13.9-22.5-14.6-23.2-35.8-39.4c-10.3-7.9-9.8-12.2-25.6-17
				c-8.8-2.7-10.3-3.8-18.1-6.7c-20.6-7.7-39.8-5.7-60.5-2.7C466.2,217.3,467.3,224.1,466.9,225.2"/>
			<path id="XMLID_770_" fill-rule="evenodd" clip-rule="evenodd" fill="#112A3D" d="M10.8,450.1c-3.4-15.5,1.4-54.8,11-60.3
				C39.9,379.5,17.4,480.2,10.8,450.1 M14.9,377.6C4.8,389.9-6.1,457,4,463.6c28.9,19,24.3-13.6,66.8-14.9
				c5.2-0.2,33.5-2.1,48.8-3.9c1.5,4.9,6.1,8.3,11.6,8.2c6.7-0.2,12.1-5.8,12.1-12.4c0-6.7-5.4-11.9-12.1-11.7
				c-4.6,0.1-8.6,2.8-10.7,6.7c-18-6.8-57.4-11.4-66.2-23.7c-4.6-6.4-13.9-14.8-16.7-24.9C33.4,371.8,15.1,377.3,14.9,377.6"/>
			<path id="XMLID_766_" fill-rule="evenodd" clip-rule="evenodd" fill="#112A3D" d="M30.6,608.9c4.3,4.5,2.8,13.1-3,16.5
				c-8.2,4.9-14.4-2.9-14.6-10.2C12.7,607.3,22.8,600.8,30.6,608.9 M60.4,669.7c-1,0.8-12.7,6.7-12.7,6.8c0,1.1,2.2,1.2,3.2,0.9
				c3.4-1,2.1,0.3,6.2-2.1c1.9-1.1,3.6-2.4,4.3-4.6C61.5,670.3,60.4,669.7,60.4,669.7 M58.9,643.3c-6-11-16.7-38.8-27.6-45.4
				c-8.2-5-37.6,4.4-21,30.8c5.2,8.3,11.2,22.9,17.1,32.8c1.9,3.2,9,18.4,12.2,17.9c0.7-0.1,2.2-0.7,4.2-1.5c4,6.7,8.9,14.6,10,16.5
				c1.7,2.9,14.9-6.7,17.3-8.6c2.3-1.9-3-10.9-7.5-17.8c3.7-2.3,6.1-4.3,5.5-5.4C68.3,660.9,59.2,643.8,58.9,643.3"/>
			<path id="XMLID_760_" fill-rule="evenodd" clip-rule="evenodd" fill="#112A3D" d="M132.6,345.5c1.4-1.9,1-4.5-0.9-5.9
				c-1.9-1.4-4.5-1-5.9,0.9c-1.4,1.9-1,4.5,0.9,5.9C128.6,347.8,131.2,347.4,132.6,345.5 M127.7,327.6c1.4-1.9,1-4.5-0.9-5.9
				c-1.9-1.4-4.5-1-5.9,0.9c-1.4,1.9-1,4.5,0.9,5.9C123.7,329.9,126.3,329.4,127.7,327.6 M126.9,307.9c1.4-1.9,1-4.5-0.9-5.9
				c-1.9-1.4-4.5-1-5.9,0.9c-1.4,1.9-1,4.5,0.9,5.9C122.9,310.2,125.5,309.8,126.9,307.9 M130.7,290.6c1.4-1.9,1-4.5-0.9-5.9
				c-1.9-1.4-4.5-1-5.9,0.9c-1.4,1.9-1,4.5,0.9,5.9C126.7,292.9,129.3,292.5,130.7,290.6 M112.5,382.5c4.1-5.6,17.3-25,22.8-27.2
				c0.9-0.4,11.6-5.6,11.7-6.3c0.8-6.1-8-16.8-9.8-23.7c-1.8-6.8-3.7-11.1-3.8-18.8c-0.2-11.6,10.7-32.6,17.1-42.1
				c2.3-3.4,8.4-12,8.8-16c0.6-5,3.6-7,0.6-13c-13.3,6.4-32.1,24.6-42.7,34.1c-2-1.5,26.9-26.8,29.4-29.7c4.4-4.9,4-5,8.6-8.8
				c0.6-0.5,1.4-1.2,2.3-1.8c-0.6-1.3-2.2-3.1-7.1-6.7c-3-2.2-3.6-2.5-7.8,0.8c-11.1,8.4-36.5,33.9-45.1,45.6
				c-11.5,15.7-22.3,30.4-33.1,46.7c-4.6,6.9-8.5,13.8-12.9,20.7c-3.6,5.6-4.3,6.9,1.9,12.2c0.8,0.7,2.4,2,4.1,3.1
				c0.3-0.4,0.5-0.8,0.8-1.3c4.2-6.8,19.7-28.5,25.1-34.6c0.1-0.1,8.8-9.2,5.7-3.6c-6.4,11.8-18.9,28.6-23.1,42.2
				c8,0.4,16.2,8.7,23.6,12.6c1.9,1,14.3,8.6,15.6,10.1c0.7,0.9,6.6,5.8,7.8,6.1L112.5,382.5z"/>
			<path id="XMLID_759_" fill-rule="evenodd" clip-rule="evenodd" fill="#112A3D" d="M552.5,675.9c-14.4-5.8-30.2-9.1-46.3-15.6
				c-2.1-0.9-55.6-19.4-56.1-19.5c-4.7-1.1-5.7-1.1-6.5,5.4c-0.1,0.8,47.4,15.3,67.3,22.5c1,12.9-0.4,29.2,1.8,40.5
				c1.4,7.4-1.5,20.8,5.7,10.2c3.6-5.3,32.3-36.8,32.4-37.1C551.2,682.3,553,676.1,552.5,675.9"/>
			<path id="XMLID_755_" fill-rule="evenodd" clip-rule="evenodd" fill="#112A3D" d="M203.1,262c1.8-0.5,7-2.9,5.9-5.2
				c-1.6-3.4-3.6-9.4-5.2-13.2c-0.8-1.9-4.6-12.9-7-13.3c-0.9-0.1-5.3,0.7-5.2,2.1C191.9,236.3,203.7,261.2,203.1,262 M278.6,195.8
				c4,0.2,6.8-4.8,3.4-7.8c-1-0.9-8.1-0.5-6.8,3.1C278.2,199.5,276.3,194.7,278.6,195.8 M199.9,272.6c-1.4-4.5-21.3-43.4-18.5-44.5
				c5.1-2,12-5.6,17.8-8.1c7.5-3.2,0.4-5.1,14.4-10.4c17.4-6.6,41.9-19.7,57.7-24c7-1.9,16.5-10.9,19.3,6.4
				c1.1,6.5-18.2,11.1-23.6,13.4c-2.5,1.1-17.5,6.7-17.7,8.8c-0.3,2.7,3.2,0.2,7,1.2c4.6,1.3,3.6,1.6,3.7,6.5
				c0.3,14.3-12.7,2.1-3.4,11.2c2.9,2.8-1.1,10.7-4.4,10c-1.7-0.4,4.2,3.6,1.2,9.6c-2.1,4.2-5.2,6.3-10.3,7.2
				c-6.5,1.1-12.4,5.8-20.3,4.4c-6.3-1.1-14.7,3.4-19.3,6.1C201.7,271.5,201.9,271.7,199.9,272.6"/>
			<path id="XMLID_752_" fill-rule="evenodd" clip-rule="evenodd" fill="#112A3D" d="M435.7,294.4c2.7,0.1,5.3,0.1,8,0.2
				c0.5,0,0.9,0.3,1,0.7c0.2,0.4,0.1,0.9-0.2,1.2c-1.5,1.7-3.1,3.4-4.6,5c-2,2.1-1.9,1.4-1.1,4.1c0.7,2.3,1.4,4.5,2,6.8
				c0.1,0.5,0,0.9-0.4,1.2c-0.4,0.3-0.8,0.4-1.2,0.2c-2-0.9-2.9-1.3-5-2.3c-2.6-1.2-3.6-1.6-5.9-0.1c-2,1.4-3.5,2.4-5.5,3.8
				c-0.4,0.3-0.9,0.3-1.3,0c-0.4-0.2-0.6-0.7-0.6-1.1c0.3-2.3,0.5-2.9,0.8-5.6c0.3-2.8,0.6-3.5-1.6-5.2c-1.8-1.4-3.7-2.8-5.5-4.2
				c-0.4-0.3-0.5-0.7-0.4-1.2c0.1-0.5,0.5-0.8,0.9-0.9c2.3-0.5,4.6-0.9,6.9-1.4c2.8-0.6,2.4-0.8,3.4-3.5c0.8-2.2,1.3-3.6,2.1-5.8
				c0.2-0.4,0.5-0.7,1-0.8c0.5,0,0.9,0.2,1.1,0.6c1.4,2.4,2,3.5,3.3,5.9C433.7,293.4,434.2,294.3,435.7,294.4 M429.5,275.5
				c13.8,0,25,11.2,25,25c0,13.8-11.2,25-25,25c-13.8,0-25-11.2-25-25C404.5,286.7,415.7,275.5,429.5,275.5"/>
			<path id="XMLID_747_" fill-rule="evenodd" clip-rule="evenodd" fill="#112A3D" d="M494,783c1.5-2,13-8.2,24.5-15.4
				c11.4-7.2,22.8-15.3,26.5-16.4c0.8-0.2,4.9-2.3,5.5-2.1c-0.6,4.4-16.5,17.8-21.7,22.9c-9.7,9.8-18.7,13.7-33.7,11.6
				C494.4,783.5,494,783.1,494,783 M617.4,695c-3.1,3.4-7.2,5.6-11.5,5.9l-0.1-0.3c-0.9-4.8-4.8-8.6-6.6-11.9c-3.8-7-7.1-8-10.1-6.5
				l0-0.9c0.4-5.4,2.7-10.4,6.1-13.9c3.4-3.6,7.9-5.8,12.6-5.8c4.7,0,8.9,2.1,11.7,5.6c2.8,3.5,4.4,8.3,3.9,13.7
				C623.1,686.3,620.8,691.3,617.4,695 M581.6,702c0.3-3.4,1.4-4.8,3.1-6.2c1,1.5,2.1,3.8,4.1,5.4c1.2,1,3.5,3,5.5,4.2
				c-1.3,2.6-3.3,4.5-6.5,4.5C584.6,709.8,581.3,705.4,581.6,702 M530.8,727.4c-9.8,5-20.2,9-26.7,10.4c-9.2,1.9-30.5,17.5-32.7,24
				c-1.7,4.9-0.7,8.4,1.4,11.6c2.1,3.2,5.2,6.3,7.5,10.1c5.7,9.4,9.5,5.2,22.5,5.8c11.7,0.5,32.9-12,38.8-20.2
				c6.9-9.5,12.5-13.7,20.1-21.9c1.8-2,9.6-8.8,17.9-16.5c8.3-7.7,17.3-16.5,22.2-21.5c0.8,0.1,1.6,0.1,2.5,0.1
				c6.8-0.1,13.1-3.4,17.9-8.6c4.8-5.2,8-12.3,8.6-20.1c0.3-3.8-0.1-7.5-1.1-10.8c-1-3.3-2.5-6.3-4.5-8.7c-2-2.5-4.5-4.4-7.3-5.8
				c-2.8-1.4-6-2.1-9.4-2.1c-6.8,0-13.2,3.1-18.1,8.2c-4.9,5.1-8.1,12.1-8.7,19.9c-0.2,2.6-0.1,5.2,0.4,7.6
				c-1.1,1.3-2.1,2.5-3.2,3.6c-5.9,5.9-17.6,13.8-23.7,19.2C550,716.4,540.6,722.4,530.8,727.4"/>
			<path id="XMLID_744_" fill-rule="evenodd" clip-rule="evenodd" fill="#112A3D" d="M516.4,362.4c4.3,2.4,6.3,16.6,3.4,20.6
				c-1,1.4-3.6,5.5-1.4,6.4c8.8,3.7,9,0.2,11.9-6.5c1.5-3.4-0.6-11.7-1.5-15.2c-1.7-6.7-5.4-9.7-11.8-5.8
				C516.7,362.1,516.3,362.3,516.4,362.4 M447,366.9c0.1,3.2-0.7,16.6,2.6,17.4c5.3,1.3,43.7,2,53.5,3.2c3.3,0.4,5.8,3.9,6.9,5
				c22.6,23,38.9-23.4,23.3-36.6c-5.2-4.5-14.5-7.9-19.5-0.9c-2.1,2.9-6.5,6.7-11.5,6.8c-10.3,0.3-45.9-4.8-51.3-3.1
				C446.9,359.9,447,365.8,447,366.9"/>
			<path id="XMLID_741_" fill-rule="evenodd" clip-rule="evenodd" fill="#112A3D" d="M374.7,621.3c4.4,6.9,7.7,33.2,18.4,26.8
				c4.9-2.9,26.2-9.8,26.2-16.2c0-4.1-4.8-23.8-11.4-23.8C399.8,608.1,380.3,620.8,374.7,621.3 M350.2,629.6
				c5.2,11.3,10.9,22.6,21.4,29.7c7.9,5.3,39.8-8.7,47.3-15.1c10-8.6,23.3-12.6,17.1-28.6c-8.7-22.7-9.7-23.6-35.1-15.6
				c-4.1,1.3-50.7,23.9-50.7,26.7C350.2,627.7,349.8,628.8,350.2,629.6"/>
			<polygon id="XMLID_740_" fill-rule="evenodd" clip-rule="evenodd" fill="#112A3D" points="258.6,649.2 265,657.1 277.9,647.6 
				276.6,661.3 288.1,659.9 285.2,669 301.5,670.1 289.1,678.8 298.1,684.8 287.8,689.1 299,700.6 281.4,698 281.9,707.4 
				271.1,704.1 267.8,720.9 258.6,706.3 250.4,712.9 246.1,704.1 230.2,713.2 235.8,698 224.2,697.5 229.5,689.1 214.2,684.5 
				228.1,678.8 220.9,671.5 232.1,669 229.1,659.9 243.3,664.6 242.5,652 252.2,657.1 			"/>
			<path id="XMLID_739_" fill-rule="evenodd" clip-rule="evenodd" fill="#112A3D" d="M245.9,529.2c-2.7,3.2-5.6,6.1-8.5,9.5
				c-0.9,1.1-7.9,8.6-7.9,9.1c0.3,2.1,3.6,8.4,4.5,11.3c0.2,0.8,3.4,7.6,3.9,7.8c2,0.8,2.6,2.1,5.3,2.9c2.5,0.7,13,6.1,14.2,6
				c0.1,0,13.4-14.2,14.7-15.1c0.6-0.4,4.1-3.7,3.7-4.2c-2.8-3.3-3.7-6-6.8-9.6c-4.1-4.8-2.7-6.8-9.5-9.8c-1.1-0.5-7.1-4.9-8.8-5.4
				C249.9,531.3,246.1,528.9,245.9,529.2"/>
			<path id="XMLID_738_" fill-rule="evenodd" clip-rule="evenodd" fill="#112A3D" d="M267.7,218.8c1.8-1.1,20.6-10.6,21-7.9
				c1.5,10.4-3.2,7.9-12.6,10c-1,0.2-7.8,1.2-8,0.3C268.1,220.8,267.4,219,267.7,218.8"/>
			<path id="XMLID_737_" fill-rule="evenodd" clip-rule="evenodd" fill="#112A3D" d="M267,231c7.7-3.7,12-1.7,18.8-2.4
				c0.4,2.4-0.4,8.5-3.3,8.7c-2.1,0.1-14.6-1-15.4-2.9C266.7,233.7,266.3,231.3,267,231"/>
			<path id="XMLID_736_" fill-rule="evenodd" clip-rule="evenodd" fill="#112A3D" d="M439.1,195.3c9,12.2,2,22.7,5.6,29.8
				c4.6,0.5,7.8,2.6,10.6-4.1c2.6-6,3.3-6.5,1-12.6c-1.8-5-9.5-9.5-14.2-11.6C441.5,196.5,439.1,195.3,439.1,195.3"/>
			<path id="XMLID_735_" fill-rule="evenodd" clip-rule="evenodd" fill="#112A3D" d="M453.6,191.1c5.4,1.2,22.2,3.8,18.9,12.6
				c-0.5,1.5-11.5,7.5-13.9-2.6C458.2,199.5,453.5,191,453.6,191.1"/>
			<path id="XMLID_734_" fill-rule="evenodd" clip-rule="evenodd" fill="#112A3D" d="M629.4,320.4c9.7,10.7-6.7,30.8,12,28.9
				c4.9-0.5,10.9-9.5,7.4-16.2c-4.5-8.7-6.8-12.3-16.7-15.7C626.8,315.5,628,318.8,629.4,320.4"/>
			<path id="XMLID_733_" fill-rule="evenodd" clip-rule="evenodd" fill="#112A3D" d="M553.9,363.8c-2.3,8.6-0.7,21-9.8,31.7
				c-6.9,8.2,18.6,9.3,19.3-17.2C563.4,373.4,556.3,354.8,553.9,363.8"/>
			<path id="XMLID_732_" fill-rule="evenodd" clip-rule="evenodd" fill="#112A3D" d="M573.9,369.4c-0.5,2.3,1.6,7.6,1.1,11
				c-1.3,7.6-5.8,14.4-9.9,18.5c-1.3,1.3-10.8,9.3-0.7,8c5.3-0.7,21.3-11.4,21.5-20C586.2,372.3,574.8,365.5,573.9,369.4"/>
			<path id="XMLID_731_" fill-rule="evenodd" clip-rule="evenodd" fill="#112A3D" d="M514.8,499.1c-21,14.8-22.7,66.5,5.2,49.3
				c4.4-2.7,4.3-14.9-2.1-21.1C507.9,517.8,514.8,499.1,514.8,499.1"/>
			<path id="XMLID_730_" fill-rule="evenodd" clip-rule="evenodd" fill="#112A3D" d="M524.8,556.4c10.7,28.8-24.2,33.2-18.7,14.6
				c1.7-5.5,7.7-4,13.1-8.1C522.7,560.3,524.8,556,524.8,556.4"/>
			<path id="XMLID_729_" fill-rule="evenodd" clip-rule="evenodd" fill="#112A3D" d="M637,589.4c-6.4-0.4-13.3,5.8-7.6,15
				c13,21-15.7,15.7-2,29c10.9,10.6-6.9,12.5,9.2,23.8c2.4,1.7,15.2,5.7,14.9-3.6c-0.1-3.3-19.2,0.5-13.5-12.4
				c3.5-7.9-16.2-9-5.2-17.1c12-8.9-8.2-21.9,4.3-28.4c12.5-6.6-2.4-23.1-2.6-15.6c-0.1,2,2.6,0.9,2.5,8.6L637,589.4z"/>
			<path id="XMLID_728_" fill-rule="evenodd" clip-rule="evenodd" fill="#112A3D" d="M487.2,643.8c-0.9,0.6-4.9-7.2-7.4-9.8
				c-0.2-0.2-5-8.4-3-9.1c9.7-3.1,7.1-0.7,10.2,9.3C488.5,639.1,488.3,643,487.2,643.8"/>
			<path id="XMLID_727_" fill-rule="evenodd" clip-rule="evenodd" fill="#112A3D" d="M495.9,649.5c0-10.9-2.9-13.2-0.5-23
				c1.7-6.9,0.8-10.5,11.4-6.5c4.8,1.8-7.3,22.9-8.2,29.3C498.2,651.1,495.9,651.7,495.9,649.5"/>
			<path id="XMLID_726_" fill-rule="evenodd" clip-rule="evenodd" fill="#112A3D" d="M505.8,651c0.9-0.8,12-15.3,12.4-15.3
				c3.3,0.1,10,7.2,1.2,11.2c-2.9,1.3-6.7,4.9-10.1,5.8C508.1,653,504.8,651.8,505.8,651"/>
			<path id="XMLID_725_" fill-rule="evenodd" clip-rule="evenodd" fill="#112A3D" d="M339.5,635.2c-1.9,0.1-5.8,1.4-9.3,1.6
				c-4,0.3-29.3,1.5-30,5.9c-0.2,1.5,1.3,8.9,3.1,8.6c3.4-0.5,9.4-5.2,16.1-5.3c2.4,0,21.3-6.5,21.3-6.5
				C341,638.3,340.8,635.1,339.5,635.2"/>
			<path id="XMLID_724_" fill-rule="evenodd" clip-rule="evenodd" fill="#112A3D" d="M342.2,647.1c-5.2,2.3-10.6,5.5-16.4,8
				c-1.6,0.7-15.2,7.2-14.5,9.1c1,2.9,5.9,10,9.2,5.9c7.9-9.9,13.4-10.4,21.9-18.3C344.9,649.4,343.7,646.5,342.2,647.1"/>
			<path id="XMLID_723_" fill-rule="evenodd" clip-rule="evenodd" fill="#112A3D" d="M256.7,593.5c-2.2,29-1.4,16.6,12.9,30.9
				c1,1,15.9-12.1,15.6-14.4c-1.7-15.8,8.9-13.4-7.8-24.8c-5.7-3.9-2.4-1.3-12.6,2.6C263.2,588.3,256.8,592,256.7,593.5"/>
			<path id="XMLID_722_" fill-rule="evenodd" clip-rule="evenodd" fill="#112A3D" d="M80.4,611.7c0.2-6.3,15.6-14,21.5-14
				c5.3,0,16.5-1.9,13.8,7.7c-0.5,1.7-10.7,1.6-13.8,3.2c-6.9,3.6-5.1,2.4-10.1,7.3c-2.5,2.5-11.8,4.3-11.8-2.8
				C80.1,612.3,80.4,612.4,80.4,611.7"/>
			<path id="XMLID_721_" fill-rule="evenodd" clip-rule="evenodd" fill="#112A3D" d="M94.5,627.5c2.3-8.4,8.2-12.7,16.7-12.7
				c3.5,0,7.5,5-0.4,7.4c-4.7,1.4-6.8,3.1-9.4,6.9C99.9,631.3,93.7,630.4,94.5,627.5"/>
			<path id="XMLID_720_" fill-rule="evenodd" clip-rule="evenodd" fill="#112A3D" d="M111.6,641.2c-2.5-4.2-4-8.6,3-9.5
				c2.8-0.4,10.3,4.3,6.4,8.2c-1.9,1.9-6.7,3.2-9.1,1.3C111.8,641.1,111.6,641.1,111.6,641.2"/>
			<path id="XMLID_719_" fill-rule="evenodd" clip-rule="evenodd" fill="#112A3D" d="M157.8,379.1c10.3,4.2,21.1,11.7,35.1,17.2
				c2.7,1.1,21.1,8.5,11.6,13c-9.5,4.5,0.5,9.2-19.6-4.2c-7.4-4.9-24.4-20.8-29.6-22.6L157.8,379.1z"/>
			<path id="XMLID_718_" fill-rule="evenodd" clip-rule="evenodd" fill="#112A3D" d="M130.5,381.6c-1.2,6.5-8.4-0.5,4,21.1
				c1.5,2.6,9.9,20.2,9.9,20.3c25.4-20.8,3.8-13.1-10.6-37.9C133.3,384.2,130.5,381.8,130.5,381.6"/>
			<path id="XMLID_717_" fill-rule="evenodd" clip-rule="evenodd" fill="#112A3D" d="M323.9,351.7c7.8-21.3-13.9-16.6-13.2-29.1
				c0.2-4.2,26.6,0.1,16.9-8.4c-2.2-1.9-24.4-2.6-28.4-11.7c-5.2-11.7,53.3-15.5,57-10.8c5.6,7.2-1.2,18.2-10.7,13.7
				c-18.9-9.1-40.9,2.5-14.4,1.5c17.5-0.6,26.2,21.6,4.7,21.2c-16.5-0.3-0.6,11-7.9,19.2C326.9,348.3,323.7,352.4,323.9,351.7"/>
			<path id="XMLID_716_" fill-rule="evenodd" clip-rule="evenodd" fill="#112A3D" d="M184.8,299.2c-3.7-0.2-25.6,19.7-14.2,29.8
				c3.7,3.3,11-2.1,11-7.3c0-8.8-2.3-13.5,3-20.6C185.1,300.6,185.1,299.2,184.8,299.2"/>
			<path id="XMLID_715_" fill-rule="evenodd" clip-rule="evenodd" fill="#112A3D" d="M198.3,290.8c-3.1-6.1-10.6,4.2-14.6,4.5
				c-1.4,0.1-5.8-0.4-7.7-1.6c-2-1.3-1.6-5-1.4-6.1C175.7,282.3,194.7,280.3,198.3,290.8"/>
			<path id="XMLID_714_" fill-rule="evenodd" clip-rule="evenodd" fill="#112A3D" d="M394.5,311c-6.4-7.6-5.5-23.6,1.5-30.4
				c9.4-9.1,12.3-8.2,4.2-8.2c-11.8,0-17.4,19.3-14.6,28.5c0.7,2.3,3.9,16.6,8.9,13.6C394.8,314.4,394.8,311.3,394.5,311"/>
			<path id="XMLID_713_" fill-rule="evenodd" clip-rule="evenodd" fill="#112A3D" d="M240.5,510.4c0.2,0,27.8,14,33.2,16.2
				c2.2,0.9,7.8,16.1,9.3,19.1c0.8-2.3,1.1-28.4-2.4-29.6c-15.2-5.1-15.6-6.1-32.4-9.3C243.7,506,229.6,508.6,240.5,510.4"/>
			<path id="XMLID_712_" fill-rule="evenodd" clip-rule="evenodd" fill="#112A3D" d="M214.5,472.8c1.1,0,13.1,4.6,14.2,8.9
				c1.4,5.3,1.2,19.6,6.3,8c0.7-1.5,2.3-17-3.7-19.4C225.3,468,202.2,472.3,214.5,472.8"/>
			<path id="XMLID_711_" fill-rule="evenodd" clip-rule="evenodd" fill="#112A3D" d="M556.4,464.7c3.8-0.4,40.6-14.6,40.6-17.3
				c-0.1-5.2-10.3-27.5-10.3-27.6c-1.6-0.2-42.2,14.3-42.9,17.2c-0.7,2.7,0.4,2.8,1.7,6.1C543.7,435.7,552.8,465.1,556.4,464.7"/>
			<path id="XMLID_708_" fill-rule="evenodd" clip-rule="evenodd" fill="#112A3D" d="M386.3,506c3,0,5.6-0.9,7.6-2.8
				c2.1-1.8,2.2-4.2,0.4-7c-1.8-2.9-7.3-6.9-16.6-12c-4.2-2.4-7.4-4.3-9.5-5.6c-2.1-1.2-4.5-3.1-7.1-5.5c-2.7-2.4-4.5-4.8-5.6-7.3
				c-2.7-6.6-2.8-12.8-0.1-18.6c2.6-5.8,7.4-10.2,14.1-13.3c5.3-2.3,10.8-3.5,16.5-3.5c10.6,0,20.3,3.2,29.3,9.5
				c-1.9,6.5-5.6,12.6-11,18.2c-5.9-5.3-12.4-7.9-19.2-7.9c-2.1,0.3-3.9,1.2-5.4,2.6c-1.6,1.5-1.9,3.2-0.9,5.2
				c0.7,1.2,5,4.1,13.2,8.8c2.2,1.2,3.9,2.2,5.3,3s3,1.8,5,3.1c2,1.3,3.6,2.5,4.9,3.5c1.3,1,2.7,2.2,4.2,3.7
				c1.6,1.5,2.8,2.9,3.7,4.2c0.9,1.4,1.8,2.9,2.7,4.7c0.9,1.7,1.5,3.5,1.8,5.3c0.3,1.8,0.5,3.8,0.5,6c0,2.2-0.3,4.5-0.8,6.9
				c-1.8,7.3-5.9,12.9-12.4,16.6c-6.5,3.7-13.9,5.6-22.2,5.6c-14.1,0-26.8-5.7-38.3-17.2c5.5-7.5,11-13.6,16.7-18.2
				C371.5,501.9,379.2,506,386.3,506 M432.3,420.4c21.1,0.5,42.3,1,63.4,1.5c3.7,0.1,6.9,2.2,8.3,5.7c1.5,3.4,0.8,7.2-1.7,9.9
				c-12.3,13.4-24.6,26.7-36.9,40.1c-15.7,17.1-15.1,11.1-8.6,33c5.4,18,10.8,35.9,16.1,53.9c1.1,3.6,0,7.2-2.8,9.7
				c-2.8,2.4-6.6,3-10,1.4c-16.3-7.4-23.3-10.7-39.6-18.1c-20.5-9.4-29.1-12.8-47-0.5c-15.9,11-27.5,19-43.4,30
				c-3.1,2.1-6.9,2.2-10.1,0.3c-3.2-1.9-4.9-5.3-4.4-9c2.4-18,3.9-22.9,6-44.9c2.1-22.4,4.6-28.1-13.1-41.6
				c-14.6-11.2-29.3-22.3-43.9-33.5c-3-2.3-4.3-5.8-3.4-9.5c0.8-3.6,3.6-6.3,7.2-7c18.4-3.7,36.7-7.4,55.1-11.1
				c22.1-4.4,19.5-6.7,27-28.1c6.1-17.4,10.2-29,16.3-46.4c1.2-3.5,4.2-5.8,8-6.2c3.7-0.3,7.1,1.4,8.9,4.7
				c10.8,19.1,15.9,28.3,26.7,47.4C416.4,412.5,420.1,420.2,432.3,420.4"/>
		</g>
	</g>
</g>
<g id="Layer_2" display="none">
	<path id="XMLID_397_" display="inline" fill-rule="evenodd" clip-rule="evenodd" fill="#112A3D" d="M143.8,103.3
		c2,0,3.7-0.6,5.1-1.8c1.4-1.2,1.5-2.8,0.3-4.6c-1.2-1.9-4.8-4.6-11-8c-2.8-1.6-4.9-2.9-6.3-3.7c-1.4-0.8-3-2-4.7-3.6
		c-1.8-1.6-3-3.2-3.7-4.8c-1.8-4.4-1.8-8.5-0.1-12.3c1.8-3.8,4.9-6.8,9.4-8.8c3.5-1.5,7.2-2.3,11-2.3c7,0,13.5,2.1,19.4,6.3
		c-1.3,4.3-3.7,8.4-7.3,12.1c-3.9-3.5-8.2-5.2-12.8-5.2c-1.4,0.2-2.6,0.8-3.6,1.7c-1,1-1.2,2.1-0.6,3.4c0.4,0.8,3.3,2.7,8.7,5.8
		c1.4,0.8,2.6,1.5,3.5,2c0.9,0.5,2,1.2,3.3,2.1c1.3,0.9,2.4,1.6,3.2,2.3c0.8,0.7,1.8,1.5,2.8,2.4c1,1,1.8,1.9,2.4,2.8
		c0.6,0.9,1.2,1.9,1.8,3.1c0.6,1.2,1,2.3,1.2,3.5c0.2,1.2,0.3,2.5,0.3,4c0,1.5-0.2,3-0.6,4.5c-1.2,4.9-3.9,8.5-8.3,11
		c-4.3,2.5-9.2,3.7-14.7,3.7c-9.3,0-17.8-3.8-25.4-11.4c3.6-5,7.3-9,11.1-12.1C133.9,100.7,139.1,103.3,143.8,103.3 M174.3,46.6
		c14,0.3,28,0.7,42.1,1c2.5,0.1,4.6,1.5,5.5,3.7c1,2.3,0.5,4.8-1.1,6.6c-8.2,8.9-16.3,17.7-24.5,26.6c-10.4,11.3-10,7.4-5.7,21.9
		c3.6,11.9,7.1,23.8,10.7,35.7c0.7,2.4,0,4.8-1.9,6.4c-1.9,1.6-4.4,2-6.6,1c-10.8-4.9-15.5-7.1-26.3-12c-13.6-6.2-19.3-8.5-31.1-0.3
		c-10.6,7.3-18.2,12.6-28.8,19.9c-2,1.4-4.6,1.5-6.7,0.2c-2.1-1.3-3.2-3.5-2.9-6c1.6-12,2.6-15.2,4-29.7c1.4-14.8,3.1-18.7-8.7-27.6
		c-9.7-7.4-19.4-14.8-29.1-22.2c-2-1.5-2.8-3.9-2.3-6.3c0.6-2.4,2.4-4.2,4.8-4.6c12.2-2.4,24.4-4.9,36.5-7.3
		c14.7-2.9,12.9-4.4,17.9-18.6c4.1-11.6,6.8-19.2,10.8-30.8c0.8-2.3,2.8-3.9,5.3-4.1c2.5-0.2,4.7,1,5.9,3.1
		c7.1,12.7,10.6,18.7,17.7,31.4C163.7,41.4,166.1,46.5,174.3,46.6"/>
</g>
</svg>
