<?xml version="1.0" encoding="utf-8"?>
<!-- Generator: Adobe Illustrator 19.0.0, SVG Export Plug-In . SVG Version: 6.00 Build 0)  -->
<svg version="1.1" id="Layer_1" xmlns="http://www.w3.org/2000/svg" xmlns:xlink="http://www.w3.org/1999/xlink" x="0px" y="0px"
	 viewBox="0 0 481.6 336.4" enable-background="new 0 0 481.6 336.4" xml:space="preserve">
<g id="XMLID_671_">
	<polygon id="XMLID_670_" fill-rule="evenodd" clip-rule="evenodd" fill="#006BAB" points="413.3,2.7 423.5,15.2 444,0 442,21.9 
		460.3,19.6 455.6,34.1 481.6,36 461.9,49.8 476.2,59.3 459.8,66.2 477.7,84.6 449.6,80.5 450.5,95.5 433.2,90.2 427.9,116.9 
		413.3,93.6 400.1,104.1 393.4,90.2 367.9,104.7 377,80.5 358.5,79.6 366.8,66.2 342.6,59 364.7,49.8 353.1,38.1 371,34.1 
		366.3,19.6 388.8,27.2 387.6,7.1 403.1,15.2 	"/>
	
		<rect id="XMLID_1971_" x="79.6" y="122.8" transform="matrix(0.9307 -0.3658 0.3658 0.9307 -53.5396 112.2968)" fill="#131C28" width="379.9" height="149.3"/>
	<g id="XMLID_1306_">
		<g id="XMLID_1395_">
			<rect id="XMLID_1401_" y="25.6" fill="#FFFFFF" width="303.1" height="148.8"/>
		</g>
		<g id="XMLID_1394_">
			<rect id="XMLID_1400_" y="25.6" fill="#131C28" width="304.6" height="25.6"/>
		</g>
		<g id="XMLID_1393_">
			<path id="XMLID_1397_" fill="#E66824" d="M235.1,95.6c-24.5,0-44.4-19.9-44.4-44.4s19.9-44.4,44.4-44.4s44.4,19.9,44.4,44.4
				S259.5,95.6,235.1,95.6z M235.1,25.1c-14.4,0-26.2,11.7-26.2,26.2s11.7,26.2,26.2,26.2s26.2-11.7,26.2-26.2
				S249.5,25.1,235.1,25.1z"/>
		</g>
		<g id="XMLID_1355_">
			<rect id="XMLID_1396_" x="34" y="82.9" fill="#006BAB" width="86.5" height="57.6"/>
		</g>
		<g id="XMLID_1307_">
			<path id="XMLID_1974_" fill="#E66824" d="M386,173.3l-35.9-37.5h-23.5c-2.2,0-4.4,1-6.2,2.7l-29.1,19.3
				c-10.4,6.5-22.9,7.3-34.5,0l-29-19.2c-1.7-1.8-3.9-2.7-6.2-2.7h-23.5l-35.9,37.5c-0.8,0.7-0.6,2.2,0.3,2.7l40.4,24.9v61.3
				c0,4.8,3.2,8.7,7.1,8.7h64.1h64.2c3.9,0,7.1-3.9,7.1-8.7v-61.3l40.4-24.9C386.7,175.5,386.8,174,386,173.3z M235.6,235.4v-38h0.6
				l43,38H235.6z M312.8,235.4h-0.6l-43-38h43.7V235.4z"/>
		</g>
	</g>
</g>
</svg>
