<?xml version="1.0" encoding="utf-8"?>
<!-- Generator: Adobe Illustrator 19.0.0, SVG Export Plug-In . SVG Version: 6.00 Build 0)  -->
<svg version="1.1" id="Layer_1" xmlns="http://www.w3.org/2000/svg" xmlns:xlink="http://www.w3.org/1999/xlink" x="0px" y="0px"
	 viewBox="0 0 487.1 419" enable-background="new 0 0 487.1 419" xml:space="preserve">
<g id="XMLID_1037_">
	<g id="XMLID_2676_">
		<g id="XMLID_2708_">
			<path id="XMLID_20_" fill="#DCE0E2" d="M58.1,96.6c-2.8,0-5.2-1.7-5.8-4.2c-3.7-14-13-31.8-36.6-37c-3.5-0.8-4.7-3.1-4.7-5
				c0-1.9,1.2-4.2,4.6-5c23.6-5.2,33-23.1,36.7-37.1C53,5.7,55.3,4,58.1,4c2.8,0,5.1,1.7,5.8,4.2c3.9,14.2,13.5,32.1,37.1,37.2
				c3.5,0.8,4.7,3.1,4.7,5c0,1.9-1.2,4.2-4.6,5.1c-21.4,5.3-33.5,23.2-37.3,37C63.3,94.9,60.9,96.6,58.1,96.6
				C58.1,96.6,58.1,96.6,58.1,96.6z"/>
			<path id="XMLID_16_" fill="#FFFFFF" d="M58.1,8c0.9,0,1.7,0.4,1.9,1.2c3.6,13.1,13.5,34.3,40.1,40.1c2.1,0.5,2.1,1.7,0.1,2.2
				c-24.7,6.1-36.6,26.9-40.2,39.8c-0.2,0.8-1.1,1.2-1.9,1.2c-0.9,0-1.7-0.4-1.9-1.2c-3.4-13-13-34-39.6-39.9
				c-2-0.5-2.1-1.8-0.1-2.2c26.6-5.9,36.2-26.9,39.7-40C56.4,8.4,57.3,8,58.1,8 M58.1,0c-4.7,0-8.5,2.9-9.7,7.2
				c-3.4,13-12,29.4-33.7,34.2C9.4,42.6,7,46.7,7,50.3c0,3.6,2.4,7.7,7.8,8.9c21.6,4.8,30.2,21.2,33.6,34.1c1.1,4.2,5.1,7.2,9.7,7.2
				c4.6,0,8.5-2.9,9.7-7.1c3.5-12.7,14.6-29.3,34.4-34.2c5.7-1.4,7.7-5.7,7.6-9c0-3.3-2.1-7.6-7.9-8.8C80.2,36.8,71.4,20.2,67.8,7.1
				C66.6,2.9,62.7,0,58.1,0L58.1,0z"/>
		</g>
	</g>
	<path id="XMLID_3_" fill-rule="evenodd" clip-rule="evenodd" fill="#006BAB" d="M380.7,88.4c6.7,5.4,18.9,3.8,19.7-10.5
		c1.8-32.8,29-5.2,24.2-30c-3.9-19.9,17-8.4,8-32.9c-1.4-3.7-12.3-17.7-19-7.4c-2.4,3.7,21.3,14,5.4,23.8c-9.8,6,10.8,22.1-7.4,22.6
		c-19.9,0.6-7.7,30-26.2,27.7c-18.6-2.3-14.9,27-8.9,19c1.6-2.1-2.1-2.9,3.8-11.2L380.7,88.4z"/>
	
		<rect id="XMLID_1036_" x="224.9" y="224.3" transform="matrix(0.7263 -0.6874 0.6874 0.7263 -100.568 320.3659)" fill="#DCE0E2" width="254.2" height="124.4"/>
	<g id="XMLID_12_">
		<g id="XMLID_1976_">
			<path id="XMLID_1977_" fill="#131C28" d="M338.3,349.6l-221.9,19c-5.3,0.5-10-3.5-10.4-8.8L82.2,83.5c-0.5-5.3,3.5-10,8.8-10.4
				l221.9-19c5.3-0.5,10,3.5,10.4,8.8l23.7,276.3C347.5,344.5,343.6,349.1,338.3,349.6z"/>
		</g>
		<g id="XMLID_17_">
			<defs>
				<path id="XMLID_34_" d="M338.3,349.6l-221.9,19c-5.3,0.5-10-3.5-10.4-8.8L82.2,83.5c-0.5-5.3,3.5-10,8.8-10.4l221.9-19
					c5.3-0.5,10,3.5,10.4,8.8l23.7,276.3C347.5,344.5,343.6,349.1,338.3,349.6z"/>
			</defs>
			<clipPath id="XMLID_51_">
				<use xlink:href="#XMLID_34_"  overflow="visible"/>
			</clipPath>
			<g id="XMLID_104_" clip-path="url(#XMLID_51_)">
				<g id="XMLID_385_">
					<g id="XMLID_1973_">
						<polygon id="XMLID_1975_" fill="#E66824" points="313.4,118.4 217.4,128.3 199.1,158.1 310.5,149.1 						"/>
					</g>
					<g id="XMLID_1035_">
						<polygon id="XMLID_1972_" fill="#FFFFFF" points="202.1,129.9 121.3,138.2 90.4,166.7 181.6,159.5 						"/>
					</g>
					<g id="XMLID_1032_">
						<polygon id="XMLID_1033_" fill="#006BAB" points="174.9,169.2 80.4,176 34.8,218.1 143.6,214.4 						"/>
					</g>
					<g id="XMLID_1026_">
						<polygon id="XMLID_1027_" fill="#FFFFFF" points="309.6,159.5 193.1,167.9 165,213.7 305.1,208.9 						"/>
					</g>
					<g id="XMLID_1024_">
						<polygon id="XMLID_1025_" fill="#E66824" points="303.6,225.4 155.8,228.6 107.6,307.3 295.2,316.5 						"/>
					</g>
					<g id="XMLID_396_">
						<polygon id="XMLID_1022_" fill="#FFFFFF" points="133.5,229.1 20.3,231.5 -53.1,299.3 80.3,305.9 						"/>
					</g>
				</g>
				<circle id="XMLID_312_" fill="#FFFFFF" cx="132.7" cy="101.2" r="12.3"/>
				
					<rect id="XMLID_230_" x="162.9" y="83.4" transform="matrix(0.9965 -8.323857e-002 8.323857e-002 0.9965 -6.6301 16.9042)" fill="#FFFFFF" width="73.1" height="9.2"/>
				
					<rect id="XMLID_129_" x="164.2" y="99.5" transform="matrix(0.9965 -8.323857e-002 8.323857e-002 0.9965 -7.9674 17.0722)" fill="#FFFFFF" width="73.1" height="9.2"/>
			</g>
		</g>
	</g>
	<path id="XMLID_11_" fill-rule="evenodd" clip-rule="evenodd" fill="#006BAB" d="M294.7,120.5c7.3-23,20.7-25.2,32-42.2
		c4.9-7.4,48.7-47,48.1-49.5c-1.3-5.3-14.7,11.1-17.5,13.1c-3.1,2.2-19.1,21.8-20.9,20.2c-6.5-5.8,10.4-18.7,14.4-24.7
		c2.9-4.4,22.3-24.7,28.1-22.5c15.5,5.8,11.6-12.2,27.5,2.4c8,7.4-9.9,28.4-14.6,34.8c-8.9,12.2-22.8,26.5-33.6,39
		c-8.3,9.6-42.6,39.4-56.4,37.6c-4.8-0.6-14.5,15.7-16,3.6C285.4,129.3,294.1,122.3,294.7,120.5"/>
</g>
</svg>
